<?xml version="1.0" encoding="UTF-8"?>
<svg width="553px" height="23px" viewBox="0 0 553 23" version="1.1" xmlns="http://www.w3.org/2000/svg" xmlns:xlink="http://www.w3.org/1999/xlink">
    <title>tagline</title>
    <g id="Symbols" stroke="none" stroke-width="1" fill="none" fill-rule="evenodd">
        <g id="Footer" transform="translate(-1110.000000, -537.000000)" fill="#2C3C7E" fill-rule="nonzero">
            <g id="tagline" transform="translate(1110.000000, 537.000000)">
                <path d="M4.86,19.02 L4.68,18.68 C4.57333333,18.48 4.48666667,18.2833333 4.42,18.09 C4.35333333,17.8966667 4.30333333,17.62 4.27,17.26 C4.23666667,16.9 4.21333333,16.4066667 4.2,15.78 C4.18962963,15.2925926 4.18329218,14.6680658 4.18098765,13.9064198 L4.18,13.22 C4.28666667,13.2333333 4.41333333,13.2466667 4.56,13.26 C4.68,13.2733333 4.82333333,13.2833333 4.99,13.29 C5.15666667,13.2966667 5.33333333,13.3 5.52,13.3 C6.05333333,13.3 6.62333333,13.25 7.23,13.15 C7.83666667,13.05 8.39333333,12.8433333 8.9,12.53 C9.40666667,12.2166667 9.82666667,11.77 10.16,11.19 C10.4933333,10.61 10.66,9.84666667 10.66,8.9 C10.66,8.23333333 10.57,7.66666667 10.39,7.2 C10.21,6.73333333 9.97333333,6.34666667 9.68,6.04 C9.38666667,5.73333333 9.05,5.49333333 8.67,5.32 C8.29,5.14666667 7.9,5.01666667 7.5,4.93 C7.1,4.84333333 6.70333333,4.79 6.31,4.77 C5.91666667,4.75 5.56666667,4.74 5.26,4.74 C4.96666667,4.74 4.60333333,4.74666667 4.17,4.76 C3.73666667,4.77333333 3.30666667,4.78 2.88,4.78 L2.88,4.78 L2.31,4.78 C2.14333333,4.78 2,4.77333333 1.88,4.76 C1.73333333,4.76 1.61333333,4.75333333 1.52,4.74 L1.52,4.74 L1.7,5.08 C1.80666667,5.28 1.89333333,5.47 1.96,5.65 C2.02666667,5.83 2.07666667,6.13 2.11,6.55 C2.14333333,6.97 2.16666667,7.58333333 2.18,8.39 C2.19333333,9.19666667 2.2,10.3266667 2.2,11.78 C2.2,12.78 2.19666667,13.6266667 2.19,14.32 C2.18333333,15.0133333 2.17333333,15.5966667 2.16,16.07 C2.14666667,16.5433333 2.12666667,16.92 2.1,17.2 C2.07333333,17.48 2.04333333,17.71 2.01,17.89 C1.97666667,18.07 1.93333333,18.2166667 1.88,18.33 C1.82666667,18.4433333 1.76666667,18.56 1.7,18.68 L1.7,18.68 L1.52,19.02 C1.62666667,19.02 1.76,19.0133333 1.92,19 C2.06666667,19 2.24,18.9966667 2.44,18.99 C2.64,18.9833333 2.89333333,18.98 3.2,18.98 L3.4125,18.980625 C3.6175,18.981875 3.8,18.985 3.96,18.99 C4.17333333,18.9966667 4.34666667,19 4.48,19 C4.62666667,19.0133333 4.75333333,19.02 4.86,19.02 L4.86,19.02 Z M5.38,12.1 L4.81,12.1 C4.65666667,12.1 4.53333333,12.0933333 4.44,12.08 C4.33333333,12.0666667 4.24666667,12.0533333 4.18,12.04 L4.18,12.04 L4.18,5.98 C4.27333333,5.98 4.37333333,5.97333333 4.48,5.96 C4.57333333,5.96 4.68333333,5.95666667 4.81,5.95 C4.93666667,5.94333333 5.08,5.94 5.24,5.94 C5.58666667,5.94 5.95333333,5.97 6.34,6.03 C6.72666667,6.09 7.08,6.22333333 7.4,6.43 C7.72,6.63666667 7.98333333,6.93333333 8.19,7.32 C8.39666667,7.70666667 8.5,8.22666667 8.5,8.88 C8.5,9.17333333 8.47666667,9.50666667 8.43,9.88 C8.38333333,10.2533333 8.26,10.6033333 8.06,10.93 C7.86,11.2566667 7.55,11.5333333 7.13,11.76 C6.71,11.9866667 6.12666667,12.1 5.38,12.1 L5.38,12.1 Z M34.44,19.24 C35.44,19.24 36.2933333,19.0933333 37,18.8 C37.7066667,18.5066667 38.2966667,18.1233333 38.77,17.65 C39.2433333,17.1766667 39.6133333,16.6533333 39.88,16.08 C40.1466667,15.5066667 40.35,14.9366667 40.49,14.37 C40.63,13.8033333 40.7166667,13.2766667 40.75,12.79 C40.7833333,12.3033333 40.8,11.9133333 40.8,11.62 C40.8,10.5666667 40.66,9.61 40.38,8.75 C40.1,7.89 39.6933333,7.15333333 39.16,6.54 C38.6266667,5.92666667 37.9633333,5.45 37.17,5.11 C36.3766667,4.77 35.4733333,4.6 34.46,4.6 C33.46,4.6 32.6066667,4.74666667 31.9,5.04 C31.1933333,5.33333333 30.6033333,5.71666667 30.13,6.19 C29.6566667,6.66333333 29.2833333,7.18666667 29.01,7.76 C28.7366667,8.33333333 28.5333333,8.90333333 28.4,9.47 C28.2666667,10.0366667 28.1833333,10.5633333 28.15,11.05 C28.1166667,11.5366667 28.1,11.9266667 28.1,12.22 C28.1,13.2733333 28.24,14.23 28.52,15.09 C28.8,15.95 29.2066667,16.6866667 29.74,17.3 C30.2733333,17.9133333 30.9333333,18.39 31.72,18.73 C32.5066667,19.07 33.4133333,19.24 34.44,19.24 Z M34.46,17.9 C33.9,17.9 33.37,17.8033333 32.87,17.61 C32.37,17.4166667 31.93,17.09 31.55,16.63 C31.17,16.17 30.8666667,15.5633333 30.64,14.81 C30.4133333,14.0566667 30.3,13.12 30.3,12 C30.3,10.8533333 30.4166667,9.89333333 30.65,9.12 C30.8833333,8.34666667 31.19,7.72333333 31.57,7.25 C31.95,6.77666667 32.39,6.44 32.89,6.24 C33.39,6.04 33.9066667,5.94 34.44,5.94 C35,5.94 35.53,6.03666667 36.03,6.23 C36.53,6.42333333 36.97,6.75 37.35,7.21 C37.73,7.67 38.0333333,8.27666667 38.26,9.03 C38.4866667,9.78333333 38.6,10.72 38.6,11.84 C38.6,12.9866667 38.4866667,13.9466667 38.26,14.72 C38.0333333,15.4933333 37.7266667,16.1166667 37.34,16.59 C36.9533333,17.0633333 36.51,17.4 36.01,17.6 C35.51,17.8 34.9933333,17.9 34.46,17.9 Z M70.34,19.02 C70.1933333,18.94 70.0333333,18.8333333 69.86,18.7 C69.6866667,18.5666667 69.4766667,18.37 69.23,18.11 C68.9833333,17.85 68.68,17.5133333 68.32,17.1 C67.96,16.6866667 67.5333333,16.1666667 67.04,15.54 L67.04,15.54 L63.7,11.36 L67.04,7.92 C68.0266667,6.89333333 68.7733333,6.14333333 69.28,5.67 C69.7866667,5.19666667 70.1533333,4.88666667 70.38,4.74 C70.22,4.75333333 70.0333333,4.76 69.82,4.76 C69.6333333,4.77333333 69.4033333,4.78 69.13,4.78 L69.13,4.78 L67.35,4.78 C67.1166667,4.78 66.92,4.77333333 66.76,4.76 C66.5733333,4.76 66.4066667,4.75333333 66.26,4.74 C66.54,4.92666667 66.68,5.18 66.68,5.5 C66.68,5.64666667 66.6533333,5.78666667 66.6,5.92 C66.5466667,6.05333333 66.4566667,6.21 66.33,6.39 C66.2033333,6.57 66.0333333,6.78333333 65.82,7.03 C65.6066667,7.27666667 65.34,7.58 65.02,7.94 L65.02,7.94 L61.7,11.66 L61.7,11.66 L61.7008163,10.8934694 C61.7021769,10.282585 61.7052381,9.74142857 61.71,9.27 C61.7166667,8.61 61.7266667,8.05666667 61.74,7.61 C61.7533333,7.16333333 61.7733333,6.80333333 61.8,6.53 C61.8266667,6.25666667 61.86,6.03333333 61.9,5.86 C61.94,5.68666667 61.9833333,5.54333333 62.03,5.43 C62.0766667,5.31666667 62.1333333,5.2 62.2,5.08 L62.2,5.08 L62.38,4.74 C62.2733333,4.75333333 62.1466667,4.76 62,4.76 C61.8666667,4.77333333 61.6966667,4.78 61.49,4.78 L61.49,4.78 L59.95,4.78 C59.7433333,4.78 59.5733333,4.77333333 59.44,4.76 C59.2933333,4.76 59.1666667,4.75333333 59.06,4.74 L59.06,4.74 L59.24,5.08 C59.3466667,5.28 59.4333333,5.47 59.5,5.65 C59.5666667,5.83 59.6166667,6.13 59.65,6.55 C59.6833333,6.97 59.7066667,7.58333333 59.72,8.39 C59.7333333,9.19666667 59.74,10.3266667 59.74,11.78 C59.74,12.78 59.7366667,13.6266667 59.73,14.32 C59.7233333,15.0133333 59.7133333,15.5966667 59.7,16.07 C59.6866667,16.5433333 59.6666667,16.92 59.64,17.2 C59.6133333,17.48 59.5833333,17.71 59.55,17.89 C59.5166667,18.07 59.4733333,18.2166667 59.42,18.33 C59.3666667,18.4433333 59.3066667,18.56 59.24,18.68 L59.24,18.68 L59.06,19.02 C59.1666667,19.02 59.3,19.0133333 59.46,19 C59.6066667,19 59.78,18.9966667 59.98,18.99 C60.18,18.9833333 60.4333333,18.98 60.74,18.98 L60.951875,18.980625 C61.155625,18.981875 61.335,18.985 61.49,18.99 C61.6966667,18.9966667 61.8666667,19 62,19 C62.1466667,19.0133333 62.2733333,19.02 62.38,19.02 L62.38,19.02 L62.2,18.68 C62.0933333,18.48 62.0066667,18.2833333 61.94,18.09 C61.8733333,17.8966667 61.8233333,17.58 61.79,17.14 C61.7566667,16.7 61.7333333,16.07 61.72,15.25 C61.7090909,14.5790909 61.7026446,13.7006612 61.7006612,12.6147107 L61.7,11.86 L67.12,19 L68.56,19 C68.8533333,19 69.1133333,19.0033333 69.34,19.01 C69.5666667,19.0166667 69.7533333,19.02 69.9,19.02 L70.34,19.02 Z M97,19.08 C97.24,19.08 97.4366667,19.0733333 97.59,19.06 C97.7433333,19.0466667 97.8733333,19.0266667 97.98,19 C98.0866667,18.9733333 98.1733333,18.9466667 98.24,18.92 C97.8266667,18.7333333 97.47,18.44 97.17,18.04 C96.87,17.64 96.5466667,17.1466667 96.2,16.56 L96.2,16.56 L95.24,14.98 C94.9733333,14.5533333 94.73,14.1733333 94.51,13.84 C94.29,13.5066667 94.0566667,13.2233333 93.81,12.99 C93.5633333,12.7566667 93.2866667,12.5666667 92.98,12.42 C92.6733333,12.2733333 92.3066667,12.1733333 91.88,12.12 C92.76,12.1333333 93.4833333,12.02 94.05,11.78 C94.6166667,11.54 95.0666667,11.2333333 95.4,10.86 C95.7333333,10.4866667 95.9633333,10.0733333 96.09,9.62 C96.2166667,9.16666667 96.28,8.74 96.28,8.34 C96.28,7.48666667 96.11,6.82 95.77,6.34 C95.43,5.86 95,5.5 94.48,5.26 C93.96,5.02 93.3833333,4.87333333 92.75,4.82 C92.1166667,4.76666667 91.5133333,4.74 90.94,4.74 C90.58,4.74 90.18,4.74666667 89.74,4.76 C89.3,4.77333333 88.9333333,4.78 88.64,4.78 L88.07,4.78 C87.9033333,4.78 87.76,4.77333333 87.64,4.76 C87.4933333,4.76 87.36,4.75333333 87.24,4.74 L87.24,4.74 L87.42,5.08 C87.5266667,5.28 87.6133333,5.47 87.68,5.65 C87.7466667,5.83 87.7966667,6.13 87.83,6.55 C87.8633333,6.97 87.8866667,7.58333333 87.9,8.39 C87.9133333,9.19666667 87.92,10.3266667 87.92,11.78 C87.92,12.78 87.9166667,13.6266667 87.91,14.32 C87.9033333,15.0133333 87.8933333,15.5966667 87.88,16.07 C87.8666667,16.5433333 87.8466667,16.92 87.82,17.2 C87.7933333,17.48 87.76,17.71 87.72,17.89 C87.68,18.07 87.6366667,18.2166667 87.59,18.33 C87.5433333,18.4433333 87.4866667,18.56 87.42,18.68 L87.42,18.68 L87.24,19.02 C87.3466667,19.02 87.48,19.0133333 87.64,19 C87.7733333,19 87.9433333,18.9966667 88.15,18.99 C88.3566667,18.9833333 88.6066667,18.98 88.9,18.98 L89.111875,18.980625 C89.315625,18.981875 89.495,18.985 89.65,18.99 C89.8566667,18.9966667 90.0266667,19 90.16,19 C90.3066667,19.0133333 90.4333333,19.02 90.54,19.02 L90.54,19.02 L90.36,18.68 C90.2533333,18.48 90.1666667,18.2833333 90.1,18.09 C90.0333333,17.8966667 89.9833333,17.5966667 89.95,17.19 C89.9166667,16.7833333 89.8933333,16.2133333 89.88,15.48 C89.8693333,14.8933333 89.8629333,14.136 89.8608,13.208 L89.86,12.48 L89.96,12.48 C89.9866667,12.48 90.02,12.4766667 90.06,12.47 C90.1,12.4633333 90.1466667,12.46 90.2,12.46 C90.4666667,12.46 90.6933333,12.49 90.88,12.55 C91.0666667,12.61 91.2433333,12.7266667 91.41,12.9 C91.5766667,13.0733333 91.7633333,13.31 91.97,13.61 C92.1766667,13.91 92.4333333,14.3 92.74,14.78 L92.74,14.78 L94.18,17 C94.42,17.36 94.6366667,17.6733333 94.83,17.94 C95.0233333,18.2066667 95.2233333,18.4233333 95.43,18.59 C95.6366667,18.7566667 95.8633333,18.88 96.11,18.96 C96.3566667,19.04 96.6533333,19.08 97,19.08 Z M91.1,11.2992 L90.53,11.3 C90.39,11.3 90.2666667,11.2933333 90.16,11.28 C90.04,11.28 89.94,11.2733333 89.86,11.26 L89.86,11.26 L89.86,5.98 C89.9533333,5.98 90.0533333,5.97333333 90.16,5.96 C90.2533333,5.96 90.3566667,5.95666667 90.47,5.95 C90.5833333,5.94333333 90.7133333,5.94 90.86,5.94 C91.3133333,5.94 91.74,5.96666667 92.14,6.02 C92.54,6.07333333 92.8866667,6.19 93.18,6.37 C93.4733333,6.55 93.7033333,6.81333333 93.87,7.16 C94.0366667,7.50666667 94.12,7.97333333 94.12,8.56 C94.12,9.38666667 93.9333333,10.0166667 93.56,10.45 C93.1866667,10.8833333 92.74,11.14 92.22,11.22 C92.0466667,11.2466667 91.8333333,11.2666667 91.58,11.28 C91.3266667,11.2933333 91.14,11.3 91.02,11.3 L91.1,11.2992 Z M115.4975,19.019375 C115.6025,19.018125 115.73,19.015 115.88,19.01 C116.08,19.0033333 116.313333,19 116.58,19 L116.58,19 L123.44,19 L123.48,18.4 C123.506667,18 123.533333,17.65 123.56,17.35 C123.586667,17.05 123.613333,16.8066667 123.64,16.62 C123.666667,16.3933333 123.686667,16.2066667 123.7,16.06 C123.513333,16.3266667 123.34,16.5633333 123.18,16.77 C123.02,16.9766667 122.82,17.15 122.58,17.29 C122.34,17.43 122.03,17.5366667 121.65,17.61 C121.27,17.6833333 120.773333,17.72 120.16,17.72 L120.16,17.72 L117.72,17.72 L117.72,12.5 L119.88,12.5 C120.346667,12.5 120.77,12.5266667 121.15,12.58 C121.53,12.6333333 121.84,12.7333333 122.08,12.88 C122.36,13.0533333 122.546667,13.1833333 122.64,13.27 C122.733333,13.3566667 122.786667,13.4066667 122.8,13.42 C122.8,13.3933333 122.79,13.2466667 122.77,12.98 C122.75,12.7133333 122.74,12.3466667 122.74,11.88 L122.740833,11.6486111 C122.743611,11.2773148 122.753333,10.9777778 122.77,10.75 C122.781429,10.5938095 122.789592,10.480068 122.79449,10.4087755 L122.799388,10.3336735 L122.799388,10.3336735 L122.8,10.32 C122.773333,10.3466667 122.713333,10.4033333 122.62,10.49 C122.526667,10.5766667 122.346667,10.6933333 122.08,10.84 C121.84,10.9866667 121.53,11.0866667 121.15,11.14 C120.77,11.1933333 120.346667,11.22 119.88,11.22 L119.88,11.22 L117.72,11.22 L117.72,6.04 L120.36,6.04 C121.32,6.04 122.053333,6.18666667 122.56,6.48 C122.84,6.65333333 123.026667,6.78333333 123.12,6.87 C123.213333,6.95666667 123.266667,7.00666667 123.28,7.02 C123.28,6.99333333 123.27,6.88333333 123.25,6.69 C123.23,6.49666667 123.22,6.2 123.22,5.8 L123.22,5.02 C123.22,4.92666667 123.226667,4.84 123.24,4.76 L123.24,4.76 L115.4,4.76 C115.253333,4.76 115.133333,4.75333333 115.04,4.74 L115.04,4.74 L115.22,5.08 C115.326667,5.28 115.413333,5.47 115.48,5.65 C115.546667,5.83 115.596667,6.13 115.63,6.55 C115.663333,6.97 115.686667,7.58333333 115.7,8.39 C115.713333,9.19666667 115.72,10.3266667 115.72,11.78 C115.72,12.78 115.716667,13.6266667 115.71,14.32 C115.703333,15.0133333 115.693333,15.5933333 115.68,16.06 C115.666667,16.5266667 115.646667,16.9033333 115.62,17.19 C115.593333,17.4766667 115.563333,17.71 115.53,17.89 C115.496667,18.07 115.453333,18.2166667 115.4,18.33 C115.346667,18.4433333 115.286667,18.56 115.22,18.68 L115.22,18.68 L115.04,19.02 L115.4975,19.019375 Z M153.16,19.04 L153.18,11.98 L153.18,11.98 L153.180625,11.25875 C153.181875,10.56625 153.185,9.96 153.19,9.44 C153.196667,8.74666667 153.206667,8.16333333 153.22,7.69 C153.233333,7.21666667 153.253333,6.83666667 153.28,6.55 C153.306667,6.26333333 153.336667,6.03 153.37,5.85 C153.403333,5.67 153.443333,5.52666667 153.49,5.42 C153.536667,5.31333333 153.593333,5.2 153.66,5.08 L153.66,5.08 L153.84,4.74 C153.76,4.75333333 153.646667,4.76 153.5,4.76 C153.38,4.77333333 153.23,4.78 153.05,4.78 L153.05,4.78 L151.76,4.78 C151.586667,4.78 151.44,4.77333333 151.32,4.76 C151.173333,4.76 151.053333,4.75333333 150.96,4.74 L150.96,4.74 L151.14,5.08 C151.246667,5.28 151.333333,5.47 151.4,5.65 C151.466667,5.83 151.516667,6.13 151.55,6.55 C151.583333,6.97 151.606667,7.58333333 151.62,8.39 C151.633333,9.19666667 151.64,10.3266667 151.64,11.78 L151.64,11.78 L151.64,17.34 C151.613333,17.22 151.573333,17.0866667 151.52,16.94 C151.426667,16.6866667 151.273333,16.3466667 151.06,15.92 L151.06,15.92 L145.18,4.74 C145.073333,4.75333333 144.946667,4.76 144.8,4.76 C144.666667,4.77333333 144.506667,4.78 144.32,4.78 L144.32,4.78 L142.85,4.78 C142.63,4.78 142.453333,4.77333333 142.32,4.76 C142.173333,4.76 142.053333,4.75333333 141.96,4.74 L141.96,4.74 L142.14,5.08 C142.246667,5.28 142.333333,5.47 142.4,5.65 C142.466667,5.83 142.516667,6.13 142.55,6.55 C142.583333,6.97 142.606667,7.58333333 142.62,8.39 C142.633333,9.19666667 142.64,10.3266667 142.64,11.78 C142.64,12.78 142.636667,13.6266667 142.63,14.32 C142.623333,15.0133333 142.61,15.5966667 142.59,16.07 C142.57,16.5433333 142.546667,16.9233333 142.52,17.21 C142.493333,17.4966667 142.46,17.73 142.42,17.91 C142.38,18.09 142.336667,18.2333333 142.29,18.34 C142.243333,18.4466667 142.186667,18.56 142.12,18.68 L142.12,18.68 L141.94,19.02 C142.02,19.02 142.133333,19.0133333 142.28,19 C142.386667,19 142.53,18.9966667 142.71,18.99 C142.89,18.9833333 143.106667,18.98 143.36,18.98 C143.6,18.98 143.813333,18.9833333 144,18.99 C144.186667,18.9966667 144.34,19 144.46,19 C144.606667,19.0133333 144.733333,19.02 144.84,19.02 L144.84,19.02 L144.66,18.68 C144.553333,18.48 144.466667,18.29 144.4,18.11 C144.333333,17.93 144.283333,17.63 144.25,17.21 C144.216667,16.79 144.193333,16.1766667 144.18,15.37 C144.169091,14.71 144.162645,13.8335537 144.160661,12.7406612 L144.16,6.4 C144.173333,6.46666667 144.226667,6.64 144.32,6.92 C144.413333,7.2 144.533333,7.48666667 144.68,7.78 L144.68,7.78 L150.6,19.04 C150.693333,19.04 150.806667,19.0333333 150.94,19.02 C151.046667,19.0066667 151.183333,18.9966667 151.35,18.99 C151.516667,18.9833333 151.713333,18.98 151.94,18.98 C152.126667,18.98 152.296667,18.9833333 152.45,18.99 C152.603333,18.9966667 152.733333,19.0066667 152.84,19.02 L152.955556,19.0311111 C153.02963,19.037037 153.097778,19.04 153.16,19.04 L153.16,19.04 Z M175.68,19.02 L175.5,18.68 C175.393333,18.48 175.306667,18.29 175.24,18.11 C175.173333,17.93 175.123333,17.63 175.09,17.21 C175.056667,16.79 175.033333,16.1766667 175.02,15.37 C175.009091,14.71 175.002645,13.8335537 175.000661,12.7406612 L175.000625,11.25875 C175.001875,10.56625 175.005,9.96 175.01,9.44 C175.016667,8.74666667 175.026667,8.16666667 175.04,7.7 C175.053333,7.23333333 175.073333,6.85666667 175.1,6.57 C175.126667,6.28333333 175.156667,6.05 175.19,5.87 C175.223333,5.69 175.266667,5.54666667 175.32,5.44 C175.373333,5.33333333 175.433333,5.21333333 175.5,5.08 L175.5,5.08 L175.68,4.74 C175.56,4.75333333 175.426667,4.76 175.28,4.76 C175.133333,4.77333333 174.96,4.78 174.76,4.78 L174.76,4.78 L173.23,4.78 C173.023333,4.78 172.853333,4.77333333 172.72,4.76 C172.573333,4.76 172.446667,4.75333333 172.34,4.74 L172.34,4.74 L172.52,5.08 C172.626667,5.28 172.713333,5.47 172.78,5.65 C172.846667,5.83 172.896667,6.13 172.93,6.55 C172.963333,6.97 172.986667,7.58333333 173,8.39 C173.010909,9.05 173.017355,9.92644628 173.019339,11.0193388 L173.019375,12.50125 C173.018125,13.19375 173.015,13.8 173.01,14.32 C173.003333,15.0133333 172.993333,15.5933333 172.98,16.06 C172.966667,16.5266667 172.946667,16.9033333 172.92,17.19 C172.893333,17.4766667 172.863333,17.71 172.83,17.89 C172.796667,18.07 172.753333,18.2166667 172.7,18.33 C172.646667,18.4433333 172.586667,18.56 172.52,18.68 L172.52,18.68 L172.34,19.02 C172.446667,19.02 172.58,19.0133333 172.74,19 C172.886667,19 173.06,18.9966667 173.26,18.99 C173.46,18.9833333 173.713333,18.98 174.02,18.98 L174.2325,18.980625 C174.4375,18.981875 174.62,18.985 174.78,18.99 C174.993333,18.9966667 175.166667,19 175.3,19 C175.446667,19.0133333 175.573333,19.02 175.68,19.02 L175.68,19.02 Z M217.62,19.14 C218.326667,19.14 218.976667,19.0733333 219.57,18.94 C220.163333,18.8066667 220.673333,18.5933333 221.1,18.3 C221.526667,18.0066667 221.856667,17.6233333 222.09,17.15 C222.323333,16.6766667 222.44,16.0933333 222.44,15.4 C222.44,14.8133333 222.36,14.3166667 222.2,13.91 C222.04,13.5033333 221.823333,13.1433333 221.55,12.83 C221.276667,12.5166667 220.96,12.24 220.6,12 C220.24,11.76 219.866667,11.5133333 219.48,11.26 L219.48,11.26 L218.06,10.34 C217.78,10.1533333 217.523333,9.97666667 217.29,9.81 C217.056667,9.64333333 216.853333,9.47 216.68,9.29 C216.506667,9.11 216.373333,8.91 216.28,8.69 C216.186667,8.47 216.14,8.20666667 216.14,7.9 C216.14,7.43333333 216.236667,7.07 216.43,6.81 C216.623333,6.55 216.853333,6.35333333 217.12,6.22 C217.386667,6.08666667 217.663333,6.00666667 217.95,5.98 C218.236667,5.95333333 218.48,5.94 218.68,5.94 C219.08,5.94 219.433333,5.98333333 219.74,6.07 C220.046667,6.15666667 220.326667,6.28666667 220.58,6.46 C220.833333,6.63333333 221.066667,6.84 221.28,7.08 C221.493333,7.32 221.706667,7.59333333 221.92,7.9 C221.906667,7.78 221.9,7.64666667 221.9,7.5 C221.886667,7.38 221.88,7.23333333 221.88,7.06 L221.88,7.06 L221.88,5.94 C221.88,5.78 221.886667,5.64666667 221.9,5.54 C221.9,5.40666667 221.906667,5.29333333 221.92,5.2 C221.68,5.09333333 221.4,5 221.08,4.92 C220.813333,4.85333333 220.48,4.78666667 220.08,4.72 C219.68,4.65333333 219.226667,4.62 218.72,4.62 C217.906667,4.62 217.213333,4.71666667 216.64,4.91 C216.066667,5.10333333 215.6,5.36 215.24,5.68 C214.88,6 214.62,6.37333333 214.46,6.8 C214.3,7.22666667 214.22,7.67333333 214.22,8.14 C214.22,8.7 214.31,9.18 214.49,9.58 C214.67,9.98 214.9,10.3366667 215.18,10.65 C215.46,10.9633333 215.773333,11.24 216.12,11.48 C216.466667,11.72 216.813333,11.9466667 217.16,12.16 L217.16,12.16 L218.96,13.32 C219.173333,13.4666667 219.373333,13.6133333 219.56,13.76 C219.746667,13.9066667 219.91,14.0733333 220.05,14.26 C220.19,14.4466667 220.3,14.6566667 220.38,14.89 C220.46,15.1233333 220.5,15.3933333 220.5,15.7 C220.5,16.18 220.406667,16.56 220.22,16.84 C220.033333,17.12 219.793333,17.3333333 219.5,17.48 C219.206667,17.6266667 218.89,17.72 218.55,17.76 C218.21,17.8 217.893333,17.82 217.6,17.82 C217.16,17.82 216.77,17.77 216.43,17.67 C216.09,17.57 215.786667,17.43 215.52,17.25 C215.253333,17.07 215.01,16.8566667 214.79,16.61 C214.57,16.3633333 214.353333,16.0866667 214.14,15.78 C214.14,15.9133333 214.146667,16.06 214.16,16.22 C214.16,16.3666667 214.163333,16.53 214.17,16.71 C214.176667,16.89 214.18,17.0866667 214.18,17.3 C214.18,17.4866667 214.176667,17.6566667 214.17,17.81 C214.163333,17.9633333 214.16,18.0933333 214.16,18.2 C214.146667,18.3333333 214.14,18.44 214.14,18.52 C214.366667,18.64 214.653333,18.7466667 215,18.84 C215.293333,18.92 215.653333,18.99 216.08,19.05 C216.506667,19.11 217.02,19.14 217.62,19.14 Z M251.78,19.04 L251.8,11.98 C251.8,10.98 251.803333,10.1333333 251.81,9.44 C251.816667,8.74666667 251.826667,8.16333333 251.84,7.69 C251.853333,7.21666667 251.873333,6.83666667 251.9,6.55 C251.926667,6.26333333 251.956667,6.03 251.99,5.85 C252.023333,5.67 252.063333,5.52666667 252.11,5.42 C252.156667,5.31333333 252.213333,5.2 252.28,5.08 L252.28,5.08 L252.46,4.74 C252.38,4.75333333 252.266667,4.76 252.12,4.76 C252,4.77333333 251.85,4.78 251.67,4.78 L251.67,4.78 L250.38,4.78 C250.206667,4.78 250.06,4.77333333 249.94,4.76 C249.793333,4.76 249.673333,4.75333333 249.58,4.74 L249.58,4.74 L249.76,5.08 C249.866667,5.28 249.953333,5.47 250.02,5.65 C250.086667,5.83 250.136667,6.13 250.17,6.55 C250.203333,6.97 250.226667,7.58333333 250.24,8.39 C250.250909,9.05 250.257355,9.92644628 250.259339,11.0193388 L250.26,17.34 C250.233333,17.22 250.193333,17.0866667 250.14,16.94 C250.046667,16.6866667 249.893333,16.3466667 249.68,15.92 L249.68,15.92 L243.8,4.74 C243.693333,4.75333333 243.566667,4.76 243.42,4.76 C243.286667,4.77333333 243.126667,4.78 242.94,4.78 L242.94,4.78 L241.47,4.78 C241.25,4.78 241.073333,4.77333333 240.94,4.76 C240.793333,4.76 240.673333,4.75333333 240.58,4.74 L240.58,4.74 L240.76,5.08 C240.866667,5.28 240.953333,5.47 241.02,5.65 C241.086667,5.83 241.136667,6.13 241.17,6.55 C241.203333,6.97 241.226667,7.58333333 241.24,8.39 C241.250909,9.05 241.257355,9.92644628 241.259339,11.0193388 L241.259375,12.50125 C241.258125,13.19375 241.255,13.8 241.25,14.32 C241.243333,15.0133333 241.23,15.5966667 241.21,16.07 C241.19,16.5433333 241.166667,16.9233333 241.14,17.21 C241.113333,17.4966667 241.08,17.73 241.04,17.91 C241,18.09 240.956667,18.2333333 240.91,18.34 C240.863333,18.4466667 240.806667,18.56 240.74,18.68 L240.74,18.68 L240.56,19.02 C240.64,19.02 240.753333,19.0133333 240.9,19 C241.006667,19 241.15,18.9966667 241.33,18.99 C241.51,18.9833333 241.726667,18.98 241.98,18.98 C242.22,18.98 242.433333,18.9833333 242.62,18.99 C242.806667,18.9966667 242.96,19 243.08,19 C243.226667,19.0133333 243.353333,19.02 243.46,19.02 L243.46,19.02 L243.28,18.68 C243.173333,18.48 243.086667,18.29 243.02,18.11 C242.953333,17.93 242.903333,17.63 242.87,17.21 C242.836667,16.79 242.813333,16.1766667 242.8,15.37 C242.786667,14.5633333 242.78,13.4333333 242.78,11.98 L242.78,11.98 L242.78,6.4 C242.793333,6.46666667 242.846667,6.64 242.94,6.92 C243.033333,7.2 243.153333,7.48666667 243.3,7.78 L243.3,7.78 L249.22,19.04 C249.313333,19.04 249.426667,19.0333333 249.56,19.02 C249.666667,19.0066667 249.803333,18.9966667 249.97,18.99 C250.136667,18.9833333 250.333333,18.98 250.56,18.98 C250.746667,18.98 250.916667,18.9833333 251.07,18.99 C251.223333,18.9966667 251.353333,19.0066667 251.46,19.02 C251.58,19.0333333 251.686667,19.04 251.78,19.04 L251.78,19.04 Z M282.02,19.02 C281.833333,18.8466667 281.666667,18.63 281.52,18.37 C281.373333,18.11 281.23,17.7933333 281.09,17.42 C280.95,17.0466667 280.8,16.6033333 280.64,16.09 C280.48,15.5766667 280.3,14.9733333 280.1,14.28 L280.1,14.28 L277.66,5.94 C277.62,5.82 277.586667,5.7 277.56,5.58 C277.533333,5.46 277.52,5.33333333 277.52,5.2 C277.52,5.05333333 277.54,4.95 277.58,4.89 C277.62,4.83 277.64,4.79333333 277.64,4.78 L277.64,4.78 L273.86,4.78 C273.886667,4.80666667 273.916667,4.85 273.95,4.91 C273.983333,4.97 274,5.06666667 274,5.2 C274,5.33333333 273.983333,5.46 273.95,5.58 C273.916667,5.7 273.88,5.82 273.84,5.94 L273.84,5.94 L271.24,14.28 C271.013333,14.9733333 270.82,15.5766667 270.66,16.09 C270.5,16.6033333 270.346667,17.0466667 270.2,17.42 C270.053333,17.7933333 269.906667,18.11 269.76,18.37 C269.613333,18.63 269.446667,18.8466667 269.26,19.02 C269.38,19.02 269.52,19.0133333 269.68,19 C269.826667,19 270.003333,18.9966667 270.21,18.99 C270.416667,18.9833333 270.666667,18.98 270.96,18.98 C271.226667,18.98 271.47,18.9833333 271.69,18.99 C271.91,18.9966667 272.1,19 272.26,19 C272.433333,19.0133333 272.593333,19.02 272.74,19.02 C272.606667,18.9266667 272.463333,18.7866667 272.31,18.6 C272.156667,18.4133333 272.08,18.1333333 272.08,17.76 C272.08,17.4133333 272.156667,16.95 272.31,16.37 C272.463333,15.79 272.646667,15.14 272.86,14.42 L272.86,14.42 L273.22,13.16 L277.68,13.16 L278.04,14.42 C278.24,15.14 278.42,15.79 278.58,16.37 C278.74,16.95 278.82,17.4133333 278.82,17.76 C278.82,18.1333333 278.746667,18.4133333 278.6,18.6 C278.453333,18.7866667 278.313333,18.9266667 278.18,19.02 C278.34,19.02 278.52,19.0133333 278.72,19 C278.893333,19 279.093333,18.9966667 279.32,18.99 C279.546667,18.9833333 279.8,18.98 280.08,18.98 C280.386667,18.98 280.656667,18.9833333 280.89,18.99 C281.123333,18.9966667 281.326667,19 281.5,19 C281.7,19.0133333 281.873333,19.02 282.02,19.02 Z M277.32,11.84 L273.6,11.84 L275.04,6.96 C275.173333,6.53333333 275.273333,6.19333333 275.34,5.94 C275.406667,5.68666667 275.453333,5.52666667 275.48,5.46 C275.506667,5.55333333 275.556667,5.72666667 275.63,5.98 C275.703333,6.23333333 275.793333,6.56 275.9,6.96 L275.9,6.96 L277.32,11.84 Z M306.1,19.14 C306.7,19.14 307.226667,19.11 307.68,19.05 C308.133333,18.99 308.52,18.9266667 308.84,18.86 C309.213333,18.78 309.54,18.68 309.82,18.56 L309.82,18.56 L309.820988,17.694321 C309.823292,16.8669959 309.82963,16.1888889 309.84,15.66 C309.853333,14.98 309.88,14.4533333 309.92,14.08 C309.96,13.7066667 310.013333,13.43 310.08,13.25 C310.146667,13.07 310.226667,12.8933333 310.32,12.72 L310.32,12.72 L310.5,12.38 C310.38,12.3933333 310.246667,12.4 310.1,12.4 C309.953333,12.4133333 309.78,12.42 309.58,12.42 L309.58,12.42 L308.07,12.42 C307.863333,12.42 307.693333,12.4133333 307.56,12.4 C307.413333,12.4 307.286667,12.3933333 307.18,12.38 L307.18,12.38 L307.38,12.72 C307.473333,12.8933333 307.553333,13.0833333 307.62,13.29 C307.686667,13.4966667 307.74,13.7733333 307.78,14.12 C307.82,14.4666667 307.846667,14.9233333 307.86,15.49 C307.873333,16.0566667 307.88,16.7866667 307.88,17.68 C307.76,17.7066667 307.613333,17.7333333 307.44,17.76 C307.133333,17.8 306.693333,17.82 306.12,17.82 C305.08,17.82 304.226667,17.67 303.56,17.37 C302.893333,17.07 302.363333,16.6566667 301.97,16.13 C301.576667,15.6033333 301.303333,14.9866667 301.15,14.28 C300.996667,13.5733333 300.92,12.8066667 300.92,11.98 C300.92,10.6466667 301.1,9.58333333 301.46,8.79 C301.82,7.99666667 302.266667,7.39 302.8,6.97 C303.333333,6.55 303.91,6.27333333 304.53,6.14 C305.15,6.00666667 305.72,5.94 306.24,5.94 C306.733333,5.94 307.163333,5.98333333 307.53,6.07 C307.896667,6.15666667 308.22,6.28333333 308.5,6.45 C308.78,6.61666667 309.03,6.82 309.25,7.06 C309.47,7.3 309.693333,7.58 309.92,7.9 C309.906667,7.78 309.893333,7.64666667 309.88,7.5 C309.866667,7.38 309.86,7.23666667 309.86,7.07 L309.86,7.07 L309.86,5.94 C309.86,5.78 309.866667,5.64666667 309.88,5.54 C309.893333,5.40666667 309.906667,5.29333333 309.92,5.2 C309.693333,5.09333333 309.406667,5 309.06,4.92 C308.753333,4.85333333 308.37,4.78666667 307.91,4.72 C307.45,4.65333333 306.893333,4.62 306.24,4.62 C305.053333,4.62 303.996667,4.78333333 303.07,5.11 C302.143333,5.43666667 301.36,5.91666667 300.72,6.55 C300.08,7.18333333 299.593333,7.96333333 299.26,8.89 C298.926667,9.81666667 298.76,10.8733333 298.76,12.06 C298.76,12.4733333 298.79,12.9366667 298.85,13.45 C298.91,13.9633333 299.033333,14.48 299.22,15 C299.406667,15.52 299.666667,16.03 300,16.53 C300.333333,17.03 300.77,17.4733333 301.31,17.86 C301.85,18.2466667 302.513333,18.5566667 303.3,18.79 C304.086667,19.0233333 305.02,19.14 306.1,19.14 Z M334.54,19.2 C335.82,19.2 336.813333,19 337.52,18.6 C338.226667,18.2 338.766667,17.6733333 339.14,17.02 C339.3,16.7666667 339.423333,16.4933333 339.51,16.2 C339.596667,15.9066667 339.66,15.57 339.7,15.19 C339.74,14.81 339.766667,14.38 339.78,13.9 C339.793333,13.42 339.8,12.86 339.8,12.22 L339.8,12.22 L339.8008,10.2484 C339.802933,9.3428 339.809333,8.61 339.82,8.05 C339.833333,7.35 339.86,6.81 339.9,6.43 C339.94,6.05 339.993333,5.77333333 340.06,5.6 C340.126667,5.42666667 340.206667,5.25333333 340.3,5.08 L340.3,5.08 L340.48,4.74 C340.4,4.75333333 340.286667,4.76 340.14,4.76 C340.02,4.77333333 339.86,4.78 339.66,4.78 L339.66,4.78 L338.2,4.78 C338.013333,4.78 337.86,4.77333333 337.74,4.76 C337.593333,4.76 337.48,4.75333333 337.4,4.74 L337.4,4.74 L337.58,5.08 C337.686667,5.28 337.773333,5.47 337.84,5.65 C337.906667,5.83 337.956667,6.13 337.99,6.55 C338.023333,6.97 338.046667,7.58333333 338.06,8.39 C338.073333,9.19666667 338.08,10.3266667 338.08,11.78 L338.08,11.78 L338.08,13.88 C338.08,14.1733333 338.066667,14.47 338.04,14.77 C338.013333,15.07 337.973333,15.3333333 337.92,15.56 C337.546667,17.0933333 336.453333,17.86 334.64,17.86 C332.853333,17.86 331.766667,17.1066667 331.38,15.6 C331.326667,15.3733333 331.286667,15.0833333 331.26,14.73 C331.233333,14.3766667 331.22,14.0466667 331.22,13.74 L331.22,13.74 L331.2208,10.2484 C331.222933,9.3428 331.229333,8.61 331.24,8.05 C331.253333,7.35 331.28,6.81 331.32,6.43 C331.36,6.05 331.413333,5.77333333 331.48,5.6 C331.546667,5.42666667 331.626667,5.25333333 331.72,5.08 L331.72,5.08 L331.9,4.74 C331.793333,4.75333333 331.66,4.76 331.5,4.76 C331.353333,4.77333333 331.173333,4.78 330.96,4.78 L330.96,4.78 L329.45,4.78 C329.243333,4.78 329.066667,4.77333333 328.92,4.76 C328.76,4.76 328.626667,4.75333333 328.52,4.74 L328.52,4.74 L328.7,5.08 C328.806667,5.28 328.893333,5.47666667 328.96,5.67 C329.026667,5.86333333 329.076667,6.16666667 329.11,6.58 C329.143333,6.99333333 329.166667,7.58333333 329.18,8.35 C329.193333,9.11666667 329.2,10.1666667 329.2,11.5 L329.2,11.5 L329.2,13.06 C329.2,13.6866667 329.213333,14.2233333 329.24,14.67 C329.266667,15.1166667 329.313333,15.5066667 329.38,15.84 C329.446667,16.1733333 329.536667,16.4633333 329.65,16.71 C329.763333,16.9566667 329.906667,17.2 330.08,17.44 C330.546667,18.08 331.156667,18.5333333 331.91,18.8 C332.663333,19.0666667 333.54,19.2 334.54,19.2 Z M382.42,19.02 L382.24,18.68 C382.133333,18.48 382.046667,18.2833333 381.98,18.09 C381.913333,17.8966667 381.863333,17.62 381.83,17.26 C381.796667,16.9 381.773333,16.4066667 381.76,15.78 C381.74963,15.2925926 381.743292,14.6680658 381.740988,13.9064198 L381.74,13.22 C381.846667,13.2333333 381.973333,13.2466667 382.12,13.26 C382.24,13.2733333 382.383333,13.2833333 382.55,13.29 C382.716667,13.2966667 382.893333,13.3 383.08,13.3 C383.613333,13.3 384.183333,13.25 384.79,13.15 C385.396667,13.05 385.953333,12.8433333 386.46,12.53 C386.966667,12.2166667 387.386667,11.77 387.72,11.19 C388.053333,10.61 388.22,9.84666667 388.22,8.9 C388.22,8.23333333 388.13,7.66666667 387.95,7.2 C387.77,6.73333333 387.533333,6.34666667 387.24,6.04 C386.946667,5.73333333 386.61,5.49333333 386.23,5.32 C385.85,5.14666667 385.46,5.01666667 385.06,4.93 C384.66,4.84333333 384.263333,4.79 383.87,4.77 C383.476667,4.75 383.126667,4.74 382.82,4.74 C382.526667,4.74 382.163333,4.74666667 381.73,4.76 C381.296667,4.77333333 380.866667,4.78 380.44,4.78 L380.44,4.78 L379.87,4.78 C379.703333,4.78 379.56,4.77333333 379.44,4.76 C379.293333,4.76 379.173333,4.75333333 379.08,4.74 L379.08,4.74 L379.26,5.08 C379.366667,5.28 379.453333,5.47 379.52,5.65 C379.586667,5.83 379.636667,6.13 379.67,6.55 C379.703333,6.97 379.726667,7.58333333 379.74,8.39 C379.753333,9.19666667 379.76,10.3266667 379.76,11.78 C379.76,12.78 379.756667,13.6266667 379.75,14.32 C379.743333,15.0133333 379.733333,15.5966667 379.72,16.07 C379.706667,16.5433333 379.686667,16.92 379.66,17.2 C379.633333,17.48 379.603333,17.71 379.57,17.89 C379.536667,18.07 379.493333,18.2166667 379.44,18.33 C379.386667,18.4433333 379.326667,18.56 379.26,18.68 L379.26,18.68 L379.08,19.02 C379.186667,19.02 379.32,19.0133333 379.48,19 C379.626667,19 379.8,18.9966667 380,18.99 C380.2,18.9833333 380.453333,18.98 380.76,18.98 L380.9725,18.980625 C381.1775,18.981875 381.36,18.985 381.52,18.99 C381.733333,18.9966667 381.906667,19 382.04,19 C382.186667,19.0133333 382.313333,19.02 382.42,19.02 L382.42,19.02 Z M382.94,12.1 L382.37,12.1 C382.216667,12.1 382.093333,12.0933333 382,12.08 C381.893333,12.0666667 381.806667,12.0533333 381.74,12.04 L381.74,12.04 L381.74,5.98 C381.833333,5.98 381.933333,5.97333333 382.04,5.96 C382.133333,5.96 382.243333,5.95666667 382.37,5.95 C382.496667,5.94333333 382.64,5.94 382.8,5.94 C383.146667,5.94 383.513333,5.97 383.9,6.03 C384.286667,6.09 384.64,6.22333333 384.96,6.43 C385.28,6.63666667 385.543333,6.93333333 385.75,7.32 C385.956667,7.70666667 386.06,8.22666667 386.06,8.88 C386.06,9.17333333 386.036667,9.50666667 385.99,9.88 C385.943333,10.2533333 385.82,10.6033333 385.62,10.93 C385.42,11.2566667 385.11,11.5333333 384.69,11.76 C384.27,11.9866667 383.686667,12.1 382.94,12.1 L382.94,12.1 Z M415.8,19.08 C416.04,19.08 416.236667,19.0733333 416.39,19.06 C416.543333,19.0466667 416.673333,19.0266667 416.78,19 C416.886667,18.9733333 416.973333,18.9466667 417.04,18.92 C416.626667,18.7333333 416.27,18.44 415.97,18.04 C415.67,17.64 415.346667,17.1466667 415,16.56 L415,16.56 L414.04,14.98 C413.773333,14.5533333 413.53,14.1733333 413.31,13.84 C413.09,13.5066667 412.856667,13.2233333 412.61,12.99 C412.363333,12.7566667 412.086667,12.5666667 411.78,12.42 C411.473333,12.2733333 411.106667,12.1733333 410.68,12.12 C411.56,12.1333333 412.283333,12.02 412.85,11.78 C413.416667,11.54 413.866667,11.2333333 414.2,10.86 C414.533333,10.4866667 414.763333,10.0733333 414.89,9.62 C415.016667,9.16666667 415.08,8.74 415.08,8.34 C415.08,7.48666667 414.91,6.82 414.57,6.34 C414.23,5.86 413.8,5.5 413.28,5.26 C412.76,5.02 412.183333,4.87333333 411.55,4.82 C410.916667,4.76666667 410.313333,4.74 409.74,4.74 C409.38,4.74 408.98,4.74666667 408.54,4.76 C408.1,4.77333333 407.733333,4.78 407.44,4.78 L406.87,4.78 C406.703333,4.78 406.56,4.77333333 406.44,4.76 C406.293333,4.76 406.16,4.75333333 406.04,4.74 L406.04,4.74 L406.22,5.08 C406.326667,5.28 406.413333,5.47 406.48,5.65 C406.546667,5.83 406.596667,6.13 406.63,6.55 C406.663333,6.97 406.686667,7.58333333 406.7,8.39 C406.710909,9.05 406.717355,9.92644628 406.719339,11.0193388 L406.719375,12.50125 C406.718125,13.19375 406.715,13.8 406.71,14.32 C406.703333,15.0133333 406.693333,15.5966667 406.68,16.07 C406.666667,16.5433333 406.646667,16.92 406.62,17.2 C406.593333,17.48 406.56,17.71 406.52,17.89 C406.48,18.07 406.436667,18.2166667 406.39,18.33 C406.343333,18.4433333 406.286667,18.56 406.22,18.68 L406.22,18.68 L406.04,19.02 C406.146667,19.02 406.28,19.0133333 406.44,19 C406.573333,19 406.743333,18.9966667 406.95,18.99 C407.156667,18.9833333 407.406667,18.98 407.7,18.98 L407.911875,18.980625 C408.115625,18.981875 408.295,18.985 408.45,18.99 C408.656667,18.9966667 408.826667,19 408.96,19 C409.106667,19.0133333 409.233333,19.02 409.34,19.02 L409.34,19.02 L409.16,18.68 C409.053333,18.48 408.966667,18.2833333 408.9,18.09 C408.833333,17.8966667 408.783333,17.5966667 408.75,17.19 C408.716667,16.7833333 408.693333,16.2133333 408.68,15.48 C408.666667,14.7466667 408.66,13.7466667 408.66,12.48 L408.66,12.48 L408.76,12.48 C408.786667,12.48 408.82,12.4766667 408.86,12.47 C408.9,12.4633333 408.946667,12.46 409,12.46 C409.266667,12.46 409.493333,12.49 409.68,12.55 C409.866667,12.61 410.043333,12.7266667 410.21,12.9 C410.376667,13.0733333 410.563333,13.31 410.77,13.61 C410.976667,13.91 411.233333,14.3 411.54,14.78 L411.54,14.78 L412.98,17 C413.22,17.36 413.436667,17.6733333 413.63,17.94 C413.823333,18.2066667 414.023333,18.4233333 414.23,18.59 C414.436667,18.7566667 414.663333,18.88 414.91,18.96 C415.156667,19.04 415.453333,19.08 415.8,19.08 Z M409.9,11.2992 L409.33,11.3 C409.19,11.3 409.066667,11.2933333 408.96,11.28 C408.84,11.28 408.74,11.2733333 408.66,11.26 L408.66,11.26 L408.66,5.98 C408.753333,5.98 408.853333,5.97333333 408.96,5.96 C409.053333,5.96 409.156667,5.95666667 409.27,5.95 C409.383333,5.94333333 409.513333,5.94 409.66,5.94 C410.113333,5.94 410.54,5.96666667 410.94,6.02 C411.34,6.07333333 411.686667,6.19 411.98,6.37 C412.273333,6.55 412.503333,6.81333333 412.67,7.16 C412.836667,7.50666667 412.92,7.97333333 412.92,8.56 C412.92,9.38666667 412.733333,10.0166667 412.36,10.45 C411.986667,10.8833333 411.54,11.14 411.02,11.22 C410.846667,11.2466667 410.633333,11.2666667 410.38,11.28 C410.126667,11.2933333 409.94,11.3 409.82,11.3 L409.9,11.2992 Z M437.18,19.02 L437,18.68 C436.893333,18.48 436.806667,18.29 436.74,18.11 C436.673333,17.93 436.623333,17.63 436.59,17.21 C436.556667,16.79 436.533333,16.1766667 436.52,15.37 C436.509091,14.71 436.502645,13.8335537 436.500661,12.7406612 L436.500625,11.25875 C436.501875,10.56625 436.505,9.96 436.51,9.44 C436.516667,8.74666667 436.526667,8.16666667 436.54,7.7 C436.553333,7.23333333 436.573333,6.85666667 436.6,6.57 C436.626667,6.28333333 436.656667,6.05 436.69,5.87 C436.723333,5.69 436.766667,5.54666667 436.82,5.44 C436.873333,5.33333333 436.933333,5.21333333 437,5.08 L437,5.08 L437.18,4.74 C437.06,4.75333333 436.926667,4.76 436.78,4.76 C436.633333,4.77333333 436.46,4.78 436.26,4.78 L436.26,4.78 L434.73,4.78 C434.523333,4.78 434.353333,4.77333333 434.22,4.76 C434.073333,4.76 433.946667,4.75333333 433.84,4.74 L433.84,4.74 L434.02,5.08 C434.126667,5.28 434.213333,5.47 434.28,5.65 C434.346667,5.83 434.396667,6.13 434.43,6.55 C434.463333,6.97 434.486667,7.58333333 434.5,8.39 C434.513333,9.19666667 434.52,10.3266667 434.52,11.78 C434.52,12.78 434.516667,13.6266667 434.51,14.32 C434.503333,15.0133333 434.493333,15.5933333 434.48,16.06 C434.466667,16.5266667 434.446667,16.9033333 434.42,17.19 C434.393333,17.4766667 434.363333,17.71 434.33,17.89 C434.296667,18.07 434.253333,18.2166667 434.2,18.33 C434.146667,18.4433333 434.086667,18.56 434.02,18.68 L434.02,18.68 L433.84,19.02 C433.946667,19.02 434.08,19.0133333 434.24,19 C434.386667,19 434.56,18.9966667 434.76,18.99 C434.96,18.9833333 435.213333,18.98 435.52,18.98 L435.7325,18.980625 C435.9375,18.981875 436.12,18.985 436.28,18.99 C436.493333,18.9966667 436.666667,19 436.8,19 C436.946667,19.0133333 437.073333,19.02 437.18,19.02 L437.18,19.02 Z M465.58,19.08 C465.82,19.08 466.016667,19.0733333 466.17,19.06 C466.323333,19.0466667 466.453333,19.0266667 466.56,19 C466.666667,18.9733333 466.753333,18.9466667 466.82,18.92 C466.406667,18.7333333 466.05,18.44 465.75,18.04 C465.45,17.64 465.126667,17.1466667 464.78,16.56 L464.78,16.56 L463.82,14.98 C463.553333,14.5533333 463.31,14.1733333 463.09,13.84 C462.87,13.5066667 462.636667,13.2233333 462.39,12.99 C462.143333,12.7566667 461.866667,12.5666667 461.56,12.42 C461.253333,12.2733333 460.886667,12.1733333 460.46,12.12 C461.34,12.1333333 462.063333,12.02 462.63,11.78 C463.196667,11.54 463.646667,11.2333333 463.98,10.86 C464.313333,10.4866667 464.543333,10.0733333 464.67,9.62 C464.796667,9.16666667 464.86,8.74 464.86,8.34 C464.86,7.48666667 464.69,6.82 464.35,6.34 C464.01,5.86 463.58,5.5 463.06,5.26 C462.54,5.02 461.963333,4.87333333 461.33,4.82 C460.696667,4.76666667 460.093333,4.74 459.52,4.74 C459.16,4.74 458.76,4.74666667 458.32,4.76 C457.88,4.77333333 457.513333,4.78 457.22,4.78 L456.65,4.78 C456.483333,4.78 456.34,4.77333333 456.22,4.76 C456.073333,4.76 455.94,4.75333333 455.82,4.74 L455.82,4.74 L456,5.08 C456.106667,5.28 456.193333,5.47 456.26,5.65 C456.326667,5.83 456.376667,6.13 456.41,6.55 C456.443333,6.97 456.466667,7.58333333 456.48,8.39 C456.493333,9.19666667 456.5,10.3266667 456.5,11.78 C456.5,12.78 456.496667,13.6266667 456.49,14.32 C456.483333,15.0133333 456.473333,15.5966667 456.46,16.07 C456.446667,16.5433333 456.426667,16.92 456.4,17.2 C456.373333,17.48 456.34,17.71 456.3,17.89 C456.26,18.07 456.216667,18.2166667 456.17,18.33 C456.123333,18.4433333 456.066667,18.56 456,18.68 L456,18.68 L455.82,19.02 C455.926667,19.02 456.06,19.0133333 456.22,19 C456.353333,19 456.523333,18.9966667 456.73,18.99 C456.936667,18.9833333 457.186667,18.98 457.48,18.98 L457.691875,18.980625 C457.895625,18.981875 458.075,18.985 458.23,18.99 C458.436667,18.9966667 458.606667,19 458.74,19 C458.886667,19.0133333 459.013333,19.02 459.12,19.02 L459.12,19.02 L458.94,18.68 C458.833333,18.48 458.746667,18.2833333 458.68,18.09 C458.613333,17.8966667 458.563333,17.5966667 458.53,17.19 C458.496667,16.7833333 458.473333,16.2133333 458.46,15.48 C458.449333,14.8933333 458.442933,14.136 458.4408,13.208 L458.44,12.48 L458.54,12.48 C458.566667,12.48 458.6,12.4766667 458.64,12.47 C458.68,12.4633333 458.726667,12.46 458.78,12.46 C459.046667,12.46 459.273333,12.49 459.46,12.55 C459.646667,12.61 459.823333,12.7266667 459.99,12.9 C460.156667,13.0733333 460.343333,13.31 460.55,13.61 C460.756667,13.91 461.013333,14.3 461.32,14.78 L461.32,14.78 L462.76,17 C463,17.36 463.216667,17.6733333 463.41,17.94 C463.603333,18.2066667 463.803333,18.4233333 464.01,18.59 C464.216667,18.7566667 464.443333,18.88 464.69,18.96 C464.936667,19.04 465.233333,19.08 465.58,19.08 Z M459.68,11.2992 L459.11,11.3 C458.97,11.3 458.846667,11.2933333 458.74,11.28 C458.62,11.28 458.52,11.2733333 458.44,11.26 L458.44,11.26 L458.44,5.98 C458.533333,5.98 458.633333,5.97333333 458.74,5.96 C458.833333,5.96 458.936667,5.95666667 459.05,5.95 C459.163333,5.94333333 459.293333,5.94 459.44,5.94 C459.893333,5.94 460.32,5.96666667 460.72,6.02 C461.12,6.07333333 461.466667,6.19 461.76,6.37 C462.053333,6.55 462.283333,6.81333333 462.45,7.16 C462.616667,7.50666667 462.7,7.97333333 462.7,8.56 C462.7,9.38666667 462.513333,10.0166667 462.14,10.45 C461.766667,10.8833333 461.32,11.14 460.8,11.22 C460.626667,11.2466667 460.413333,11.2666667 460.16,11.28 C459.906667,11.2933333 459.72,11.3 459.6,11.3 L459.68,11.2992 Z M489.58,19.24 C490.58,19.24 491.433333,19.0933333 492.14,18.8 C492.846667,18.5066667 493.436667,18.1233333 493.91,17.65 C494.383333,17.1766667 494.753333,16.6533333 495.02,16.08 C495.286667,15.5066667 495.49,14.9366667 495.63,14.37 C495.77,13.8033333 495.856667,13.2766667 495.89,12.79 C495.923333,12.3033333 495.94,11.9133333 495.94,11.62 C495.94,10.5666667 495.8,9.61 495.52,8.75 C495.24,7.89 494.833333,7.15333333 494.3,6.54 C493.766667,5.92666667 493.103333,5.45 492.31,5.11 C491.516667,4.77 490.613333,4.6 489.6,4.6 C488.6,4.6 487.746667,4.74666667 487.04,5.04 C486.333333,5.33333333 485.743333,5.71666667 485.27,6.19 C484.796667,6.66333333 484.423333,7.18666667 484.15,7.76 C483.876667,8.33333333 483.673333,8.90333333 483.54,9.47 C483.406667,10.0366667 483.323333,10.5633333 483.29,11.05 C483.256667,11.5366667 483.24,11.9266667 483.24,12.22 C483.24,13.2733333 483.38,14.23 483.66,15.09 C483.94,15.95 484.346667,16.6866667 484.88,17.3 C485.413333,17.9133333 486.073333,18.39 486.86,18.73 C487.646667,19.07 488.553333,19.24 489.58,19.24 Z M489.6,17.9 C489.04,17.9 488.51,17.8033333 488.01,17.61 C487.51,17.4166667 487.07,17.09 486.69,16.63 C486.31,16.17 486.006667,15.5633333 485.78,14.81 C485.553333,14.0566667 485.44,13.12 485.44,12 C485.44,10.8533333 485.556667,9.89333333 485.79,9.12 C486.023333,8.34666667 486.33,7.72333333 486.71,7.25 C487.09,6.77666667 487.53,6.44 488.03,6.24 C488.53,6.04 489.046667,5.94 489.58,5.94 C490.14,5.94 490.67,6.03666667 491.17,6.23 C491.67,6.42333333 492.11,6.75 492.49,7.21 C492.87,7.67 493.173333,8.27666667 493.4,9.03 C493.626667,9.78333333 493.74,10.72 493.74,11.84 C493.74,12.9866667 493.626667,13.9466667 493.4,14.72 C493.173333,15.4933333 492.866667,16.1166667 492.48,16.59 C492.093333,17.0633333 491.65,17.4 491.15,17.6 C490.65,17.8 490.133333,17.9 489.6,17.9 Z M518.26,19.04 C518.673333,19.04 519.156667,19.0266667 519.71,19 C520.263333,18.9733333 520.83,18.8866667 521.41,18.74 C521.99,18.5933333 522.56,18.3666667 523.12,18.06 C523.68,17.7533333 524.18,17.3233333 524.62,16.77 C525.06,16.2166667 525.416667,15.5166667 525.69,14.67 C525.963333,13.8233333 526.1,12.7866667 526.1,11.56 C526.1,10.4533333 525.96,9.51333333 525.68,8.74 C525.4,7.96666667 525.04,7.32666667 524.6,6.82 C524.16,6.31333333 523.66,5.92 523.1,5.64 C522.54,5.36 521.98,5.15 521.42,5.01 C520.86,4.87 520.326667,4.78666667 519.82,4.76 C519.313333,4.73333333 518.893333,4.72 518.56,4.72 C518.133333,4.72 517.673333,4.73 517.18,4.75 C516.686667,4.77 516.24,4.78 515.84,4.78 L515.84,4.78 L515.12,4.78 C514.92,4.78 514.746667,4.77333333 514.6,4.76 C514.44,4.76 514.306667,4.75333333 514.2,4.74 L514.2,4.74 L514.38,5.08 C514.486667,5.28 514.573333,5.47 514.64,5.65 C514.706667,5.83 514.756667,6.13 514.79,6.55 C514.823333,6.97 514.846667,7.58333333 514.86,8.39 C514.873333,9.19666667 514.88,10.3266667 514.88,11.78 C514.88,12.78 514.876667,13.6266667 514.87,14.32 C514.863333,15.0133333 514.853333,15.5966667 514.84,16.07 C514.826667,16.5433333 514.806667,16.92 514.78,17.2 C514.753333,17.48 514.723333,17.71 514.69,17.89 C514.656667,18.07 514.613333,18.2166667 514.56,18.33 C514.506667,18.4433333 514.446667,18.56 514.38,18.68 L514.38,18.68 L514.2,19.02 C514.306667,19.02 514.44,19.0133333 514.6,19 C514.746667,19 514.92,18.9966667 515.12,18.99 C515.32,18.9833333 515.56,18.98 515.84,18.98 C516.226667,18.98 516.62,18.99 517.02,19.01 C517.42,19.03 517.833333,19.04 518.26,19.04 Z M518.22,17.78 L517.74,17.78 C517.58,17.78 517.44,17.7733333 517.32,17.76 C517.173333,17.7466667 517.033333,17.7333333 516.9,17.72 L516.9,17.72 L516.9,6.04 C517.02,6.04 517.153333,6.03333333 517.3,6.02 C517.42,6.00666667 517.563333,5.99666667 517.73,5.99 C517.896667,5.98333333 518.08,5.98 518.28,5.98 C518.973333,5.98 519.66,6.04333333 520.34,6.17 C521.02,6.29666667 521.623333,6.56333333 522.15,6.97 C522.676667,7.37666667 523.103333,7.96333333 523.43,8.73 C523.756667,9.49666667 523.92,10.52 523.92,11.8 C523.92,13.16 523.746667,14.2366667 523.4,15.03 C523.053333,15.8233333 522.606667,16.4233333 522.06,16.83 C521.513333,17.2366667 520.9,17.4966667 520.22,17.61 C519.54,17.7233333 518.873333,17.78 518.22,17.78 L518.22,17.78 Z M544.7975,19.019375 C544.9025,19.018125 545.03,19.015 545.18,19.01 C545.38,19.0033333 545.613333,19 545.88,19 L545.88,19 L552.74,19 L552.78,18.4 C552.806667,18 552.833333,17.65 552.86,17.35 C552.886667,17.05 552.913333,16.8066667 552.94,16.62 C552.966667,16.3933333 552.986667,16.2066667 553,16.06 C552.813333,16.3266667 552.64,16.5633333 552.48,16.77 C552.32,16.9766667 552.12,17.15 551.88,17.29 C551.64,17.43 551.33,17.5366667 550.95,17.61 C550.57,17.6833333 550.073333,17.72 549.46,17.72 L549.46,17.72 L547.02,17.72 L547.02,12.5 L549.18,12.5 C549.646667,12.5 550.07,12.5266667 550.45,12.58 C550.83,12.6333333 551.14,12.7333333 551.38,12.88 C551.66,13.0533333 551.846667,13.1833333 551.94,13.27 C552.033333,13.3566667 552.086667,13.4066667 552.1,13.42 C552.1,13.3933333 552.09,13.2466667 552.07,12.98 C552.05,12.7133333 552.04,12.3466667 552.04,11.88 L552.040833,11.6486111 C552.043611,11.2773148 552.053333,10.9777778 552.07,10.75 C552.081429,10.5938095 552.089592,10.480068 552.09449,10.4087755 L552.099388,10.3336735 L552.099388,10.3336735 L552.1,10.32 C552.073333,10.3466667 552.013333,10.4033333 551.92,10.49 C551.826667,10.5766667 551.646667,10.6933333 551.38,10.84 C551.14,10.9866667 550.83,11.0866667 550.45,11.14 C550.07,11.1933333 549.646667,11.22 549.18,11.22 L549.18,11.22 L547.02,11.22 L547.02,6.04 L549.66,6.04 C550.62,6.04 551.353333,6.18666667 551.86,6.48 C552.14,6.65333333 552.326667,6.78333333 552.42,6.87 C552.513333,6.95666667 552.566667,7.00666667 552.58,7.02 C552.58,6.99333333 552.57,6.88333333 552.55,6.69 C552.53,6.49666667 552.52,6.2 552.52,5.8 L552.52,5.02 C552.52,4.92666667 552.526667,4.84 552.54,4.76 L552.54,4.76 L544.7,4.76 C544.553333,4.76 544.433333,4.75333333 544.34,4.74 L544.34,4.74 L544.52,5.08 C544.626667,5.28 544.713333,5.47 544.78,5.65 C544.846667,5.83 544.896667,6.13 544.93,6.55 C544.963333,6.97 544.986667,7.58333333 545,8.39 C545.013333,9.19666667 545.02,10.3266667 545.02,11.78 C545.02,12.78 545.016667,13.6266667 545.01,14.32 C545.003333,15.0133333 544.993333,15.5933333 544.98,16.06 C544.966667,16.5266667 544.946667,16.9033333 544.92,17.19 C544.893333,17.4766667 544.863333,17.71 544.83,17.89 C544.796667,18.07 544.753333,18.2166667 544.7,18.33 C544.646667,18.4433333 544.586667,18.56 544.52,18.68 L544.52,18.68 L544.34,19.02 L544.7975,19.019375 Z" id="POKRENISNAGUPRIRODE"></path>
            </g>
        </g>
    </g>
</svg>