<?xml version="1.0" encoding="UTF-8"?>
<svg width="110px" height="20px" viewBox="0 0 110 20" version="1.1" xmlns="http://www.w3.org/2000/svg" xmlns:xlink="http://www.w3.org/1999/xlink">
    <title>89CC1458-F8A2-4926-9CA8-DDEEAA6183F0</title>
    <g id="CMS-&amp;-Blog-&amp;-Brand-list" stroke="none" stroke-width="1" fill="none" fill-rule="evenodd">
        <g id="CMS---export-" transform="translate(-1110.000000, -4777.000000)">
            <g id="Newsletter-+-Footer" transform="translate(0.000000, 3550.000000)">
                <g id="Footer" transform="translate(0.000000, 580.000000)">
                    <g id="logo" transform="translate(1110.000000, 647.000000)">
                        <path d="M3.59530479,15.6635689 C1.17133251,15.6635689 7.24019052e-13,15.0709904 7.24019052e-13,15.0709904 C7.24019052e-13,15.0709904 0.0381127716,14.5964146 0.0381127716,13.6498281 C0.0381127716,12.6031959 7.24019052e-13,11.89518 7.24019052e-13,11.89518 C0.74192862,12.9802913 1.62106322,13.8883987 3.45809881,13.8883987 C4.70819772,13.8883987 6.01927706,13.6318712 6.01927706,12.1311853 C6.01927706,11.046074 5.37390079,10.6125425 4.47443938,10.0789653 L2.81272254,9.07337756 C1.36697807,8.22427154 0.0177859601,7.21868376 0.0177859601,5.10746246 C0.0177859601,2.77819279 1.54229682,1.33907353 4.78696411,1.33907353 C6.9746372,1.33907353 8.14851056,1.91112985 8.14851056,1.91112985 C8.14851056,1.91112985 8.11039779,2.38570572 8.11039779,3.37077131 C8.11039779,4.39688129 8.14851056,5.02793893 8.14851056,5.02793893 C7.34814236,3.84534718 6.44868095,3.09372161 4.90384328,3.09372161 C3.82906312,3.09372161 2.6577306,3.32972691 2.6577306,4.69188791 C2.6577306,5.7179979 3.36154645,6.11305025 4.43632661,6.74410789 L5.8236315,7.5726917 C7.46502153,8.53980036 8.67700766,9.4479077 8.67700766,11.6771316 C8.67700766,14.7375047 6.48679372,15.6635689 3.59530479,15.6635689 Z" id="Path" fill="#497A59"></path>
                        <path d="M17.9206252,15.6840911 L17.9993916,13.0392927 C17.5496609,15.150514 16.162356,15.7610494 14.6378451,15.7610494 C13.1133343,15.7610494 12.1554333,15.2479944 11.6675898,14.3219301 C11.2178591,13.4933463 11.1390927,12.5672821 11.1390927,10.2585346 L11.1390927,9.4684299 C11.1390927,5.93604627 11.0222135,5.523037 10.689362,4.93045849 L10.5140433,4.59440747 L14.0127957,4.10187467 C14.0127957,4.10187467 13.9162433,5.91808935 13.9162433,8.28327287 L13.9162433,9.56591035 C13.9162433,11.8156565 13.9746829,12.6442403 14.2668808,13.1367731 C14.5006392,13.5113033 14.8919303,13.9268778 15.887944,13.9268778 C17.6081005,13.9268778 17.8799716,12.8622887 17.8799716,12.8622887 L17.8799716,9.4684299 C17.8799716,5.93604627 17.7834192,5.523037 17.4505677,4.93045849 L17.2752489,4.59440747 L20.7536745,4.10187467 C20.7536745,4.10187467 20.6571222,6.27209729 20.6571222,8.28327287 L20.6571222,10.2970137 C20.6571222,13.7113947 20.8324409,14.2629288 21.1449657,14.8349851 L21.3202844,15.1710362 L17.9206252,15.6840911 Z" id="Path" fill="#497A59"></path>
                        <path d="M29.3036396,15.3916498 C27.5453704,15.3916498 26.7551656,14.9555531 26.7551656,14.9555531 C26.7551656,18.4674145 26.9126984,18.7624211 27.2430091,19.396044 L27.4183279,19.732095 C27.4183279,19.732095 26.8313912,19.6936159 25.3856467,19.6936159 C23.9195754,19.6936159 23.3148528,19.732095 23.3148528,19.732095 L23.4901715,19.396044 C23.840809,18.7444642 23.978015,18.5879824 23.978015,13.4779547 L23.978015,9.45047298 C23.978015,6.036092 23.8026963,5.48455788 23.4901715,4.91250156 L23.3148528,4.57645054 L26.6967261,4.08391775 L26.6001737,6.47218874 C27.0880172,4.91250156 28.0459182,4.02491642 29.9617202,4.02491642 C31.0568271,4.02491642 34.240514,4.31992304 34.240514,9.64799915 C34.2379731,14.3629745 31.8038375,15.3916498 29.3036396,15.3916498 Z M28.7471932,5.85908802 C27.8680586,5.85908802 27.2811219,6.0771364 26.7526248,6.68767184 L26.7526248,13.5728698 C26.7526248,13.5728698 27.2811219,14.0654026 28.4905672,14.0654026 C30.5435751,14.0654026 31.3058306,12.5262377 31.3058306,9.84296005 C31.3058306,7.79330535 30.7392207,5.85908802 28.7471932,5.85908802 Z" id="Shape" fill="#497A59"></path>
                        <path d="M38.1483435,15.5070872 C36.6822722,15.5070872 36.0953355,15.5455663 36.0953355,15.5455663 L36.2706543,15.2095153 C36.6212918,14.5579354 36.7584978,14.2218844 36.7584978,10.1790111 L36.7584978,5.62308273 C36.7584978,2.0906991 36.6212918,1.51864278 36.2706543,0.828583814 L36.0953355,0.492532794 L39.594088,-1.99361913e-15 C39.594088,-1.99361913e-15 39.5356484,2.07274217 39.5356484,3.9864373 L39.5356484,10.1790111 C39.5356484,14.1449262 39.6525275,14.5194563 40.0234919,15.2095153 L40.1988106,15.5455663 C40.1988106,15.5455663 39.6118739,15.5070872 38.1483435,15.5070872 Z" id="Path" fill="#497A59"></path>
                        <path d="M44.8892224,10.2200555 C44.8892224,12.1927519 45.7302442,13.9499653 48.093236,13.9499653 C50.7890794,13.9499653 51.4547825,12.6673278 51.4547825,12.6673278 C51.4547825,14.106447 50.3800023,15.7661799 47.2141014,15.7661799 C44.6529232,15.7661799 42.0155194,14.386062 42.0155194,9.96609325 C42.0155194,5.96169902 44.0863133,4.0274817 47.0972223,4.0274817 C51.6123153,4.0274817 51.8664004,7.79587062 51.8664004,10.0250946 L51.8664004,10.2226207 L44.8892224,10.2226207 L44.8892224,10.2200555 Z M47.0768955,5.5025148 C45.8445825,5.5025148 44.9070083,6.17461685 44.8892224,8.99385403 L49.0714638,8.59880169 C49.0714638,7.14172551 48.9545847,5.5025148 47.0768955,5.5025148 Z" id="Shape" fill="#497A59"></path>
                        <path d="M69.1797621,15.5070872 C67.7136908,15.5070872 67.1267542,15.5455663 67.1267542,15.5455663 L67.3020729,15.2095153 C67.6145976,14.637459 67.7899164,14.4989341 67.7899164,10.196968 C67.7899164,7.94722185 67.7314768,7.11863803 67.4189521,6.62610524 C67.2029797,6.25157509 66.7939026,5.83600055 65.777562,5.83600055 C64.3114908,5.83600055 63.8617601,6.64406216 63.7448809,6.94163406 C63.8236473,7.5521695 63.8617601,8.36279639 63.8617601,9.54538815 L63.8617601,10.1764458 C63.8617601,14.4784119 64.0370788,14.6348937 64.3496035,15.20695 L64.5249223,15.543001 C64.5249223,15.543001 63.9201996,15.5045219 62.4719143,15.5045219 C61.005843,15.5045219 60.4189064,15.543001 60.4189064,15.543001 L60.5942251,15.20695 C60.9067498,14.6348937 61.0820686,14.4963688 61.0820686,10.1944027 C61.0820686,7.94465657 61.023629,7.11607276 60.7314311,6.62353996 C60.4976727,6.24900982 60.1063816,5.83343527 59.1281538,5.83343527 C57.4283242,5.83343527 57.1539123,6.89802439 57.1539123,6.89802439 L57.1539123,10.1790111 C57.1539123,14.460455 57.329231,14.637459 57.6417557,15.2095153 L57.8170745,15.5455663 C57.8170745,15.5455663 57.2301378,15.5070872 55.7843933,15.5070872 C54.318322,15.5070872 53.7135994,15.5455663 53.7135994,15.5455663 L53.8889182,15.2095153 C54.2014429,14.637459 54.3767616,14.4784119 54.3767616,10.1790111 L54.3767616,9.4684299 C54.3767616,6.05404892 54.2014429,5.5025148 53.8889182,4.93045849 L53.7135994,4.59440747 L57.1335854,4.10187467 L57.0370331,6.72615096 C57.4867638,4.61492967 58.8537419,4.02235115 60.3782527,4.02235115 C62.118736,4.02235115 63.2900685,4.73293231 63.6610328,6.42857907 C64.1895299,4.53540614 65.5361812,4.00182895 67.0225792,4.00182895 C68.5470901,4.00182895 69.5227771,4.51488394 70.0309473,5.4409482 C70.480678,6.26953202 70.5594444,7.21611848 70.5594444,9.52486595 L70.5594444,10.1764458 C70.5594444,14.4784119 70.7347632,14.6348937 71.0472879,15.20695 L71.2227362,15.543001 C71.2327701,15.5455663 70.6458334,15.5070872 69.1797621,15.5070872 Z" id="Path" fill="#497A59"></path>
                        <path d="M75.9231818,10.2200555 C75.9231818,12.1927519 76.7642037,13.9499653 79.1271955,13.9499653 C81.8230389,13.9499653 82.4887419,12.6673278 82.4887419,12.6673278 C82.4887419,14.106447 81.4139618,15.7661799 78.2480609,15.7661799 C75.6868826,15.7661799 73.0494789,14.386062 73.0494789,9.96609325 C73.0494789,5.96169902 75.1202728,4.0274817 78.1311817,4.0274817 C82.6462747,4.0274817 82.9003599,7.79587062 82.9003599,10.0250946 L82.9003599,10.2226207 L75.9231818,10.2226207 L75.9231818,10.2200555 Z M78.1133958,5.5025148 C76.8810828,5.5025148 75.9435086,6.17461685 75.9257227,8.99385403 L80.1079641,8.59880169 C80.1054233,7.14172551 79.9885441,5.5025148 78.1133958,5.5025148 Z" id="Shape" fill="#497A59"></path>
                        <path d="M93.5693951,15.5070872 C92.1033238,15.5070872 91.5163871,15.5455663 91.5163871,15.5455663 L91.6917059,15.2095153 C92.0042306,14.637459 92.1795493,14.4989341 92.1795493,10.196968 C92.1795493,7.94722185 92.1007829,7.11863803 91.808585,6.62610524 C91.5926127,6.25157509 91.1835356,5.83600055 90.2053078,5.83600055 C88.4851513,5.83600055 88.1929534,6.90058966 88.1929534,6.90058966 L88.1929534,10.1790111 C88.1929534,14.460455 88.3682722,14.637459 88.6807969,15.2095153 L88.8561157,15.5455663 C88.8561157,15.5455663 88.269179,15.5070872 86.8234345,15.5070872 C85.3573632,15.5070872 84.7526406,15.5455663 84.7526406,15.5455663 L84.9279593,15.2095153 C85.2404841,14.637459 85.4158028,14.4784119 85.4158028,10.1790111 L85.4158028,9.4684299 C85.4158028,6.05404892 85.2404841,5.5025148 84.9279593,4.93045849 L84.7526406,4.59440747 L88.1726266,4.10187467 L88.0760743,6.72615096 C88.525805,4.61492967 89.9131099,4.02235115 91.4376207,4.02235115 C92.9418048,4.02235115 93.9200326,4.53540614 94.407876,5.4614704 C94.8576067,6.29005422 94.9541591,7.23664068 94.9541591,9.54538815 L94.9541591,10.1764458 C94.9541591,14.4784119 95.1294779,14.6348937 95.4420026,15.20695 L95.6173531,15.543001 C95.622403,15.5455663 95.0176804,15.5070872 93.5693951,15.5070872 Z" id="Path" fill="#497A59"></path>
                        <path d="M101.232603,15.7225703 C99.8656249,15.7225703 99.1211555,15.2300375 98.7120784,14.6169368 C98.3411141,14.0654026 98.2039081,13.2368188 98.2039081,11.7951343 C98.2039081,7.63169303 98.2623477,5.93604627 98.2623477,5.93604627 L96.991922,5.93604627 C97.0300347,5.91552407 97.6957378,5.30498863 98.5367596,4.08135247 C99.3574546,2.87823851 99.8452981,1.87265073 99.8452981,1.87265073 L101.016631,1.87265073 L101.016631,4.31992304 L102.187963,4.31992304 C103.79124,4.31992304 104.103765,4.10187467 104.103765,4.10187467 C104.103765,4.10187467 104.083438,4.39688129 104.083438,5.12798466 C104.083438,5.83856582 104.103765,6.13357245 104.103765,6.13357245 C104.103765,6.13357245 103.811567,5.93604627 102.187963,5.93604627 L101.016631,5.93604627 L101.016631,11.8156565 C101.016631,12.6827194 101.07507,13.0392927 101.250389,13.3933006 C101.466361,13.8268321 101.855112,14.0833596 102.599581,14.0833596 C103.694688,14.0833596 104.202858,13.5113033 104.202858,13.5113033 C104.202858,14.2039275 103.712474,15.7225703 101.232603,15.7225703 Z" id="Path" fill="#497A59"></path>
                        <path d="M107.485638,15.5070872 C106.019567,15.5070872 105.414844,15.5455663 105.414844,15.5455663 L105.590163,15.2095153 C105.940801,14.5579354 106.078007,14.2424066 106.078007,10.1790111 L106.078007,9.4684299 C106.078007,6.05404892 105.902688,5.5025148 105.590163,4.93045849 L105.414844,4.59440747 L109.030476,4.10187467 C109.030476,4.10187467 108.855157,5.20750818 108.855157,9.4479077 L108.855157,10.1790111 C108.855157,13.8293973 108.933924,14.4219759 109.343001,15.2095153 L109.51832,15.5455663 C109.51832,15.5455663 108.931383,15.5070872 107.485638,15.5070872 Z M107.465312,2.81923719 C106.487084,2.81923719 105.745155,2.48318617 105.745155,1.51607751 C105.745155,0.469445319 106.448971,0.135959573 107.465312,0.135959573 C108.423213,0.135959573 109.185468,0.472010594 109.185468,1.43911926 C109.185468,2.48575144 108.461325,2.81923719 107.465312,2.81923719 Z" id="Shape" fill="#497A59"></path>
                        <g id="Group-8" transform="translate(26.614408, 7.097538)" fill-rule="nonzero">
                            <path d="M10.8097929,0.139102229 C10.8097929,0.139102229 -1.43965192,-1.71815685 0.14075767,8.14019485 C0.14075767,8.13762958 8.28672738,10.6772518 10.8097929,0.139102229 Z" id="Path" fill="#A1D1AD"></path>
                            <path d="M0.143298522,8.07093243 C0.14075767,8.11710738 0.14075767,8.14019485 0.14075767,8.14019485 C0.156002779,8.11710738 0.171247888,8.0940199 0.186492996,8.07093243 C3.68270458,2.57611345 8.51032231,1.79370458 8.51032231,1.79370458 C0.748021164,2.85316314 0.183952145,7.45013588 0.143298522,8.07093243 Z" id="Path" fill="#497A59"></path>
                        </g>
                    </g>
                </g>
            </g>
        </g>
    </g>
</svg>