<?xml version="1.0" encoding="UTF-8"?>
<svg width="193px" height="47px" viewBox="0 0 193 47" version="1.1" xmlns="http://www.w3.org/2000/svg" xmlns:xlink="http://www.w3.org/1999/xlink">
    <title>A5663F24-164D-477C-BDFE-B3E6D50ADE78</title>
    <g id="Početna-&amp;-Dropdowns" stroke="none" stroke-width="1" fill="none" fill-rule="evenodd">
        <g id="Početna" transform="translate(-255.000000, -27.000000)" fill-rule="nonzero">
            <g id="Suplementi-logo+tag" transform="translate(255.000000, 27.000000)">
                <path d="M6.33586989,27.3405099 C2.06419507,27.3405099 7.33280103e-12,26.3061736 7.33280103e-12,26.3061736 C7.33280103e-12,26.3061736 0.0671646985,25.477809 0.0671646985,23.8255574 C0.0671646985,21.9986776 7.33280103e-12,20.7628471 7.33280103e-12,20.7628471 C1.3074728,22.6568916 2.85673851,24.2419785 6.09407698,24.2419785 C8.29707909,24.2419785 10.6075447,23.7942139 10.6075447,21.1747906 C10.6075447,19.2807461 9.47022249,18.5240238 7.88513561,17.5926734 L4.95675475,15.8374359 C2.40897385,14.3553349 0.031343526,12.6000974 0.031343526,8.91499432 C0.031343526,4.84929123 2.71793147,2.33733151 8.43588613,2.33733151 C12.2911398,2.33733151 14.3598125,3.33584669 14.3598125,3.33584669 C14.3598125,3.33584669 14.2926478,4.16421131 14.2926478,5.88362759 C14.2926478,7.67468622 14.3598125,8.77618727 14.3598125,8.77618727 C12.9493539,6.7119922 11.364267,5.40004176 8.64185788,5.40004176 C6.74781338,5.40004176 4.68361831,5.81198524 4.68361831,8.18961557 C4.68361831,9.9806742 5.92392641,10.6702318 7.81797091,11.7717328 L10.2627659,13.2180127 C13.1553256,14.9060854 15.291163,16.4911723 15.291163,20.3822472 C15.291163,25.7240795 11.4314317,27.3405099 6.33586989,27.3405099 Z" id="Path" fill="#4B7C5A"></path>
                <path d="M31.5808412,27.3763311 L31.7196483,22.7598775 C30.9271048,26.4449806 28.4823098,27.5106605 25.7957219,27.5106605 C23.1091339,27.5106605 21.4210612,26.6151312 20.561353,24.9987008 C19.7688096,23.5524209 19.6300026,21.9359905 19.6300026,17.9061086 L19.6300026,16.5269935 C19.6300026,10.3612742 19.4240308,9.64037306 18.8374591,8.6060367 L18.5285015,8.019465 L24.6942208,7.15975686 C24.6942208,7.15975686 24.5240703,10.3299306 24.5240703,14.4583208 L24.5240703,16.6971441 C24.5240703,20.6240401 24.6270561,22.0703199 25.1419855,22.9300281 C25.553929,23.5837645 26.2434865,24.3091432 27.998724,24.3091432 C31.0300907,24.3091432 31.5091989,22.4509199 31.5091989,22.4509199 L31.5091989,16.5269935 C31.5091989,10.3612742 31.3390483,9.64037306 30.7524766,8.6060367 L30.443519,8.019465 L36.5734172,7.15975686 C36.5734172,7.15975686 36.4032666,10.9478459 36.4032666,14.4583208 L36.4032666,17.9732733 C36.4032666,23.9330209 36.7122242,24.8957149 37.2629747,25.8942301 L37.5719323,26.4808018 L31.5808412,27.3763311 Z" id="Path" fill="#4B7C5A"></path>
                <path d="M51.6406979,26.8658794 C48.5421664,26.8658794 47.1496184,26.1046795 47.1496184,26.1046795 C47.1496184,32.2345776 47.4272324,32.749507 48.0093265,33.8554857 L48.3182841,34.4420574 C48.3182841,34.4420574 47.2839478,34.3748927 44.7361669,34.3748927 C42.1525648,34.3748927 41.0868849,34.4420574 41.0868849,34.4420574 L41.3958425,33.8554857 C42.0137577,32.7181635 42.2555507,32.445027 42.2555507,23.5255551 L42.2555507,16.49565 C42.2555507,10.5359024 41.946593,9.57320836 41.3958425,8.57469318 L41.0868849,7.98812148 L47.0466325,7.12841334 L46.8764819,11.2971023 C47.7361901,8.57469318 49.4242628,7.02542746 52.8004083,7.02542746 C54.730274,7.02542746 60.3407651,7.54035682 60.3407651,16.8404287 C60.3362875,25.0703431 56.0467021,26.8658794 51.6406979,26.8658794 Z M50.6600933,10.2269448 C49.1108276,10.2269448 48.0764912,10.6075447 47.1451407,11.6732246 L47.1451407,23.691228 C47.1451407,23.691228 48.0764912,24.5509361 50.207851,24.5509361 C53.8257894,24.5509361 55.1690834,21.8643482 55.1690834,17.1807299 C55.1690834,13.6030903 54.1705682,10.2269448 50.6600933,10.2269448 Z" id="Shape" fill="#4B7C5A"></path>
                <path d="M67.2273856,27.0673735 C64.6437835,27.0673735 63.6094471,27.1345382 63.6094471,27.1345382 L63.9184048,26.5479665 C64.53632,25.4106443 64.7781129,24.8240726 64.7781129,17.7673016 L64.7781129,9.81500128 C64.7781129,3.64928195 64.53632,2.65076677 63.9184048,1.44627984 L63.6094471,0.859708141 L69.7751665,0 C69.7751665,0 69.6721806,3.61793843 69.6721806,6.95826277 L69.6721806,17.7673016 C69.6721806,24.6897432 69.8781523,25.3434796 70.5318887,26.5479665 L70.8408463,27.1345382 C70.8408463,27.1345382 69.80651,27.0673735 67.2273856,27.0673735 Z" id="Path" fill="#4B7C5A"></path>
                <path d="M79.1065819,17.8389439 C79.1065819,21.2822541 80.5886829,24.349442 84.7528942,24.349442 C89.5036772,24.349442 90.6768206,22.1106188 90.6768206,22.1106188 C90.6768206,24.6225785 88.7827761,27.5196158 83.2036285,27.5196158 C78.6901608,27.5196158 74.0423636,25.110642 74.0423636,17.3956569 C74.0423636,10.4060506 77.6916456,7.02990511 82.9976568,7.02990511 C90.9544347,7.02990511 91.4021994,13.6075679 91.4021994,17.4986428 L91.4021994,17.8434216 L79.1065819,17.8434216 L79.1065819,17.8389439 Z M82.9618356,9.60455189 C80.790177,9.60455189 79.1379254,10.7776953 79.1065819,15.6986289 L86.4767882,15.0090713 C86.4767882,12.465768 86.2708164,9.60455189 82.9618356,9.60455189 Z" id="Shape" fill="#4B7C5A"></path>
                <path d="M121.912883,27.0673735 C119.329281,27.0673735 118.294945,27.1345382 118.294945,27.1345382 L118.603902,26.5479665 C119.154653,25.5494513 119.46361,25.3076584 119.46361,17.7986451 C119.46361,13.8717491 119.360625,12.4254692 118.809874,11.5657611 C118.429274,10.9120247 117.708373,10.1866459 115.917314,10.1866459 C113.333712,10.1866459 112.541169,11.5971046 112.335197,12.1165116 C112.474004,13.1821915 112.541169,14.5971278 112.541169,16.6613229 L112.541169,17.7628239 C112.541169,25.2718372 112.850126,25.5449737 113.400877,26.5434889 L113.709835,27.1300606 C113.709835,27.1300606 112.644155,27.0628959 110.091896,27.0628959 C107.508294,27.0628959 106.473958,27.1300606 106.473958,27.1300606 L106.782915,26.5434889 C107.333666,25.5449737 107.642623,25.3031808 107.642623,17.7941675 C107.642623,13.8672714 107.539638,12.4209916 107.024708,11.5612834 C106.612765,10.907547 105.923207,10.1821683 104.199313,10.1821683 C101.203768,10.1821683 100.720182,12.0403916 100.720182,12.0403916 L100.720182,17.7673016 C100.720182,25.2404937 101.02914,25.5494513 101.57989,26.5479665 L101.888848,27.1345382 C101.888848,27.1345382 100.854511,27.0673735 98.3067304,27.0673735 C95.7231283,27.0673735 94.6574484,27.1345382 94.6574484,27.1345382 L94.9664061,26.5479665 C95.5171566,25.5494513 95.8261142,25.2718372 95.8261142,17.7673016 L95.8261142,16.5269935 C95.8261142,10.5672459 95.5171566,9.60455189 94.9664061,8.6060367 L94.6574484,8.019465 L100.684361,7.15975686 L100.51421,11.7403893 C101.306754,8.05528617 103.715727,7.02094982 106.402315,7.02094982 C109.469503,7.02094982 111.533698,8.26125792 112.187435,11.2209823 C113.118785,7.91647913 115.491938,6.98512865 118.111361,6.98512865 C120.797949,6.98512865 122.517365,7.88065796 123.412895,9.49708837 C124.205438,10.9433682 124.344245,12.5956198 124.344245,16.6255017 L124.344245,17.7628239 C124.344245,25.2718372 124.653203,25.5449737 125.203953,26.5434889 L125.513139,27.1300606 C125.530822,27.1345382 124.496485,27.0673735 121.912883,27.0673735 Z" id="Path" fill="#4B7C5A"></path>
                <path d="M133.796557,17.8389439 C133.796557,21.2822541 135.278658,24.349442 139.442869,24.349442 C144.193652,24.349442 145.366796,22.1106188 145.366796,22.1106188 C145.366796,24.6225785 143.472751,27.5196158 137.893604,27.5196158 C133.380136,27.5196158 128.732339,25.110642 128.732339,17.3956569 C128.732339,10.4060506 132.381621,7.02990511 137.687632,7.02990511 C145.64441,7.02990511 146.092175,13.6075679 146.092175,17.4986428 L146.092175,17.8434216 L133.796557,17.8434216 L133.796557,17.8389439 Z M137.656288,9.60455189 C135.48463,9.60455189 133.832378,10.7776953 133.801035,15.6986289 L141.171241,15.0090713 C141.166763,12.465768 140.960792,9.60455189 137.656288,9.60455189 Z" id="Shape" fill="#4B7C5A"></path>
                <path d="M164.893812,27.0673735 C162.31021,27.0673735 161.275874,27.1345382 161.275874,27.1345382 L161.584832,26.5479665 C162.135582,25.5494513 162.44454,25.3076584 162.44454,17.7986451 C162.44454,13.8717491 162.305733,12.4254692 161.790803,11.5657611 C161.410203,10.9120247 160.689302,10.1866459 158.965408,10.1866459 C155.934042,10.1866459 155.419112,12.0448693 155.419112,12.0448693 L155.419112,17.7673016 C155.419112,25.2404937 155.72807,25.5494513 156.27882,26.5479665 L156.587778,27.1345382 C156.587778,27.1345382 155.553442,27.0673735 153.005661,27.0673735 C150.422059,27.0673735 149.356379,27.1345382 149.356379,27.1345382 L149.665337,26.5479665 C150.216087,25.5494513 150.525045,25.2718372 150.525045,17.7673016 L150.525045,16.5269935 C150.525045,10.5672459 150.216087,9.60455189 149.665337,8.6060367 L149.356379,8.019465 L155.383291,7.15975686 L155.213141,11.7403893 C156.005684,8.05528617 158.450479,7.02094982 161.137067,7.02094982 C163.787834,7.02094982 165.511728,7.91647913 166.371436,9.53290954 C167.163979,10.9791894 167.33413,12.631441 167.33413,16.6613229 L167.33413,17.7628239 C167.33413,25.2718372 167.643087,25.5449737 168.193838,26.5434889 L168.502852,27.1300606 C168.511751,27.1345382 167.446071,27.0673735 164.893812,27.0673735 Z" id="Path" fill="#4B7C5A"></path>
                <path d="M178.398395,27.4434958 C175.989421,27.4434958 174.67747,26.5837877 173.956569,25.5136301 C173.302833,24.5509361 173.06104,23.1046563 173.06104,20.5882189 C173.06104,13.3209985 173.164026,10.3612742 173.164026,10.3612742 L170.925202,10.3612742 C170.992367,10.325453 172.165511,9.2597731 173.647612,7.12393569 C175.093891,5.02391945 175.9536,3.26868199 175.9536,3.26868199 L178.017795,3.26868199 L178.017795,7.54035682 L180.08199,7.54035682 C182.907385,7.54035682 183.458135,7.15975686 183.458135,7.15975686 C183.458135,7.15975686 183.422314,7.67468622 183.422314,8.95081549 C183.422314,10.1911236 183.458135,10.7060529 183.458135,10.7060529 C183.458135,10.7060529 182.943206,10.3612742 180.08199,10.3612742 L178.017795,10.3612742 L178.017795,20.6240401 C178.017795,22.1374846 178.12078,22.7598775 178.429738,23.3777927 C178.810338,24.134515 179.495418,24.5822797 180.807368,24.5822797 C182.737234,24.5822797 183.632763,23.5837645 183.632763,23.5837645 C183.632763,24.792729 182.768578,27.4434958 178.398395,27.4434958 Z" id="Path" fill="#4B7C5A"></path>
                <path d="M189.417883,27.0673735 C186.834281,27.0673735 185.768601,27.1345382 185.768601,27.1345382 L186.077558,26.5479665 C186.695474,25.4106443 186.937267,24.8598937 186.937267,17.7673016 L186.937267,16.5269935 C186.937267,10.5672459 186.628309,9.60455189 186.077558,8.6060367 L185.768601,8.019465 L192.140292,7.15975686 C192.140292,7.15975686 191.831334,9.08962253 191.831334,16.4911723 L191.831334,17.7673016 C191.831334,24.1389926 191.970141,25.173329 192.691042,26.5479665 L193,27.1345382 C193,27.1345382 191.965664,27.0673735 189.417883,27.0673735 Z M189.382062,4.92093358 C187.658168,4.92093358 186.350695,4.33436188 186.350695,2.64628912 C186.350695,0.819409322 187.591003,0.237315268 189.382062,0.237315268 C191.070134,0.237315268 192.413428,0.823886968 192.413428,2.51195972 C192.413428,4.33883952 191.137299,4.92093358 189.382062,4.92093358 Z" id="Shape" fill="#4B7C5A"></path>
                <path d="M65.9512563,12.631441 C65.9512563,12.631441 44.3645222,9.38962485 47.1496184,26.5972206 C47.1496184,26.592743 61.5049533,31.0256131 65.9512563,12.631441 Z" id="Path" fill="#A1D1AD"></path>
                <path d="M47.154096,26.4763242 C47.1496184,26.5569218 47.1496184,26.5972206 47.1496184,26.5972206 C47.1764842,26.5569218 47.2033501,26.516623 47.230216,26.4763242 C53.3914577,16.8852052 61.8989861,15.519523 61.8989861,15.519523 C48.2197759,17.368791 47.2257383,25.3927337 47.154096,26.4763242 Z" id="Path" fill="#4B7C5A"></path>
                <g id="Group" transform="translate(63.587059, 34.486834)" fill="#4B7C5A">
                    <path d="M2.41792915,6.05825581 C1.9612092,6.05825581 1.60747512,6.00900169 1.60747512,6.00900169 C1.60747512,8.60155906 1.65672923,8.82096374 1.90747744,9.30454957 L2.01494096,9.51052131 C2.01494096,9.51052131 1.72389393,9.48813308 1.01194812,9.48813308 C0.30000232,9.48813308 0,9.51052131 0,9.51052131 L0.107463518,9.30454957 C0.349256432,8.85678491 0.407465838,8.76275433 0.407465838,5.14033826 C0.407465838,1.62986335 0.358211725,1.58060924 0.107463518,1.09702341 L0,0.891051667 C0,0.891051667 0.31343526,0.9134399 0.819409322,0.9134399 C1.32538338,0.9134399 1.90747744,0.891051667 2.25673387,0.891051667 C3.38957845,0.891051667 5.51646057,0.989559891 5.51646057,3.40301139 C5.51646057,5.69556643 3.7209243,6.05825581 2.41792915,6.05825581 Z M2.24777858,1.61643041 C1.87165627,1.61643041 1.60747512,1.63881864 1.60747512,1.63881864 L1.60747512,5.29705589 C1.60747512,5.29705589 1.77762569,5.33287706 2.33285386,5.33287706 C4.13286778,5.33287706 4.21346542,4.08809132 4.21346542,3.38957845 C4.21346542,1.80896921 3.09405378,1.61643041 2.24777858,1.61643041 Z" id="Shape"></path>
                    <path d="M9.63141777,9.653806 C7.5672227,9.653806 6.55527457,8.17170499 6.55527457,6.17915226 C6.55527457,4.88959005 7.07468158,2.52091502 9.7791801,2.52091502 C11.8433752,2.52091502 12.8553233,4.00301603 12.8553233,6.00900169 C12.8553233,7.28960861 12.3359163,9.653806 9.63141777,9.653806 Z M9.69410482,3.29554787 C8.39110967,3.29554787 7.83588149,4.28510777 7.83588149,6.10750992 C7.83588149,7.75080621 8.31946732,8.88365079 9.71649305,8.88365079 C11.0194882,8.88365079 11.5747164,7.8940909 11.5747164,6.08512169 C11.5747164,4.42839246 11.0911305,3.29554787 9.69410482,3.29554787 Z" id="Shape"></path>
                    <path d="M19.2762685,9.49708837 L18.4658144,9.49708837 L15.81057,6.09407698 C15.81057,8.49409554 15.8687794,8.82096374 16.1105723,9.30454957 L16.2180359,9.51052131 C16.2180359,9.51052131 15.9538547,9.48813308 15.2419089,9.48813308 C14.5299631,9.48813308 14.252349,9.51052131 14.252349,9.51052131 L14.3598125,9.30454957 C14.5881725,8.87021785 14.6598149,8.6060367 14.6598149,6.22840638 L14.6598149,3.55972902 C14.6598149,1.35224926 14.6016055,0.989559891 14.3598125,0.519407002 L14.252349,0.31343526 L15.8463912,0 C15.8463912,0 15.81057,1.31642809 15.81057,2.53434796 L15.81057,5.91497112 L17.0284899,4.58958773 C17.825511,3.7209243 18.0673039,3.46569844 18.0673039,3.12987495 C18.0673039,2.95076909 17.9687957,2.78061852 17.812078,2.65972206 C17.812078,2.65972206 18.1255133,2.68211029 18.850892,2.68211029 C19.7688096,2.68211029 20.2165743,2.65972206 20.2165743,2.65972206 C19.9389602,2.83882792 19.3344779,3.35823493 18.129991,4.58958773 L16.9702805,5.74929819 L18.2956639,7.41498272 C19.5046284,8.94633784 19.9747813,9.33589309 20.3240378,9.51499896 C20.3240378,9.51052131 19.9971696,9.49708837 19.2762685,9.49708837 Z" id="Path"></path>
                    <path d="M23.8345127,3.50151962 C22.7867434,3.50151962 22.6255481,4.26271953 22.6255481,4.26271953 L22.6255481,6.22840638 C22.6255481,8.86126256 22.7330116,8.95529314 22.9255504,9.30454957 L23.0464469,9.51052131 C23.0464469,9.51052131 22.7688328,9.48813308 22.056887,9.48813308 C21.3449412,9.48813308 21.0538942,9.51052131 21.0538942,9.51052131 L21.1613577,9.30454957 C21.3538965,8.95529314 21.46136,8.85678491 21.46136,6.22840638 L21.46136,5.85228406 C21.46136,3.76570076 21.3538965,3.42539962 21.1613577,3.07614319 L21.0538942,2.87017145 L22.6121152,2.57016913 L22.5628611,4.1731666 C22.8762963,2.67763265 23.9016774,2.52091502 24.2419785,2.52091502 C24.868849,2.52091502 25.0748208,2.7403197 25.0748208,2.7403197 C25.0748208,2.7403197 25.0524325,3.03136673 25.0524325,3.50151962 C25.0524325,4.09256896 25.0748208,4.31197364 25.0748208,4.31197364 C24.7658632,3.80152194 24.4300397,3.50151962 23.8345127,3.50151962 Z" id="Path"></path>
                    <path d="M27.03603,6.08064404 C27.03603,7.36125096 27.4569288,8.78514257 29.1494792,8.78514257 C30.8151637,8.78514257 31.2629283,7.92991207 31.2629283,7.92991207 C31.2629283,8.79857551 30.5733708,9.63141777 28.8718651,9.63141777 C26.9061782,9.63141777 25.7957219,8.35081085 25.7957219,6.12989815 C25.7957219,3.55972902 27.2061805,2.52091502 28.7867898,2.52091502 C31.2718836,2.52091502 31.5360648,4.60749832 31.5360648,5.95974758 L31.5360648,6.08064404 L27.03603,6.08064404 L27.03603,6.08064404 Z M28.746491,3.24629376 C28.0345452,3.24629376 27.0673735,3.50151962 27.0449853,5.48959469 L30.2688908,5.24780178 C30.2688908,4.59854302 30.1703826,3.24629376 28.746491,3.24629376 Z" id="Shape"></path>
                    <path d="M38.0420852,9.48813308 C37.3301394,9.48813308 37.0659583,9.51052131 37.0659583,9.51052131 L37.1734218,9.30454957 C37.3659606,8.95529314 37.4734241,8.87021785 37.4734241,6.23736167 C37.4734241,4.92093358 37.437603,4.28063012 37.209243,3.92241839 C37.0390924,3.64480431 36.7390901,3.36719022 36.0405772,3.36719022 C34.7151938,3.36719022 34.5181774,4.16421131 34.5181774,4.16421131 L34.5181774,6.22840638 C34.5181774,8.86126256 34.6256409,8.95529314 34.8181797,9.30454957 L34.9256432,9.51052131 C34.9256432,9.51052131 34.6614621,9.48813308 33.9495163,9.48813308 C33.2375705,9.48813308 32.9465234,9.51052131 32.9465234,9.51052131 L33.053987,9.30454957 C33.2465258,8.95529314 33.3539893,8.85678491 33.3539893,6.22840638 L33.3539893,5.85228406 C33.3539893,3.76570076 33.2465258,3.42539962 33.053987,3.07614319 L32.9465234,2.87017145 L34.5136997,2.57016913 L34.4644456,4.07913602 C34.7420597,2.77614087 35.7092314,2.52091502 36.4659536,2.52091502 C37.3838712,2.52091502 37.9883535,2.84778322 38.3017887,3.41196668 C38.5659699,3.91794075 38.6286569,4.5000348 38.6286569,5.91049347 L38.6286569,6.22392873 C38.6286569,8.85678491 38.7361205,8.95081549 38.9286593,9.30007192 L39.0361744,9.50604366 C39.0406004,9.51052131 38.754031,9.48813308 38.0420852,9.48813308 Z" id="Path"></path>
                    <path d="M41.6376354,9.48813308 C40.9256896,9.48813308 40.6346426,9.51052131 40.6346426,9.51052131 L40.7421061,9.30454957 C40.983899,8.87021785 41.0421084,8.6060367 41.0421084,6.22840638 L41.0421084,5.85228406 C41.0421084,3.76570076 40.9346449,3.42539962 40.7421061,3.07614319 L40.6346426,2.87017145 L42.3137601,2.57016913 C42.3137601,2.57016913 42.2062965,3.24629376 42.2062965,5.83885112 L42.2062965,6.22392873 C42.2062965,8.45827437 42.2555507,8.81648609 42.5062989,9.30007192 L42.6137624,9.50604366 C42.6137624,9.51052131 42.3495812,9.48813308 41.6376354,9.48813308 Z M41.6107696,1.61643041 C41.1540496,1.61643041 40.8137485,1.3746375 40.8137485,0.904484607 C40.8137485,0.385077605 41.1271837,0.14328469 41.6242025,0.14328469 C42.0809224,0.14328469 42.4212236,0.385077605 42.4212236,0.868663434 C42.4212236,1.3746375 42.0943554,1.61643041 41.6107696,1.61643041 Z" id="Shape"></path>
                    <path d="M48.7302276,9.55977542 C47.597383,9.55977542 46.9302137,9.19708605 46.9302137,9.19708605 C46.9302137,9.19708605 46.9526019,8.96872607 46.9526019,8.48514025 C46.9526019,8.0284203 46.9302137,7.67468622 46.9302137,7.67468622 C47.3869336,8.36424379 47.81231,8.83439668 48.7167947,8.83439668 C49.7556087,8.83439668 49.9839686,8.31498968 49.9839686,7.82244855 C49.9839686,7.31647449 49.7197875,7.05229334 49.2585899,6.78363455 L48.1839547,6.14333109 C47.7138018,5.87914994 46.9794678,5.48959469 46.9794678,4.35675011 C46.9794678,3.0671879 47.8839524,2.53434796 49.1869475,2.53434796 C50.3108368,2.53434796 50.9018862,2.91047027 50.9018862,2.91047027 C50.9018862,2.91047027 50.8794979,3.13883024 50.8794979,3.62241607 C50.8794979,4.07913602 50.9018862,4.40600422 50.9018862,4.40600422 C50.4541215,3.74331253 50.0197898,3.24629376 49.2138134,3.24629376 C48.8376911,3.24629376 48.054103,3.29554787 48.054103,4.12839014 C48.054103,4.67018537 48.3899265,4.91197828 49.0078417,5.26123472 L49.8406839,5.73138761 C50.5884509,6.16571932 51.1078579,6.65826045 51.1078579,7.58961093 C51.1078579,8.47170731 50.6242721,9.55977542 48.7302276,9.55977542 Z" id="Path"></path>
                    <path d="M57.7482078,9.48813308 C57.036262,9.48813308 56.7720808,9.51052131 56.7720808,9.51052131 L56.8795443,9.30454957 C57.0720831,8.95529314 57.1795467,8.87021785 57.1795467,6.23736167 C57.1795467,4.92093358 57.1437255,4.28063012 56.9153655,3.92241839 C56.745215,3.64480431 56.4452126,3.36719022 55.7466998,3.36719022 C54.4213164,3.36719022 54.2242999,4.16421131 54.2242999,4.16421131 L54.2242999,6.22840638 C54.2242999,8.86126256 54.3317635,8.95529314 54.5243023,9.30454957 L54.6317658,9.51052131 C54.6317658,9.51052131 54.3675846,9.48813308 53.6556388,9.48813308 C52.943693,9.48813308 52.652646,9.51052131 52.652646,9.51052131 L52.7601095,9.30454957 C52.9526483,8.95529314 53.0601118,8.85678491 53.0601118,6.22840638 L53.0601118,5.85228406 C53.0601118,3.76570076 52.9526483,3.42539962 52.7601095,3.07614319 L52.652646,2.87017145 L54.2198223,2.57016913 L54.1705682,4.07913602 C54.4481823,2.77614087 55.4153539,2.52091502 56.1720762,2.52091502 C57.0899937,2.52091502 57.694476,2.84778322 58.0079113,3.41196668 C58.2720924,3.91794075 58.3347795,4.5000348 58.3347795,5.91049347 L58.3347795,6.22392873 C58.3347795,8.85678491 58.442243,8.95081549 58.6347818,9.30007192 L58.7422969,9.50604366 C58.746723,9.51052131 58.4601536,9.48813308 57.7482078,9.48813308 Z" id="Path"></path>
                    <path d="M64.1781083,9.59559659 L64.2273624,8.17170499 C63.92736,9.47470014 62.9378002,9.64485071 62.2482426,9.64485071 C60.5333039,9.64485071 60.1347934,8.49857319 60.1347934,7.66573092 C60.1347934,5.62840174 61.8586873,5.51646057 62.9601884,5.51646057 C63.649746,5.51646057 64.15572,5.57466998 64.15572,5.57466998 L64.15572,5.00600886 C64.15572,4.52242303 64.15572,4.06570308 63.92736,3.75226782 C63.7348212,3.48808668 63.3497436,3.29554787 62.6825743,3.29554787 C62.3467508,3.29554787 61.3795791,3.30898081 60.8377839,4.18659954 C60.8377839,4.18659954 60.8601721,3.90898545 60.8601721,3.51047491 C60.8601721,3.09853142 60.8377839,2.85673851 60.8377839,2.85673851 C60.8377839,2.85673851 61.4422662,2.52091502 62.888546,2.52091502 C64.1422871,2.52091502 64.675127,2.87017145 64.9393082,3.21942788 C65.3154305,3.68958077 65.3154305,4.307496 65.3154305,5.06421827 C65.3154305,5.31944412 65.2930422,6.10303227 65.2930422,7.37020625 C65.2930422,8.25230262 65.3646846,8.68663434 65.5840893,9.08514489 L65.6915528,9.29111663 L64.1781083,9.59559659 Z M64.15572,6.30004872 C64.15572,6.30004872 63.8781059,6.24183932 63.1527272,6.24183932 C62.4766026,6.24183932 61.3527133,6.29109343 61.3527133,7.54483447 C61.3527133,8.43588613 61.9213744,8.82544138 62.6557084,8.82544138 C63.8870612,8.82544138 64.1512424,8.07767441 64.1512424,8.07767441 L64.1512424,6.30004872 L64.15572,6.30004872 Z" id="Shape"></path>
                    <path d="M69.5736724,12.0672575 C66.9542491,12.0672575 66.7124562,10.8985917 66.7124562,10.4239612 C66.7124562,9.20604134 68.1856019,8.98663666 68.3064984,8.97768137 C68.2841102,8.96424843 67.6930608,8.77170963 67.6930608,8.01050971 C67.6930608,7.15527921 68.6244113,6.82841102 68.7050089,6.79258984 C68.476649,6.77020161 67.1243997,6.37169107 67.1243997,4.76421595 C67.1243997,3.71644665 67.7020161,2.50748208 69.5960606,2.50748208 C70.2587523,2.50748208 70.693084,2.70002088 70.693084,2.70002088 L71.4901051,2.70002088 C72.4438438,2.70002088 73.1334014,2.56569148 73.1334014,2.56569148 C73.1334014,2.56569148 73.1199684,2.74479735 73.1199684,3.07166555 C73.1199684,3.38510081 73.1334014,3.54181843 73.1334014,3.54181843 C73.1334014,3.54181843 72.6766814,3.42092198 71.8796603,3.40748904 L71.4811498,3.3940561 C71.516971,3.41644433 72.1438415,3.81495488 72.1438415,4.80451477 C72.1438415,6.54184164 70.7333828,6.92691924 69.6587477,6.92691924 C69.2378489,6.92691924 68.9109807,6.86870983 68.9109807,6.86870983 C68.9109807,6.86870983 68.6467995,7.08811452 68.6467995,7.50901329 C68.6467995,8.06424147 69.0945642,8.11349558 69.50203,8.11349558 L70.9483099,8.11349558 C71.8393615,8.11349558 73.0348932,8.17170499 73.0348932,9.64485071 C73.0348932,11.2702364 71.440851,12.0672575 69.5736724,12.0672575 Z M70.6572628,9.08962253 L68.5706795,9.08962253 C68.5706795,9.08962253 67.7736584,9.34484839 67.7736584,10.1508248 C67.7736584,10.5717235 67.943809,11.3463564 69.6900912,11.3463564 C71.0647287,11.3463564 71.960258,10.8403823 71.960258,9.94485303 C71.960258,9.09857783 71.3333875,9.08962253 70.6572628,9.08962253 Z M69.5960606,3.1253973 C68.6423219,3.1253973 68.3154537,3.90898545 68.3154537,4.74182772 C68.3154537,5.35526529 68.4945595,6.32243695 69.6900912,6.32243695 C70.6438299,6.32243695 70.9706981,5.5388488 70.9706981,4.70600654 C70.9706981,4.09256896 70.7915922,3.1253973 69.5960606,3.1253973 Z" id="Shape"></path>
                    <path d="M78.6812055,9.59559659 L78.7304596,8.0866297 C78.4528455,9.38962485 77.4856739,9.64485071 76.7289516,9.64485071 C75.811034,9.64485071 75.1975965,9.31798251 74.8931165,8.75379904 C74.6289353,8.24782498 74.5662483,7.67916386 74.5662483,6.26870519 L74.5662483,5.85676171 C74.5662483,3.75674547 74.481173,3.44331021 74.2886342,3.08062084 L74.1811707,2.8746491 L75.7752129,2.57464678 C75.7752129,2.57464678 75.7259587,3.85525369 75.7259587,5.13138297 L75.7259587,5.92840406 C75.7259587,7.24483215 75.7617799,7.88513561 75.9901399,8.25678027 C76.1602905,8.52096142 76.4602928,8.81200844 77.1588057,8.81200844 C78.4752337,8.81200844 78.6812055,8.00155442 78.6812055,8.00155442 L78.6812055,5.85228406 C78.6812055,3.75226782 78.5961302,3.43883256 78.4035914,3.07614319 L78.2961279,2.87017145 L79.8991254,2.57016913 C79.8991254,2.57016913 79.8409159,3.89555251 79.8409159,5.12690532 L79.8409159,6.30900401 C79.8409159,8.39558731 79.9483795,8.73588845 80.1409183,9.08514489 L80.2483818,9.29111663 L78.6812055,9.59559659 Z" id="Path"></path>
                    <path d="M87.7439621,9.61798483 C86.6200728,9.61798483 86.1275317,9.09857783 86.1275317,9.09857783 C86.1275317,11.3329235 86.212607,11.440387 86.427534,11.8612858 L86.5349976,12.0672575 C86.5349976,12.0672575 86.2708164,12.0448693 85.5588706,12.0448693 C84.8469248,12.0448693 84.5693107,12.0672575 84.5693107,12.0672575 L84.6767742,11.8612858 C84.9051342,11.4135211 84.9767766,11.3284458 84.9767766,7.83140385 L84.9767766,5.83885112 C84.9767766,3.75226782 84.869313,3.41196668 84.6767742,3.06271025 L84.5693107,2.85673851 L86.0782776,2.55673619 L86.0290235,3.92241839 C86.3558917,3.00450085 87.0051505,2.52091502 88.1021739,2.52091502 C88.6797903,2.52091502 90.7932491,2.70002088 90.7932491,5.92392641 C90.7977171,8.81200844 89.2394961,9.61798483 87.7439621,9.61798483 Z M87.6723198,3.3940561 C86.9245528,3.3940561 86.5260423,3.5865949 86.1275317,4.05674779 L86.1275317,8.48514025 C86.1275317,8.48514025 86.5484305,8.86126256 87.4573928,8.86126256 C88.9529267,8.86126256 89.5439761,7.82244855 89.5439761,6.02691228 C89.5439761,4.68361831 89.0738232,3.3940561 87.6723198,3.3940561 Z" id="Shape"></path>
                    <path d="M95.0335707,3.50151962 C93.9858015,3.50151962 93.8246062,4.26271953 93.8246062,4.26271953 L93.8246062,6.22840638 C93.8246062,8.86126256 93.9320697,8.95529314 94.1246085,9.30454957 L94.245505,9.51052131 C94.245505,9.51052131 93.9678909,9.48813308 93.2559451,9.48813308 C92.5439993,9.48813308 92.2529522,9.51052131 92.2529522,9.51052131 L92.3604157,9.30454957 C92.5529546,8.95529314 92.6604181,8.85678491 92.6604181,6.22840638 L92.6604181,5.85228406 C92.6604181,3.76570076 92.5529546,3.42539962 92.3604157,3.07614319 L92.2529522,2.87017145 L93.8111732,2.57016913 L93.7619191,4.1731666 C94.0753544,2.67763265 95.1007354,2.52091502 95.4410366,2.52091502 C96.0679071,2.52091502 96.2738788,2.7403197 96.2738788,2.7403197 C96.2738788,2.7403197 96.2514906,3.03136673 96.2514906,3.50151962 C96.2514906,4.09256896 96.2738788,4.31197364 96.2738788,4.31197364 C95.9649212,3.80152194 95.6246201,3.50151962 95.0335707,3.50151962 Z" id="Path"></path>
                    <path d="M98.1947892,9.48813308 C97.4828434,9.48813308 97.1917964,9.51052131 97.1917964,9.51052131 L97.2992599,9.30454957 C97.5410528,8.87021785 97.5992622,8.6060367 97.5992622,6.22840638 L97.5992622,5.85228406 C97.5992622,3.76570076 97.4917987,3.42539962 97.2992599,3.07614319 L97.1917964,2.87017145 L98.8709139,2.57016913 C98.8709139,2.57016913 98.7634503,3.24629376 98.7634503,5.83885112 L98.7634503,6.22392873 C98.7634503,8.45827437 98.8127045,8.81648609 99.0634527,9.30007192 L99.1709162,9.50604366 C99.1753938,9.51052131 98.906735,9.48813308 98.1947892,9.48813308 Z M98.172401,1.61643041 C97.715681,1.61643041 97.3753799,1.3746375 97.3753799,0.904484607 C97.3753799,0.385077605 97.6888152,0.14328469 98.1858339,0.14328469 C98.6425539,0.14328469 98.982855,0.385077605 98.982855,0.868663434 C98.9783774,1.3746375 98.6559868,1.61643041 98.172401,1.61643041 Z" id="Shape"></path>
                    <path d="M103.554532,3.50151962 C102.506763,3.50151962 102.345568,4.26271953 102.345568,4.26271953 L102.345568,6.22840638 C102.345568,8.86126256 102.453031,8.95529314 102.64557,9.30454957 L102.766466,9.51052131 C102.766466,9.51052131 102.488852,9.48813308 101.776906,9.48813308 C101.064961,9.48813308 100.773914,9.51052131 100.773914,9.51052131 L100.881377,9.30454957 C101.073916,8.95529314 101.181379,8.85678491 101.181379,6.22840638 L101.181379,5.85228406 C101.181379,3.76570076 101.073916,3.42539962 100.881377,3.07614319 L100.773914,2.87017145 L102.332135,2.57016913 L102.282881,4.1731666 C102.596316,2.67763265 103.621697,2.52091502 103.961998,2.52091502 C104.588869,2.52091502 104.79484,2.7403197 104.79484,2.7403197 C104.79484,2.7403197 104.772452,3.03136673 104.772452,3.50151962 C104.772452,4.09256896 104.79484,4.31197364 104.79484,4.31197364 C104.481405,3.80152194 104.145582,3.50151962 103.554532,3.50151962 Z" id="Path"></path>
                    <path d="M108.587407,9.653806 C106.523212,9.653806 105.511264,8.17170499 105.511264,6.17915226 C105.511264,4.88959005 106.030671,2.52091502 108.735169,2.52091502 C110.799364,2.52091502 111.811312,4.00301603 111.811312,6.00900169 C111.806835,7.28960861 111.287428,9.653806 108.587407,9.653806 Z M108.645616,3.29554787 C107.342621,3.29554787 106.787393,4.28510777 106.787393,6.10750992 C106.787393,7.75080621 107.270979,8.88365079 108.668005,8.88365079 C109.971,8.88365079 110.526259,7.8940909 110.526259,6.08512169 C110.530706,4.42839246 110.04712,3.29554787 108.645616,3.29554787 Z" id="Shape"></path>
                    <path d="M117.793448,9.59559659 L117.842702,8.22991439 C117.515834,9.134399 116.866575,9.61798483 115.778507,9.61798483 C115.200891,9.61798483 113.074009,9.43887896 113.074009,6.21497344 C113.074009,3.34480199 114.63223,2.52091502 116.136719,2.52091502 C117.260608,2.52091502 117.739716,3.04032202 117.739716,3.04032202 C117.739716,1.28060692 117.61882,0.832842262 117.439714,0.505974062 L117.332251,0.30000232 L118.935248,0 C118.935248,0 118.899427,1.32538338 118.899427,2.55673619 L118.899427,6.30900401 C118.899427,8.39558731 119.00689,8.73588845 119.199429,9.08514489 L119.306893,9.29111663 L117.793448,9.59559659 Z M117.744194,3.65823725 C117.744194,3.65823725 117.332251,3.29554787 116.427766,3.29554787 C114.932232,3.29554787 114.32775,4.33436188 114.32775,6.12094286 C114.32775,7.47319212 114.797903,8.75379904 116.199406,8.75379904 C116.960606,8.75379904 117.345684,8.57469318 117.744194,8.09110735 L117.744194,3.65823725 Z" id="Shape"></path>
                    <path d="M121.944227,6.08064404 C121.944227,7.36125096 122.365125,8.78514257 124.057676,8.78514257 C125.72336,8.78514257 126.171125,7.92991207 126.171125,7.92991207 C126.171125,8.79857551 125.481567,9.63141777 123.780062,9.63141777 C121.814375,9.63141777 120.703919,8.35081085 120.703919,6.12989815 C120.703919,3.55972902 122.114377,2.52091502 123.694986,2.52091502 C126.18008,2.52091502 126.444261,4.60749832 126.444261,5.95974758 L126.444261,6.08064404 L121.944227,6.08064404 L121.944227,6.08064404 Z M123.659165,3.24629376 C122.947219,3.24629376 121.980048,3.50151962 121.95766,5.48959469 L125.181565,5.24780178 C125.177087,4.59854302 125.083057,3.24629376 123.659165,3.24629376 Z" id="Shape"></path>
                    <path d="M128.535322,9.64485071 C127.966661,9.55977542 127.653226,9.23290722 127.653226,8.76275433 C127.653226,8.2791685 128.015915,7.94334501 128.521889,7.87170267 C129.099506,7.95677795 129.403986,8.28364615 129.403986,8.75379904 C129.399508,9.23290722 129.041296,9.56873071 128.535322,9.64485071 Z" id="Path"></path>
                </g>
            </g>
        </g>
    </g>
</svg>