<?xml version="1.0" encoding="UTF-8"?>
<svg width="23px" height="26px" viewBox="0 0 23 26" version="1.1" xmlns="http://www.w3.org/2000/svg" xmlns:xlink="http://www.w3.org/1999/xlink">
    <title>C4E5D8A6-2F99-487E-BC71-4DCCDAD8B63C</title>
    <g id="User-account-&amp;-Checkout-&amp;-Search-results" stroke="none" stroke-width="1" fill="none" fill-rule="evenodd">
        <g id="Thank-you-page" transform="translate(-851.000000, -421.000000)" fill-rule="nonzero">
            <g id="hvala-na-narudbi" transform="translate(618.000000, 160.000000)">
                <g id="Group-23" transform="translate(193.000000, 244.000000)">
                    <g id="pdf" transform="translate(40.000000, 17.000000)">
                        <path d="M4.875,0 C3.98125,0 3.25,0.73125 3.25,1.625 L3.25,24.375 C3.25,25.26875 3.98125,26 4.875,26 L21.125,26 C22.01875,26 22.75,25.26875 22.75,24.375 L22.75,6.5 L16.25,0 L4.875,0 Z" id="Path" fill="#E2E5E7"></path>
                        <path d="M17.875,6.5 L22.75,6.5 L16.25,0 L16.25,4.875 C16.25,5.76875 16.98125,6.5 17.875,6.5 Z" id="Path" fill="#B0B7BD"></path>
                        <polygon id="Path" fill="#CAD1D8" points="22.75 11.375 17.875 6.5 22.75 6.5"></polygon>
                        <path d="M19.5,21.125 C19.5,21.571875 19.134375,21.9375 18.6875,21.9375 L0.8125,21.9375 C0.365625,21.9375 0,21.571875 0,21.125 L0,13 C0,12.553125 0.365625,12.1875 0.8125,12.1875 L18.6875,12.1875 C19.134375,12.1875 19.5,12.553125 19.5,13 L19.5,21.125 Z" id="Path" fill="#2C3C7E"></path>
                        <g id="Group" transform="translate(3.541688, 14.945938)" fill="#FFFFFF">
                            <path d="M0,0.4485 C0,0.234 0.169,2.88657986e-15 0.4411875,2.88657986e-15 L1.941875,2.88657986e-15 C2.786875,2.88657986e-15 3.547375,0.5655 3.547375,1.649375 C3.547375,2.676375 2.786875,3.248375 1.941875,3.248375 L0.8571875,3.248375 L0.8571875,4.106375 C0.8571875,4.392375 0.6751875,4.5540625 0.4411875,4.5540625 C0.2266875,4.5540625 0,4.392375 0,4.106375 L0,0.4485 L0,0.4485 Z M0.8571875,0.8181875 L0.8571875,2.4366875 L1.941875,2.4366875 C2.377375,2.4366875 2.721875,2.052375 2.721875,1.649375 C2.721875,1.1951875 2.377375,0.8181875 1.941875,0.8181875 L0.8571875,0.8181875 Z" id="Shape"></path>
                            <path d="M4.81975,4.5540625 C4.60525,4.5540625 4.37125,4.4370625 4.37125,4.151875 L4.37125,0.4615 C4.37125,0.2283125 4.60525,0.0585 4.81975,0.0585 L6.3074375,0.0585 C9.2763125,0.0585 9.2113125,4.5540625 6.3659375,4.5540625 L4.81975,4.5540625 L4.81975,4.5540625 Z M5.22925,0.8515 L5.22925,3.761875 L6.3074375,3.761875 C8.061625,3.761875 8.139625,0.8515 6.3074375,0.8515 L5.22925,0.8515 L5.22925,0.8515 Z" id="Shape"></path>
                            <path d="M10.2643125,0.9035 L10.2643125,1.9361875 L11.921,1.9361875 C12.155,1.9361875 12.389,2.1701875 12.389,2.396875 C12.389,2.611375 12.155,2.786875 11.921,2.786875 L10.2643125,2.786875 L10.2643125,4.1510625 C10.2643125,4.3785625 10.102625,4.55325 9.875125,4.55325 C9.589125,4.55325 9.4144375,4.3785625 9.4144375,4.1510625 L9.4144375,0.4606875 C9.4144375,0.2275 9.5899375,0.0576875 9.875125,0.0576875 L12.1558125,0.0576875 C12.4418125,0.0576875 12.6108125,0.2275 12.6108125,0.4606875 C12.6108125,0.6686875 12.4418125,0.9026875 12.1558125,0.9026875 L10.2643125,0.9026875 L10.2643125,0.9035 Z" id="Path"></path>
                        </g>
                        <path d="M18.6875,21.9375 L3.25,21.9375 L3.25,22.75 L18.6875,22.75 C19.134375,22.75 19.5,22.384375 19.5,21.9375 L19.5,21.125 C19.5,21.571875 19.134375,21.9375 18.6875,21.9375 Z" id="Path" fill="#CAD1D8"></path>
                    </g>
                </g>
            </g>
        </g>
    </g>
</svg>