<?xml version="1.0" encoding="UTF-8"?>
<svg width="22px" height="22px" viewBox="0 0 22 22" version="1.1" xmlns="http://www.w3.org/2000/svg" xmlns:xlink="http://www.w3.org/1999/xlink">
    <title>01142858-41EF-4198-A643-D4128C7226D4</title>
    <g id="Product-category-&amp;-Details-&amp;-Cart" stroke="none" stroke-width="1" fill="none" fill-rule="evenodd">
        <g id="Detalji-proizvoda" transform="translate(-1283.000000, -3949.000000)" fill-rule="nonzero">
            <g id="Group-15" transform="translate(0.000000, 879.000000)">
                <g id="OPIS-PROIZVODA" transform="translate(255.000000, 170.000000)">
                    <g id="dokumenti" transform="translate(325.000000, 2743.000000)">
                        <g id="Group-16-Copy" transform="translate(0.000000, 138.000000)">
                            <g id="download-hover" transform="translate(703.000000, 19.000000)">
                                <path d="M11,22 C4.93435672,22 0,17.0656433 0,11 C0,4.93435672 4.93435672,2.27373675e-13 11,2.27373675e-13 C17.0656433,2.27373675e-13 22,4.93435672 22,11 C22,17.0656433 17.0656433,22 11,22 Z M11,1.375 C5.69252015,1.375 1.375,5.69252015 1.375,11 C1.375,16.3074797 5.69252015,20.625 11,20.625 C16.3074797,20.625 20.625,16.3074797 20.625,11 C20.625,5.69252015 16.3074797,1.375 11,1.375 Z" id="Shape" fill="#F1A19A"></path>
                                <circle id="Oval" fill="#497A59" cx="11" cy="11" r="11"></circle>
                                <path d="M11,17.4166108 C10.6204987,17.4166108 10.3125,17.1086119 10.3125,16.7291108 L10.3125,5.2708893 C10.3125,4.89138797 10.6204987,4.5833893 11,4.5833893 C11.3795013,4.5833893 11.6875,4.89138797 11.6875,5.2708893 L11.6875,16.7291108 C11.6875,17.1086119 11.3795013,17.4166108 11,17.4166108 Z" id="Path" fill="#FFFFFF"></path>
                                <path d="M11,17.4166108 C10.8239288,17.4166108 10.6480255,17.3498078 10.5140839,17.215027 L6.84747314,13.5484161 C6.57891845,13.2796935 6.57891845,12.8442992 6.84747314,12.5757446 C7.11602783,12.30719 7.55142214,12.30719 7.82014466,12.5757446 L11.0008392,15.7566072 L14.1817017,12.5757446 C14.4502562,12.30719 14.8858186,12.30719 15.1543732,12.5757446 C15.4229279,12.8442992 15.4229279,13.2796935 15.1543732,13.5484161 L11.4875946,17.215027 C11.3519745,17.3498078 11.1760711,17.4166108 11,17.4166108 Z" id="Path" fill="#FFFFFF"></path>
                            </g>
                        </g>
                    </g>
                </g>
            </g>
        </g>
    </g>
</svg>