<?xml version="1.0" encoding="UTF-8"?>
<svg width="22px" height="22px" viewBox="0 0 22 22" version="1.1" xmlns="http://www.w3.org/2000/svg" xmlns:xlink="http://www.w3.org/1999/xlink">
    <title>21DE9C1A-45D6-4C2F-AD0F-628706AF5811</title>
    <g id="Product-category-&amp;-Details-&amp;-Cart" stroke="none" stroke-width="1" fill="none" fill-rule="evenodd">
        <g id="Detalji-proizvoda" transform="translate(-1283.000000, -3874.000000)" fill="#497A59" fill-rule="nonzero">
            <g id="Group-15" transform="translate(0.000000, 879.000000)">
                <g id="OPIS-PROIZVODA" transform="translate(255.000000, 170.000000)">
                    <g id="dokumenti" transform="translate(325.000000, 2743.000000)">
                        <g id="Group-16" transform="translate(0.000000, 63.000000)">
                            <g id="Download-inactive" transform="translate(703.000000, 19.000000)">
                                <path d="M11,0 C17.0656433,0 22,4.93435672 22,11 C22,17.0656433 17.0656433,22 11,22 C4.93435672,22 0,17.0656433 0,11 C0,4.93435672 4.93435672,0 11,0 Z M11,1.375 C5.69252015,1.375 1.375,5.69252015 1.375,11 C1.375,16.3074797 5.69252015,20.625 11,20.625 C16.3074797,20.625 20.625,16.3074797 20.625,11 C20.625,5.69252015 16.3074797,1.375 11,1.375 Z M10.9945,17.41575 C10.9657932,17.4166108 10.9321674,17.4141084 10.8992957,17.409277 L11,17.4166108 C10.9588648,17.4166108 10.9177387,17.4129645 10.8771547,17.405657 C10.8506271,17.4008573 10.8246936,17.39456 10.7993785,17.3868401 C10.7902638,17.3841594 10.7810057,17.3811348 10.7718032,17.377908 C10.7505122,17.3702771 10.7299944,17.3618871 10.7099985,17.3525633 C10.6988069,17.347567 10.6874795,17.3419137 10.6762839,17.335926 C10.6569968,17.3253734 10.6383405,17.3142105 10.6202828,17.3022171 C10.6099815,17.2955503 10.5996999,17.2882891 10.5895806,17.2807092 C10.5628245,17.2606512 10.5375283,17.238765 10.513937,17.2151737 L6.84747314,13.5484161 C6.57891845,13.2796935 6.57891845,12.8442992 6.84747314,12.5757446 C7.11602783,12.30719 7.55142214,12.30719 7.82014466,12.5757446 L10.3125,15.0690833 L10.3125,5.2708893 C10.3125,4.89138797 10.6204987,4.5833893 11,4.5833893 C11.3795013,4.5833893 11.6875,4.89138797 11.6875,5.2708893 L11.6875,15.0690833 L14.1817017,12.5757446 C14.4502562,12.30719 14.8858186,12.30719 15.1543732,12.5757446 C15.4229278,12.8442992 15.4229278,13.2796935 15.1543732,13.5484161 L11.4875946,17.215027 L11.4567289,17.242847 C11.4432123,17.2548738 11.4292185,17.2663756 11.4147796,17.2773204 L11.4875946,17.215027 C11.451961,17.25044 11.4135466,17.2811601 11.3730788,17.3072087 C11.3589225,17.3157462 11.3442232,17.324516 11.3291834,17.3327402 C11.3146583,17.3410955 11.3002768,17.3482517 11.2857178,17.3548736 C11.2680522,17.362652 11.2493913,17.3702469 11.2303442,17.3770251 C11.2202392,17.3807684 11.2104081,17.3839888 11.2005244,17.3869818 C11.1753064,17.39456 11.1493728,17.4008573 11.1229143,17.405639 C11.1155105,17.4069808 11.1081374,17.4081845 11.1007503,17.4092681 C11.0678326,17.4141084 11.0342068,17.4166108 11,17.4166108 L10.9945,17.41575 Z" id="Combined-Shape"></path>
                            </g>
                        </g>
                    </g>
                </g>
            </g>
        </g>
    </g>
</svg>