<?xml version="1.0" encoding="UTF-8"?>
<svg width="25px" height="28px" viewBox="0 0 25 28" version="1.1" xmlns="http://www.w3.org/2000/svg" xmlns:xlink="http://www.w3.org/1999/xlink">
    <title>E1DB0434-E472-40F9-82E3-C614A8B42989</title>
    <g id="Product-category-&amp;-Details-&amp;-Cart" stroke="none" stroke-width="1" fill="none" fill-rule="evenodd">
        <g id="Detalji-proizvoda" transform="translate(-615.000000, -3871.000000)" fill-rule="nonzero">
            <g id="Group-15" transform="translate(0.000000, 879.000000)">
                <g id="OPIS-PROIZVODA" transform="translate(255.000000, 170.000000)">
                    <g id="dokumenti" transform="translate(325.000000, 2743.000000)">
                        <g id="Group-16" transform="translate(0.000000, 63.000000)">
                            <g id="pdf" transform="translate(35.000000, 16.000000)">
                                <path d="M5.25,0 C4.2875,0 3.5,0.7875 3.5,1.75 L3.5,26.25 C3.5,27.2125 4.2875,28 5.25,28 L22.75,28 C23.7125,28 24.5,27.2125 24.5,26.25 L24.5,7 L17.5,0 L5.25,0 Z" id="Path" fill="#E2E5E7"></path>
                                <path d="M19.25,7 L24.5,7 L17.5,0 L17.5,5.25 C17.5,6.2125 18.2875,7 19.25,7 Z" id="Path" fill="#B0B7BD"></path>
                                <polygon id="Path" fill="#CAD1D8" points="24.5 12.25 19.25 7 24.5 7"></polygon>
                                <path d="M21,22.75 C21,23.23125 20.60625,23.625 20.125,23.625 L0.875,23.625 C0.39375,23.625 0,23.23125 0,22.75 L0,14 C0,13.51875 0.39375,13.125 0.875,13.125 L20.125,13.125 C20.60625,13.125 21,13.51875 21,14 L21,22.75 Z" id="Path" fill="#497A59"></path>
                                <g id="Group" transform="translate(3.814125, 16.095625)" fill="#FFFFFF">
                                    <path d="M0,0.483 C0,0.252 0.182,3.10862447e-15 0.475125,3.10862447e-15 L2.09125,3.10862447e-15 C3.00125,3.10862447e-15 3.82025,0.609 3.82025,1.77625 C3.82025,2.88225 3.00125,3.49825 2.09125,3.49825 L0.923125,3.49825 L0.923125,4.42225 C0.923125,4.73025 0.727125,4.904375 0.475125,4.904375 C0.244125,4.904375 0,4.73025 0,4.42225 L0,0.483 L0,0.483 Z M0.923125,0.881125 L0.923125,2.624125 L2.09125,2.624125 C2.56025,2.624125 2.93125,2.21025 2.93125,1.77625 C2.93125,1.287125 2.56025,0.881125 2.09125,0.881125 L0.923125,0.881125 Z" id="Shape"></path>
                                    <path d="M5.1905,4.904375 C4.9595,4.904375 4.7075,4.778375 4.7075,4.47125 L4.7075,0.497 C4.7075,0.245875 4.9595,0.063 5.1905,0.063 L6.792625,0.063 C9.989875,0.063 9.919875,4.904375 6.855625,4.904375 L5.1905,4.904375 L5.1905,4.904375 Z M5.6315,0.917 L5.6315,4.05125 L6.792625,4.05125 C8.68175,4.05125 8.76575,0.917 6.792625,0.917 L5.6315,0.917 L5.6315,0.917 Z" id="Shape"></path>
                                    <path d="M11.053875,0.973 L11.053875,2.085125 L12.838,2.085125 C13.09,2.085125 13.342,2.337125 13.342,2.58125 C13.342,2.81225 13.09,3.00125 12.838,3.00125 L11.053875,3.00125 L11.053875,4.470375 C11.053875,4.715375 10.87975,4.9035 10.63475,4.9035 C10.32675,4.9035 10.138625,4.715375 10.138625,4.470375 L10.138625,0.496125 C10.138625,0.245 10.327625,0.062125 10.63475,0.062125 L13.090875,0.062125 C13.398875,0.062125 13.580875,0.245 13.580875,0.496125 C13.580875,0.720125 13.398875,0.972125 13.090875,0.972125 L11.053875,0.972125 L11.053875,0.973 Z" id="Path"></path>
                                </g>
                                <path d="M20.125,23.625 L3.5,23.625 L3.5,24.5 L20.125,24.5 C20.60625,24.5 21,24.10625 21,23.625 L21,22.75 C21,23.23125 20.60625,23.625 20.125,23.625 Z" id="Path" fill="#CAD1D8"></path>
                            </g>
                        </g>
                    </g>
                </g>
            </g>
        </g>
    </g>
</svg>