<?xml version="1.0" encoding="UTF-8"?>
<svg width="32px" height="45px" viewBox="0 0 32 45" version="1.1" xmlns="http://www.w3.org/2000/svg" xmlns:xlink="http://www.w3.org/1999/xlink">
    <title>EDA540D7-C86B-4193-9E78-BA89713791EB</title>
    <g id="CMS-&amp;-Blog-&amp;-Brand-list" stroke="none" stroke-width="1" fill="none" fill-rule="evenodd">
        <g id="Kontakt" transform="translate(-810.000000, -1009.000000)" fill-rule="nonzero">
            <g id="google-mapa" transform="translate(255.000000, 723.000000)">
                <g id="pin" transform="translate(555.000000, 286.000000)">
                    <path d="M15.8203191,1.13686838e-13 C7.09260062,1.13686838e-13 2.27373675e-13,7.0927764 2.27373675e-13,15.8203191 C2.27373675e-13,18.7734454 0.817558936,21.6475579 2.37313576,24.1260745 L14.7478773,44.3773135 C14.9589906,44.7200871 15.275397,44.9311125 15.6446257,44.9838469 C16.1454267,45.0628606 16.6994015,44.8520109 16.9893528,44.3510342 L29.3995143,23.9150491 C30.8759016,21.4893547 31.6406382,18.6680644 31.6406382,15.8203191 C31.6406382,7.0927764 24.5480376,1.13686838e-13 15.8203191,1.13686838e-13 Z M15.8203191,23.7304787 C11.3908055,23.7304787 7.91015956,20.1445397 7.91015956,15.8203191 C7.91015956,11.4696435 11.4696435,7.91015956 15.8203191,7.91015956 C20.1709948,7.91015956 23.7304787,11.4696435 23.7304787,15.8203191 C23.7304787,20.1181725 20.302655,23.7304787 15.8203191,23.7304787 Z" id="Shape" fill="#497A59"></path>
                    <circle id="Oval" fill="#FFFFFF" cx="15.6250024" cy="16.0644557" r="8"></circle>
                </g>
            </g>
        </g>
    </g>
</svg>