<?xml version="1.0" encoding="UTF-8"?>
<svg width="10px" height="6px" viewBox="0 0 10 6" version="1.1" xmlns="http://www.w3.org/2000/svg" xmlns:xlink="http://www.w3.org/1999/xlink">
    <!-- Generator: Sketch 46.2 (44496) - http://www.bohemiancoding.com/sketch -->
    <title>arrow down</title>
    <desc>Created with Sketch.</desc>
    <defs></defs>
    <g id="Page-1" stroke="none" stroke-width="1" fill="none" fill-rule="evenodd">
        <g id="Pocetna-v3---hello-bar" transform="translate(-354.000000, -214.000000)" fill-rule="nonzero" fill="#0A0905">
            <g id="Main-menu" transform="translate(239.000000, 205.000000)">
                <g id="Items">
                    <g id="Group-8" transform="translate(115.000000, 9.000000)">
                        <path d="M7.77378073,2.42230305 L3.79036572,-1.75612498 C3.64366881,-1.91873081 3.46048492,-2 3.24045025,-2 C3.02041559,-2 2.8372317,-1.91864088 2.69053479,-1.75612498 L2.22619786,-1.27466964 C2.07545635,-1.11633522 2.0000856,-0.923874483 2.0000856,-0.6970851 C2.0000856,-0.474589607 2.07543495,-0.279835798 2.22619786,-0.113003521 L5.19551028,3.00002248 L2.22606946,6.1194556 C2.07537075,6.27779002 2,6.47025075 2,6.69706262 C2,6.91953563 2.07534935,7.11435688 2.22606946,7.28112172 L2.69044919,7.76250961 C2.84116929,7.92084403 3.02454578,8 3.24036465,8 C3.45626913,8 3.63960281,7.92084403 3.79028012,7.76250961 L7.77378073,3.58408158 C7.92456504,3.41720434 8,3.22249549 8,3 C8.0000214,2.77321062 7.92456504,2.58063747 7.77378073,2.42230305 Z" id="arrow-down" transform="translate(5.000000, 3.000000) rotate(-270.000000) translate(-5.000000, -3.000000) "></path>
                    </g>
                </g>
            </g>
        </g>
    </g>
</svg>