<?xml version="1.0" encoding="UTF-8"?>
<svg width="15px" height="7px" viewBox="0 0 15 7" version="1.1" xmlns="http://www.w3.org/2000/svg" xmlns:xlink="http://www.w3.org/1999/xlink">
    <title>B26B08D8-4E2B-4DB9-8AE8-7B1550F16F0D</title>
    <g id="Početna-&amp;-Dropdowns" stroke="none" stroke-width="1" fill="none" fill-rule="evenodd">
        <g id="Početna" transform="translate(-385.000000, -601.000000)" fill="#D0E0C9" fill-rule="nonzero">
            <g id="Hero-slider" transform="translate(0.000000, 100.000000)">
                <g id="nadnaslov,-naslov,-opis,-cta" transform="translate(255.000000, 160.000000)">
                    <g id="CTA" transform="translate(0.000000, 315.000000)">
                        <g id="right-arrow-(13)" transform="translate(130.000000, 26.000000)">
                            <path d="M14.2860484,3.10040707 C14.285879,3.10023771 14.2857379,3.10004013 14.2855403,3.09987078 L11.335829,0.164385255 C11.114849,-0.0555221269 10.7574254,-0.054703578 10.5374616,0.166304611 C10.317526,0.387284574 10.3183727,0.744708162 10.5393527,0.964643769 L12.5197893,2.93548359 L0.564516446,2.93548359 C0.252734013,2.93548359 0,3.1882176 0,3.5 C0,3.81178247 0.252734013,4.06451648 0.564516446,4.06451648 L12.5197611,4.06451648 L10.5393809,6.0353563 C10.318401,6.2552919 10.3175542,6.61271549 10.5374898,6.83369545 C10.7574536,7.05473187 11.1149054,7.05549397 11.3358572,6.83561481 L14.2855685,3.90012929 C14.2857379,3.89995993 14.285879,3.89976235 14.2860766,3.899593 C14.5071694,3.67892352 14.5064638,3.32034267 14.2860484,3.10040707 Z" id="Path"></path>
                        </g>
                    </g>
                </g>
            </g>
        </g>
    </g>
</svg>