<?xml version="1.0" encoding="UTF-8"?>
<svg width="15px" height="23px" viewBox="0 0 15 23" version="1.1" xmlns="http://www.w3.org/2000/svg" xmlns:xlink="http://www.w3.org/1999/xlink">
    <title>B4C72B73-855E-4212-B765-BC7F5C823CB5</title>
    <g id="Početna-&amp;-Dropdowns" stroke="none" stroke-width="1" fill="none" fill-rule="evenodd">
        <g id="Početna" transform="translate(-92.000000, -448.000000)" fill="#497A59">
            <g id="Hero-slider" transform="translate(0.000000, 100.000000)">
                <g id="Slider-left" transform="translate(60.000000, 320.000000)">
                    <g id="arrow" transform="translate(39.695652, 39.772265) rotate(90.000000) translate(-39.695652, -39.772265) translate(27.923387, 32.467917)">
                        <path d="M23.179187,1.61026713 L22.4304762,0.856353078 C22.1948432,0.620905923 21.8813473,0.491196283 21.546295,0.491196283 C21.2114286,0.491196283 20.897561,0.620905923 20.661928,0.856353078 L12.1211614,9.39749129 L3.57054588,0.846875726 C3.33528455,0.611428571 3.02141696,0.481904762 2.68655052,0.481904762 C2.35168409,0.481904762 2.03763066,0.611428571 1.80218351,0.846875726 L1.05328688,1.59614402 C0.565667828,2.08339141 0.565667828,2.87707317 1.05328688,3.36432056 L11.2338211,13.5814634 C11.4690825,13.8167247 11.7825784,13.9824855 12.1204181,13.9824855 L12.1243206,13.9824855 C12.4593728,13.9824855 12.7728688,13.8165389 13.0081301,13.5814634 L23.179187,3.39200929 C23.41482,3.15674797 23.544158,2.83377468 23.5445296,2.49890825 C23.5445296,2.16385598 23.41482,1.84534262 23.179187,1.61026713 Z" id="Path"></path>
                    </g>
                </g>
            </g>
        </g>
    </g>
</svg>