<?xml version="1.0" encoding="UTF-8"?>
<svg width="127px" height="477px" viewBox="0 0 127 477" version="1.1" xmlns="http://www.w3.org/2000/svg" xmlns:xlink="http://www.w3.org/1999/xlink">
    <title>C2FB3F54-F2B7-4E6F-811B-29DD190771BD</title>
    <g id="PoÄetna-&amp;-Dropdowns" stroke="none" stroke-width="1" fill="none" fill-rule="evenodd" fill-opacity="0.0699573864">
        <g id="Prijava-dropdown" transform="translate(-1569.000000, -92.000000)" fill="#497A59" fill-rule="nonzero">
            <g id="Leaf-02" transform="translate(1682.593135, 360.500000) scale(-1, 1) translate(-1682.593135, -360.500000) translate(1569.593135, 92.000000)">
                <path d="M223.240389,45.7617792 C212.142847,49.596902 201.289193,54.1069431 190.739929,59.2667617 C188.14873,60.5481584 185.570923,61.8630996 183.026593,63.2250029 C180.71661,64.4527286 178.393236,65.6737454 176.170295,67.0490665 C171.753786,69.7414237 167.580006,72.8145514 163.696386,76.233528 C159.874732,79.6793893 156.598778,83.688007 153.981065,88.1216695 C152.641944,90.335601 151.470214,92.6099125 150.198049,94.8305529 C148.925884,97.0511933 147.553285,99.3053782 146.093644,101.452221 L146.026688,101.546145 C145.544674,101.956207 145.096818,102.404952 144.687567,102.887922 C144.218,103.47184 143.807549,104.101098 143.462272,104.766409 L143.402011,104.920714 C142.692277,105.759324 141.955761,106.577808 141.172375,107.356038 C139.357867,109.160728 137.409446,110.83124 135.474417,112.501752 C133.963977,113.757861 132.528636,115.101962 131.175839,116.527082 C131.907892,113.919563 132.633249,111.309807 133.35191,108.697815 C134.008079,106.309453 134.67764,103.92109 135.360591,101.532728 C136.030152,99.2047449 136.639452,96.8365091 137.369272,94.5621976 C138.78874,90.1007901 140.717074,85.8406491 142.350801,81.4597482 C143.930964,77.1928983 144.788001,72.7381997 146.046775,68.3640076 C147.151549,64.5332352 148.557626,60.8299315 150.023963,57.1333367 L150.023963,57.1333367 C151.003532,55.3438729 152.151462,53.65226 153.452112,52.0815475 C154.861829,50.5112534 156.395629,49.0574228 158.038601,47.734191 C161.326142,44.9902576 164.921681,42.6354396 168.262787,39.958595 C171.831973,37.1491798 174.917181,33.7722898 177.395591,29.9623587 C179.929493,25.9205942 181.894238,21.54759 183.234157,16.9672514 C184.008685,14.4142392 184.643481,11.8207481 185.135708,9.19836435 C185.675552,6.53849273 186.068955,3.85087889 186.314135,1.14770419 C186.394482,0.080991723 184.975014,-0.341667935 184.305454,0.309093761 C181.21878,3.24087584 178.078542,6.10556908 175.11239,9.15811105 C172.146237,12.210653 169.307302,15.3906638 166.615669,18.6780167 C163.924036,21.9653696 161.319446,25.4271535 158.895638,28.9560262 C156.413916,32.4242617 154.232158,36.0984105 152.37412,39.9384684 C150.365439,44.2724071 149.140144,48.9887522 149.655705,53.7856039 C149.663918,53.8657731 149.681907,53.9446314 149.70927,54.0204148 C149.501706,54.4162389 149.314229,54.8321897 149.146839,55.2481405 C146.990855,58.5287845 145.745472,62.3998102 144.573742,66.1232406 C143.904182,68.2700833 143.294882,70.4370526 142.732451,72.6174398 C142.17002,74.7978269 141.647763,77.092265 140.897855,79.2726522 C139.384649,83.6736797 137.362577,87.8667319 135.882848,92.2744683 C134.329468,96.9103068 133.251476,101.666905 132.032876,106.403377 C130.881233,110.902801 129.749675,115.406699 128.638205,119.915068 C127.707588,121.30259 126.894578,122.765767 126.207701,124.28926 C123.341983,130.6627 122.404598,137.639938 120.616872,144.348822 C120.549916,143.007045 120.436091,141.665268 120.241918,140.370454 C120.212208,140.204724 120.121387,140.056248 119.987485,139.954503 C119.947312,139.062222 119.87366,138.176649 119.793313,137.27095 C119.418359,133.513975 118.722016,129.790545 118.280107,126.040279 C117.864979,122.451026 117.610546,118.741014 118.367149,115.178596 C119.143839,111.428331 121.085564,108.3087 123.348678,105.276284 C124.513713,103.726532 125.718922,102.203616 126.823697,100.580066 C127.917399,98.9600291 128.880166,97.25502 129.702806,95.4813146 C131.314753,91.9622638 132.384821,88.2186434 132.876522,84.3781125 C133.40617,80.3963351 133.598797,76.3768088 133.452344,72.3625022 C133.318432,68.2566655 132.963565,64.1709555 132.635481,60.0785366 C131.898964,50.8873662 130.928102,41.7230314 129.957239,32.5721144 C129.836718,31.438313 129.682719,30.2978029 129.602372,29.1505838 C129.548807,28.3388089 128.444033,27.6477939 127.814646,28.4126066 C122.551902,34.8732614 117.195419,41.3942961 113.024058,48.6264725 C110.927281,52.2551404 109.176452,56.0737223 107.794791,60.0315744 C106.42905,64.0787692 105.311039,68.2056917 104.44699,72.3893377 C103.543083,76.575681 102.799871,80.7955687 102.103528,85.0154564 C101.387099,89.356104 100.697451,93.7370049 100.764408,98.1581591 C100.770557,102.209192 101.500745,106.226378 102.920392,110.019465 C104.251029,113.351313 105.859187,116.56503 107.727835,119.626586 C111.256418,125.617619 115.313954,131.474474 117.342722,138.210193 C117.423069,138.478549 117.490025,138.760322 117.556981,139.035386 C117.722125,141.142409 117.692987,143.260202 117.469939,145.361863 C117.387662,146.241609 117.251259,147.115426 117.061507,147.978328 C116.956969,148.356207 117.07347,148.760878 117.362809,149.024914 C117.362809,149.206053 117.309244,149.393902 117.282462,149.595169 C116.837915,152.589249 116.220889,155.555057 115.434475,158.47773 C113.814139,164.381548 111.698328,170.131061 109.823559,175.920827 C107.877372,181.965922 106.274555,188.116643 105.022811,194.343421 C102.545438,206.593843 102.525351,219.22667 99.9341527,231.396585 C99.0486406,235.375579 98.4334654,239.410166 98.0928617,243.472575 C97.7848639,247.497905 97.7513859,251.523235 97.6040826,255.548565 C97.4612431,259.743854 97.2581431,263.939142 96.9947827,268.134431 C96.820697,270.817984 96.6287564,273.501537 96.4189608,276.185091 C97.3161717,264.706191 80.2490781,259.674529 78.8430014,249.825888 C78.8475106,249.803753 78.8475106,249.780934 78.8430014,249.758799 C78.8430014,249.664874 78.8430014,249.57095 78.8430014,249.483735 C78.7894365,249.000695 78.7492629,248.752466 78.7023937,248.209047 C78.6154587,247.279125 78.5752343,246.345412 78.5818728,245.411442 C78.5562871,243.427342 78.7244781,241.445492 79.0840431,239.494207 C79.2648244,238.608634 79.4924749,237.723062 79.7536034,236.850907 C79.8741243,236.461792 80.0080364,236.065968 80.1620353,235.683561 C80.1620353,235.683561 80.3026429,235.374953 80.3227298,235.321282 C80.4164682,235.133433 80.5102067,234.952293 80.6106407,234.777862 C81.9277501,232.645022 83.4192961,230.625422 85.0699127,228.739867 C88.3641497,224.714537 91.4240405,220.575156 93.4795908,215.758177 C95.5663844,210.827825 96.7241475,205.552967 96.8943487,200.200277 C97.0081739,197.120899 96.8943487,194.048231 96.9613047,190.968853 C96.8931477,187.881395 97.2148559,184.797691 97.918776,181.7911 C98.0498431,181.321016 97.8077757,180.827259 97.3563453,180.643881 C96.9136095,180.46308 96.4052364,180.627214 96.1511367,181.032997 C91.1696076,187.540614 86.1612961,194.175699 83.1884481,201.884206 C81.60159,205.990043 80.9253341,210.250184 80.4566418,214.631085 C80.2156001,216.865143 79.9946452,219.092492 79.5996046,221.306424 C79.1980756,223.435678 78.6476799,225.53402 77.9524861,227.585939 C76.9616108,230.324836 76.1189714,233.115316 75.4282435,235.945208 C75.2809402,234.093556 75.2072886,232.228486 75.1805062,230.370126 C75.1771655,230.31203 75.1771655,230.25379 75.1805062,230.195695 C75.8532745,227.943916 75.8532745,225.544032 75.1805062,223.292254 C75.1805062,223.124531 75.1805062,222.963518 75.1805062,222.802505 C75.1846334,222.555691 75.0962339,222.316299 74.9327689,222.131617 C75.6914696,214.182508 76.0423347,206.19961 75.9839786,198.214447 C75.9505006,194.236079 76.1848467,190.009483 74.3636425,186.35985 C73.4624178,184.731862 72.4582621,183.163259 71.3573165,181.663632 C70.3289279,180.116412 69.4329874,178.484811 68.6790751,176.786273 C67.9168741,175.055914 67.3139974,173.259416 66.8779577,171.419167 C66.7842193,171.009925 66.7306545,170.580556 66.6101336,170.178023 C66.3972394,169.659705 65.8756838,169.337487 65.3178821,169.379666 C64.5890447,169.409572 63.9265967,169.812389 63.5636339,170.446378 C62.5927714,171.922333 62.8940736,173.908162 62.9811164,175.565257 C63.0436087,177.64501 63.1217241,179.724764 63.2154626,181.804518 C63.4029395,186.031115 63.6618361,190.253239 63.9921526,194.47089 C64.3202372,198.663942 64.5478877,202.917374 65.2710129,207.070173 C65.6081165,209.063676 66.1882809,211.008152 66.9984786,212.85994 C67.7946278,214.576163 68.6888585,216.244971 69.67672,217.858058 C74.7854656,226.579606 72.2478318,237.904202 75.521982,247.491196 C74.2765997,246.196382 73.0178262,244.908276 71.7590528,243.62017 C68.3576861,240.131551 64.9429283,236.636223 61.4277364,233.254945 C58.2004555,230.155441 54.7321328,227.351128 50.6143366,225.472641 C46.6591104,223.724894 42.4741569,222.554579 38.1872963,221.997439 C33.3623247,221.408435 28.5107784,221.063607 23.6511409,220.964271 C23.2931938,220.971788 22.9734088,221.190285 22.8357066,221.521426 C22.6980044,221.852566 22.76834,222.233936 23.0150586,222.493896 C26.5972065,225.566565 30.1659632,228.65936 33.7815892,231.698485 C37.129391,234.536342 40.4771927,237.609011 44.374034,239.749145 C48.2708753,241.889279 52.6230177,242.821813 56.8144655,244.177008 C65.1322461,246.849904 72.9299607,250.934634 79.8674287,256.252998 C80.8382912,257.702117 81.8761098,259.104273 82.9474064,260.486303 C85.5653874,263.840745 88.4244101,267.061009 90.7210021,270.66368 C93.2318535,274.601794 95.1869697,279.123582 95.0597533,283.873471 C95.0597533,284.294675 95.2914426,284.68159 95.6623576,284.879804 L95.6623576,285.054235 C95.4547939,287.697535 95.2472302,290.340835 95.0597533,292.984135 C94.91245,294.164898 94.7584511,295.35908 94.5776698,296.533134 C93.844524,300.983578 93.3972309,305.476585 93.2385491,309.984446 C93.1314194,314.479398 93.2988095,318.967641 93.4394172,323.449175 C93.492982,325.09956 93.5510106,326.754418 93.6135029,328.413749 C93.6135029,333.45212 93.7675018,338.477074 94.202716,343.502027 C94.2428896,344.374182 94.2830632,345.246337 94.3366281,346.118492 C93.9951523,345.313426 93.6268941,344.50836 93.2519403,343.716712 C93.2180468,343.636535 93.1800548,343.558161 93.138115,343.481901 C93.140628,343.362112 93.1271167,343.242525 93.0979414,343.12633 C92.8944769,342.311246 92.6234805,341.514597 92.2877734,340.744676 C90.7946538,334.860986 88.3105848,329.191979 85.6926038,323.751075 C84.0544128,320.338489 82.2845416,316.997465 80.3829902,313.728003 C78.8138163,310.963751 77.0717132,308.301719 75.167115,305.757849 C72.3897803,302.245912 69.2123703,299.071207 65.6995315,296.298323 C62.1843396,293.426921 58.5151488,290.750077 54.8660449,288.053106 C47.6481842,282.719543 40.135717,277.654336 31.9871674,273.803437 C27.8173402,271.802782 23.4564431,270.229386 18.970914,269.107219 C14.2509904,267.992604 9.45118793,267.25012 4.61553989,266.886578 C3.39024443,266.785945 2.17164458,266.598096 0.95304472,266.51759 C0.142876685,266.45721 -0.185207891,267.376327 0.102703064,268.000253 C1.92148346,271.928843 4.2103261,275.621234 6.91882752,278.996113 C9.65297525,282.390257 12.8023036,285.42637 16.2926726,288.032979 C18.1071811,289.374756 19.9819501,290.66957 21.8634148,291.950967 C22.7807124,292.588311 23.7047057,293.218946 24.6153078,293.869708 C25.0639133,294.185025 25.5058231,294.500343 25.9544285,294.829078 C26.1753835,294.983382 26.3896428,295.151104 26.6239889,295.312118 L26.9118999,295.533511 L27.179724,295.734777 C30.502541,298.433053 33.5647533,301.438445 36.3259185,304.711263 C39.1246808,307.897983 41.9368343,311.064576 45.3114185,313.654205 C48.8171049,316.198285 52.7138919,318.151676 56.8479435,319.437262 C60.9590442,320.839419 65.1772744,321.906132 69.2615926,323.368668 L70.1855859,323.71753 L70.2324551,323.71753 L70.3462804,323.764492 L70.8417551,323.992594 C71.5113154,324.307912 72.1808758,324.663483 72.8504361,325.012345 C74.2631015,325.806257 75.6310746,326.677494 76.9481455,327.6221 C79.8004927,329.66906 82.4446352,331.992611 84.8422622,334.559086 C85.3846061,335.142759 85.9068631,335.739849 86.415729,336.350358 C87.192419,337.765932 88.0963255,339.101 88.8730155,340.516574 C89.6497056,341.932149 90.4330912,343.36785 91.1361296,344.823678 C91.8391679,346.279505 92.4149898,347.708497 92.9841162,349.177743 C93.5532425,350.646988 94.0754995,352.035727 94.5174094,353.491555 C94.5174094,359.690563 94.7517555,365.889572 95.0329709,372.081871 C95.3275774,378.475437 95.6422708,384.869003 96.1310498,391.25586 C97.0952168,403.881979 98.340599,416.508097 100.108238,429.047001 C99.9440191,429.231697 99.8534433,429.470527 99.8538054,429.717889 C99.9207615,436.755508 102.036572,443.524771 103.911341,450.240363 C103.991688,450.522137 104.06534,450.80391 104.145687,451.078974 C104.145687,451.078974 104.145687,451.078974 104.145687,451.078974 L104.145687,451.078974 C106.00037,457.720769 107.875139,464.362563 109.535648,471.058029 C111.26981,478.048685 113.131187,484.99238 115.072912,491.922656 C117.014637,498.852933 118.989841,505.776501 120.978435,512.720195 C122.967029,519.66389 125.08284,526.51366 127.185259,533.396974 L127.988732,536.026856 C128.232993,536.745494 128.993401,537.149378 129.724085,536.948575 C130.454768,536.747772 130.903136,536.011696 130.74732,535.268752 C128.96629,528.298223 127.178564,521.327693 125.323882,514.37058 C123.469199,507.413468 121.574344,500.550281 119.639314,493.660257 C118.608191,489.974844 117.563677,486.302848 116.505772,482.644271 C116.512765,482.60207 116.512765,482.559003 116.505772,482.516802 C116.548074,480.442049 116.89552,478.384889 117.536895,476.411718 C117.819344,476.393585 118.064042,476.209039 118.159586,475.942096 C118.70193,474.600319 119.090275,473.258543 119.498706,471.849677 C121.121733,468.931537 123.100995,466.227189 125.390838,463.799017 C128.037887,461.035049 130.894264,458.480295 133.934428,456.157599 C136.974232,453.742401 140.141252,451.46138 142.993579,448.777827 C145.873817,446.165405 148.450123,443.235149 150.673437,440.042861 C152.770862,436.932835 154.551869,433.619976 155.989746,430.153966 C158.942507,423.156601 160.736929,415.729867 162.015789,408.26288 C162.68535,404.458943 163.147346,400.62817 163.950819,396.857778 C164.639354,393.198598 165.763311,389.635345 167.29862,386.244324 C167.713748,385.399005 168.162353,384.567103 168.637741,383.755328 C168.877796,383.267192 168.737878,382.67701 168.304379,382.349192 C167.87088,382.021375 167.266076,382.048387 166.863406,382.413552 C164.265512,385.097105 161.506923,387.626354 158.895638,390.256236 C156.284353,392.886119 153.579329,395.516001 150.98813,398.212972 C145.772708,403.575472 140.897688,409.260084 136.391714,415.23341 C127.005803,427.462558 120.562659,441.696812 117.563677,456.828487 C116.23075,463.220244 115.240613,469.678977 114.597525,476.176907 C114.26944,475.116903 113.927964,474.063609 113.626662,473.010314 C111.470678,466.133708 109.468692,459.230267 107.520272,452.299991 C107.366273,451.743153 107.205578,451.193025 107.044884,450.636188 C107.164119,450.475287 107.227603,450.279747 107.225665,450.07935 C106.830624,442.51173 108.66522,434.984362 111.068941,427.866237 C112.689278,423.076094 114.637698,418.406711 116.499076,413.710493 C116.740118,413.240871 116.994551,412.791376 117.26907,412.368716 C118.225057,410.802412 119.304242,409.31503 120.496351,407.920727 C123.010178,405.066949 125.807776,402.477354 128.845769,400.192093 C132.193571,397.609173 135.661893,395.22081 138.996304,392.624472 C142.327603,390.098031 145.334413,387.168632 147.948326,383.902924 C150.834239,380.085861 153.373091,376.017437 155.534445,371.746427 C155.771318,371.314872 155.659179,370.774747 155.270193,370.473647 C154.881208,370.172547 154.331304,370.200208 153.974369,370.538828 C148.758494,374.631247 142.290541,376.670747 136.860407,380.434431 C133.961388,382.451921 131.431317,384.955237 129.381417,387.834329 C127.212042,390.8332 125.364055,394.066882 123.429026,397.226766 C122.498337,398.749683 121.581039,400.279308 120.663741,401.808934 C121.367142,399.418832 121.912896,396.984964 122.297469,394.523086 C122.967029,390.11535 123.094246,385.66736 123.636589,381.252915 C124.64093,372.605164 127.894993,364.588048 131.423576,356.70511 C133.463504,352.156487 135.639575,347.67048 137.95179,343.24709 C138.145915,343.070977 138.275565,342.834781 138.320048,342.576202 C138.338596,342.53485 138.354257,342.492258 138.366917,342.448733 C138.661524,341.889659 138.95613,341.339531 139.250737,340.798347 C139.404736,340.54341 139.56543,340.30189 139.73282,340.06037 C139.900211,339.81885 140.107774,339.516951 140.301947,339.248595 C140.409076,339.101 140.516206,338.953404 140.630031,338.812518 L140.630031,338.765556 L140.857682,338.483783 C141.359852,337.846439 141.8955,337.222513 142.437844,336.618713 C143.40623,335.528755 144.439222,334.498196 145.531213,333.532627 L146.254338,332.928827 L146.301208,332.888574 L146.301208,332.888574 L146.669466,332.620219 C147.296308,332.234625 147.944604,331.885194 148.611191,331.573633 C152.979786,329.294869 157.175783,326.698281 161.165448,323.804746 C165.062289,320.973597 168.671219,317.813713 171.469982,313.855471 C174.469612,309.622166 176.458206,304.872276 178.667755,300.209602 C178.882824,299.821283 178.848681,299.342334 178.580713,298.988586 C178.316436,298.625232 177.853155,298.466921 177.422373,298.592762 C171.498714,301.062599 165.939167,304.33091 160.897623,308.307225 C155.916037,312.246956 151.494114,316.84919 147.754154,321.986638 C145.655149,324.866255 143.802802,327.918479 142.216889,331.11072 C142.119015,331.293375 142.081506,331.502436 142.10976,331.70781 C141.217013,333.143511 140.355512,334.590394 139.525257,336.048458 C138.81153,336.892641 138.141104,337.772641 137.516576,338.685049 C137.118633,339.259717 136.77564,339.870692 136.492148,340.509865 C136.492148,340.597081 136.418497,340.677588 136.385019,340.758094 C136.351541,340.838601 136.385019,340.758094 136.385019,340.758094 C136.385019,340.758094 136.385019,340.758094 136.385019,340.758094 L136.385019,340.798347 L136.385019,340.838601 C136.385019,340.919107 136.311367,341.026449 136.304671,341.053285 C136.264498,341.18299 136.23102,341.310459 136.204237,341.435691 C136.162144,341.630325 136.133065,341.827558 136.117195,342.026073 C136.113902,342.066259 136.113902,342.106647 136.117195,342.146833 C136.120495,342.169074 136.120495,342.191681 136.117195,342.213922 C134.269208,345.698069 132.501569,349.220232 130.814276,352.780413 C129.02655,356.544097 127.24552,360.361452 125.705531,364.266022 C125.866928,360.953868 125.671628,357.633931 125.123013,354.36371 C124.812169,352.494318 124.378239,350.647579 123.824066,348.83559 C123.261636,346.977229 122.531815,345.185957 121.855559,343.36785 C121.121433,341.524544 120.565386,339.614956 120.195049,337.665299 C119.90715,335.717682 119.772823,333.750366 119.793313,331.781608 C119.726357,327.038427 119.699574,322.295247 119.625923,317.552066 C119.625923,316.599405 118.146194,316.042567 117.704285,317.028773 C114.302918,324.616521 113.579793,333.016043 113.399012,341.234425 C113.345447,343.273925 113.32536,345.31119 113.338751,347.346218 C113.286148,349.570538 113.511077,351.792731 114.008311,353.961177 C115.039434,357.906 117.43646,361.340949 118.802364,365.144886 C119.602904,367.350105 120.185972,369.628583 120.543221,371.947693 C120.821741,374.215975 120.967063,376.498689 120.978435,378.784046 C120.993527,379.137792 121.15632,379.468892 121.42704,379.696454 C120.86461,383.292415 120.442786,386.915212 119.846878,390.511174 C119.227848,394.540057 118.357953,398.526205 117.242288,402.446278 C115.019348,409.953518 112.059891,417.205821 109.44191,424.585593 C107.433229,430.281435 105.732545,436.124873 105.196897,442.129323 C104.694727,438.613868 104.17247,435.111831 103.717169,431.670174 C102.873523,425.243064 101.916051,419.023929 101.092492,412.616945 C99.4654604,399.903611 98.4142507,387.123188 97.5438222,374.315929 C97.0751299,367.33869 96.8742618,360.348034 96.5729597,353.364086 C96.849943,353.156631 97.0056032,352.824568 96.9880871,352.478514 C96.9880871,343.341014 96.7269586,334.203515 96.4256564,325.072725 C96.3252223,321.939676 96.1779191,318.806627 96.0707894,315.680288 C96.144441,314.003067 96.2381795,312.325846 96.365396,310.648625 C96.6800893,306.341522 97.1688684,302.061254 97.5839958,297.76086 C98.4075551,289.16678 99.2244187,280.572701 99.8471098,271.965203 C100.449714,263.646188 100.670669,255.320463 101.139361,246.994739 C101.648227,238.071924 102.625785,226.61986 107.741226,218.669833 C109.269816,216.50946 111.088008,214.570271 113.144579,212.906902 C115.255926,211.041832 117.347186,209.152163 119.418359,207.237895 C120.08792,206.60726 120.75748,205.943081 121.380171,205.265484 C123.007901,204.078065 124.78975,203.118788 126.676393,202.414208 C129.2359,201.453961 131.895187,200.78557 134.603988,200.42167 C137.476402,200.005719 140.409076,199.93863 143.308273,199.750781 C146.515467,199.562933 149.729357,199.361666 152.903073,198.865209 C155.89522,198.406032 158.818969,197.576744 161.607357,196.39634 C164.098808,195.296655 166.464835,193.931355 168.664524,192.324047 C173.311826,188.900394 177.286742,184.644643 180.388525,179.771726 C182.068366,177.18721 183.582398,174.498226 184.921449,171.721066 C186.32083,168.869791 187.53943,165.9313 188.764726,162.999518 C189.045941,162.328629 189.313765,161.657741 189.615067,160.986853 C189.866511,160.517557 189.791071,159.939831 189.42759,159.551152 C189.043419,159.173508 188.455924,159.096845 187.988036,159.363303 C183.276977,162.035841 178.330371,164.268137 173.210838,166.031933 C168.443569,167.73599 163.616038,169.312577 158.895638,171.150811 C153.887326,173.109805 148.852233,175.12247 144.16531,177.859695 C139.915868,180.3903 136.127759,183.627809 132.963565,187.433271 C130.049503,190.953567 127.590631,194.828391 125.64527,198.965842 C125.432568,198.944584 125.22026,199.009853 125.056057,199.146982 C123.897718,200.066099 122.806335,201.072431 121.661386,202.004966 C120.516438,202.937501 119.384881,203.796238 118.313585,204.755609 C116.124122,206.681058 114.048485,208.740685 111.966152,210.793604 C109.955434,212.627586 108.123719,214.64939 106.495844,216.831599 C105.828288,217.809916 105.230878,218.834477 104.708118,219.897559 C104.643605,219.85677 104.57375,219.825159 104.500554,219.803634 C104.667944,218.461857 104.835335,217.06641 105.016116,215.691089 C105.411156,212.665382 105.78611,209.498789 106.221324,206.473083 C106.683321,203.266236 107.152013,200.05939 107.701053,196.865962 C108.763935,190.662013 110.224366,184.53307 112.073282,178.517165 C113.907877,172.613348 116.043775,166.810164 117.764545,160.866093 C118.554626,158.128868 119.331316,155.351391 119.880356,152.540368 C121.37092,149.365974 122.528762,146.045189 123.335287,142.631348 C124.527105,138.002218 125.471185,133.299291 127.044652,128.777503 C127.790689,126.576266 128.762272,124.458376 129.943848,122.457735 C131.248015,120.386012 132.765023,118.45676 134.470076,116.701513 C137.965181,112.957956 142.042804,109.771236 145.183042,105.692235 C145.745472,104.960967 146.274425,104.216281 146.776595,103.451468 C148.073206,102.165374 149.650138,101.198506 151.383171,100.627028 C154.248889,99.660949 157.148085,98.7619586 159.980326,97.6818284 C163.5223,96.3400517 166.769668,94.3273867 170.11747,92.5897858 C171.708687,91.7163605 173.362611,90.962882 175.065521,90.335601 C176.866773,89.7075345 178.733436,89.286646 180.629567,89.0810398 C184.646929,88.6315446 188.75803,88.8126845 192.795479,88.2961004 C196.406044,87.8467928 199.900938,86.7250256 203.100013,84.9886209 C206.093654,83.3281737 208.818529,81.2222167 211.181606,78.7426504 C213.641095,76.2559072 215.717193,73.4159605 217.341562,70.3162927 C218.794794,67.2032674 219.815327,63.9053496 220.37467,60.514614 C220.982599,56.9525461 221.914952,53.4537765 223.160041,50.0621735 C223.508249,49.1130643 223.92215,48.1894664 224.398728,47.2981136 C224.61415,46.9348944 224.588818,46.4771805 224.334637,46.1400538 C224.080456,45.8029271 223.647963,45.6534171 223.240389,45.7617792 Z M159.940152,31.0491978 C164.614323,24.1800386 169.845682,17.7086512 175.581082,11.7007779 C178.105325,9.0574778 180.71661,6.44101325 183.481894,4.03252408 C183.294417,5.32733859 183.093549,6.61544422 182.845812,7.89684096 C182.403902,10.197988 181.895036,12.4857173 181.279041,14.746611 C180.120086,19.2262849 178.384771,23.5359657 176.11673,27.5672873 C173.872964,31.4493756 170.957281,34.9001583 167.506184,37.7580813 C164.211947,40.4953057 160.616408,42.8635416 157.281997,45.5605127 C155.420099,46.9904011 153.706339,48.6041702 152.166556,50.3774911 C151.87195,50.7330619 151.584039,51.0953416 151.309519,51.4643302 C151.53717,43.9705074 155.835747,37.080484 159.940152,31.0491978 Z M73.6739954,210.853984 C73.5802569,213.537537 73.4731273,216.22109 73.3325196,218.904644 C71.5782715,215.550202 69.3151574,212.477533 68.3442949,208.77423 C67.8560141,206.813786 67.5268554,204.816968 67.3600412,202.803323 C67.1234632,200.616227 66.9002764,198.424659 66.6904808,196.228618 C66.2708897,191.814172 65.8892403,187.393018 65.5455326,182.965155 C65.3446645,180.45156 65.1594195,177.935729 64.9897975,175.417661 C64.8477936,174.391034 64.8007244,173.353459 64.8491898,172.318157 C64.8491898,172.217524 64.8491898,172.11689 64.9027547,172.016257 C65.5957227,174.898317 66.6674526,177.675451 68.089862,180.274893 C68.8933344,181.73072 69.8374145,183.085915 70.7681034,184.461236 C71.7401056,185.771089 72.5223117,187.212119 73.0914779,188.741504 C73.5517831,190.392142 73.7771945,192.099632 73.7610382,193.81342 C73.8012118,195.678489 73.8146031,197.543559 73.8212987,199.408628 C73.8413855,203.24611 73.8079075,207.050047 73.6739954,210.853984 Z M59.4994026,242.251558 C57.4907215,241.526999 55.4820404,240.909782 53.4733593,240.305982 C51.4094299,239.749106 49.385056,239.054299 47.4138381,238.226228 C43.4835188,236.495336 40.1558038,233.744694 36.8347844,231.087976 C33.3664617,228.310498 29.864661,225.573274 26.369556,222.836049 C29.7173578,222.970227 33.0986376,223.218456 36.4129614,223.661242 C40.5046739,224.144639 44.514484,225.168819 48.3378314,226.707075 C52.2740768,228.461031 55.8658161,230.905713 58.9436675,233.925834 C62.4052945,237.152807 65.6392711,240.634717 68.9870729,243.989159 C70.9154067,245.921317 72.8504361,247.833349 74.8055524,249.745381 C69.9738072,246.727522 64.8446946,244.216332 59.4994026,242.251558 L59.4994026,242.251558 Z M76.5598005,240.990288 C76.5598005,236.964958 77.9725729,233.161021 79.238042,229.397337 C79.9508019,227.42067 80.5499246,225.4047 81.0324637,223.359342 C81.4939834,221.125063 81.8359473,218.867656 82.0568911,216.596788 C82.5255833,212.289685 82.98758,208.022835 84.4070479,203.896871 C85.7655079,200.120389 87.5634009,196.517471 89.7635308,193.162658 C91.4106493,190.559611 93.2117667,188.063906 95.0597533,185.601746 C94.8321027,186.943523 94.6714083,188.2853 94.5642786,189.660621 C94.3366281,192.444807 94.3098457,195.235703 94.1960204,198.01989 C94.1169522,200.660591 93.8529426,203.292472 93.4059392,205.896119 C92.9149381,208.442635 92.2162517,210.944496 91.3169109,213.376524 C90.4733698,215.698286 89.431697,217.942886 88.2034552,220.085407 C86.8711405,222.318397 85.3714753,224.446763 83.7174008,226.452138 C82.0074229,228.503672 80.4071611,230.644572 78.9233486,232.86583 C77.9658224,234.431433 77.317958,236.167054 77.0151016,237.977999 C76.8276247,238.944079 76.6736258,239.950411 76.5598005,240.970161 L76.5598005,240.990288 Z M81.146289,327.454378 C78.5639108,325.276543 75.7478442,323.393192 72.7500021,321.839043 C69.3017662,320.11486 65.4852722,319.155489 61.822777,318.014979 C57.7049808,316.733582 53.7880527,315.398515 50.0719927,313.218128 C46.5300184,311.124956 43.6643001,308.260263 40.8856246,305.113796 C38.1069491,301.96733 35.5090549,298.673268 32.3889036,295.808575 C28.9942326,292.675526 25.0706089,290.173113 21.2808972,287.556648 C17.7131563,285.145994 14.3696667,282.417845 11.2910567,279.405355 C8.32212563,276.464384 5.68597575,273.204285 3.43041805,269.684183 C3.18937632,269.308485 2.9550302,268.932788 2.72068407,268.55709 L2.90816097,268.55709 C2.96439141,268.65589 3.03426976,268.746234 3.11572468,268.825446 C8.04368893,273.380777 14.223731,275.956989 20.3635995,278.419149 C23.3833168,279.626748 26.3896428,280.81422 29.3290128,282.249921 C32.4001197,283.752298 35.2985883,285.585712 37.973037,287.717661 C40.7918861,289.965137 43.4165627,292.454133 46.0613261,294.916293 C48.7530038,297.458219 51.5780989,299.854459 54.5245691,302.094799 C57.5576775,304.36911 60.7313936,306.442155 63.8247625,308.63596 C66.769542,310.696418 69.5417763,312.993994 72.1139197,315.505857 C75.8023428,319.174118 78.9862484,323.318697 81.5815032,327.830076 L81.146289,327.454378 Z M85.9470368,331.848697 C85.5252137,330.849073 85.0364347,329.836032 84.54096,328.896788 C83.7508788,327.353745 82.9139283,325.837537 81.9966306,324.361583 C80.1441583,321.407296 78.0310464,318.625389 75.6826765,316.049276 C73.3115488,313.445143 70.7171115,311.054335 67.9291675,308.904315 C64.8558854,306.522662 61.6152133,304.36911 58.428106,302.155179 C55.3870508,300.063178 52.4799176,297.782154 49.7238213,295.325535 C47.0455799,292.910337 44.4275989,290.394506 41.689097,288.032979 C38.9914994,285.640865 36.0595538,283.528015 32.9379431,281.726629 C29.9952721,280.133207 26.9536967,278.730411 23.8319222,277.526867 C17.805879,275.078125 11.4986204,272.830649 6.23587596,268.885826 L6.1354419,268.805319 L8.14412298,269.033421 C10.5143667,269.328612 12.8846103,269.704309 15.2347672,270.160513 C19.6996266,271.041987 24.0631685,272.377249 28.2577162,274.14559 C36.4665262,277.63421 43.8919506,282.672581 51.0227684,287.972599 C54.5781339,290.602481 58.1468906,293.232364 61.6486913,295.949461 C65.2319306,298.644089 68.5907792,301.625931 71.6920967,304.865568 C73.8720909,307.254723 75.8099315,309.854872 77.4770982,312.627746 C79.3920409,315.713832 81.1195066,318.907261 82.7264514,322.167778 C84.6413941,326.052222 86.4559026,330.057425 87.9891959,334.149844 C87.3531135,333.378322 86.6567708,332.61351 85.9470368,331.868824 L85.9470368,331.848697 Z M159.53172,404.432107 C158.299729,411.979601 157.081129,419.520386 154.47654,426.745854 C153.240178,430.251187 151.654226,433.622681 149.742748,436.809179 C147.771395,440.021243 145.412376,442.977556 142.71906,445.611234 C139.94708,448.355167 136.994319,450.92467 134.014775,453.427083 C131.035231,455.929497 128.055688,458.344695 125.31049,461.048375 C124.098586,462.249265 122.926855,463.503826 121.815385,464.818767 C122.732683,462.135214 123.69685,459.45166 124.754755,456.815069 C127.154503,450.582894 130.32628,444.677548 134.195556,439.237795 C138.212918,433.743219 143.013666,428.899405 147.151549,423.498754 C149.159319,420.859419 150.950658,418.061631 152.508032,415.132776 C154.03463,412.268083 155.380446,409.316174 156.686089,406.350848 C158.08547,403.170837 159.444677,399.963991 160.931101,396.824233 C160.388758,399.326647 159.946848,401.922985 159.53172,404.452234 L159.53172,404.432107 Z M119.103666,460.11584 C120.553123,452.353092 122.817665,444.765658 125.85953,437.480067 C128.802967,430.761732 132.452593,424.376838 136.746581,418.433547 C141.049885,412.522265 145.723916,406.891099 150.740393,401.574123 C154.422975,397.62259 158.232773,393.798527 162.122919,390.034843 C159.773182,394.229265 157.673772,398.559624 155.835747,403.003115 C153.204375,409.04111 150.526133,415.079105 146.743117,420.546845 C142.873059,426.101801 138.139267,430.979159 134.021471,436.332848 C129.904673,441.747357 126.527086,447.687907 123.978065,453.997338 C121.969384,458.881405 120.322266,463.89965 118.782277,468.951439 C118.246629,469.778868 117.751154,470.626424 117.295853,471.494106 C117.764545,467.670043 118.367149,463.879524 119.103666,460.11584 Z M124.239194,399.541331 C126.247875,396.334485 128.136035,393.067259 130.265237,389.961045 C132.134771,387.135277 134.460957,384.641231 137.148317,382.581274 C139.860517,380.708427 142.720008,379.059332 145.698603,377.650244 C147.667111,376.643912 149.622227,375.637579 151.510387,374.497069 C150.077116,376.821138 148.512249,379.061097 146.823465,381.205953 C144.176706,384.436296 141.203671,387.383752 137.95179,390.001299 C132.863131,394.207769 127.285693,397.877528 122.47825,402.412733 C123.058536,401.460072 123.645517,400.502938 124.239194,399.541331 L124.239194,399.541331 Z M144.995565,330.050716 C147.690313,325.370318 150.914304,321.016614 154.603756,317.075736 C158.81362,312.571257 163.602808,308.64793 168.845305,305.408987 C170.962892,304.101 173.151252,302.911702 175.400301,301.84657 C173.804969,305.093453 171.960362,308.211279 169.883123,311.171918 C167.145992,314.843438 163.862623,318.072227 160.147716,320.745495 C156.18384,323.710193 152.032838,326.41504 147.720676,328.843117 C146.977464,329.265777 146.187382,329.628056 145.484344,330.104387 C145.316954,330.218438 145.156259,330.345907 144.995565,330.466667 C145.047986,330.334491 145.059648,330.189601 145.029043,330.050716 L144.995565,330.050716 Z M119.552271,360.643225 C118.70193,358.898915 117.737763,357.194859 117.014637,355.38346 C116.270571,353.46866 115.843138,351.445091 115.749168,349.392427 C115.635343,347.326091 115.675517,345.246337 115.675517,343.180001 C115.625119,339.119959 115.786032,335.060046 116.1576,331.016795 C116.413727,328.526001 116.861432,326.058743 117.496721,323.637024 C117.496721,325.810702 117.496721,327.991089 117.496721,330.164767 C117.496721,334.190097 117.664111,338.215427 118.936276,342.066326 C119.545576,343.917978 120.275396,345.715959 120.944957,347.547484 C121.587314,349.336779 122.115107,351.165308 122.525119,353.021933 C123.329327,356.689781 123.648989,360.44762 123.475895,364.198933 C123.388557,366.339991 123.164916,368.47328 122.806335,370.58579 C122.569182,369.227518 122.25623,367.883633 121.86895,366.56046 C121.280264,364.529306 120.525572,362.550201 119.612532,360.643225 L119.552271,360.643225 Z M178.674451,176.034878 C177.864283,177.336402 177.013941,178.624507 176.11673,179.87236 C175.694907,180.456033 175.273084,181.046414 174.844566,181.623378 L174.549959,182.012494 L174.549959,182.012494 L174.429438,182.173507 L173.759878,183.005408 C172.0438,185.115061 170.16311,187.084728 168.135571,188.895808 C166.181158,190.656912 164.01515,192.166884 161.687705,193.39076 C159.156691,194.71224 156.451559,195.667691 153.65298,196.228618 C147.626937,197.47647 141.453591,197.335583 135.394069,198.281536 C133.180701,198.607284 130.992646,199.087011 128.845769,199.717237 L128.845769,199.717237 C129.836718,198.878627 130.85445,198.093687 131.919051,197.342292 C134.116236,195.807132 136.408515,194.413351 138.782045,193.169367 C143.522532,190.640118 148.497366,188.58049 153.438721,186.460483 C162.417525,182.629711 171.516851,178.604381 179.250273,172.586512 C180.227831,171.828408 181.178607,171.030051 182.1026,170.204859 C181.000057,172.168325 179.857341,174.111665 178.674451,176.034878 Z M143.977833,180.449324 C148.450496,177.611466 153.351678,175.612219 158.272947,173.653225 C162.959869,171.788155 167.74053,170.298783 172.494409,168.702069 C176.995688,167.200234 181.395007,165.407435 185.664661,163.334962 C183.740414,165.910857 181.489627,168.224745 178.969058,170.218276 C175.147672,173.226556 171.038921,175.849057 166.702712,178.047543 C157.717212,182.743762 148.062151,186.004279 139.083347,190.720624 C136.43274,192.098334 133.874112,193.646864 131.423576,195.356463 C130.385758,196.087731 129.414895,196.865962 128.397164,197.671028 C132.166788,190.801131 137.28223,184.67592 143.977833,180.449324 Z M111.584503,121.176338 C107.915312,115.071254 104.152383,108.852119 103.335519,101.619943 C102.946911,97.2929414 103.047987,92.9357817 103.636821,88.6315446 C104.112209,84.4250747 104.67464,80.2118958 105.45133,76.0456792 C106.984623,67.8071703 109.401736,59.7833457 113.332055,52.3633206 C116.357574,46.8678222 119.864223,41.6524217 123.810675,36.7785843 C122.785109,39.7274402 121.99697,42.7538829 121.453823,45.8288681 C120.295483,52.0345853 119.800009,58.3409357 118.775581,64.5600707 C118.218003,67.7649041 117.466712,70.9328545 116.525858,74.0464319 C115.494735,77.5350513 114.309614,80.9767086 113.372229,84.4988724 C111.539185,91.6731188 110.892293,99.0999334 111.457286,106.483884 C111.964421,112.934648 112.885859,119.345969 114.215875,125.677999 C113.352142,124.175209 112.454931,122.66571 111.557721,121.176338 L111.584503,121.176338 Z M116.465598,112.099219 C115.41882,115.640922 115.079797,119.354778 115.467953,123.02799 C115.467953,123.08837 115.467953,123.14875 115.467953,123.215839 C114.610916,118.51962 113.867704,113.823402 113.419098,109.060095 C112.749538,101.814501 112.82319,94.4481466 114.43683,87.3300212 C115.970123,80.54734 118.628278,74.0866852 119.960703,67.2570419 C121.159216,61.1385402 121.681473,54.9194052 122.685814,48.7740679 C123.603111,43.1184792 124.955623,37.4628904 127.660647,32.3909745 C127.714212,33.6187002 127.74769,34.839717 127.80795,36.0607338 C127.908385,38.348463 128.002123,40.6294834 128.102557,42.9105038 C128.303425,47.4814897 128.551162,52.0480031 128.845769,56.6100438 C129.36133,64.7546283 130.325497,72.9730106 129.870196,81.1444306 C129.711292,84.9141789 129.051544,88.6458787 127.908385,92.2409239 C126.709871,95.8972654 124.647626,99.0168962 122.351034,102.076147 C120.054441,105.135398 117.690893,108.315409 116.465598,112.099219 Z M149.555271,98.7753764 C150.700219,96.6754959 151.778211,94.535362 152.903073,92.4421904 C154.126678,90.1753234 155.467626,87.9740468 156.920435,85.847358 C158.378766,83.7606091 160.021333,81.8094194 161.828312,80.0173382 C163.626743,78.2471912 165.551221,76.6103827 167.586531,75.1198533 C169.66261,73.6465508 171.819771,72.2914513 174.047789,71.0609788 C178.674451,68.3774254 183.421634,65.9555185 188.202295,63.5604471 C198.031441,58.6227089 208.068151,54.0271237 218.272251,49.9414136 C215.252533,53.3629442 212.172556,56.7240948 208.898406,59.8772701 C204.713047,64.0314457 199.982678,67.5952868 194.837638,70.4705971 C192.052105,71.9227994 189.138208,73.1131286 186.133353,74.0263053 C182.959637,75.0259289 179.732356,75.8645394 176.598814,76.9916318 C173.824926,77.9698978 171.182427,79.2881345 168.73148,80.9163286 C166.328985,82.5563332 164.042562,84.3608553 161.888573,86.3169798 C157.509648,90.1745878 153.572633,94.5018176 149.555271,98.741832 L149.555271,98.7753764 Z M219.959543,51.8131921 C219.301049,53.5253517 218.728968,55.2696311 218.245468,57.0394124 C217.37504,60.1590432 216.605045,63.6007004 215.453402,66.4318492 C215.413228,66.5123558 215.252533,66.9081799 215.198969,67.0356487 L215.145404,67.1765353 L215.011492,67.478435 C214.824015,67.8876769 214.629842,68.2969188 214.415583,68.6927429 C214.020542,69.4575556 213.578633,70.1888239 213.10994,70.9133834 C212.641248,71.6379428 212.172556,72.3021222 211.670385,72.9730106 L211.322214,73.4426324 L211.094564,73.7378233 C210.826739,74.0732675 210.558915,74.4087116 210.2777,74.7441558 C209.202175,76.0331049 208.038818,77.2458437 206.795986,78.3736618 C205.631674,79.4451864 204.379666,80.4169121 203.053144,81.2786083 C200.312903,83.1421071 197.231809,84.4440229 193.987296,85.1093808 C190.056977,85.9077379 186.006137,85.7802691 182.028948,86.1828021 C179.977239,86.3451656 177.945838,86.7046234 175.962732,87.2562235 C174.120419,87.8148287 172.328543,88.5285123 170.606249,89.3896484 C167.211578,91.0601604 164.02447,93.1197876 160.562843,94.6695397 C159.170158,95.2934659 157.717212,95.7899233 156.277657,96.2796717 C155.112622,96.6822048 153.894022,97.0444845 152.742378,97.5073974 C155.500967,94.5756153 158.266251,91.6371244 161.205621,88.8797733 C165.370287,84.9752031 169.956775,81.3255705 175.319954,79.2189811 C181.43304,76.8104919 187.961253,75.6163107 193.900254,72.7381997 C199.196854,70.086841 204.078217,66.6739584 208.38954,62.6077856 C212.740627,58.4942572 216.853947,54.1353455 220.70945,49.5522984 L221.044231,49.169892 C220.669277,50.0085025 220.307714,50.8806573 219.959543,51.7662299 L219.959543,51.8131921 Z" id="Shape"></path>
            </g>
        </g>
    </g>
</svg>