<?xml version="1.0" encoding="UTF-8"?>
<svg width="32px" height="40px" viewBox="0 0 32 40" version="1.1" xmlns="http://www.w3.org/2000/svg" xmlns:xlink="http://www.w3.org/1999/xlink">
    <title>06D45CD2-C375-45AC-9158-17B918B5BA13</title>
    <g id="Početna-&amp;-Dropdowns" stroke="none" stroke-width="1" fill="none" fill-rule="evenodd">
        <g id="Početna" transform="translate(-1409.000000, -2756.000000)" fill="#497A59" fill-rule="nonzero">
            <g id="Pretrazi-prema-namjeni" transform="translate(285.000000, 2731.000000)">
                <g id="namjene" transform="translate(270.000000, 0.000000)">
                    <g id="zglobovi-i-kosti" transform="translate(813.000000, 0.000000)">
                        <g id="Group-61" transform="translate(12.000000, 0.000000)">
                            <g id="knee" transform="translate(28.999963, 25.000000)">
                                <path d="M21.3333699,0 C21.5111477,0 21.6815477,0.0710755543 21.8067032,0.197333333 C21.8360366,0.230222222 23.9059625,2.32088889 26.0820613,4.69491358 L26.4667871,5.11643938 C27.4293883,6.17580161 28.3905071,7.27 29.1840366,8.24666667 C31.8101341,11.4767967 31.4625997,13.8072905 30.8435734,15.9892596 L30.7412378,16.3419091 C30.7066172,16.4591041 30.6716301,16.5759837 30.6367032,16.6926667 C30.2617932,17.7574791 30.0472268,18.872101 30.0000366,20 C30.0000366,22.6626667 28.7207032,38.7046667 28.6667032,39.3866667 C28.6388385,39.7338813 28.3483657,40.0011163 28.0000366,40 L28.0000366,40 L16.6667032,40 C16.3374096,39.9986374 16.0584403,39.7570529 16.0100366,39.4313333 C15.9260366,38.856 13.9640366,25.2706667 14.6733699,18.598 C14.8787032,16.664 12.9160366,14.838 9.94536989,12.0733333 C9.01803656,11.21 7.96803656,10.2326667 6.86670323,9.14 C1.47003656,3.788 0.12203656,1.07 0.0667032262,0.957333333 C-0.0333919598,0.750727075 -0.0201406287,0.507154915 0.101777906,0.31262712 C0.22369644,0.118099325 0.437127113,0 0.666703226,0 L0.666703226,0 Z M24.8080565,21.6053595 C24.4768399,21.3530227 24.0467559,21.2699076 23.6453699,21.3806667 C22.5685403,21.6773335 21.4315328,21.6773335 20.3547032,21.3806667 C19.9533172,21.2699076 19.5232332,21.3530227 19.1920166,21.6053595 C18.8608,21.8576963 18.6664838,22.2502795 18.6667032,22.6666667 C18.6500922,23.2059293 18.8156656,23.7350597 19.1367032,24.1686667 C19.6640366,24.6986667 22.7080366,27.8553333 22.7080366,30 L22.7080366,30 L21.3747032,30 C21.3747032,29.3006667 20.7600366,28.2346667 20.0000366,27.2126667 L20.0000366,27.2126667 L20.0000366,38.6666667 L24.6667032,38.6666667 L24.6667032,25.3333333 C24.5886186,24.6171612 24.7651607,23.8963595 25.1653699,23.2973333 L25.1653699,23.2973333 C25.3060889,23.1180815 25.3657266,22.8905923 25.3333699,22.6666667 C25.3335893,22.2502795 25.1392731,21.8576963 24.8080565,21.6053595 Z M5.74470323,1.33333333 L1.85603656,1.33333333 C3.61580568,3.80373988 5.60703188,6.10079344 7.80270323,8.19333333 C8.88936989,9.27133333 9.93070323,10.2406667 10.8507032,11.0966667 C14.1153699,14.1366667 16.2720366,16.14 15.9960366,18.7366667 C15.3853699,24.4873333 16.8773699,35.9786667 17.2467032,38.6666667 L17.2467032,38.6666667 L18.6667032,38.6666667 L18.6667032,26.6666667 C18.6789215,26.0750631 18.4825641,25.4980271 18.1120366,25.0366667 C17.5952188,24.3557268 17.3211112,23.5214353 17.3333699,22.6666667 C17.3331967,21.8341634 17.7218276,21.0493445 18.3840601,20.5448549 C19.0462926,20.0403653 19.9061351,19.8740956 20.7087032,20.0953333 C21.5544073,20.3240026 22.4456658,20.3240026 23.2913699,20.0953333 C24.093938,19.8740956 24.9537805,20.0403653 25.616013,20.5448549 C26.2782455,21.0493445 26.6668764,21.8341634 26.6667032,22.6666667 C26.7013446,23.1620399 26.5596556,23.6537009 26.2667032,24.0546667 L26.2667032,24.0546667 L26.2122839,24.1349965 C26.0966795,24.3151733 26.0000366,24.5591111 26.0000366,25.3333333 L26.0000366,25.3333333 L26.0000366,38.6666667 L27.3840366,38.6666667 C27.4999131,37.2061728 27.8015583,33.3628331 28.0832208,29.5107127 L28.1477714,28.6226865 C28.4251422,24.7832629 28.6667032,21.117679 28.6667032,20 C28.7087662,18.742183 28.9414133,17.4980266 29.3567032,16.31 C30.0300366,14.062 30.6133699,12.1206667 28.1467032,9.08666667 C25.8027032,6.2 21.9560366,2.254 21.0513699,1.33333333 L21.0513699,1.33333333 L16.9847032,1.33333333 L24.9907032,9.33933333 C26.0729047,9.33090248 27.1134348,9.75609371 27.8800366,10.52 C28.5092085,11.2063225 28.8513483,12.1077202 28.8360366,13.0386667 C28.8360366,14.6993333 27.9013699,16 26.7080366,16 C26.5260386,15.9809021 26.3451443,16.0449772 26.2157457,16.1743758 C26.0863471,16.3037744 26.022272,16.4846687 26.0413699,16.6666667 C26.0413699,18.692 24.4707032,20 22.0413699,20 C19.6120366,20 18.0413699,18.692 18.0413699,16.6666667 C18.039182,15.8356711 18.29777,15.0249313 18.7807032,14.3486667 L18.7807032,14.3486667 L5.74470323,1.33333333 Z M22.6667032,31.3333333 L22.6667032,32.6666667 L21.3333699,32.6666667 L21.3333699,31.3333333 L22.6667032,31.3333333 Z M21.0000366,22.7333333 C21.6605718,23.0272515 22.4142945,23.0296711 23.0767032,22.74 L23.0767032,22.74 L23.6733699,23.9333333 C23.1833394,24.1766265 22.6431307,24.3017467 22.0960366,24.2986667 C21.5144935,24.2977784 20.939786,24.1732471 20.4100366,23.9333333 L20.4100366,23.9333333 Z M15.0987032,1.33333333 L7.63203656,1.33333333 L20.1540366,13.838 C20.2792213,13.9630455 20.349561,14.1327272 20.349561,14.3096667 C20.349561,14.4866062 20.2792213,14.6562878 20.1540366,14.7813333 C19.6522167,15.2801838 19.3708615,15.9590852 19.3727032,16.6666667 C19.3727032,18.472 21.2393699,18.6666667 22.0393699,18.6666667 C22.8393699,18.6666667 24.7060366,18.472 24.7060366,16.6666667 C24.6872126,16.1306844 24.8918752,15.610966 25.2711055,15.2317357 C25.6503359,14.8525053 26.1700543,14.6478427 26.7060366,14.6666667 C27.0660366,14.6666667 27.5007032,13.9406667 27.5007032,13.0386667 C27.5153294,12.4479171 27.3032631,11.8739785 26.9080366,11.4346667 C26.3142424,10.8824883 25.5164699,10.6039932 24.7080366,10.6666667 C24.3478675,10.6437151 23.9952292,10.7768036 23.7400347,11.0319981 C23.4848401,11.2871927 23.3517517,11.6398309 23.3747032,12 L23.3747032,12 L22.0413699,12 C21.992422,11.0132005 22.5326352,10.0911215 23.4173699,9.65133333 L23.4173699,9.65133333 L15.0987032,1.33333333 Z M25.1640366,12.698 L25.5893699,13.9646667 C24.7085484,14.2651082 24.0968407,15.0683368 24.0413699,15.9973333 L24.0413699,15.9973333 L22.7080366,15.9973333 C22.7080366,13.5453333 25.0640366,12.732 25.1640366,12.698 L25.1640366,12.698 Z M20.6667032,9.33333333 L20.6667032,10.6666667 L19.3333699,10.6666667 L19.3333699,9.33333333 L20.6667032,9.33333333 Z" id="Combined-Shape"></path>
                            </g>
                        </g>
                    </g>
                </g>
            </g>
        </g>
    </g>
</svg>