<?xml version="1.0" encoding="UTF-8"?>
<svg width="21px" height="23px" viewBox="0 0 21 23" version="1.1" xmlns="http://www.w3.org/2000/svg" xmlns:xlink="http://www.w3.org/1999/xlink">
    <title>4B9DC64E-F6FA-43C8-AC8C-BB3F327D71D1</title>
    <g id="Product-category-&amp;-Details-&amp;-Cart" stroke="none" stroke-width="1" fill="none" fill-rule="evenodd">
        <g id="Detalji-proizvoda" transform="translate(-557.000000, -713.000000)" fill="#497A59" fill-rule="nonzero">
            <g id="Fotografije" transform="translate(255.000000, 169.000000)">
                <g id="calendar" transform="translate(302.000000, 544.000000)">
                    <path d="M16.4140039,11.2957851 L18.0183438,11.2957851 C18.3810429,11.2957851 18.6761347,11.0006933 18.6761347,10.6379941 L18.6761347,9.03365429 C18.6761347,8.67095507 18.3810429,8.37586328 18.0183438,8.37586328 L16.4140039,8.37586328 C16.0513047,8.37586328 15.7562129,8.67095507 15.7562129,9.03365429 L15.7562129,10.6379941 C15.7562129,11.0006933 16.0513047,11.2957851 16.4140039,11.2957851 Z M16.430041,9.0496914 L18.0023067,9.0496914 L18.0023067,10.6219571 L16.430041,10.6219571 L16.430041,9.0496914 Z M16.4140039,15.5633632 L18.0183438,15.5633632 C18.3810429,15.5633632 18.6761347,15.2682714 18.6761347,14.9055723 L18.6761347,13.3012324 C18.6761347,12.9385332 18.3810429,12.6434414 18.0183438,12.6434414 L16.4140039,12.6434414 C16.0513047,12.6434414 15.7562129,12.9385332 15.7562129,13.3012324 L15.7562129,14.9055723 C15.7562129,15.2682714 16.0513047,15.5633632 16.4140039,15.5633632 L16.4140039,15.5633632 Z M16.430041,13.3172696 L18.0023067,13.3172696 L18.0023067,14.8895352 L16.430041,14.8895352 L16.430041,13.3172696 Z M11.8357461,11.2957851 L13.4400859,11.2957851 C13.8027851,11.2957851 14.0978769,11.0006933 14.0978769,10.6379941 L14.0978769,9.03365429 C14.0978769,8.67095507 13.8027851,8.37586328 13.4400859,8.37586328 L11.8357461,8.37586328 C11.4730469,8.37586328 11.1779551,8.67095507 11.1779551,9.03365429 L11.1779551,10.6379941 C11.1779551,11.0006933 11.4730469,11.2957851 11.8357461,11.2957851 Z M11.8517832,9.0496914 L13.4240489,9.0496914 L13.4240489,10.6219571 L11.8517832,10.6219571 L11.8517832,9.0496914 Z M4.28357031,16.7109375 L2.67923047,16.7109375 C2.31653125,16.7109375 2.02143945,17.0060293 2.02143945,17.3687285 L2.02143945,18.9730684 C2.02143945,19.3357676 2.31653125,19.6308594 2.67923047,19.6308594 L4.28357031,19.6308594 C4.64626953,19.6308594 4.94136133,19.3357676 4.94136133,18.9730684 L4.94136133,17.3687285 C4.94136133,17.0060293 4.64626953,16.7109375 4.28357031,16.7109375 Z M4.2675332,18.9570312 L2.69526757,18.9570312 L2.69526757,17.3847656 L4.2675332,17.3847656 L4.2675332,18.9570312 Z M4.28357031,8.37586328 L2.67923047,8.37586328 C2.31653125,8.37586328 2.02143945,8.67095507 2.02143945,9.03365429 L2.02143945,10.6379941 C2.02143945,11.0006933 2.31653125,11.2957851 2.67923047,11.2957851 L4.28357031,11.2957851 C4.64626953,11.2957851 4.94136133,11.0006933 4.94136133,10.6379941 L4.94136133,9.03365429 C4.94136133,8.67091015 4.64626953,8.37586328 4.28357031,8.37586328 Z M4.2675332,10.6219571 L2.69526757,10.6219571 L2.69526757,9.0496914 L4.2675332,9.0496914 L4.2675332,10.6219571 Z M11.8357461,15.4633223 L13.4400859,15.4633223 C13.8027851,15.4633223 14.0978769,15.1682305 14.0978769,14.8055312 L14.0978769,13.2011914 C14.0978769,12.8384922 13.8027851,12.5434004 13.4400859,12.5434004 L11.8357461,12.5434004 C11.4730469,12.5434004 11.1779551,12.8384922 11.1779551,13.2011914 L11.1779551,14.8055312 C11.1779551,15.1682305 11.4730469,15.4633223 11.8357461,15.4633223 Z M11.8517832,13.2172285 L13.4240489,13.2172285 L13.4240489,14.7894941 L11.8517832,14.7894941 L11.8517832,13.2172285 Z M19.0107578,1.53965235 L17.5702929,1.53965235 L17.5702929,1.0245332 C17.5702929,0.459595703 17.1106973,0 16.5457597,0 L16.3910488,0 C15.8261563,0 15.3665606,0.459595703 15.3665606,1.0245332 L15.3665606,1.53965235 L5.33101367,1.53965235 L5.33101367,1.0245332 C5.33101367,0.459595703 4.87141797,0 4.30648046,0 L4.15176953,0 C3.58683203,0 3.12723633,0.459595703 3.12723633,1.0245332 L3.12723633,1.53965235 L1.6868164,1.53965235 C0.756708984,1.53965235 0,2.29636133 0,3.22646875 L0,21.3154296 C0,22.2443242 0.755675781,23 1.68457031,23 L19.0130938,23 C19.9419883,23 20.697664,22.2443242 20.697664,21.3154296 L20.697664,3.22646875 C20.697664,2.29636133 19.9409101,1.53965235 19.0107578,1.53965235 L19.0107578,1.53965235 Z M16.0403887,1.0245332 C16.0403887,0.831144531 16.1977051,0.673828125 16.3910938,0.673828125 L16.5458047,0.673828125 C16.7391933,0.673828125 16.8965098,0.831144531 16.8965098,1.0245332 L16.8965098,1.53965235 L16.0403887,1.53965235 L16.0403887,1.0245332 Z M3.80110938,1.0245332 C3.80110938,0.831144531 3.95842578,0.673828125 4.15181445,0.673828125 L4.30652539,0.673828125 C4.49991406,0.673828125 4.65723047,0.831144531 4.65723047,1.0245332 L4.65723047,1.53965235 L3.8011543,1.53965235 L3.8011543,1.0245332 L3.80110938,1.0245332 Z M20.023791,21.3154296 C20.023791,21.8727753 19.5703945,22.3261719 19.0130488,22.3261719 L1.68452539,22.3261719 C1.12717969,22.3261719 0.673783203,21.8727753 0.673783203,21.3154296 L0.673783203,21.3133184 C0.956072269,21.5260234 1.30695703,21.6523437 1.6868164,21.6523437 L15.3467949,21.6523437 C15.7973614,21.6523437 16.2209746,21.4768789 16.5395605,21.158248 L20.023791,17.6740176 L20.023791,21.3154296 Z M16.1957734,20.5491074 C16.2221875,20.440082 16.2365625,20.3263847 16.2365625,20.2093632 L16.2365625,17.9603946 C16.2365625,17.536332 16.5816074,17.1912871 17.0057149,17.1912871 L19.2546387,17.1912871 C19.3716602,17.1912871 19.4853574,17.1769121 19.5943828,17.1504981 L16.1957734,20.5491074 Z M20.023791,6.35437891 L5.66792774,6.35437891 C5.48186133,6.35437891 5.33101367,6.50522656 5.33101367,6.69129297 C5.33101367,6.87735938 5.48186133,7.02820703 5.66792774,7.02820703 L20.023791,7.02820703 L20.023791,15.7483515 C20.023791,16.1724589 19.6787461,16.5175039 19.2546387,16.5175039 L17.0057149,16.5175039 C16.2100586,16.5175039 15.5627343,17.1648281 15.5627343,17.9604394 L15.5627343,20.2094082 C15.5627343,20.6335156 15.2176894,20.9785605 14.793627,20.9785605 L1.6868164,20.9785605 C1.12825782,20.9785605 0.673783203,20.5241309 0.673783203,19.9655274 L0.673783203,7.02820703 L4.32027148,7.02820703 C4.50633789,7.02820703 4.65718555,6.87735938 4.65718555,6.69129297 C4.65718555,6.50522656 4.50633789,6.35437891 4.32027148,6.35437891 L0.673783203,6.35437891 L0.673783203,3.22646875 C0.673783203,2.66791015 1.12821289,2.21348046 1.68677148,2.21348046 L3.12723633,2.21348046 L3.12723633,3.20409766 C3.12723633,3.76903516 3.58683203,4.22863085 4.15176953,4.22863085 C4.33783593,4.22863085 4.48868359,4.07778321 4.48868359,3.8917168 C4.48868359,3.70565039 4.33783593,3.55480274 4.15176953,3.55480274 C3.95838086,3.55480274 3.80106446,3.39748632 3.80106446,3.20409766 L3.80106446,2.21348046 L15.3665606,2.21348046 L15.3665606,3.20409766 C15.3665606,3.76903516 15.8261563,4.22863085 16.3910938,4.22863085 C16.5771602,4.22863085 16.7280078,4.07778321 16.7280078,3.8917168 C16.7280078,3.70565039 16.5771602,3.55480274 16.3910938,3.55480274 C16.1977051,3.55480274 16.0403887,3.39748632 16.0403887,3.20409766 L16.0403887,2.21348046 L19.0108027,2.21348046 C19.5693614,2.21348046 20.023791,2.66791015 20.023791,3.22646875 L20.023791,6.35437891 Z M4.28357031,12.5434004 L2.67923047,12.5434004 C2.31653125,12.5434004 2.02143945,12.8384922 2.02143945,13.2011914 L2.02143945,14.8055312 C2.02143945,15.1682305 2.31653125,15.4633223 2.67923047,15.4633223 L4.28357031,15.4633223 C4.64626953,15.4633223 4.94136133,15.1682305 4.94136133,14.8055312 L4.94136133,13.2011914 C4.94136133,12.8384473 4.64626953,12.5434004 4.28357031,12.5434004 Z M4.2675332,14.7894941 L2.69526757,14.7894941 L2.69526757,13.2172285 L4.2675332,13.2172285 L4.2675332,14.7894941 Z M7.25748828,11.2957851 L8.86182812,11.2957851 C9.2245273,11.2957851 9.51961911,11.0006933 9.51961911,10.6379941 L9.51961911,9.03365429 C9.51961911,8.67095507 9.2245273,8.37586328 8.86182812,8.37586328 L7.25748828,8.37586328 C6.89478906,8.37586328 6.59969726,8.67095507 6.59969726,9.03365429 L6.59969726,10.6379941 C6.59969726,11.0006933 6.89478906,11.2957851 7.25748828,11.2957851 Z M7.27352539,9.0496914 L8.84579102,9.0496914 L8.84579102,10.6219571 L7.27352539,10.6219571 L7.27352539,9.0496914 Z M11.8513789,18.9570312 C11.8430235,18.778377 11.6955449,18.6361543 11.5148242,18.6361543 C11.3287578,18.6361543 11.1779102,18.787002 11.1779102,18.9730684 C11.1779102,19.3357676 11.4730019,19.6308594 11.8357012,19.6308594 L13.440041,19.6308594 C13.8027402,19.6308594 14.097832,19.3357676 14.097832,18.9730684 L14.097832,17.3687285 C14.097832,17.0060293 13.8027402,16.7109375 13.440041,16.7109375 L11.8357012,16.7109375 C11.4730019,16.7109375 11.1779102,17.0060293 11.1779102,17.3687285 L11.1779102,17.8314238 C11.1779102,18.0174902 11.3287578,18.1683379 11.5148242,18.1683379 C11.7008906,18.1683379 11.8517383,18.0174902 11.8517383,17.8314238 L11.8517383,17.3847656 L13.4240039,17.3847656 L13.4240039,18.9570312 L11.8513789,18.9570312 Z M7.25748828,15.4633223 L8.86182812,15.4633223 C9.2245273,15.4633223 9.51961911,15.1682305 9.51961911,14.8055312 L9.51961911,13.2011914 C9.51961911,12.8384922 9.2245273,12.5434004 8.86182812,12.5434004 L7.25748828,12.5434004 C6.89478906,12.5434004 6.59969726,12.8384922 6.59969726,13.2011914 L6.59969726,14.8055312 C6.59969726,15.1682305 6.89478906,15.4633223 7.25748828,15.4633223 Z M7.27352539,13.2172285 L8.84579102,13.2172285 L8.84579102,14.7894941 L7.27352539,14.7894941 L7.27352539,13.2172285 Z M7.25748828,19.6308594 L8.86182812,19.6308594 C9.2245273,19.6308594 9.51961911,19.3357676 9.51961911,18.9730684 L9.51961911,17.3687285 C9.51961911,17.0060293 9.2245273,16.7109375 8.86182812,16.7109375 L7.25748828,16.7109375 C6.89478906,16.7109375 6.59969726,17.0060293 6.59969726,17.3687285 L6.59969726,18.9730684 C6.59969726,19.3357676 6.89478906,19.6308594 7.25748828,19.6308594 Z M7.27352539,17.3847656 L8.84579102,17.3847656 L8.84579102,18.9570312 L7.27352539,18.9570312 L7.27352539,17.3847656 Z" id="Shape"></path>
                </g>
            </g>
        </g>
    </g>
</svg>