<?xml version="1.0" encoding="UTF-8"?>
<svg width="41px" height="32px" viewBox="0 0 41 32" version="1.1" xmlns="http://www.w3.org/2000/svg" xmlns:xlink="http://www.w3.org/1999/xlink">
    <title>DCE3B81D-B2F7-4950-B602-59B93A43E861</title>
    <g id="PoÄetna-&amp;-Dropdowns" stroke="none" stroke-width="1" fill="none" fill-rule="evenodd">
        <g id="Prema-formi-izbornik" transform="translate(-737.000000, -169.000000)" fill="#497A59" fill-rule="nonzero">
            <g id="kategorije" transform="translate(712.000000, 140.000000)">
                <g id="capsule" transform="translate(25.000000, 29.000000)">
                    <path d="M11.7552432,14.2391351 C11.4853795,13.9708723 11.0495394,13.9708723 10.7796757,14.2391351 L7.36864865,17.6501622 C7.19314434,17.8244305 7.12394274,18.0790916 7.18711141,18.3182169 C7.25028009,18.5573423 7.43622221,18.7446032 7.6748952,18.8094602 C7.91356818,18.8743172 8.16871191,18.806917 8.34421622,18.6326486 L11.7552432,15.2147027 C12.0235061,14.944839 12.0235061,14.5089989 11.7552432,14.2391351 L11.7552432,14.2391351 Z" id="Path"></path>
                    <path d="M17.4149189,7.46551351 L16.0864865,8.78702703 C15.8182237,9.05689078 15.8182237,9.49273084 16.0864865,9.76259459 C16.3563502,10.0308574 16.7921903,10.0308574 17.0620541,9.76259459 L18.3974054,8.47567568 C18.6687116,8.20436952 18.6687116,7.76449534 18.3974054,7.49318919 C18.1260993,7.22188304 17.6862251,7.22188304 17.4149189,7.49318919 L17.4149189,7.46551351 Z" id="Path"></path>
                    <path d="M25.1779459,4.54572973 C25.3522587,4.60492153 25.5429737,4.59220705 25.7078864,4.51039994 C25.8727992,4.42859283 25.9983117,4.28443857 26.0566486,4.10983784 C26.1158405,3.93552505 26.103126,3.74481012 26.0213189,3.57989737 C25.9395117,3.41498462 25.7953575,3.2894721 25.6207568,3.23113514 C23.8063537,2.60559724 21.7939815,3.07640625 20.4454054,4.44194595 L19.3245405,5.56281081 C19.0562777,5.83267456 19.0562777,6.26851463 19.3245405,6.53837838 C19.5944043,6.80664119 20.0302444,6.80664119 20.3001081,6.53837838 L21.4278919,5.41751351 C22.406764,4.4308648 23.8642357,4.09204298 25.1779459,4.54572973 L25.1779459,4.54572973 Z" id="Path"></path>
                    <path d="M33.4668108,16.7783784 L25.856,16.7783784 L29.6198919,13.0214054 C31.6150411,11.1402044 32.4294123,8.32290387 31.7456645,5.66733865 C31.0619168,3.01177343 28.9882266,0.938083185 26.3326613,0.254335455 C23.6770961,-0.429412275 20.8597956,0.384958946 18.9785946,2.38010811 L10.6343784,10.7243243 L2.28324324,19.0685405 C0.132249917,21.2213906 -0.510897133,24.457601 0.653463126,27.2693267 C1.81782338,30.0810523 4.56061532,31.9151157 7.60389189,31.916973 C7.87898701,31.9148296 8.15379404,31.8986645 8.42724324,31.8685405 C8.89965954,31.9558089 9.37905037,32 9.85945946,32 L33.4668108,32 C37.6227099,31.9961855 40.9907801,28.6281154 40.9945946,24.4722162 L40.9945946,24.3061622 C40.9907801,20.150263 37.6227099,16.7821929 33.4668108,16.7783784 Z M19.9541622,3.35567568 C21.5052742,1.80456361 23.7660692,1.19878537 25.8849276,1.76653177 C28.0037861,2.33427816 29.6588029,3.989295 30.2265493,6.10815344 C30.7942957,8.22701188 30.1885175,10.4878069 28.6374054,12.0389189 L23.6972973,16.979027 L23.6972973,16.979027 L21.1303784,19.5459459 L21.1303784,19.5459459 L20.7844324,19.8988108 L12.1011892,11.2432432 L19.9541622,3.35567568 Z M3.26572973,28.7342703 C2.11312872,27.5819966 1.46557669,26.0189817 1.46557669,24.3891892 C1.46557669,22.7593967 2.11312872,21.1963817 3.26572973,20.0441081 L11.1187027,12.1911351 L19.8088649,20.8743784 L11.9351351,28.7342703 C10.7840429,29.8864508 9.22217348,30.5338306 7.59351351,30.5338306 C5.96485355,30.5338306 4.40298412,29.8864508 3.25189189,28.7342703 L3.26572973,28.7342703 Z M12.9522162,29.7098378 L20.9297297,21.7046486 L20.9297297,30.6162162 L11.8313514,30.6162162 C12.2243873,30.3475513 12.5925618,30.0442126 12.9314595,29.7098378 L12.9522162,29.7098378 Z M39.6108108,24.4722162 C39.6069978,27.8638731 36.8584677,30.6124032 33.4668108,30.6162162 L22.3135135,30.6162162 L22.3135135,20.3208649 L24.4722162,18.1621622 L33.4668108,18.1621622 C36.8584677,18.1659752 39.6069978,20.9145053 39.6108108,24.3061622 L39.6108108,24.4722162 Z" id="Shape"></path>
                    <path d="M32.6918919,19.5459459 L28.5405405,19.5459459 C28.1584192,19.5459459 27.8486486,19.8557165 27.8486486,20.2378378 C27.8486486,20.6199592 28.1584192,20.9297297 28.5405405,20.9297297 L32.6918919,20.9297297 C33.0740132,20.9297297 33.3837838,20.6199592 33.3837838,20.2378378 C33.3837838,19.8557165 33.0740132,19.5459459 32.6918919,19.5459459 Z" id="Path"></path>
                </g>
            </g>
        </g>
    </g>
</svg>