<?xml version="1.0" encoding="UTF-8"?>
<svg width="31px" height="27px" viewBox="0 0 31 27" version="1.1" xmlns="http://www.w3.org/2000/svg" xmlns:xlink="http://www.w3.org/1999/xlink">
    <title>3FFE96B2-FE42-4186-A014-1F3129C88E5E</title>
    <g id="Početna-&amp;-Dropdowns" stroke="none" stroke-width="1" fill="none" fill-rule="evenodd">
        <g id="Početna" transform="translate(-1620.000000, -37.000000)" fill="#383838" fill-rule="nonzero">
            <g id="Ikone" transform="translate(1513.000000, 26.000000)">
                <g id="košarica" transform="translate(107.000000, 0.000000)">
                    <g id="shopping-cart" transform="translate(0.000000, 11.000000)">
                        <path d="M29.2902319,3.94085106 C29.1676979,3.81831702 29.0451064,3.69572553 28.8000383,3.69572553 L5.51489362,3.69572553 L4.90210851,0.509380851 C4.90210851,0.264255319 4.53444894,0.0191872239 4.2893234,0.0191872239 L0.61272766,0.0191872239 C0.245125532,0.0191872239 0,0.264255319 0,0.631914894 C0,0.999574468 0.245125532,1.2447 0.612785106,1.2447 L3.79918723,1.2447 L6.74046383,16.1962085 C7.1081234,18.1570404 8.94642128,19.6276787 10.9072532,19.6276787 L25.0008511,19.6276787 C25.3685106,19.6276787 25.6136362,19.3825532 25.6136362,19.0148936 C25.6136362,18.647234 25.3685106,18.4021085 25.0008511,18.4021085 L11.0297872,18.4021085 C10.0493426,18.4021085 9.06895532,17.9119149 8.57870426,17.0540043 L26.4714894,14.6029787 C26.7166149,14.6029787 26.961683,14.3578532 26.961683,14.1127851 L29.412766,4.30851064 C29.412766,4.30851064 29.412766,4.06338511 29.2902319,3.94085106 Z M25.8587043,13.5 L7.96591915,15.8284915 L5.7599617,4.79870426 L27.9421277,4.79870426 L25.8587043,13.5 Z" id="Shape"></path>
                        <path d="M10.4170021,20.8531915 C8.70129574,20.8531915 7.35319149,22.2012957 7.35319149,23.9170021 C7.35319149,25.632766 8.70129574,26.9808128 10.4170021,26.9808128 C12.132766,26.9808128 13.4808128,25.6327085 13.4808128,23.9170021 C13.4808128,22.2012957 12.132766,20.8531915 10.4170021,20.8531915 Z M10.4170021,25.7553 C9.43655745,25.7553 8.57870426,24.8973894 8.57870426,23.9170021 C8.57870426,22.9366149 9.43655745,22.0787043 10.4170021,22.0787043 C11.3974468,22.0787043 12.2553,22.9366149 12.2553,23.9170021 C12.2553,24.8973894 11.3974468,25.7553 10.4170021,25.7553 Z" id="Shape"></path>
                        <path d="M22.6723596,20.8531915 C20.9565957,20.8531915 19.6085489,22.2012957 19.6085489,23.9170021 C19.6085489,25.632766 20.9566532,26.9808128 22.6723596,26.9808128 C24.3881234,26.9808128 25.7361702,25.6327085 25.7361702,23.9170021 C25.7361702,22.2012957 24.388066,20.8531915 22.6723596,20.8531915 Z M22.6723596,25.7553 C21.6919149,25.7553 20.8340617,24.8973894 20.8340617,23.9170021 C20.8340617,22.9366149 21.6919149,22.0787043 22.6723596,22.0787043 C23.6528043,22.0787043 24.5106574,22.9366149 24.5106574,23.9170021 C24.5106574,24.8973894 23.6527468,25.7553 22.6723596,25.7553 Z" id="Shape"></path>
                    </g>
                </g>
            </g>
        </g>
    </g>
</svg>