<?xml version="1.0" encoding="UTF-8"?>
<svg width="40px" height="44px" viewBox="0 0 40 44" version="1.1" xmlns="http://www.w3.org/2000/svg" xmlns:xlink="http://www.w3.org/1999/xlink">
    <title>4EA3DD36-EF29-4128-A619-13548B100D09</title>
    <g id="Početna-&amp;-Dropdowns" stroke="none" stroke-width="1" fill="none" fill-rule="evenodd">
        <g id="Početna" transform="translate(-1240.000000, -2754.000000)" fill="#497A59" fill-rule="nonzero">
            <g id="Pretrazi-prema-namjeni" transform="translate(285.000000, 2731.000000)">
                <g id="namjene" transform="translate(270.000000, 0.000000)">
                    <g id="za-koncentraciju" transform="translate(647.000000, 0.000000)">
                        <g id="Group-60" transform="translate(13.000000, 0.000000)">
                            <g id="brain" transform="translate(25.039621, 23.013288)">
                                <path d="M14.6920788,1.07131141 C23.6356722,-0.996472487 28.601085,-0.163350483 34.3635965,4.37961911 C36.4578247,5.95365908 37.987351,8.16459671 38.7235069,10.6818903 C39.2729404,12.7093979 39.52979,14.8052917 39.4862353,16.9057586 C39.4328516,20.683018 37.7933147,22.901013 36.3468365,24.8596191 C35.588309,25.8066717 34.9398717,26.8371873 34.4140551,27.9312527 C33.5320595,29.9534471 33.2039076,32.1746465 33.4633869,34.3661493 C33.6636561,36.588853 34.2320877,38.7625972 35.1453383,40.798115 C35.4834563,41.4792692 35.4460457,42.2871742 35.0464332,42.9340314 C34.6468208,43.5808885 33.9418207,43.9747317 33.1825742,43.9752628 L33.1825742,43.9752628 L18.4355174,43.9752628 C17.4944022,43.9719571 16.6593509,43.3698899 16.3572106,42.4768155 C15.6654167,40.461056 14.7059732,38.9955819 13.6968024,38.3925393 C11.6808981,39.1197456 9.62712113,39.7368834 7.54451692,40.2412348 C6.13814814,40.5477518 4.73898121,39.6953026 4.36343506,38.3031454 C4.04460108,37.467297 4.00331177,36.5507024 4.24569847,35.6894724 C4.33890535,35.4263131 4.36011521,35.1429527 4.30712626,34.8688069 C4.24935488,34.6423912 4.08262232,34.5280842 3.65409037,34.2826173 C3.47931369,34.1851633 3.30526829,34.0818474 3.14219214,33.9653422 C2.90687295,33.7977161 2.75144524,33.5398353 2.71292891,33.2531218 C2.68239138,32.8835791 2.7642284,32.5134309 2.94767081,32.1913858 L2.94767081,32.1913858 L2.64910836,31.9591609 C2.50278737,31.8434823 2.36747073,31.7331321 2.27269643,31.6491604 C1.59845333,31.079091 2.02844784,30.3148463 2.31364829,29.8092577 C2.41090895,29.6363318 2.52279528,29.4384928 2.63029391,29.2084134 C2.7308756,28.9765146 2.75916979,28.7195728 2.71146634,28.4712799 C2.67563347,28.2785701 2.14837829,28.0089229 1.83392652,27.8477207 C1.56837306,27.721018 1.31374764,27.5724975 1.07266072,27.4036821 C0.52200434,27.104189 0.131701428,26.5760448 0.00644983215,25.9609229 C-0.0739913184,25.0757765 0.5819697,24.2206724 2.87893019,21.7410903 C3.45023642,21.0668805 3.80863014,20.2377225 3.90857692,19.3589622 C3.95691232,19.1251514 4.04102801,18.9002322 4.15794449,18.6921715 C4.22039244,18.5861551 4.26788933,18.4719852 4.29908214,18.3529143 C4.29688829,18.141886 4.0614151,17.9103411 3.70381763,17.5813422 C3.16528458,17.1825752 2.78767308,16.6031999 2.63980059,15.9488041 C2.64431455,15.1759262 2.85162044,14.4178312 3.24091537,13.750593 C3.50889643,13.1990696 3.72530599,12.6238553 3.88736971,12.0323247 L3.88736971,12.0323247 L3.94514108,11.7787976 C4.11478888,10.9665395 4.33608771,10.1659792 4.60768365,9.38201481 C5.24746138,7.6015722 6.24277164,5.97050606 7.53281639,4.58844916 C9.51386255,2.48915757 12.262756,1.63258798 14.6920788,1.07131141 Z M33.4611931,5.53294719 C28.7129713,1.79085918 24.5578203,0.293144687 15.0167685,2.49721767 C12.6876316,3.03504665 10.3014545,3.78243843 8.59244573,5.5944971 C7.43836364,6.83250453 6.54786439,8.29294469 5.97518321,9.88687063 C5.72594124,10.6134266 5.52248778,11.3549507 5.36602431,12.1070638 L5.36602431,12.1070638 L5.30679037,12.3627891 C5.12647954,13.046214 4.88161273,13.7108769 4.57550719,14.3477737 C4.34059345,14.7847593 4.17574623,15.2560518 4.08701002,15.7443704 C4.11845519,15.9700535 4.39926794,16.2265114 4.69178121,16.4976241 C5.29915986,16.9255344 5.69051993,17.597198 5.76384236,18.3375268 C5.75013478,18.6968833 5.64734464,19.0471653 5.46474754,19.356764 C5.42179098,19.4357706 5.38464081,19.5178104 5.3535925,19.6022309 C5.20983029,20.764353 4.72237233,21.8568067 3.95391648,22.7390781 C3.08880847,23.6733179 1.47998545,25.4121028 1.46755364,25.8356248 C1.61793071,25.9806216 1.77956512,26.1134205 1.95093183,26.2327683 C2.12739331,26.3503659 2.31216504,26.4549352 2.50378192,26.545647 C3.12902904,26.8658531 3.98243652,27.3032971 4.1528255,28.2023654 C4.25811249,28.7554937 4.18937561,29.3277329 3.95611033,29.8400327 C3.8310609,30.1023526 3.70235506,30.332432 3.59046873,30.5310037 C3.55171072,30.5969501 3.51002758,30.6746202 3.47273214,30.7434975 C3.77255825,30.9838352 4.18938966,31.2981794 4.36489763,31.4286066 C4.52300993,31.5462956 4.62705651,31.7229166 4.65348482,31.9184887 C4.67991313,32.1140609 4.62648836,32.3120462 4.505304,32.4676277 C4.39689119,32.6097288 4.30305601,32.7624222 4.22522254,32.9233901 C4.27714364,32.9541651 4.32979603,32.9834746 4.38244842,33.0135168 C5.0269554,33.2939185 5.51782979,33.8413994 5.7272782,34.5134295 C5.84142135,35.0159707 5.82200562,35.5397216 5.6709694,36.0323933 C5.48993593,36.6218402 5.51574268,37.255621 5.74409772,37.8283318 C5.89769993,38.5090364 6.56310318,38.9444361 7.24688467,38.8116649 C9.36761754,38.2917259 11.4587295,37.6572257 13.5110564,36.910945 L13.5110564,36.910945 C14.2299078,36.6647454 14.8756309,36.4361314 15.3999609,36.2514817 C15.9601238,36.0543755 16.3828055,35.9056298 16.5963402,35.838218 C19.6282403,34.8827289 20.2425182,33.7814252 20.2249674,33.0259733 C20.2204549,32.8316248 20.2932053,32.6434452 20.4272041,32.5028584 C20.5612029,32.3622716 20.7454658,32.280802 20.9394311,32.2763833 C21.1347762,32.2663099 21.325645,32.3372579 21.4671706,32.4725496 C21.608696,32.6078414 21.6883954,32.7955441 21.6875338,32.9915347 C21.7306795,34.8175153 20.1657335,36.2492835 17.037304,37.2355475 C16.8354698,37.3000284 16.4252199,37.4436449 15.8848017,37.6341565 L15.8848017,37.6341565 L15.3385331,37.8261336 C16.4423416,39.0195241 17.2630112,40.447217 17.7393358,42.0027347 C17.8395572,42.3033468 18.1192167,42.5070328 18.4355174,42.5097887 L18.4355174,42.5097887 L33.1825742,42.5097887 C33.4335973,42.5088054 33.6665735,42.3788826 33.7996966,42.1656407 C33.9328196,41.9523989 33.947482,41.6856442 33.8385352,41.4590438 C32.8475157,39.2719776 32.2295436,36.9338758 32.0103272,34.5420062 C31.7207579,32.0913233 32.0882873,29.6075911 33.0750756,27.3465286 C33.6438139,26.1502952 34.3475127,25.0233188 35.1723957,23.987662 C36.6159487,22.0341851 37.9790606,20.1884205 38.0251314,16.8845093 C38.0669505,14.9261854 37.8288189,12.9719446 37.3179806,11.081232 C36.6728117,8.85882123 35.3179707,6.90977846 33.4611931,5.53294719 Z M22.1588493,4.63648626 C22.7629576,3.29230975 24.2635444,2.60004876 25.6755683,3.01412935 C27.0875922,3.42820994 27.9788922,4.82189953 27.7643857,6.28032799 C27.5498791,7.73875647 26.2952173,8.81556036 24.8240074,8.80388529 C24.7742801,8.80388529 24.727478,8.78923055 24.6777507,8.78923055 C24.3940128,10.1389322 24.2821265,11.7546173 24.9015234,12.9357894 C25.4400482,13.1637358 25.9488661,13.4565433 26.4167421,13.8077465 C26.9442938,12.7351283 27.680491,11.7789845 28.5820717,10.9955018 C28.1870195,9.50538919 28.9615248,7.95377478 30.3884223,7.37672803 C31.8153197,6.79968128 33.4477372,7.37792019 34.1956502,8.72533354 C34.9435631,10.0727469 34.5727421,11.7673554 33.3307977,12.677607 C32.0888534,13.5878588 30.3647346,13.4286834 29.3096984,12.3063683 C28.4918818,13.0938458 27.8515866,14.047454 27.4317632,15.1032255 C27.7095656,15.8533197 27.7436077,16.6722102 27.5290239,17.4428549 C28.5204042,17.5047043 29.4567952,17.9206655 30.1682249,18.6152341 C31.5200498,17.9711226 33.1389912,18.434926 33.9466842,19.6977084 C34.7543771,20.9604907 34.4987109,22.6280911 33.349983,23.5897333 C32.201255,24.5513755 30.5180255,24.5068955 29.4214813,23.4859211 C28.3249371,22.4649468 28.1573498,20.7861617 29.0303482,19.5677923 C28.503385,19.0261566 27.7302974,18.8033232 26.9966497,18.9816026 C26.7216872,19.6337386 26.3969975,20.301262 26.0708452,20.9526653 C24.7289405,23.6381465 23.9493927,25.4787819 25.2839845,26.5507762 C29.194887,29.6854252 28.5118685,39.9290889 28.4804233,40.3636019 C28.4531292,40.7478348 28.1335795,41.0452867 27.7491401,41.044317 L27.7491401,41.044317 L27.697219,41.044317 C27.503615,41.0304353 27.3234601,40.940004 27.1964433,40.7929433 C27.0694264,40.6458826 27.005969,40.4542583 27.0200508,40.260286 C27.2145721,37.5139876 27.1173114,29.9001171 24.3669554,27.6953114 C22.2974596,26.0302469 23.1715488,23.5726025 24.2887721,21.2514339 L24.4767641,20.8659955 C24.508317,20.8020195 24.5399417,20.7381886 24.5715804,20.6745227 L24.761117,20.2946674 C25.1391904,19.5384828 25.4960566,18.8240642 25.7673627,18.1382223 C26.2639039,16.8947676 26.3377635,16.0528527 26.0013733,15.4849815 C25.9381815,15.3742181 25.8604614,15.2724389 25.7702878,15.1823611 C25.2798848,14.7433793 24.710563,14.4019526 24.0927242,14.1763132 L24.0927242,14.1763132 L24.0810236,14.1704513 L24.0685918,14.1645894 C24.0448697,14.1542913 24.0216827,14.1427971 23.9991199,14.1301508 C23.0136145,13.7417947 21.9994292,13.4309076 20.9657573,13.2003075 C20.7797217,13.2669679 20.5990541,13.3478053 20.425339,13.4421107 C19.5251442,13.978796 18.7461692,14.6971871 18.1378852,15.5516606 C19.1152968,16.5539606 19.2514799,18.1079214 18.463357,19.2655617 C17.6752342,20.4232021 16.1815901,20.8631584 14.8936103,20.317039 C13.6056305,19.7709195 12.880861,18.3903282 13.1614417,17.0174836 C13.4420224,15.6446391 14.6500634,14.6606461 16.0486091,14.6657815 C16.3271053,14.6702526 16.6034821,14.7151729 16.8691088,14.7991397 C17.4212034,14.0326864 18.0754409,13.3455917 18.8135908,12.7570016 L18.8135908,12.7570016 L18.6965855,12.7350195 C16.6021905,12.3539962 14.5034077,12.1048656 12.9457745,11.9583182 C12.4590247,13.3582008 11.0090281,14.1767339 9.56188409,13.8685477 C8.11474011,13.5603615 7.12232452,12.2216882 7.24586113,10.7444551 C7.36939771,9.26722196 8.57031176,8.11270024 10.0484617,8.05012128 C11.5266117,7.98754238 12.8204401,9.03644665 13.0678988,10.4979733 C14.1655549,10.6027547 15.5301293,10.7566295 16.9766075,10.9691232 C16.7106445,10.5044519 16.5019229,10.0091673 16.3550168,9.49412358 C14.8955521,9.27849446 13.8231695,8.01004869 13.850858,6.53213092 C13.8785465,5.05421313 14.9976851,3.82698856 16.4641982,3.66639526 C17.9307113,3.50580197 19.2879846,4.46184237 19.6336153,5.89887913 C19.979246,7.3359159 19.2056183,8.80651252 17.8270898,9.33292143 C18.0919559,10.105898 18.5546756,10.7956726 19.1689945,11.3332935 C19.7708405,11.4424713 20.4107133,11.5714331 21.0834939,11.7231096 C21.8269651,11.8931046 22.5094961,12.0758004 23.1310868,12.2711969 C22.9121902,10.9679387 22.9619649,9.63357047 23.2773434,8.35032107 C22.0320034,7.56535909 21.5547411,5.98066275 22.1588493,4.63648626 Z M31.405556,19.7949408 C30.5978029,19.7949408 29.9429897,20.4510558 29.9429897,21.2604148 C29.9429897,22.0697738 30.5978029,22.7258889 31.405556,22.7258889 C32.2133091,22.7258889 32.8681224,22.0697738 32.8681224,21.2604148 C32.8681224,20.4510558 32.2133091,19.7949408 31.405556,19.7949408 Z M16.0486091,16.1312556 C15.240856,16.1312556 14.5860427,16.7873707 14.5860427,17.5967297 C14.5860427,18.4060886 15.240856,19.0622037 16.0486091,19.0622037 C16.8563622,19.0622037 17.5111755,18.4060886 17.5111755,17.5967297 C17.5111755,16.7873707 16.8563622,16.1312556 16.0486091,16.1312556 Z M10.1983436,9.53662233 C9.39059051,9.53662233 8.73577724,10.1927374 8.73577724,11.0020964 C8.73577724,11.8114554 9.39059051,12.4675704 10.1983436,12.4675704 C11.0060967,12.4675704 11.66091,11.8114554 11.66091,11.0020964 C11.66091,10.1927374 11.0060967,9.53662233 10.1983436,9.53662233 Z M31.405556,8.80388529 C30.5978029,8.80388529 29.9429897,9.46000038 29.9429897,10.2693594 C29.9429897,11.0787183 30.5978029,11.7348334 31.405556,11.7348334 C32.2133091,11.7348334 32.8681224,11.0787183 32.8681224,10.2693594 C32.8681224,9.46000038 32.2133091,8.80388529 31.405556,8.80388529 Z M16.7798923,5.14020014 C15.9721392,5.14020014 15.3173259,5.79631523 15.3173259,6.6056742 C15.3173259,7.41503318 15.9721392,8.07114826 16.7798923,8.07114826 C17.5876454,8.07114826 18.2424587,7.41503318 18.2424587,6.6056742 C18.2424587,5.79631523 17.5876454,5.14020014 16.7798923,5.14020014 Z M24.8240074,4.40746311 C24.0162542,4.40746311 23.361441,5.0635782 23.361441,5.87293717 C23.361441,6.68229615 24.0162542,7.33841123 24.8240074,7.33841123 C25.6317605,7.33841123 26.2865737,6.68229615 26.2865737,5.87293717 C26.2865737,5.0635782 25.6317605,4.40746311 24.8240074,4.40746311 Z" id="Combined-Shape"></path>
                            </g>
                        </g>
                    </g>
                </g>
            </g>
        </g>
    </g>
</svg>