<?xml version="1.0" encoding="UTF-8"?>
<svg width="32px" height="26px" viewBox="0 0 32 26" version="1.1" xmlns="http://www.w3.org/2000/svg" xmlns:xlink="http://www.w3.org/1999/xlink">
    <title>664B8D28-EA03-45F3-BFB1-64131610644F</title>
    <g id="Početna-&amp;-Dropdowns" stroke="none" stroke-width="1" fill="none" fill-rule="evenodd">
        <g id="Početna" transform="translate(-1131.000000, -1628.000000)" fill="#497A59" fill-rule="nonzero">
            <g id="Zasto-kupovati-na-suplementi.hr" transform="translate(0.000000, 990.000000)">
                <g id="Zasto-kupovati" transform="translate(1110.000000, 98.000000)">
                    <g id="benefiti" transform="translate(0.000000, 148.000000)">
                        <g id="savjetovanje" transform="translate(0.000000, 368.000000)">
                            <g id="email-(11)" transform="translate(21.000000, 24.000000)">
                                <path d="M15.7460952,0.181504762 C15.9878333,-0.0601714286 16.3798143,-0.0601714286 16.6215524,0.181504762 L16.6215524,0.181504762 L22.2134095,5.7733 C22.4551476,6.0151 22.4551476,6.40708095 22.2134095,6.64881905 C21.9716095,6.89049524 21.5796286,6.89049524 21.3378905,6.64881905 L21.3378905,6.64881905 L16.9313238,2.24231429 L16.9313238,13.1266571 C16.9313238,14.0295381 17.6658238,14.7641 18.5687667,14.7641 L18.5687667,14.7641 L29.4531714,14.7641 L24.8888095,10.1998 C24.6470714,9.958 24.6470714,9.56601905 24.8888095,9.32428095 C25.1306095,9.08260476 25.5225905,9.08260476 25.7643286,9.32428095 L25.7643286,9.32428095 L31.513919,15.0738714 C31.6299905,15.1900048 31.6953,15.3474905 31.6953,15.5116619 C31.6953,15.6758333 31.6300524,15.8332571 31.513981,15.9493905 L31.513981,15.9493905 L21.6450619,25.8183714 C21.5289905,25.9344429 21.3715048,25.9996905 21.2073333,25.9996905 C21.0431619,25.9996905 20.8856762,25.9344429 20.7696048,25.8183714 L20.7696048,25.8183714 L5.8772381,10.9260667 C5.6355,10.6842667 5.6355,10.2922857 5.8772381,10.0505476 L5.8772381,10.0505476 Z M15.6933524,11.1073238 L7.80940952,11.1073238 L20.5882857,23.8860762 L20.5882857,16.0021952 L18.5688905,16.0021952 C16.9833238,16.0021952 15.6933524,14.7122238 15.6933524,13.1266571 L15.6933524,13.1266571 L15.6933524,11.1073238 Z M29.7102,16.0021952 L21.826319,16.0021952 L21.826319,23.8861381 L29.7102,16.0021952 Z M11.0195429,20.2426095 C11.3614429,20.2426095 11.6385905,20.519819 11.6385905,20.8616571 C11.6385905,21.2034952 11.3614429,21.4807048 11.0195429,21.4807048 L11.0195429,21.4807048 L2.29103333,21.4807048 C1.94913333,21.4807048 1.67198571,21.2034952 1.67198571,20.8616571 C1.67198571,20.519819 1.94913333,20.2426095 2.29103333,20.2426095 L2.29103333,20.2426095 Z M8.31269524,16.2808286 C8.65453333,16.2808286 8.93174286,16.5580381 8.93174286,16.8998762 C8.93174286,17.2417143 8.65459524,17.5189238 8.31269524,17.5189238 L8.31269524,17.5189238 L4.84609048,17.5189238 C4.50419048,17.5189238 4.22704286,17.2417143 4.22704286,16.8998762 C4.22704286,16.5580381 4.50419048,16.2808286 4.84609048,16.2808286 L4.84609048,16.2808286 Z M4.24858571,12.8761286 C4.59048571,12.8761286 4.86763333,13.1533381 4.86763333,13.4951762 C4.86763333,13.8370762 4.59048571,14.1142238 4.24858571,14.1142238 L4.24858571,14.1142238 L0.619047619,14.1142238 C0.277147619,14.1142238 0,13.8370143 0,13.4951762 C0,13.1533381 0.277147619,12.8761286 0.619047619,12.8761286 L0.619047619,12.8761286 Z M6.09427619,12.8761286 C6.43617619,12.8761286 6.71332381,13.1533381 6.71332381,13.4951762 C6.71332381,13.8370143 6.43617619,14.1142238 6.09427619,14.1142238 L6.09427619,14.1142238 L6.08499048,14.1142238 C5.74309048,14.1142238 5.46594286,13.8370143 5.46594286,13.4951762 C5.46594286,13.1533381 5.74309048,12.8761286 6.08499048,12.8761286 L6.08499048,12.8761286 Z M15.6933524,1.98534762 L7.80940952,9.86929048 L15.6933524,9.86929048 L15.6933524,1.98534762 Z M23.1941048,7.62592381 C23.4368333,7.38517619 23.8287524,7.38678571 24.0695619,7.62945238 C24.3103714,7.87218095 24.310681,8.26601905 24.0679524,8.50682857 C23.9467429,8.62704762 23.7887619,8.68734286 23.6310286,8.68734286 C23.4728619,8.68734286 23.314881,8.6268 23.1943524,8.50528095 L23.1943524,8.50528095 C22.9498286,8.25871429 22.9514381,7.86673333 23.1941048,7.62592381 Z M2.60099048,6.37631429 C2.94289048,6.37631429 3.2200381,6.65352381 3.2200381,6.9953619 C3.2200381,7.3372 2.94289048,7.61440952 2.60099048,7.61440952 L2.60099048,7.61440952 L0.619852381,7.61440952 C0.277952381,7.61440952 0.000804761905,7.3372 0.000804761905,6.9953619 C0.000804761905,6.65352381 0.277952381,6.37631429 0.619852381,6.37631429 L0.619852381,6.37631429 Z M6.96490476,6.37631429 C7.30680476,6.37631429 7.58395238,6.65352381 7.58395238,6.9953619 C7.58395238,7.3372 7.30680476,7.61440952 6.96490476,7.61440952 L6.96490476,7.61440952 L4.62317143,7.61440952 C4.28127143,7.61440952 4.00412381,7.3372 4.00412381,6.9953619 C4.00412381,6.65352381 4.28127143,6.37631429 4.62317143,6.37631429 L4.62317143,6.37631429 Z" id="savjetovanje"></path>
                            </g>
                        </g>
                    </g>
                </g>
            </g>
        </g>
    </g>
</svg>