<?xml version="1.0" encoding="UTF-8"?>
<svg width="14px" height="14px" viewBox="0 0 14 14" version="1.1" xmlns="http://www.w3.org/2000/svg" xmlns:xlink="http://www.w3.org/1999/xlink">
    <title>FC9E4BAB-268E-4743-B131-0EB66677EC37</title>
    <g id="CMS-&amp;-Blog-&amp;-Brand-list" stroke="none" stroke-width="1" fill="none" fill-rule="evenodd">
        <g id="CMS---export-" transform="translate(-493.000000, -3418.000000)" fill="#497A59" fill-rule="nonzero">
            <g id="Group-3" transform="translate(255.000000, 3374.000000)">
                <g id="Social-share" transform="translate(0.000000, 26.000000)">
                    <g id="copy" transform="translate(220.000000, 0.000000)">
                        <g id="link-button" transform="translate(18.000000, 18.000000)">
                            <path d="M5.82712587,4.54352633 C6.29359838,4.54352633 6.75664263,4.65933781 7.16575678,4.87840012 C7.45012871,5.03042429 7.6457694,5.30001728 7.7021195,5.61780743 C7.75884406,5.93375383 7.66890288,6.25416558 7.45476693,6.49541069 C7.11796295,6.87666669 6.56373873,6.98124273 6.12812048,6.7666746 C5.86163884,6.63573848 5.51100663,6.70332399 5.31291714,6.92702452 L5.31291714,6.92702452 L2.32567239,10.2969081 C2.2043008,10.4335484 2.14354299,10.6094262 2.154692,10.7923047 C2.1657834,10.9754712 2.24711072,11.1430809 2.38386622,11.2642796 L2.38386622,11.2642796 L2.86140131,11.6879134 C3.13280925,11.9282943 3.58847845,11.9002057 3.82880168,11.629057 L3.82880168,11.629057 L5.19422478,10.0881594 C5.54419439,9.69402579 6.19979683,9.65484582 6.59358468,10.003519 L6.59358468,10.003519 L6.72207204,10.1166225 C6.91802967,10.2898211 7.03911317,10.538326 7.05446826,10.7995645 C7.07054358,11.0625314 6.98238858,11.3161644 6.80619381,11.5145708 L6.80619381,11.5145708 L5.44100118,13.052357 C4.90276589,13.6593014 4.12763562,14.0018095 3.31456414,14.0018095 L3.31456414,14.0018095 L3.10672917,13.9944096 C2.48726887,13.9501161 1.89898199,13.7079336 1.43173453,13.2936309 L1.43173453,13.2936309 L0.954545134,12.8764215 C-0.217080994,11.8375464 -0.325229326,10.0394148 0.713674547,8.86787509 L0.713674547,8.86787509 L3.70129382,5.49856771 C4.23924101,4.89165217 5.01405438,4.54352633 5.82712587,4.54352633 Z M10.6997642,0 C11.3945178,0 12.0631131,0.253546475 12.5825362,0.713853893 L12.5825362,0.713853893 L13.0597256,1.13607604 C14.2316974,2.17538324 14.3395001,3.97579079 13.30123,5.14733051 L13.30123,5.14733051 L10.3140141,8.51928832 C9.77577878,9.12629024 9.00061968,9.47885268 8.18792268,9.47885268 L8.18792268,9.47885268 L7.95957435,9.46930108 C7.58065429,9.43762405 7.20905644,9.32796648 6.87328956,9.15244871 C6.58214757,9.00007882 6.38126363,8.72342768 6.32151413,8.40082645 C6.2623696,8.07626622 6.35323264,7.75015029 6.57140188,7.50475671 L6.57140188,7.50475671 L6.59482345,7.4780797 C6.90630448,7.12701538 7.4537586,7.02362051 7.87370488,7.24023407 C8.14326902,7.37915026 8.50035441,7.31355256 8.70149763,7.08633731 L8.70149763,7.08633731 L11.6890593,3.71622328 C11.8104885,3.57958302 11.8712175,3.40364752 11.8600973,3.220481 C11.8490059,3.03717045 11.7677074,2.8695607 11.6309231,2.74847721 L11.6309231,2.74847721 L11.1539066,2.32533317 C10.8821817,2.0851828 10.4262244,2.11243595 10.1859012,2.38369986 L10.1859012,2.38369986 L8.81984431,3.92505845 C8.64362072,4.12343603 8.40116563,4.24114889 8.13710394,4.25702255 L8.13710394,4.25702255 L8.0779306,4.25872227 C7.83518747,4.25872227 7.60134618,4.1700199 7.41987941,4.00886333 L7.41987941,4.00886333 L7.29202586,3.89535655 C7.09393633,3.71970915 6.97625231,3.47742692 6.96020579,3.21336523 C6.94418808,2.94892901 7.03231428,2.69408614 7.20819217,2.49599666 L7.20819217,2.49599666 L8.57393218,0.954810911 C9.11187937,0.347981805 9.8866927,0 10.6997642,0 Z" id="Combined-Shape"></path>
                        </g>
                    </g>
                </g>
            </g>
        </g>
    </g>
</svg>