<?xml version="1.0" encoding="UTF-8"?>
<svg width="21px" height="12px" viewBox="0 0 21 12" version="1.1" xmlns="http://www.w3.org/2000/svg" xmlns:xlink="http://www.w3.org/1999/xlink">
    <title>263D5437-2EC8-4747-8505-38D0A7C6A44F</title>
    <g id="Početna-&amp;-Dropdowns" stroke="none" stroke-width="1" fill="none" fill-rule="evenodd">
        <g id="Moj-račun-dropdown" transform="translate(-1502.000000, -153.000000)" fill="#383838" fill-rule="nonzero">
            <g id="Group-2" transform="translate(1502.000000, 112.000000)">
                <g id="voucher" transform="translate(0.000000, 41.000000)">
                    <path d="M20.011576,3.51624793 C20.2327139,3.51624793 20.4119601,3.33700166 20.4119601,3.11586379 L20.4119601,0.400384146 C20.4119601,0.179246272 20.2327139,0 20.011576,0 L0.400384146,0 C0.179246272,0 0,0.179246272 0,0.400384146 L0,3.11586379 C0,3.33700166 0.179246272,3.51624793 0.400384146,3.51624793 C1.7670785,3.51624793 2.8789971,4.62816654 2.8789971,5.99486089 C2.8789971,7.36155524 1.7670785,8.47347385 0.400384146,8.47347385 C0.179246272,8.47347385 0,8.65272008 0,8.87385799 L0,11.5893376 C0,11.8104755 0.179246272,11.9897218 0.400384146,11.9897218 L3.96023673,11.9897218 C4.18137456,11.9897218 4.36062084,11.8104755 4.36062084,11.5893376 C4.36062084,11.3681998 4.18137456,11.1889535 3.96023673,11.1889535 L0.800768292,11.1889535 L0.800768292,9.24994808 C2.42083678,9.05185838 3.67976536,7.66756645 3.67976536,5.99486089 C3.67976536,4.3221553 2.42083678,2.93786336 0.800768292,2.73977366 L0.800768292,0.800768292 L14.5522737,0.800768292 L14.5522737,1.60138082 C14.5522737,1.8225187 14.7315199,2.00176497 14.9526578,2.00176497 C15.1737957,2.00176497 15.353042,1.8225187 15.353042,1.60138082 L15.353042,0.800768292 L19.6111918,0.800768292 L19.6111918,2.73977366 C17.9911233,2.93786336 16.7321948,4.3221553 16.7321948,5.99486089 C16.7321948,7.66756645 17.9911233,9.05185838 19.6111918,9.24994808 L19.6111918,11.1889535 L15.353042,11.1889535 L15.353042,10.3881852 C15.353042,10.1670474 15.1737957,9.98795681 14.9526578,9.98795681 C14.7315199,9.98795681 14.5522737,10.1670474 14.5522737,10.3881852 L14.5522737,11.1889535 L7.24787167,11.1889535 C7.02673379,11.1889535 6.84748752,11.3681998 6.84748752,11.5893376 C6.84748752,11.8104755 7.02673379,11.9897218 7.24787167,11.9897218 L20.011576,11.9897218 C20.2327139,11.9897218 20.4119601,11.8104755 20.4119601,11.5893376 L20.4119601,8.87385799 C20.4119601,8.65272008 20.2327139,8.47347385 20.011576,8.47347385 C18.6448816,8.47347385 17.532963,7.36155524 17.532963,5.99486089 C17.532963,4.62816654 18.6448816,3.51624793 20.011576,3.51624793 L20.011576,3.51624793 Z" id="Path"></path>
                    <path d="M14.9526578,7.85973839 C15.1737957,7.85973839 15.353042,7.68049212 15.353042,7.45935425 L15.353042,4.53036753 C15.353042,4.30922966 15.1737957,4.12998339 14.9526578,4.12998339 C14.7315199,4.12998339 14.5522737,4.30922966 14.5522737,4.53036753 L14.5522737,7.45935425 C14.5522737,7.68049212 14.7315199,7.85973839 14.9526578,7.85973839 Z" id="Path"></path>
                    <path d="M8.52595515,5.42722174 C8.82277826,5.13039867 8.98629568,4.73562084 8.98629568,4.31592606 C8.98629568,3.89607556 8.82277826,3.50129777 8.52595515,3.20447466 C7.91315406,2.59167357 6.91600912,2.59167357 6.30320807,3.20447466 C6.00638496,3.50129777 5.84286753,3.89607556 5.84286753,4.31592606 C5.84286753,4.73562084 6.00638496,5.13039867 6.30320807,5.42722174 C6.60968647,5.73370015 7.01209511,5.88678363 7.41465947,5.88678363 C7.81706811,5.88678363 8.21963247,5.73370015 8.52595515,5.42722174 Z M6.64363579,4.31592606 C6.64363579,4.10989411 6.72383721,3.9163206 6.86944561,3.7707122 C7.01972591,3.62043189 7.21719269,3.54521386 7.41465947,3.54521386 C7.61212625,3.54521386 7.8094373,3.62043189 7.95971761,3.7707122 C8.10548173,3.9163206 8.18568315,4.10989411 8.18568315,4.31592606 C8.18568315,4.52180233 8.10548173,4.71537584 7.95971761,4.86098424 C7.659157,5.16170057 7.17000622,5.16170057 6.86944561,4.86098424 C6.72383721,4.71537584 6.64363579,4.52180233 6.64363579,4.31592606 Z" id="Shape"></path>
                    <path d="M9.89623132,6.75467195 C9.28327451,7.367473 9.28327451,8.36461794 9.89623132,8.97741903 C10.202554,9.28389744 10.6051184,9.43713664 11.007527,9.43713664 C11.4100914,9.43713664 11.8125,9.28389744 12.1189784,8.97741903 C12.7317795,8.36461794 12.7317795,7.367473 12.1189784,6.75467195 C11.5060216,6.14187086 10.5088767,6.14202658 9.89623132,6.75467195 Z M11.5527409,7.32090945 C11.8533015,7.6214701 11.8533015,8.11062084 11.5527409,8.41118149 C11.2521803,8.7117421 10.7630295,8.71189786 10.4624689,8.41118149 C10.1617525,8.11062084 10.1617525,7.6214701 10.4624689,7.32090945 C10.6127492,7.17062914 10.8100602,7.09541111 11.007527,7.09541111 C11.2049938,7.09541111 11.4024606,7.17062914 11.5527409,7.32090945 Z" id="Shape"></path>
                    <path d="M7.40391405,8.47534262 L11.574076,4.30518064 C11.7302741,4.14882682 11.7302741,3.89529692 11.574076,3.7389431 C11.4175664,3.58258928 11.1641923,3.58258928 11.0078384,3.7389431 L6.8376765,7.90910508 C6.69300247,8.05377907 6.68210133,8.29251452 6.81384965,8.44933555 C6.96288415,8.62671305 7.23992938,8.63917152 7.40391405,8.47534262 L7.40391405,8.47534262 Z" id="Path"></path>
                    <path d="M5.59681272,11.1849045 C5.4298692,11.1849045 5.2770972,11.2926702 5.22041111,11.449647 C5.1637251,11.6063123 5.21293603,11.7875831 5.34172549,11.8937915 C5.47082639,12.0001557 5.65645762,12.014483 5.80035301,11.9297654 C5.9440926,11.8452035 6.0216466,11.6737438 5.9898775,11.5100706 C5.95390365,11.3239722 5.78664869,11.1849045 5.59681272,11.1849045 Z" id="Path"></path>
                </g>
            </g>
        </g>
    </g>
</svg>