<?xml version="1.0" encoding="UTF-8"?>
<svg width="17px" height="17px" viewBox="0 0 17 17" version="1.1" xmlns="http://www.w3.org/2000/svg" xmlns:xlink="http://www.w3.org/1999/xlink">
    <title>447C81CF-968A-43E0-A216-46172335954B</title>
    <g id="Početna-&amp;-Dropdowns" stroke="none" stroke-width="1" fill="none" fill-rule="evenodd">
        <g id="Moj-račun-dropdown" transform="translate(-1504.000000, -185.000000)" fill="#383838" fill-rule="nonzero">
            <g id="Group-2" transform="translate(1502.000000, 112.000000)">
                <g id="list-(5)" transform="translate(2.000000, 73.000000)">
                    <path d="M13.28125,0 L3.71875,0 C1.6649375,0 0,1.6649375 0,3.71875 L0,13.28125 C0,15.3350625 1.6649375,17 3.71875,17 L13.28125,17 C15.3350625,17 17,15.3350625 17,13.28125 L17,3.71875 C17,1.6649375 15.3350625,0 13.28125,0 Z M15.9375,13.28125 C15.9375,14.7482637 14.7482637,15.9375 13.28125,15.9375 L3.71875,15.9375 C2.25173633,15.9375 1.0625,14.7482637 1.0625,13.28125 L1.0625,3.71875 C1.0625,2.25173633 2.25173633,1.0625 3.71875,1.0625 L13.28125,1.0625 C14.7482637,1.0625 15.9375,2.25173633 15.9375,3.71875 L15.9375,13.28125 Z" id="Shape"></path>
                    <path d="M5.3125,3.71875 L4.25,3.71875 C3.95658398,3.71875 3.71875,3.95658398 3.71875,4.25 L3.71875,5.3125 C3.71875,5.60591602 3.95658398,5.84375 4.25,5.84375 L5.3125,5.84375 C5.60591602,5.84375 5.84375,5.60591602 5.84375,5.3125 L5.84375,4.25 C5.84375,3.95658398 5.60591602,3.71875 5.3125,3.71875 Z" id="Path"></path>
                    <path d="M5.3125,7.4375 L4.25,7.4375 C3.95658398,7.4375 3.71875,7.67533398 3.71875,7.96875 L3.71875,9.03125 C3.71875,9.32466602 3.95658398,9.5625 4.25,9.5625 L5.3125,9.5625 C5.60591602,9.5625 5.84375,9.32466602 5.84375,9.03125 L5.84375,7.96875 C5.84375,7.67533398 5.60591602,7.4375 5.3125,7.4375 Z" id="Path"></path>
                    <path d="M5.3125,11.15625 L4.25,11.15625 C3.95658398,11.15625 3.71875,11.394084 3.71875,11.6875 L3.71875,12.75 C3.71875,13.043416 3.95658398,13.28125 4.25,13.28125 L5.3125,13.28125 C5.60591602,13.28125 5.84375,13.043416 5.84375,12.75 L5.84375,11.6875 C5.84375,11.394084 5.60591602,11.15625 5.3125,11.15625 Z" id="Path"></path>
                    <rect id="Rectangle" x="6.90625" y="4.25" width="6.375" height="1.0625"></rect>
                    <rect id="Rectangle" x="6.90625" y="7.96875" width="6.375" height="1.0625"></rect>
                    <rect id="Rectangle" x="6.90625" y="11.6875" width="6.375" height="1.0625"></rect>
                </g>
            </g>
        </g>
    </g>
</svg>