<?xml version="1.0" encoding="UTF-8"?>
<svg width="34px" height="29px" viewBox="0 0 34 29" version="1.1" xmlns="http://www.w3.org/2000/svg" xmlns:xlink="http://www.w3.org/1999/xlink">
    <title>8C75C451-8A49-40E8-8A0C-B783F9DF84AA</title>
    <g id="User-account-&amp;-Checkout-&amp;-Search-results" stroke="none" stroke-width="1" fill="none" fill-rule="evenodd">
        <g id="Prijava" transform="translate(-1316.000000, -492.000000)" fill="#497A59" fill-rule="nonzero">
            <g id="Group-11" transform="translate(995.000000, 468.000000)">
                <g id="besplatna-dostava" transform="translate(251.000000, 0.000000)">
                    <g id="Group-10" transform="translate(49.000000, 0.000000)">
                        <g id="diamond" transform="translate(21.000000, 24.000000)">
                            <path d="M16.9879173,28.9362795 L16.9604915,28.9502462 C16.9510045,28.9545497 16.9413929,28.9585879 16.9316682,28.9623549 C16.9253615,28.9649098 16.921097,28.9664766 16.9168155,28.967991 C16.8947012,28.9758201 16.8722851,28.982235 16.849704,28.9871739 C16.8112884,28.9954616 16.7713542,28.9998693 16.7308788,28.9998693 L16.8285638,28.9913605 C16.7962897,28.9970914 16.7637687,28.9998693 16.7314016,28.9998693 L16.761,28.997 L16.7308134,29 C16.6981092,29 16.6652479,28.9971547 16.6326428,28.9913529 C16.6252235,28.9897927 16.6184382,28.9884363 16.6116878,28.9869557 C16.5652952,28.9771737 16.518801,28.9606658 16.4742977,28.9375213 L16.5397406,28.966013 C16.5298322,28.9623899 16.5200337,28.9584881 16.5103567,28.9543136 L16.4742977,28.9375213 C16.4665664,28.9335022 16.4589638,28.9293227 16.4514922,28.9249888 C16.4426523,28.9195586 16.4339472,28.9141876 16.4253899,28.9085771 C16.4065535,28.8965336 16.3884954,28.8830423 16.3714269,28.8686221 C16.3406727,28.8424002 16.3124551,28.8128654 16.2875151,28.7801481 L16.3465464,28.8462847 C16.3319055,28.8323219 16.3181052,28.8176336 16.3051798,28.8023034 L16.2875151,28.7801481 L0.114477105,7.58789818 C0.1115328,7.58404863 0.108644422,7.58016848 0.105812074,7.57625887 C0.0853624489,7.54844407 0.0675446996,7.51835985 0.0525212081,7.48640292 L0.0837184545,7.54336007 C0.0746839625,7.52881355 0.066371209,7.51392961 0.0587848142,7.49876051 L0.0525212081,7.48640292 C0.0480884047,7.47697377 0.0439390579,7.46746181 0.04007167,7.45787832 C0.0350380572,7.44466332 0.0302223101,7.4312374 0.0259344815,7.41767153 C0.0207348866,7.40225646 0.0165097414,7.38652628 0.0129924956,7.37069928 C0.0104608981,7.35788011 0.0080406415,7.34482743 0.00608833554,7.33170999 C0.00322670292,7.31441012 0.00151142288,7.29729513 0.000591122641,7.28016886 C0.000238494569,7.26933831 -5.14226441e-05,7.25793673 7.90252348e-06,7.24652882 C-5.37459453e-05,7.2280152 0.000963615098,7.20999702 0.00285051727,7.19207339 C0.00411171363,7.18080571 0.00563567003,7.1694395 0.00751266591,7.1581099 C0.010271916,7.14148205 0.0138746784,7.12473991 0.0182474741,7.10817616 C0.0275309476,7.0722264 0.04069111,7.03667472 0.0576188452,7.00232346 L0.0322631501,7.06296442 C0.0360012604,7.05250068 0.0400582375,7.04213303 0.0444320702,7.03187662 L0.0576188452,7.00232346 C0.0609408818,6.99561949 0.0643862748,6.98900217 0.0679514831,6.98247372 C0.0852568419,6.95170212 0.105797732,6.92142597 0.129508599,6.89305103 L0.0869678418,6.95025475 C0.0982833773,6.93246777 0.110529103,6.91543746 0.123622322,6.8992157 L0.129508599,6.89305103 L5.70638894,0.200768477 C5.74879083,0.149922814 5.79930711,0.107724836 5.85526086,0.0753917 C5.8708218,0.0664301015 5.88591564,0.0585886071 5.90135026,0.0514476876 C5.92335097,0.0414643164 5.94560089,0.0329364887 5.96835628,0.0258512428 C6.02120915,0.00889772374 6.07760694,0 6.13530936,0 L6.126,0.001 L6.13472117,0.000588188897 L27.3270364,0 C27.4601414,0 27.5865366,0.0473455754 27.685425,0.130301995 L27.7553033,0.200768477 L33.3321836,6.89305103 L33.3321836,6.89305103 L33.3432007,6.90651804 C33.3665292,6.93630937 33.3870096,6.96873985 33.4041387,7.00349984 L33.3799873,6.95983487 C33.3830431,6.96484417 33.3860144,6.96989292 33.3889012,6.97497902 L33.4041387,7.00349984 C33.4088133,7.01298926 33.4132005,7.02257052 33.4173013,7.03223176 C33.4195459,7.03776659 33.421909,7.04359513 33.4241709,7.04945593 L33.4294718,7.06347407 C33.4322395,7.07126132 33.4348278,7.07909091 33.4372372,7.08695692 L33.4425585,7.10586033 C33.4451594,7.11556053 33.4474962,7.12532178 33.4495676,7.13513278 L33.4528327,7.15125951 C33.4561965,7.16988751 33.4586022,7.18862608 33.4600561,7.20740115 C33.4603568,7.21264833 33.4606969,7.21803904 33.4609587,7.22343447 L33.461524,7.23558185 C33.4619288,7.25068339 33.461721,7.26578458 33.4609041,7.28084696 C33.4602234,7.29124026 33.4593362,7.30192618 33.4581384,7.31259243 L33.455929,7.33085846 C33.4530406,7.35075949 33.4490761,7.37051565 33.4440432,7.39003588 C33.4353428,7.42273822 33.4237555,7.45503985 33.4090403,7.48640292 L33.439104,7.40795159 C33.4341314,7.42488146 33.4283443,7.44160966 33.4217477,7.45807535 L33.4090403,7.48640292 C33.4070435,7.49065036 33.4049974,7.49486472 33.4029027,7.49904543 C33.3877841,7.53039029 33.3690358,7.56060255 33.3472151,7.58913991 L33.3742571,7.54951108 C33.3698044,7.55648624 33.3652075,7.56334569 33.3604714,7.57008618 L33.3472151,7.58913991 L17.1741772,28.7813898 C17.1654207,28.7927511 17.1562956,28.8037001 17.1468298,28.8142296 C17.1410297,28.8197231 17.1350778,28.8260748 17.1289663,28.8322946 L17.1203671,28.8417289 C17.1079043,28.8538288 17.0949572,28.8652745 17.0815788,28.8760522 C17.0528762,28.8983733 17.0216198,28.9188557 16.9879173,28.9362795 L17.0447159,28.903337 C17.03312,28.9112058 17.0212648,28.918615 17.0091797,28.9255568 L17.0090903,28.9252445 L16.9879173,28.9362795 L16.9879173,28.9362795 Z M22.662,7.807 L10.799,7.807 L16.731,26.59 L22.662,7.807 Z M9.62980495,7.80768477 L1.68494146,7.80768477 L15.2379247,25.5668068 L9.62980495,7.80768477 Z M31.7768161,7.80768477 L23.8319526,7.80761941 L18.2238329,25.5667414 L31.7768161,7.80768477 Z M6.054,1.525 L1.749,6.691 L9.067,6.691 L6.054,1.525 Z M16.73,1.346 L11.386,6.691 L22.075,6.691 L16.73,1.346 Z M27.407,1.525 L24.395,6.691 L31.711,6.691 L27.407,1.525 Z M15.3845798,1.11540221 L7.10569033,1.11540221 L10.1557112,6.34427079 L15.3845798,1.11540221 Z M26.3560019,1.11540221 L18.0771125,1.11540221 L23.3060464,6.34427079 L26.3560019,1.11540221 Z" id="Combined-Shape"></path>
                        </g>
                    </g>
                </g>
            </g>
        </g>
    </g>
</svg>