<?xml version="1.0" encoding="UTF-8"?>
<svg width="26px" height="25px" viewBox="0 0 26 25" version="1.1" xmlns="http://www.w3.org/2000/svg" xmlns:xlink="http://www.w3.org/1999/xlink">
    <!-- Generator: Sketch 48.2 (47327) - http://www.bohemiancoding.com/sketch -->
    <title>Download</title>
    <desc>Created with Sketch.</desc>
    <defs></defs>
    <g id="Product-details" stroke="none" stroke-width="1" fill="none" fill-rule="evenodd" transform="translate(-137.000000, -878.000000)">
        <g id="download" transform="translate(125.000000, 865.000000)" fill="#FFFFFF" fill-rule="nonzero">
            <g id="Download" transform="translate(12.000000, 13.000000)">
                <path d="M19.6882432,13.0819401 C19.9649981,12.808231 19.9649981,12.3773241 19.6882432,12.1036149 C19.4208381,11.8299058 18.9757863,11.8299058 18.7090046,12.1036149 L13.6931339,17.0550377 L13.6931339,0.694752675 C13.6931339,0.313162697 13.3864595,0 13.0006233,0 C12.6147871,0 12.2981396,0.313162697 12.2981396,0.694752675 L12.2981396,17.0550377 L7.29224204,12.1036149 C7.01548715,11.8299058 6.56981204,11.8299058 6.3030303,12.1036149 C6.02627541,12.3773241 6.02627541,12.808231 6.3030303,13.0819401 L12.5063291,19.21697 C12.7737342,19.4814322 13.218786,19.4814322 13.4955409,19.21697 L19.6882432,13.0819401 Z M24.6050058,17.5734823 C24.6050058,17.1918923 24.9116801,16.888593 25.2975163,16.888593 C25.6833525,16.888593 26,17.1918923 26,17.5734823 L26,24.3052473 C26,24.6868373 25.6833525,25 25.2975163,25 L0.692510549,25 C0.306674338,25 0,24.6868373 0,24.3052473 L0,17.5734823 C0,17.1918923 0.306674338,16.888593 0.692510549,16.888593 C1.07834676,16.888593 1.39499425,17.1918923 1.39499425,17.5734823 L1.39499425,23.620358 L24.6050058,23.620358 L24.6050058,17.5734823 Z" id="Shape"></path>
            </g>
        </g>
    </g>
</svg>