<?xml version="1.0" encoding="UTF-8"?>
<svg width="18px" height="13px" viewBox="0 0 18 13" version="1.1" xmlns="http://www.w3.org/2000/svg" xmlns:xlink="http://www.w3.org/1999/xlink">
    <title>8867E8C4-3657-43E9-B5C6-11ABA5609FEE</title>
    <g id="CMS-&amp;-Blog-&amp;-Brand-list" stroke="none" stroke-width="1" fill="none" fill-rule="evenodd">
        <g id="CMS---export-" transform="translate(-436.000000, -3419.000000)" fill="#497A59" fill-rule="nonzero">
            <g id="Group-3" transform="translate(255.000000, 3374.000000)">
                <g id="Social-share" transform="translate(0.000000, 26.000000)">
                    <g id="email" transform="translate(165.000000, 0.000000)">
                        <g transform="translate(16.000000, 19.000000)" id="Shape">
                            <path d="M15.6954894,0 L1.51241332,0 C0.679510503,0 0,0.633519694 0,1.41158577 L0,10.8221576 C0,11.5975887 0.676485676,12.2337434 1.51241332,12.2337434 L15.6954894,12.2337434 C16.5263085,12.2337434 17.2079027,11.6023568 17.2079027,10.8221576 L17.2079027,1.41158577 C17.2079027,0.636154654 16.5314171,0 15.6954894,0 Z M15.4866419,0.941057181 L8.63601453,7.33500746 L1.72613413,0.941057181 L15.4866419,0.941057181 Z M1.00827555,10.627296 L1.00827555,1.60196164 L5.86409699,6.09519599 L1.00827555,10.627296 Z M1.72122719,11.2926862 L6.58010707,6.75773161 L8.28264755,8.33312407 C8.47973182,8.51550095 8.79777554,8.51490495 8.99405318,8.33168112 L10.6541117,6.78229321 L15.4866756,11.2926862 L1.72122719,11.2926862 Z M16.1996272,10.6272646 L11.3670633,6.11687168 L16.1996272,1.60644734 L16.1996272,10.6272646 Z"></path>
                        </g>
                    </g>
                </g>
            </g>
        </g>
    </g>
</svg>