<?xml version="1.0" encoding="UTF-8"?>
<svg width="43px" height="42px" viewBox="0 0 43 42" version="1.1" xmlns="http://www.w3.org/2000/svg" xmlns:xlink="http://www.w3.org/1999/xlink">
    <title>6F3DD1A9-98F2-4183-AF21-BCEA7205F882</title>
    <g id="Početna-&amp;-Dropdowns" stroke="none" stroke-width="1" fill="none" fill-rule="evenodd">
        <g id="Početna" transform="translate(-579.000000, -2755.000000)" fill="#497A59" fill-rule="nonzero">
            <g id="Pretrazi-prema-namjeni" transform="translate(285.000000, 2731.000000)">
                <g id="namjene" transform="translate(270.000000, 0.000000)">
                    <g id="bicycle-(4)" transform="translate(23.999997, 24.006094)">
                        <path d="M33.4539085,24.1354235 C32.1242379,24.1037176 30.8578144,24.3649412 29.7140144,24.8581529 L28.0776614,21.6835294 L28.6570967,21.9221059 C28.9910379,22.0596353 29.3380732,22.1246941 29.6808261,22.1246941 C30.7342026,22.1246118 31.7440967,21.5093529 32.1859203,20.4915529 C32.2538614,20.3350824 32.3054967,20.1741647 32.3420614,20.0107765 L33.2228261,20.0107765 C33.5654967,20.0107765 33.8642732,19.7467529 33.8745673,19.4042471 C33.8852732,19.0498824 33.6010732,18.7591765 33.2490967,18.7591765 L32.3190026,18.7591765 C32.2883673,18.6406706 32.2502379,18.5231529 32.2032967,18.4074471 C31.923132,17.7165882 31.3693085,17.1584824 30.6840497,16.8762588 L26.041732,14.9649294 L26.136932,10.7997647 C26.1370967,10.7937529 26.1368497,10.7877412 26.136932,10.7817294 C26.8711908,11.1630235 27.7039438,11.3798588 28.586932,11.3798588 C31.4022497,11.3798588 33.7135673,9.18762353 33.9075085,6.42064706 C34.186685,6.26994118 34.431932,6.05598824 34.619285,5.78949412 C35.0060967,5.23921176 35.1012967,4.5332 34.8738379,3.90097647 C34.484885,2.81943529 33.8515085,1.93998824 32.991332,1.28709412 C31.8660614,0.433094118 30.3842026,0 28.586932,0 C27.3853203,0 26.1991908,0.368282353 25.0530026,1.09603529 C24.7450026,1.29162353 24.6670144,1.70742353 24.8851673,1.99994118 C25.0823203,2.26445882 25.4489555,2.32688235 25.7276379,2.1504 C26.6697555,1.55350588 27.629332,1.25143529 28.586932,1.25143529 C31.2306261,1.25143529 32.9457085,2.27508235 33.6852379,4.29404706 C33.7808497,4.55510588 33.7522732,4.85190588 33.5897908,5.07747059 C33.4335673,5.29438824 33.1912026,5.41865882 32.9233908,5.41865882 L23.1543555,5.41865882 C22.9824026,5.41865882 22.9030144,5.29949412 22.8768261,5.24827059 C22.851132,5.19803529 22.8020497,5.06651765 22.9005438,4.93047059 C23.1905085,4.52974118 23.4939791,4.1538 23.807085,3.80767059 C24.031085,3.55995294 24.0237555,3.18129412 23.7879791,2.94477647 L23.7878967,2.94469412 C23.5356497,2.69170588 23.1219908,2.69944706 22.8823438,2.96429412 C22.5376144,3.34525882 22.204085,3.75792941 21.8866144,4.19678824 C21.5424614,4.67262353 21.4947791,5.29364706 21.7623438,5.81749412 C21.8069791,5.90487059 21.8594379,5.98615294 21.9177438,6.06183529 C21.0086497,6.43555294 20.1786144,6.98665882 19.4644497,7.70024706 L15.5196614,11.6450353 C15.4634967,11.7012 15.4084026,11.7590118 15.3554497,11.8175647 C15.3530614,11.8201176 15.3505908,11.8228353 15.348285,11.8254706 C13.7185203,13.6398706 13.7933791,16.4113765 15.5196614,18.1375765 L15.789285,18.4072 L12.0070614,18.4072 C11.6643908,18.4072 11.3656144,18.6712235 11.3553203,19.0137294 C11.3446144,19.3680941 11.6288144,19.6588 11.9807908,19.6588 L13.5255673,19.6588 L15.0760261,22.3803176 L13.2300026,25.2401882 C11.8603085,24.4835294 10.272132,24.0758 8.58587319,24.1390471 C3.86359084,24.3164353 0.0677790767,28.2063765 0.000908488469,32.9317059 C-0.0695032762,37.9129059 3.96208496,41.9876471 8.92747319,41.9876471 C13.6397908,41.9876471 17.5105438,38.3175059 17.8326261,33.6856471 L21.8801908,33.6856471 C22.1052614,33.6856471 22.3129555,33.5647529 22.4242144,33.3690824 L27.8092732,23.8943765 L28.6022497,25.4328118 C25.9529555,27.0486588 24.2068261,30.0054588 24.3144614,33.3528588 C24.4649203,38.0312471 28.2604026,41.8292824 32.9387085,41.9826235 C38.0228497,42.1493059 42.2073673,38.0399765 42.1646263,32.9827647 C42.123532,28.1884235 38.2470967,24.2497294 33.4539085,24.1354235 Z M28.0344261,6.67034118 L30.0368379,6.67034118 L30.0368379,7.20341176 C30.0368379,7.54896471 30.3170026,7.82921176 30.6626379,7.82921176 C31.0082732,7.82921176 31.2884379,7.54904706 31.2884379,7.20341176 L31.2884379,6.67034118 L32.6227203,6.67034118 C32.3206497,8.62614118 30.6260732,10.1283412 28.5870144,10.1283412 C28.3994967,10.1283412 28.2153555,10.1145059 28.0345085,10.0899647 L28.0345085,6.67034118 L28.0344261,6.67034118 Z M26.7829085,6.67034118 L26.7829085,9.70702353 C25.6125908,9.12816471 24.7572732,8.0052 24.5511438,6.67034118 L26.7829085,6.67034118 Z M20.349332,8.58545882 C21.1808497,7.7546 22.199885,7.18718824 23.3248261,6.92077647 C23.3883203,7.30322353 23.4928261,7.67191765 23.6334026,8.02265882 C23.5850614,8.01887059 23.5364732,8.01615294 23.4873908,8.015 C21.991285,7.97695294 20.7388614,9.16588235 20.7011438,10.6656118 L20.5737438,16.1121059 L16.6982967,12.2367412 L20.349332,8.58545882 Z M15.8874497,13.1957412 L21.1369555,18.4452471 C21.2664144,18.6098706 21.4167908,18.7596706 21.5845438,18.8928353 L22.3837791,19.6920706 L20.1210497,20.9692 L16.4047085,17.2529412 C15.3085085,16.1566588 15.1275791,14.4811059 15.8874497,13.1957412 Z M14.9661673,19.6589647 L16.7519908,19.6589647 C16.8373085,19.6589647 16.9185908,19.6417529 16.9927908,19.6107882 L19.3199203,21.9379176 L16.2645438,21.9379176 L14.9661673,19.6589647 Z M19.0325085,23.1896 L18.4317438,25.7421294 L16.9775555,23.1896 L19.0325085,23.1896 Z M8.40206143,32.7205529 C8.27779084,32.9130118 8.26873202,33.1580118 8.37826143,33.3592824 C8.48779084,33.5605529 8.69861437,33.6856471 8.92780261,33.6856471 L14.5450144,33.6856471 C14.232732,36.5093647 11.8330497,38.7131294 8.92747319,38.7131294 C5.81041437,38.7131294 3.27460261,36.1772353 3.27460261,33.0602588 C3.27460261,29.9432824 5.81049672,27.4073882 8.92747319,27.4073882 C9.83277908,27.4073882 10.6881791,27.6224941 11.4475555,28.0023882 L8.40206143,32.7205529 Z M10.0765438,32.4341294 L12.4984614,28.6818824 C13.6157438,29.5948471 14.3779203,30.9259176 14.544932,32.4341294 L10.0765438,32.4341294 Z M8.92747319,40.7361294 C4.69494378,40.7361294 1.25152025,37.2927882 1.25152025,33.0601765 C1.25152025,28.8276471 4.69494378,25.3842235 8.92747319,25.3842235 C10.2367203,25.3842235 11.4702026,25.7140471 12.5498497,26.2943882 L12.1293555,26.9459647 C11.1715908,26.4423765 10.0826379,26.1557882 8.92747319,26.1557882 C5.12029672,26.1557882 2.02308496,29.2531647 2.02308496,33.0601765 C2.02308496,36.8672706 5.12046143,39.9645647 8.92747319,39.9645647 C12.5236614,39.9645647 15.4849908,37.2005529 15.8022967,33.6855647 L16.577732,33.6855647 C16.2583673,37.6268118 12.9493438,40.7361294 8.92747319,40.7361294 Z M15.8022144,32.4340471 L15.8022144,32.4341294 C15.6262261,30.4863176 14.6380732,28.7703294 13.179685,27.6265294 L13.6002614,26.9748706 C15.2697203,28.2598235 16.3977908,30.2148824 16.577732,32.4340471 L15.8022144,32.4340471 Z M17.8324614,32.4340471 C17.647332,29.7749529 16.2929555,27.4329176 14.2807438,25.9204235 L15.7745438,23.6063059 L18.0105908,27.5312471 L17.7566967,28.6099059 C17.5568261,29.4612706 17.8064379,30.3378353 18.4247438,30.9549059 C18.7725203,31.3016118 19.2104732,31.5368941 19.6907555,31.6353059 C19.8530732,31.6685765 20.0154732,31.6847176 20.1761438,31.6847176 C20.2416967,31.6847176 20.3069203,31.6813412 20.371732,31.6761529 L20.8034261,32.4340471 L17.8324614,32.4340471 Z M19.9425085,30.4094 C19.7018732,30.3600706 19.4826497,30.2423059 19.3086379,30.0687882 C18.999732,29.7605412 18.875132,29.3220118 18.9750261,28.8962471 L20.4351438,22.6921059 C20.4353085,22.6911176 20.4356379,22.6902941 20.4358026,22.6893059 L20.5608967,22.1579647 L23.2265791,20.6534588 C23.3353673,20.8985412 23.3634497,21.1751647 23.2993791,21.4467647 L23.0682967,22.4291529 C23.0674732,22.4327765 23.066485,22.4362353 23.0657438,22.4399412 L21.4221438,29.4247882 C21.2626261,30.1025529 20.5991085,30.5442118 19.9425085,30.4094 Z M21.8796144,31.7944941 L21.5711203,31.2529412 C22.0901908,30.9036824 22.4867203,30.3639412 22.6403085,29.7113765 L24.1749555,23.1895176 L26.7703085,23.1895176 L21.8796144,31.7944941 Z M24.469532,21.9380824 L24.469532,21.9380824 L24.5176261,21.7337647 C24.644532,21.1955059 24.5907555,20.6470353 24.3777908,20.16 L26.2905203,20.9475412 L26.8010261,21.9380824 L24.469532,21.9380824 Z M26.9897791,19.8819765 C26.9880497,19.8812353 26.9863203,19.8805765 26.9845908,19.8799176 L22.7190379,18.1235765 C22.6304261,18.0870941 22.5452732,18.0418824 22.4659673,17.9892588 C22.0430026,17.7085176 21.7982497,17.2378706 21.8110144,16.7290118 L21.952085,10.6959176 C21.9720967,9.89972941 22.6262261,9.26561176 23.4183791,9.26561176 C23.4308144,9.26561176 23.4432497,9.26561176 23.4557673,9.26602353 C24.2644732,9.28636471 24.9059203,9.96083529 24.8856614,10.7696235 C24.8856614,10.7701176 24.8856614,10.7705294 24.8856614,10.7710235 L24.7805791,15.3656588 C24.7746497,15.6244118 24.9285673,15.8601059 25.1679673,15.9585176 L30.2073908,18.0334824 C30.5439673,18.1720824 30.8222379,18.4330588 30.9882614,18.7591765 L29.744732,18.7591765 C29.3991791,18.7591765 29.118932,19.0393412 29.118932,19.3849765 C29.118932,19.7306118 29.3990967,20.0107765 29.744732,20.0107765 L31.0291908,20.0107765 C30.7070261,20.7261765 29.8615085,21.0644 29.1336732,20.7648824 L26.9897791,19.8819765 Z M33.2372379,40.7361294 C29.0047085,40.7361294 25.561285,37.2927059 25.561285,33.0601765 C25.561285,30.3173294 27.0076497,27.9063647 29.1774026,26.5487765 L29.5327555,27.2383176 C27.6108026,28.4654588 26.332685,30.6157765 26.332685,33.0603412 C26.332685,36.8675176 29.4300614,39.9647294 33.2370732,39.9647294 C34.1079555,39.9647294 34.9572614,39.8045529 35.7614379,39.4884824 C36.0831085,39.3620706 36.2413908,38.9988941 36.1150614,38.6772235 C35.9886497,38.3555529 35.6253085,38.1971882 35.3038026,38.3236 C34.6459673,38.5821059 33.9507438,38.7130471 33.2371555,38.7130471 C30.1200967,38.7130471 27.584285,36.1771529 27.584285,33.0601765 C27.584285,31.0994353 28.588085,29.3692824 30.1084026,28.3550235 L32.6811085,33.3465176 C32.7921203,33.5620353 33.0110144,33.6856471 33.2378967,33.6856471 C33.334332,33.6856471 33.4324144,33.6631647 33.5240732,33.6159765 C33.8312497,33.4576941 33.9518967,33.0802706 33.793532,32.7730118 L31.2202497,27.7804471 C31.8471203,27.5401412 32.5267791,27.4071412 33.2371555,27.4071412 C36.3542144,27.4071412 38.8900261,29.9430353 38.8900261,33.0600118 C38.8900261,34.6542824 38.2115203,36.1826706 37.0284379,37.2530941 C36.7721555,37.4849176 36.7523908,37.8807059 36.9842144,38.1369882 C37.2162026,38.3932706 37.6118261,38.4130353 37.8681085,38.1811294 C39.3129085,36.8738588 40.1415438,35.0072471 40.1415438,33.0600118 C40.1415438,29.2529176 37.0441673,26.1556235 33.2371555,26.1556235 C32.3203203,26.1556235 31.4454026,26.3368 30.6441908,26.6627529 L30.2888379,25.9732941 C31.1971085,25.5939765 32.1930026,25.3840588 33.2371555,25.3840588 C37.4697673,25.3840588 40.9131085,28.8274824 40.9131085,33.0600118 C40.9131085,37.2927882 37.4697673,40.7361294 33.2372379,40.7361294 Z" id="Shape"></path>
                    </g>
                </g>
            </g>
        </g>
    </g>
</svg>