<?xml version="1.0" encoding="UTF-8"?>
<svg width="39px" height="27px" viewBox="0 0 39 27" version="1.1" xmlns="http://www.w3.org/2000/svg" xmlns:xlink="http://www.w3.org/1999/xlink">
    <title>5D179EEF-0B03-4811-8325-E9A3FF3F394A</title>
    <g id="Početna-&amp;-Dropdowns" stroke="none" stroke-width="1" fill="none" fill-rule="evenodd">
        <g id="Početna" transform="translate(-1128.000000, -1350.000000)" fill="#497A59" fill-rule="nonzero">
            <g id="Zasto-kupovati-na-suplementi.hr" transform="translate(0.000000, 990.000000)">
                <g id="Zasto-kupovati" transform="translate(1110.000000, 98.000000)">
                    <g id="benefiti" transform="translate(0.000000, 148.000000)">
                        <g id="brza-i-sigurna-" transform="translate(0.000000, 92.000000)">
                            <g id="fast-delivery-(2)" transform="translate(18.000000, 22.000000)">
                                <path d="M29.2947737,7.26722346 C29.6272961,7.26722346 29.9273883,7.40976536 30.1180475,7.65819553 C30.2919637,7.88490503 30.3579553,8.17813408 30.3065196,8.47634078 L30.3065196,8.47634078 L34.6974888,8.47634078 C35.5587737,8.47634078 36.1868631,9.08783799 36.1909358,9.93026816 L36.1909358,9.93026816 L36.2170307,15.4003324 L38.0259553,16.6936173 C38.5265112,17.051405 38.728257,17.6810782 38.5526061,18.3369218 L38.5526061,18.3369218 L37.4401006,22.4888128 C37.1954413,23.401986 36.2819665,24.1172598 35.3605726,24.1172598 L35.3605726,24.1172598 L35.1600335,24.1172598 C34.5907709,25.5026313 33.1455922,26.5354944 31.6897039,26.5354944 C30.8796285,26.5354944 30.1882626,26.2158687 29.7429134,25.6354441 C29.4200447,25.2146816 29.259176,24.6838073 29.2707905,24.1172598 L29.2707905,24.1172598 L16.4184134,24.1172598 C15.8491508,25.5026313 14.4039721,26.5354944 12.9480838,26.5354944 C12.1380084,26.5354944 11.4466425,26.2158687 11.0012933,25.6354441 C10.6784246,25.2146816 10.5175559,24.6838073 10.5291704,24.1172598 L10.5291704,24.1172598 L8.15498045,24.1172598 C7.8224581,24.1172598 7.52236592,23.9747179 7.3317067,23.7262877 C7.13682402,23.472352 7.07641341,23.1349274 7.16601117,22.8006704 L7.16601117,22.8006704 L8.29993575,18.5685335 C8.38086034,18.2667067 8.69151117,18.0879637 8.99273464,18.1685112 C9.29456145,18.2494358 9.47360615,18.5595587 9.39275698,18.8613101 L9.39275698,18.8613101 L8.28756704,22.9858994 L10.7737542,22.9859749 C11.3430168,21.6005279 12.7881955,20.5676648 14.2440838,20.5676648 C15.0541592,20.5676648 15.7455251,20.8873659 16.1908743,21.4677151 C16.513743,21.8884777 16.6746872,22.4194274 16.6630726,22.9859749 L16.6630726,22.9859749 L25.2533715,22.9859749 L29.1621117,8.3985838 L25.3529246,8.39850838 C25.0405391,8.39850838 24.7872821,8.1452514 24.7872821,7.83286592 C24.7872821,7.52048045 25.0405391,7.26722346 25.3529246,7.26722346 L25.3529246,7.26722346 Z M14.2440838,21.6989497 C13.1684581,21.6989497 12.0144721,22.6143855 11.7241844,23.6980056 C11.5933324,24.1861173 11.6553268,24.629581 11.8987793,24.9467933 C12.1251872,25.241757 12.4978324,25.4042095 12.9480838,25.4042095 C14.0237095,25.4042095 15.1776201,24.4887737 15.4679832,23.4052291 C15.5988352,22.9171173 15.5367654,22.4736536 15.2933883,22.1563659 C15.0669804,21.8614022 14.6943352,21.6989497 14.2440838,21.6989497 Z M32.9857039,21.6989497 C31.9100782,21.6989497 30.7560922,22.6143855 30.4658045,23.6980056 C30.3349525,24.1861173 30.3969469,24.629581 30.6403994,24.9467933 C30.8668073,25.241757 31.2394525,25.4042095 31.6897039,25.4042095 C32.7653296,25.4042095 33.9192402,24.4887737 34.2096034,23.4052291 C34.3404553,22.9171173 34.2783855,22.4736536 34.0350084,22.1563659 C33.8086006,21.8614022 33.4359553,21.6989497 32.9857039,21.6989497 Z M32.3377039,22.9859749 C32.6501648,22.9859749 32.9063631,23.2392318 32.9063631,23.5516173 C32.9063631,23.8640028 32.6561229,24.1172598 32.3437374,24.1172598 L32.3437374,24.1172598 C32.0253184,24.1172598 31.7720615,23.8640028 31.7720615,23.5516173 C31.7720615,23.2392318 32.0253184,22.9859749 32.3377039,22.9859749 Z M13.5960838,22.9859749 C13.9085447,22.9859749 14.164743,23.2392318 14.164743,23.5516173 C14.164743,23.8640028 13.9145028,24.1172598 13.6021173,24.1172598 L13.6021173,24.1172598 C13.2836983,24.1172598 13.0304413,23.8640028 13.0304413,23.5516173 C13.0304413,23.2392318 13.2836983,22.9859749 13.5960838,22.9859749 Z M34.697338,9.60770112 L30.0092179,9.60770112 L27.7204777,18.1495056 L34.2381117,18.1495056 C34.5504972,18.1495056 34.8037542,18.4027626 34.8037542,18.715148 C34.8037542,19.0275335 34.5504972,19.2807905 34.2381117,19.2807905 L34.2381117,19.2807905 L27.4173687,19.2807905 L26.4245531,22.9860503 L29.5152989,22.9860503 C30.0845615,21.6006034 31.5297402,20.5677402 32.9856285,20.5677402 C33.7957039,20.5677402 34.4870698,20.8874413 34.932419,21.4677905 C35.2548352,21.8879497 35.4157793,22.4179944 35.4046927,22.9836369 C35.8057709,22.9587486 36.2385251,22.6019413 36.3472793,22.1961117 L36.3472793,22.1961117 L37.1283939,19.2807905 L36.6564218,19.2807905 C36.3440363,19.2807905 36.0907793,19.0275335 36.0907793,18.715148 C36.0907793,18.4027626 36.3440363,18.1495056 36.6564218,18.1495056 L36.6564218,18.1495056 L37.4315028,18.1495056 L37.4597095,18.0442207 C37.4789413,17.9724218 37.5291704,17.7291955 37.3679246,17.6139553 L37.3679246,17.6139553 L35.4712877,16.2579218 L31.4206844,16.2579218 C30.9329497,16.2579218 30.4963492,16.0536117 30.2229553,15.697257 C29.9411145,15.3299665 29.8558911,14.8340866 29.9891564,14.3367737 L29.9891564,14.3367737 L30.475081,12.5230978 C30.7197402,11.61 31.6332151,10.8947263 32.5546089,10.8947263 L32.5546089,10.8947263 L35.0641006,10.8947263 L35.0595,9.93577374 C35.0582179,9.66464246 34.8618268,9.60770112 34.697338,9.60770112 L34.697338,9.60770112 Z M5.40218715,21.1722235 C5.71457263,21.1722235 5.96782961,21.4254804 5.96782961,21.7378659 C5.96782961,22.0502514 5.71457263,22.3035084 5.40218715,22.3035084 L5.40218715,22.3035084 L4.19306983,22.3035084 C3.88068436,22.3035084 3.62742737,22.0502514 3.62742737,21.7378659 C3.62742737,21.4254804 3.88068436,21.1722235 4.19306983,21.1722235 L4.19306983,21.1722235 Z M6.00674581,18.7539888 C6.31913128,18.7539888 6.57238827,19.0072458 6.57238827,19.3196313 C6.57238827,19.6320168 6.31913128,19.8852737 6.00674581,19.8852737 L6.00674581,19.8852737 L2.37931844,19.8852737 C2.06693296,19.8852737 1.81367598,19.6320168 1.81367598,19.3196313 C1.81367598,19.0072458 2.06693296,18.7539888 2.37931844,18.7539888 L2.37931844,18.7539888 Z M14.4707179,0.0123687151 C19.4496536,0.0123687151 23.5003324,4.06297207 23.5003324,9.04198324 C23.5003324,14.0209944 19.4496536,18.0715978 14.4707179,18.0715978 C9.49178212,18.0715978 5.44110335,14.020919 5.44110335,9.04198324 C5.44110335,4.06304749 9.49178212,0.0123687151 14.4707179,0.0123687151 Z M6.61130447,16.3356788 C6.92368994,16.3356788 7.17694693,16.5889358 7.17694693,16.9013212 C7.17694693,17.2137067 6.92368994,17.4669637 6.61130447,17.4669637 L6.61130447,17.4669637 L0.565642458,17.4669637 C0.253256983,17.4669637 0,17.2137067 0,16.9013212 C0,16.5889358 0.253256983,16.3356788 0.565642458,16.3356788 L0.565642458,16.3356788 Z M14.4707179,1.14365363 C10.1155726,1.14365363 6.57238827,4.68683799 6.57238827,9.04198324 C6.57238827,13.3971285 10.1154972,16.9403128 14.4707179,16.9403128 C18.8259385,16.9403128 22.3690475,13.3971285 22.3690475,9.04198324 C22.3690475,4.68683799 18.8258631,1.14365363 14.4707179,1.14365363 Z M14.4707179,13.9174441 C14.7831034,13.9174441 15.0363603,14.1707011 15.0363603,14.4830866 L15.0363603,14.4830866 L15.0363603,15.0876453 C15.0363603,15.4000307 14.7831034,15.6532877 14.4707179,15.6532877 C14.1583324,15.6532877 13.9050754,15.4000307 13.9050754,15.0876453 L13.9050754,15.0876453 L13.9050754,14.4830866 C13.9050754,14.1707011 14.1583324,13.9174441 14.4707179,13.9174441 Z M35.0695307,12.0259358 L32.5546844,12.0259358 C32.1418408,12.0259358 31.6807291,12.3950363 31.5679777,12.8157989 L31.5679777,12.8157989 L31.0820531,14.6294749 C31.0404972,14.7843855 31.0545251,14.9225531 31.1205168,15.0085307 C31.1954078,15.1061229 31.3251285,15.1265615 31.4207598,15.1265615 L31.4207598,15.1265615 L35.0843883,15.1265615 L35.0695307,12.0259358 Z M18.302757,4.4101257 C18.5235838,4.18922346 18.8817486,4.18914804 19.1026508,4.4101257 C19.3235531,4.63095251 19.3235531,4.98911732 19.1026508,5.21001955 L19.1026508,5.21001955 L16.0597207,8.2528743 C16.1783547,8.49074581 16.2454777,8.75863408 16.2454777,9.04198324 C16.2454777,10.0205447 15.4493547,10.816743 14.4707179,10.816743 C14.1873687,10.816743 13.9194804,10.7496201 13.6816089,10.630986 L13.6816089,10.630986 L12.4524302,11.8601648 C12.3420168,11.9706536 12.1972123,12.0258603 12.0524832,12.0258603 C11.9076788,12.0258603 11.7629497,11.9706536 11.6524609,11.8602402 C11.4315587,11.6394134 11.4315587,11.2812486 11.6524609,11.0603464 L11.6524609,11.0603464 L12.8816397,9.8311676 C12.763081,9.59329609 12.6959581,9.32540782 12.6959581,9.04205866 C12.6959581,8.06349721 13.492081,7.26729888 14.4707179,7.26729888 C14.754067,7.26729888 15.0219553,7.33434637 15.2598268,7.45298045 L15.2598268,7.45298045 Z M14.4707179,8.39850838 C14.1159469,8.39850838 13.827243,8.68721229 13.827243,9.04198324 C13.827243,9.39675419 14.1159469,9.6854581 14.4707179,9.6854581 C14.8254888,9.6854581 15.1141927,9.39675419 15.1141927,9.04198324 C15.1141927,8.68721229 14.8255642,8.39850838 14.4707179,8.39850838 Z M20.5163799,8.47634078 C20.8287654,8.47634078 21.0820223,8.72959777 21.0820223,9.04198324 C21.0820223,9.35436872 20.8287654,9.6076257 20.5163799,9.6076257 L20.5163799,9.6076257 L19.9118212,9.6076257 C19.5994358,9.6076257 19.3461788,9.35436872 19.3461788,9.04198324 C19.3461788,8.72959777 19.5994358,8.47634078 19.9118212,8.47634078 L19.9118212,8.47634078 Z M9.02961453,8.47634078 C9.342,8.47634078 9.59525698,8.72959777 9.59525698,9.04198324 C9.59525698,9.35436872 9.342,9.6076257 9.02961453,9.6076257 L9.02961453,9.6076257 L8.42505587,9.6076257 C8.11267039,9.6076257 7.85941341,9.35436872 7.85941341,9.04198324 C7.85941341,8.72959777 8.11267039,8.47634078 8.42505587,8.47634078 L8.42505587,8.47634078 Z M14.4707179,2.43060335 C14.7831034,2.43060335 15.0363603,2.68386034 15.0363603,2.99624581 L15.0363603,2.99624581 L15.0363603,3.60080447 C15.0363603,3.91318994 14.7831034,4.16644693 14.4707179,4.16644693 C14.1583324,4.16644693 13.9050754,3.91326536 13.9050754,3.60080447 L13.9050754,3.60080447 L13.9050754,2.99624581 C13.9050754,2.68386034 14.1583324,2.43060335 14.4707179,2.43060335 Z" id="Combined-Shape"></path>
                            </g>
                        </g>
                    </g>
                </g>
            </g>
        </g>
    </g>
</svg>