<?xml version="1.0" encoding="UTF-8"?>
<svg width="9px" height="16px" viewBox="0 0 9 16" version="1.1" xmlns="http://www.w3.org/2000/svg" xmlns:xlink="http://www.w3.org/1999/xlink">
    <title>4BC088D3-EA30-4521-B053-A2EAE46DAB45</title>
    <g id="CMS-&amp;-Blog-&amp;-Brand-list" stroke="none" stroke-width="1" fill="none" fill-rule="evenodd">
        <g id="CMS---export-" transform="translate(-276.000000, -3417.000000)" fill="#FFFFFF" fill-rule="nonzero">
            <g id="Group-3" transform="translate(255.000000, 3374.000000)">
                <g id="Social-share" transform="translate(0.000000, 26.000000)">
                    <g id="Path" transform="translate(21.000000, 17.000000)">
                        <path d="M8.32466735,0.00332906796 L6.24982574,0 C3.91881235,0 2.4124091,1.5455198 2.4124091,3.93762158 L2.4124091,5.75312879 L0.32624866,5.75312879 C0.14597963,5.75312879 0,5.89927487 0,6.07954391 L0,8.71000696 C0,8.890276 0.146146084,9.03625562 0.32624866,9.03625562 L2.4124091,9.03625562 L2.4124091,15.6737512 C2.4124091,15.8540204 2.55838873,16 2.73865777,16 L5.46050373,16 C5.64077275,16 5.78675238,15.8538539 5.78675238,15.6737512 L5.78675238,9.03625562 L8.22596048,9.03625562 C8.4062295,9.03625562 8.55220914,8.890276 8.55220914,8.71000696 L8.55320786,6.07954391 C8.55320786,5.99298814 8.518752,5.91009435 8.45766361,5.8488395 C8.39657521,5.78758465 8.31334851,5.75312879 8.22679274,5.75312879 L5.78675238,5.75312879 L5.78675238,4.21410068 C5.78675238,3.47438177 5.96302653,3.09886291 6.92662525,3.09886291 L8.32433443,3.09836356 C8.50443701,3.09836356 8.65041664,2.95221746 8.65041664,2.7721149 L8.65041664,0.329577728 C8.65041664,0.149641605 8.50460346,0.00366197476 8.32466735,0.00332906796 Z"></path>
                    </g>
                </g>
            </g>
        </g>
    </g>
</svg>