<?xml version="1.0" encoding="UTF-8"?>
<svg width="22px" height="20px" viewBox="0 0 22 20" version="1.1" xmlns="http://www.w3.org/2000/svg" xmlns:xlink="http://www.w3.org/1999/xlink">
    <title>A6DF3601-0F10-49B8-8642-795047F74FE1</title>
    <g id="Product-category-&amp;-Details-&amp;-Cart" stroke="none" stroke-width="1" fill="none" fill-rule="evenodd">
        <g id="Kategorije-proizvoda---Razina-1--v2" transform="translate(-280.000000, -2882.000000)" fill="#497A59" fill-rule="nonzero">
            <g id="Group-2" transform="translate(0.000000, 1750.000000)">
                <g id="Proizvodi,-Filteri" transform="translate(0.000000, 817.000000)">
                    <g id="Group-26" transform="translate(255.000000, 0.000000)">
                        <g id="Kategorije-Copy" transform="translate(0.000000, 295.000000)">
                            <g id="Group-13" transform="translate(0.000000, 20.000000)">
                                <g id="Combined-Shape-2" transform="translate(25.000000, 0.000000)">
                                    <path d="M7.68515437,14.2860589 C8.95575198,14.2860589 10.0328166,15.115682 10.4039649,16.2628072 L10.4521286,16.4287868 L21.2557646,16.4287868 C21.6501206,16.4287868 21.9700072,16.7486734 21.9700072,17.1430294 C21.9700072,17.5045224 21.7012136,17.8034405 21.3526601,17.8507498 L21.2557646,17.8572721 L10.4519778,17.8572721 C10.1349554,19.0894838 9.01610589,20 7.68500362,20 C6.414406,20 5.33734134,19.1703768 4.96619312,18.0232517 L4.91802943,17.8572721 L0.714242644,17.8572721 C0.31973589,17.8572721 0,17.5373854 0,17.1430294 C0,16.7815364 0.268666963,16.4826184 0.617315444,16.4353091 L0.714242644,16.4287868 L4.91818017,16.4287868 C5.2352026,15.196575 6.3540521,14.2860589 7.68515437,14.2860589 Z M7.68515437,15.7145441 C6.89614086,15.7145441 6.25666908,16.3540159 6.25666908,17.1430294 C6.25666908,17.9320429 6.89614086,18.5715147 7.68515437,18.5715147 C8.47416787,18.5715147 9.11363965,17.9320429 9.11363965,17.1430294 C9.11363965,16.3540159 8.47416787,15.7145441 7.68515437,15.7145441 Z M16.2862168,7 C17.5568145,7 18.6338791,7.8296232 19.0050273,8.97674833 L19.053191,9.14272793 L21.2859153,9.14272793 C21.6802713,9.14272793 22.000158,9.46261457 22.000158,9.85697057 C22.000158,10.2184636 21.7313644,10.5173816 21.3828109,10.5646909 L21.2859153,10.5712132 L19.053191,10.5712132 C18.7361686,11.803425 17.6173191,12.7139411 16.2862168,12.7139411 C15.0156192,12.7139411 13.9385546,11.884318 13.5674063,10.7371928 L13.5192426,10.5712132 L0.714242644,10.5712132 C0.31973589,10.5712132 0,10.2513266 0,9.85697057 C0,9.49547757 0.268666963,9.19655952 0.617315444,9.14925021 L0.714242644,9.14272793 L13.5192426,9.14272793 C13.8362651,7.91051616 14.9551146,7 16.2862168,7 Z M16.2284853,8.42848529 C15.4394718,8.42848529 14.8,9.06795707 14.8,9.85697057 C14.8,10.6459841 15.4394718,11.2854559 16.2284853,11.2854559 C17.0174988,11.2854559 17.6569706,10.6459841 17.6569706,9.85697057 C17.6569706,9.06795707 17.017348,8.42848529 16.2284853,8.42848529 Z M5.7140919,0 C7.04534491,0 8.16389291,0.91051616 8.48106609,2.14272793 L21.2220874,2.14272793 C21.6164435,2.14272793 21.9363301,2.46246382 21.9363301,2.85697057 C21.9363301,3.25147733 21.6164435,3.57121322 21.2220874,3.57121322 L8.48106609,3.57121322 C8.16389291,4.80342499 7.04534491,5.71394115 5.7140919,5.71394115 C4.4313778,5.71394115 3.34611874,4.86863035 2.98498067,3.70467472 L2.94,3.545 L2.94696696,3.57121322 L0.714242644,3.57121322 C0.31973589,3.57121322 0,3.25147733 0,2.85697057 C0,2.49533938 0.268666963,2.19653649 0.617315444,2.14924733 L0.714242644,2.14272793 L2.94696696,2.14272793 L2.9425596,2.16006456 L2.9425596,2.16006456 L2.94,2.168 L2.98488158,2.0090812 C3.34611874,0.845310794 4.4313778,0 5.7140919,0 Z M5.7140919,1.42848529 C4.92522914,1.42848529 4.28560661,2.06810781 4.28560661,2.85697057 C4.28560661,3.64583333 4.92522914,4.28545586 5.7140919,4.28545586 C6.50295466,4.28545586 7.14257718,3.64598408 7.14257718,2.85697057 C7.14257718,2.06795707 6.50295466,1.42848529 5.7140919,1.42848529 Z" id="Combined-Shape"></path>
                                </g>
                            </g>
                        </g>
                    </g>
                </g>
            </g>
        </g>
    </g>
</svg>