<?xml version="1.0" encoding="UTF-8"?>
<svg width="33px" height="34px" viewBox="0 0 33 34" version="1.1" xmlns="http://www.w3.org/2000/svg" xmlns:xlink="http://www.w3.org/1999/xlink">
    <title>FC2C04CD-5B24-4504-9166-DB3D35BCA4E6</title>
    <g id="Početna-&amp;-Dropdowns" stroke="none" stroke-width="1" fill="none" fill-rule="evenodd">
        <g id="Početna" transform="translate(-1131.000000, -1256.000000)" fill="#497A59" fill-rule="nonzero">
            <g id="Zasto-kupovati-na-suplementi.hr" transform="translate(0.000000, 990.000000)">
                <g id="Zasto-kupovati" transform="translate(1110.000000, 98.000000)">
                    <g id="benefiti" transform="translate(0.000000, 148.000000)">
                        <g id="delivery-man" transform="translate(20.999964, 20.000000)">
                            <path d="M17.4250359,0 C19.6929377,0.00257632087 21.5307929,1.84043149 21.5333692,4.10833333 L21.5333692,4.10833333 L21.5333692,5.85295833 C21.5336082,6.18393204 21.4509321,6.50969287 21.29289,6.80049583 C22.3707571,6.82503251 23.2321101,7.70518779 23.2333692,8.78333333 L23.2333692,8.78333333 L23.2333692,9.35 C23.2321201,10.4448469 22.3448828,11.3320842 21.2500359,11.3333333 L21.2500359,11.3333333 L20.9667025,11.3333333 L20.9667025,11.69855 C20.969675,12.7140142 20.398209,13.6438568 19.49089,14.0998708 L19.49089,14.0998708 L19.2925567,14.2003833 L19.761615,16.0765458 L22.9936692,18.1333333 L26.0667025,18.1333333 C26.3796639,18.1333333 26.6333692,18.3870386 26.6333692,18.7 L26.6333692,18.7 L26.6333692,28.9 L28.9000359,28.9 L28.9000359,30.0333333 L27.7667025,30.0333333 L27.7667025,32.8666667 L29.0417025,32.8666667 C29.9019417,32.8656908 30.59906,32.1685725 30.6000359,31.3083333 L30.6000359,31.3083333 L30.6000359,27.8270875 C30.6026951,26.8496766 30.2142382,25.9118197 29.5212442,25.2225458 L29.5212442,25.2225458 L27.3659984,23.0673708 L28.1674067,22.2659625 L30.3226525,24.4212083 C31.2288921,25.3225298 31.7368755,26.5489489 31.7333872,27.8270875 L31.7333872,27.8270875 L31.7333872,31.3083333 C31.7316907,32.794204 30.5275732,33.9983215 29.0417025,34 L29.0417025,34 L2.69170254,34 C1.20583192,33.9983215 0.00171441004,32.794204 1.78466146e-05,31.3083333 L1.78466146e-05,31.3083333 L1.78466146e-05,27.8270875 C-0.00347036933,26.5489489 0.50451294,25.3225298 1.41075254,24.4212083 L1.41075254,24.4212083 L1.86606921,23.9659625 L2.66733588,24.7673708 L2.21209004,25.2225458 C1.51914213,25.9118448 1.13071495,26.8496915 1.13336921,27.8270875 L1.13336921,27.8270875 L1.13336921,31.3083333 C1.13434509,32.1685725 1.83146336,32.8656908 2.69170254,32.8666667 L2.69170254,32.8666667 L3.96670254,32.8666667 L3.96670254,30.0333333 L2.83336921,30.0333333 L2.83336921,28.9 L5.10003588,28.9 L5.10003588,22.3347417 L3.80074004,23.6340375 L2.99933171,22.8326292 L5.10003588,20.731925 L5.10003588,18.7 C5.10003588,18.3870386 5.35374119,18.1333333 5.66670254,18.1333333 L5.66670254,18.1333333 L8.73973588,18.1333333 L11.97179,16.0765458 L12.4363859,14.218375 L12.2546275,14.1274958 C11.3403019,13.674222 10.7632354,12.7405205 10.7667025,11.7200125 L10.7667025,11.7200125 L10.7667025,11.3333333 L10.4833692,11.3333333 C9.38852227,11.3320842 8.50128499,10.4448469 8.50003588,9.35 L8.50003588,9.35 L8.50003588,8.78333333 C8.50129955,7.70505324 9.36286329,6.82484325 10.4408692,6.80049583 C10.2827039,6.50972521 10.1999056,6.18396256 10.2000359,5.85295833 L10.2000359,5.85295833 L10.2000359,4.10833333 C10.2026122,1.84043149 12.0404674,0.00257632087 14.3083692,0 L14.3083692,0 Z M13.0333692,19.2666667 L6.23336921,19.2666667 L6.23336921,28.9 L6.80003588,28.9 C9.08348633,28.9030696 11.009406,30.6015185 11.2979525,32.8666667 L11.2979525,32.8666667 L13.0333692,32.8666667 L13.0333692,30.0333333 C13.0333692,29.720372 13.2870745,29.4666667 13.6000359,29.4666667 L13.6000359,29.4666667 L18.1333692,29.4666667 C18.4463306,29.4666667 18.7000359,29.720372 18.7000359,30.0333333 L18.7000359,30.0333333 L18.7000359,32.8666667 L20.4354525,32.8666667 C20.7239991,30.6015185 22.6499188,28.9030696 24.9333692,28.9 L24.9333692,28.9 L25.5000359,28.9 L25.5000359,19.2666667 L18.7000359,19.2666667 L18.7000359,23.8 C18.7000359,24.1129614 18.4463306,24.3666667 18.1333692,24.3666667 L18.1333692,24.3666667 L13.6000359,24.3666667 C13.2870745,24.3666667 13.0333692,24.1129614 13.0333692,23.8 L13.0333692,23.8 L13.0333692,19.2666667 Z M6.80003588,30.0333333 L5.10003588,30.0333333 L5.10003588,32.8666667 L10.15279,32.8666667 C9.87415214,31.2318592 8.4584176,30.0354554 6.80003588,30.0333333 L6.80003588,30.0333333 Z M17.5667025,30.6 L14.1667025,30.6 L14.1667025,32.8666667 L17.5667025,32.8666667 L17.5667025,30.6 Z M26.6333692,30.0333333 L24.9333692,30.0333333 C23.2749875,30.0354554 21.8592529,31.2318592 21.580615,32.8666667 L21.580615,32.8666667 L26.6333692,32.8666667 L26.6333692,30.0333333 Z M23.8000359,20.4 C24.1129972,20.4 24.3667025,20.6537053 24.3667025,20.9666667 L24.3667025,22.3833333 C24.3654534,23.4781803 23.4782161,24.3654176 22.3833692,24.3666667 L20.4000359,24.3666667 C20.0870745,24.3666667 19.8333692,24.1129614 19.8333692,23.8 L19.8333692,22.3833333 C19.8346183,21.2884864 20.7218556,20.4012491 21.8167025,20.4 L23.8000359,20.4 Z M11.9000359,22.6666667 L11.9000359,23.8 L7.36670254,23.8 L7.36670254,22.6666667 L11.9000359,22.6666667 Z M23.2333692,21.5333333 L21.8167025,21.5333333 C21.3474709,21.5338408 20.9672101,21.9141017 20.9667025,22.3833333 L20.9667025,23.2333333 L22.3833692,23.2333333 C22.8526009,23.2328258 23.2328617,22.852565 23.2333692,22.3833333 L23.2333692,21.5333333 Z M17.5667025,19.2666667 L14.1667025,19.2666667 L14.1667025,23.2333333 L17.5667025,23.2333333 L17.5667025,19.2666667 Z M8.50003588,20.4 L8.50003588,21.5333333 L7.36670254,21.5333333 L7.36670254,20.4 L8.50003588,20.4 Z M11.9000359,20.4 L11.9000359,21.5333333 L9.63336921,21.5333333 L9.63336921,20.4 L11.9000359,20.4 Z M19.345965,17.1558333 L18.3681109,18.1333333 L20.8826234,18.1333333 L19.345965,17.1558333 Z M18.2556275,14.7258958 L16.7587067,15.4838125 C16.1982646,15.7661074 15.5375604,15.7677872 14.97569,15.4883458 L14.97569,15.4883458 L13.4747317,14.7375833 L13.094215,16.2595083 L14.9681109,18.1333333 L16.7652942,18.1333333 L18.63919,16.2599333 L18.2556275,14.7258958 Z M12.38744,17.1557625 L10.8507109,18.1333333 L13.3652942,18.1333333 L12.38744,17.1557625 Z M17.1239234,6.61923333 C16.3630402,6.11010914 15.3702232,6.11010914 14.60934,6.61923333 L14.60934,6.61923333 L13.2834817,7.5031625 C12.8768786,7.77492637 12.3840381,7.88648481 11.900027,7.81631667 L11.900027,7.81631667 L11.900027,11.7200125 C11.898041,12.310855 12.2321468,12.8514351 12.7615109,13.1138708 L12.7615109,13.1138708 L15.4825734,14.4743667 C15.7233802,14.5941193 16.0065414,14.5933844 16.2467234,14.4723833 L16.2467234,14.4723833 L18.9789775,13.0887958 C19.5042671,12.8247873 19.8351084,12.2864502 19.833376,11.69855 L19.833376,11.69855 L19.833376,7.81624583 C19.3493341,7.88635471 18.8564785,7.77482951 18.4497817,7.5031625 L18.4497817,7.5031625 Z M21.2500359,7.93333333 L20.9667025,7.93333333 L20.9667025,10.2 L21.2500359,10.2 C21.7192675,10.1994925 22.0995284,9.81923166 22.1000359,9.35 L22.1000359,9.35 L22.1000359,8.78333333 C22.0995284,8.31410167 21.7192675,7.93384084 21.2500359,7.93333333 L21.2500359,7.93333333 Z M10.7667025,7.93333333 L10.4833692,7.93333333 C10.0141376,7.93384084 9.63387672,8.31410167 9.63336921,8.78333333 L9.63336921,8.78333333 L9.63336921,9.35 C9.63387672,9.81923166 10.0141376,10.1994925 10.4833692,10.2 L10.4833692,10.2 L10.7667025,10.2 L10.7667025,7.93333333 Z M18.3435317,4.29087083 C16.8046826,3.42936509 14.9287225,3.42936509 13.3898734,4.29087083 L13.3898734,4.29087083 L11.3333369,5.4334125 L11.3333369,5.85295833 C11.3306151,6.16719361 11.5039509,6.4565425 11.7823109,6.602375 C12.0580574,6.75303513 12.3949226,6.73673608 12.6548359,6.56015833 L12.6548359,6.56015833 L13.9806942,5.6763 C15.1220164,4.91243532 16.6113887,4.91243532 17.7527109,5.6763 L17.7527109,5.6763 L19.0785692,6.56015833 C19.3393897,6.73402349 19.6747319,6.75023004 19.951103,6.60232648 C20.2274741,6.45442292 20.4000359,6.16641715 20.4000359,5.85295833 L20.4000359,5.85295833 L20.4000359,5.4334125 Z M17.4250359,1.13333333 L14.3083692,1.13333333 C12.6660826,1.13516805 11.3352039,2.46604677 11.3333692,4.10833333 L11.3333692,4.10833333 L11.3333692,4.13666667 L12.8395692,3.30019583 C14.7203071,2.24722572 17.013098,2.24722572 18.8938359,3.30019583 L18.8938359,3.30019583 L20.4000359,4.13666667 L20.4000359,4.10833333 C20.3982012,2.46604677 19.0673224,1.13516805 17.4250359,1.13333333 L17.4250359,1.13333333 Z" id="Combined-Shape"></path>
                        </g>
                    </g>
                </g>
            </g>
        </g>
    </g>
</svg>