<?xml version="1.0" encoding="UTF-8"?>
<svg width="26px" height="18px" viewBox="0 0 26 18" version="1.1" xmlns="http://www.w3.org/2000/svg" xmlns:xlink="http://www.w3.org/1999/xlink">
    <title>98550C35-839B-41AF-AB87-76A522A4C614</title>
    <g id="PoÄetna-&amp;-Dropdowns" stroke="none" stroke-width="1" fill="none" fill-rule="evenodd">
        <g id="Suplementi-izbornik" transform="translate(-595.000000, -395.000000)" fill="#D0E0C9" fill-rule="nonzero">
            <g id="Dropdown" transform="translate(490.000000, 100.000000)">
                <g id="kategorije" transform="translate(75.000000, 40.000000)">
                    <g id="CTA-Copy" transform="translate(0.000000, 237.000000)">
                        <g id="Group-4" transform="translate(30.000000, 18.000000)">
                            <path d="M22.8461538,0 C24.2095055,0 25.3186813,1.10917582 25.3186813,2.47252747 L25.3186813,2.47252747 L25.3186813,15.5274231 C25.3186813,16.8907747 24.2095055,18 22.8461538,18 L22.8461538,18 L14.3423901,18 C14.0692747,18 13.8478846,17.7785604 13.8478846,17.5054451 C13.8478846,17.2323297 14.0692747,17.0109396 14.3423901,17.0109396 L14.3423901,17.0109396 L16.9120879,17.0109396 L16.9120879,14.3406099 C16.9120879,14.0674945 17.133478,13.8461044 17.4065934,13.8461044 C17.6797088,13.8461044 17.9010989,14.0674945 17.9010989,14.3406099 L17.9010989,14.3406099 L17.9010989,17.0109396 L22.8461538,17.0109396 C23.6641648,17.0109396 24.3296703,16.3454341 24.3296703,15.5274231 L24.3296703,15.5274231 L24.3296703,9.49445604 L23.0766429,9.49445604 C22.9974231,9.8957967 22.758478,10.2495165 22.4041648,10.4741209 C22.1573077,10.6305824 21.8776648,10.7098022 21.5965879,10.7098022 C21.5505495,10.7098022 21.504511,10.7071813 21.4585714,10.7029286 L21.4585714,10.7029286 L22.9127637,13.2655055 C23.0111209,13.4389286 22.9957912,13.6544341 22.8737967,13.8121319 C22.7518022,13.9698791 22.5470275,14.0388132 22.354467,13.9871868 L22.354467,13.9871868 L21.1703242,13.6693681 L20.8534451,14.8538077 C20.8014725,15.0480495 20.6370989,15.191456 20.4376154,15.2166264 C20.4168462,15.2192473 20.3961758,15.220533 20.3756044,15.220533 C20.1986209,15.220533 20.0330604,15.1254396 19.9447418,14.9684341 L19.9447418,14.9684341 L17.1201758,9.94653297 L14.8656264,13.851544 C14.7765659,14.0058297 14.612489,14.0987967 14.437533,14.0987967 C14.416022,14.0987967 14.3944121,14.0974121 14.3727033,14.094544 C14.1743571,14.0683846 14.0113187,13.9253242 13.9596429,13.7320714 L13.9596429,13.7320714 L13.6428132,12.5476813 L12.4586703,12.8655 C12.2652198,12.9173736 12.0595055,12.8475 11.9377582,12.6884176 C11.816011,12.5293352 11.8022637,12.3124945 11.9029945,12.1393187 L11.9029945,12.1393187 L12.7736209,10.6420549 C12.6471264,10.6028901 12.5243901,10.5473077 12.409022,10.4741703 C12.0547088,10.2495165 11.8158132,9.89584615 11.736544,9.49450549 L11.736544,9.49450549 L0.989010989,9.49450549 L0.989010989,15.5274725 C0.989010989,16.3454835 1.65451648,17.010989 2.47252747,17.010989 L2.47252747,17.010989 L10.1373626,17.010989 C10.410478,17.010989 10.6318681,17.2323791 10.6318681,17.5054945 C10.6318681,17.7786099 10.410478,18 10.1373626,18 L10.1373626,18 L2.47252747,18 C1.10917582,18 0,16.8908242 0,15.5274725 L0,15.5274725 L0,2.47252747 C0,1.10917582 1.10917582,0 2.47252747,0 L2.47252747,0 Z M12.2019231,17.010989 C12.331978,17.010989 12.4595604,17.0639011 12.5515385,17.1558791 C12.644011,17.2478571 12.6964286,17.3754396 12.6964286,17.5054945 C12.6964286,17.6355495 12.644011,17.7631319 12.5515385,17.8551099 C12.4595604,17.9470879 12.331978,18 12.2019231,18 C12.0718681,18 11.9442857,17.9470879 11.8523077,17.8551099 C11.7603297,17.7631319 11.7074176,17.6355495 11.7074176,17.5054945 C11.7074176,17.3754396 11.7603297,17.2478571 11.8523077,17.1558791 C11.9442857,17.0639011 12.0718681,17.010989 12.2019231,17.010989 Z M10.4587912,13.8461538 C10.7319066,13.8461538 10.9532967,14.067544 10.9532967,14.3406593 C10.9532967,14.6137747 10.7319066,14.8351648 10.4587912,14.8351648 L10.4587912,14.8351648 L3.16483516,14.8351648 C2.89171978,14.8351648 2.67032967,14.6137747 2.67032967,14.3406593 C2.67032967,14.067544 2.89171978,13.8461538 3.16483516,13.8461538 L3.16483516,13.8461538 Z M18.2763297,9.30234066 C18.1791593,9.35713187 18.0754121,9.40143956 17.966522,9.43378022 L17.966522,9.43378022 L20.2117253,13.4256264 L20.3428187,12.9356703 C20.3766923,12.8089286 20.4596209,12.7008297 20.5732582,12.6352088 C20.6868956,12.5696374 20.8219451,12.5518352 20.9486868,12.5858571 L20.9486868,12.5858571 L21.4692033,12.7255549 L19.9837582,10.1079396 Z M16.2802088,9.42344505 L14.0009835,10.4987967 L13.3610934,11.5992692 L13.8645,11.4641703 C13.9912418,11.4301484 14.1262912,11.4478516 14.2399286,11.513522 C14.3535659,11.5790934 14.4364451,11.6872418 14.4703681,11.8139835 L14.4703681,11.8139835 L14.6064066,12.322533 L16.2802088,9.42344505 Z M13.4398187,5.26287363 C13.2750989,5.18513736 13.0923791,5.19646154 12.9385385,5.29402747 C12.7846978,5.39154396 12.696478,5.55191209 12.696478,5.73408791 L12.696478,5.73408791 L12.6965275,9.19874176 C12.6965275,9.38091758 12.7847473,9.54128571 12.9385879,9.6388022 C13.092478,9.73631868 13.2751484,9.74759341 13.4398681,9.66995604 L13.4398681,9.66995604 L15.8721429,8.52240659 C15.8085495,8.35570879 15.7734396,8.17506593 15.7734396,7.98626374 L15.7734396,7.98626374 L15.7734396,6.92846703 C15.7734396,6.7455 15.8061758,6.57004945 15.8660604,6.4076044 L15.8660604,6.4076044 Z M21.8746484,5.29402747 C21.7207582,5.19651099 21.5381374,5.18518681 21.3733681,5.26287363 L21.3733681,5.26287363 L18.9536044,6.40453846 C19.0141813,6.56782418 19.0474121,6.74431319 19.0474121,6.92841758 L19.0474121,6.92841758 L19.0474121,7.98626374 C19.0474121,8.1762033 19.0118077,8.35788462 18.947522,8.52547253 L18.947522,8.52547253 L21.3733681,9.67000549 C21.5380879,9.74774176 21.7207582,9.73641758 21.8746484,9.63885165 C22.028489,9.54133516 22.1167088,9.38091758 22.1167088,9.19879121 L22.1167088,9.19879121 L22.1167088,5.73408791 C22.1167088,5.55196154 22.028489,5.39154396 21.8746484,5.29402747 Z M17.5373407,6.40740659 L17.2834615,6.40740659 C16.9961538,6.40740659 16.7624011,6.64110989 16.7624011,6.92841758 L16.7624011,6.92841758 L16.7624011,7.98626374 C16.7624011,8.27352198 16.9961538,8.50727473 17.2834615,8.50727473 L17.2834615,8.50727473 L17.5373407,8.50727473 C17.8246484,8.50727473 18.0584011,8.27357143 18.0584011,7.98626374 L18.0584011,7.98626374 L18.0584011,6.92841758 C18.0584011,6.64110989 17.8246484,6.40740659 17.5373407,6.40740659 L17.5373407,6.40740659 Z M16.9120879,0.989010989 L2.47252747,0.989010989 C1.65451648,0.989010989 0.989010989,1.65451648 0.989010989,2.47252747 L0.989010989,2.47252747 L0.989010989,8.50549451 L11.7075165,8.50549451 L11.7075165,5.73403846 C11.7075165,5.21391758 11.9698022,4.73711538 12.4090714,4.45865934 C12.8483407,4.1802033 13.3914066,4.14642857 13.8618791,4.36836264 L13.8618791,4.36836264 L16.5237033,5.62425824 C16.6596429,5.54479121 16.8088846,5.48584615 16.9674231,5.45192308 C16.9322637,5.38397802 16.9120879,5.30708242 16.9120879,5.22529121 L16.9120879,5.22529121 L16.9120879,0.989010989 Z M22.8462033,0.989010989 L17.9011484,0.989010989 L17.9011484,5.22529121 C17.9011484,5.30643956 17.8812198,5.38279121 17.8466044,5.45034066 C18.0063791,5.48371978 18.1567582,5.54266484 18.2937363,5.62228022 L18.2937363,5.62228022 L20.9513571,4.36841209 C21.4217308,4.14652747 21.9648462,4.18025275 22.4041648,4.45870879 C22.8434341,4.73716484 23.1057198,5.21396703 23.1057198,5.73408791 L23.1057198,5.73408791 L23.1057198,8.50549451 L24.3297198,8.50549451 L24.3297198,2.47252747 C24.3297198,1.65451648 23.6642143,0.989010989 22.8462033,0.989010989 L22.8462033,0.989010989 Z M6.23076923,5.34065934 C6.50388462,5.34065934 6.72527473,5.56204945 6.72527473,5.83516484 C6.72527473,6.10828022 6.50388462,6.32967033 6.23076923,6.32967033 L6.23076923,6.32967033 L3.16483516,6.32967033 C2.89171978,6.32967033 2.67032967,6.10828022 2.67032967,5.83516484 C2.67032967,5.56204945 2.89171978,5.34065934 3.16483516,5.34065934 L3.16483516,5.34065934 Z M8.14401099,5.34065934 C8.27406593,5.34065934 8.40164835,5.39357143 8.49362637,5.48554945 C8.5856044,5.57752747 8.63851648,5.70510989 8.63851648,5.83516484 C8.63851648,5.96521978 8.5856044,6.0928022 8.49362637,6.18478022 C8.40164835,6.27675824 8.27406593,6.32967033 8.14401099,6.32967033 C8.01346154,6.32967033 7.88637363,6.27675824 7.7943956,6.18478022 C7.70241758,6.0928022 7.64950549,5.96521978 7.64950549,5.83516484 C7.64950549,5.70510989 7.70241758,5.57752747 7.7943956,5.48554945 C7.88637363,5.39357143 8.01346154,5.34065934 8.14401099,5.34065934 Z M10.4587912,2.67032967 C10.7319066,2.67032967 10.9532967,2.89171978 10.9532967,3.16483516 C10.9532967,3.43795055 10.7319066,3.65934066 10.4587912,3.65934066 L10.4587912,3.65934066 L3.16483516,3.65934066 C2.89171978,3.65934066 2.67032967,3.43795055 2.67032967,3.16483516 C2.67032967,2.89171978 2.89171978,2.67032967 3.16483516,2.67032967 L3.16483516,2.67032967 Z" id="Combined-Shape"></path>
                        </g>
                    </g>
                </g>
            </g>
        </g>
    </g>
</svg>