<?xml version="1.0" encoding="UTF-8"?>
<svg width="29px" height="40px" viewBox="0 0 29 40" version="1.1" xmlns="http://www.w3.org/2000/svg" xmlns:xlink="http://www.w3.org/1999/xlink">
    <title>7136BA28-43AC-4423-BC52-A66572361394</title>
    <g id="Početna-&amp;-Dropdowns" stroke="none" stroke-width="1" fill="none" fill-rule="evenodd">
        <g id="Početna" transform="translate(-1576.000000, -2756.000000)" fill="#497A59" fill-rule="nonzero">
            <g id="Pretrazi-prema-namjeni" transform="translate(285.000000, 2731.000000)">
                <g id="namjene" transform="translate(270.000000, 0.000000)">
                    <g id="srce-i-krvotok" transform="translate(984.000000, 0.000000)">
                        <g id="Group-62" transform="translate(6.000000, 0.000000)">
                            <g id="heart-(1)" transform="translate(31.000000, 25.000000)">
                                <path d="M23.9742187,18.0015625 C24.0186719,17.7815625 24.04125,17.5577344 24.0417969,17.3332813 C23.935,15.6957031 23.1753125,14.1696094 21.933125,13.0972656 C22.0066406,13.1053906 22.0753906,13.1097656 22.1510937,13.1197656 C23.3224219,13.2767969 24.4228125,12.5227344 24.6991406,11.3736719 C24.9754687,10.2246094 24.3380469,9.05273438 23.2233594,8.66007813 C22.3609375,8.33804688 21.46125,8.12632813 20.5457031,8.03015625 C20.6486719,7.5828125 20.7032031,7.125625 20.7084375,6.6665625 C20.7084375,4.85601563 19.3884375,3.21539063 17.3750781,2.46085938 L17.3750781,1.99992188 C17.3750781,0.895390625 16.4796094,-7.8125e-05 15.3750781,-7.8125e-05 C14.2705469,-7.8125e-05 13.3750781,0.8953125 13.3750781,1.99992188 L13.3750781,2.11453125 C13.1540625,2.15296875 12.9390625,2.20109375 12.7302344,2.2590625 L12.3825781,1.39054688 C12.0314844,0.5125 11.0539844,0.063515625 10.1592188,0.369296875 C9.264375,0.675078125 8.76609375,1.6284375 9.02585938,2.53765625 L9.56234375,4.41585938 C9.2265625,4.86054688 8.93828125,5.33914063 8.7021875,5.84390625 C8.67515625,4.3403125 8.26679688,2.86828125 7.51546875,1.56554688 C6.9565625,0.6 5.92679687,0.00375 4.8109375,-7.8125e-05 L2.193125,-7.8125e-05 C1.67867188,0.00046875 1.20875,0.29203125 0.97984375,0.7528125 C0.7509375,1.21359375 0.802421875,1.76414063 1.11273437,2.17453125 C1.840625,3.14523438 2.7084375,4.59640625 2.7084375,6.00007813 L2.7084375,14.986875 C1.46171875,16.3220313 0.041796875,18.8260938 0.041796875,23.3333594 C0.041796875,29.2845312 0.760546875,30.3847656 1.46367187,30.6757812 C1.58,30.7242969 1.70484375,30.7492969 1.83085937,30.749375 C1.86835938,30.7475 1.90570312,30.7432813 1.94265625,30.736875 C2.16585937,31.2353906 2.42171875,31.7186719 2.70851562,32.1835156 L2.70851562,37 C2.703125,38.2749219 3.50742187,39.4127344 4.71109375,39.8330469 C5.91476562,40.2533594 7.2525,39.8635156 8.041875,38.8623437 C8.64359375,39.6305469 9.58453125,40.05375 10.5585156,39.9945313 C11.5325,39.9352344 12.4150781,39.4009375 12.9192187,38.5654688 C13.2907031,38.6246875 13.6657812,38.6585156 14.041875,38.6667188 C16.0136719,38.6732031 17.9761719,38.9376563 19.8794531,39.4532031 C21.0182031,39.7767188 22.1921094,39.9603125 23.3752344,40.0002395 C24.97875,40.0002395 28.7085937,39.2207812 28.7085937,32.0000781 C28.7085937,28.6632031 27.0482031,22.6723438 23.9742187,18.0015625 Z M22.7084375,17.3333594 C22.7141406,17.4989063 22.7017187,17.6646094 22.6714844,17.8274219 C22.6539062,17.8572656 22.63875,17.8883594 22.6260937,17.920625 C22.5917969,18.0474219 22.5253125,18.163125 22.4329687,18.2564844 C22.4258594,18.2632031 22.4177344,18.2695313 22.4103125,18.2760938 C22.3764844,18.3058594 22.3405469,18.333125 22.3027344,18.3575781 C22.2821875,18.3710938 22.2621094,18.3846875 22.2394531,18.3975 C22.1785937,18.4319531 22.1150781,18.4616406 22.0496094,18.48625 C22.02875,18.4942188 22.0039062,18.5007813 21.9817187,18.5082813 C21.9059375,18.5333594 21.8289844,18.5544531 21.7510156,18.5714844 C21.7261719,18.5770313 21.7026562,18.5829688 21.6764844,18.5880469 C21.5655469,18.6095313 21.4404687,18.6271094 21.3003906,18.6401563 C21.27375,18.6426563 21.2448437,18.644375 21.2170312,18.6465625 C21.0636719,18.6584375 20.8985937,18.6666406 20.7083594,18.6666406 C20.5850781,18.6666406 20.4664062,18.6605469 20.3527344,18.649375 C20.3441406,18.6485938 20.3366406,18.6467188 20.3280469,18.6458594 C20.2234375,18.6346875 20.1223437,18.6200781 20.0267969,18.6007031 L20.004375,18.5951563 C19.9110156,18.5754688 19.8216406,18.5527344 19.7380469,18.5263281 C19.7221875,18.5213281 19.7083594,18.5151563 19.6928906,18.51 C19.621875,18.4861719 19.5535156,18.4608594 19.4903906,18.4329688 C19.4626562,18.420625 19.4383594,18.4070313 19.4122656,18.3940625 C19.3678125,18.3720313 19.3238281,18.3500781 19.2841406,18.3264063 C19.2494531,18.3055469 19.21875,18.28375 19.1879687,18.261875 C19.16375,18.2448438 19.1389844,18.2280469 19.1171875,18.2104688 C19.0852344,18.184375 19.0548437,18.1564844 19.0260937,18.126875 C19.0132812,18.1139844 19.0002344,18.1011719 18.98875,18.0882031 C18.9629687,18.0588281 18.9396875,18.0275 18.9189844,17.994375 C18.9114062,17.9822656 18.9038281,17.9702344 18.8974219,17.9582031 C18.88625,17.9378906 18.8764844,17.9167969 18.8682812,17.8951563 C18.8505469,17.8439063 18.8432812,17.7896094 18.8467969,17.7355469 C18.848125,17.7105469 18.8514063,17.685625 18.8566406,17.6610938 C18.8635156,17.6310938 18.8726562,17.6016406 18.8839844,17.5730469 C18.8978906,17.5317969 18.9153125,17.4917969 18.9360937,17.4535938 L18.9451562,17.439375 C19.0095312,17.3297656 19.0879687,17.2290625 19.1783594,17.1398438 L19.1786719,17.1394531 L19.1789062,17.1391406 L19.1796094,17.138125 L19.18,17.1376563 L19.1802344,17.1375 C19.2853906,17.0296875 19.3819531,16.9139063 19.4692187,16.79125 C19.4844531,16.7705469 19.5045312,16.7524219 19.5190625,16.7313281 C19.5499219,16.6873438 19.5726562,16.6396875 19.6010156,16.5944531 C19.6038281,16.5901563 19.6078125,16.5871875 19.6104687,16.5828125 C19.6264062,16.5569531 19.6385156,16.529375 19.65375,16.5032031 C19.7263281,16.3804688 19.7910937,16.2533594 19.8478125,16.1225781 C19.8500781,16.1175781 19.8540625,16.1139844 19.8561719,16.1089063 C19.8684375,16.0796094 19.8764844,16.0492969 19.8880469,16.0198438 C19.9342969,15.9015625 19.9778906,15.7829688 20.0125781,15.6611719 C20.0146094,15.6547656 20.0190625,15.6499219 20.0209375,15.6433594 L20.0222656,15.6394531 C20.035625,15.5916406 20.0428125,15.5426563 20.0542187,15.4944531 C20.0792969,15.3907813 20.1046094,15.2878125 20.1226562,15.1830469 L20.1228906,15.1830469 L20.1228125,15.1814844 C20.1310937,15.1332813 20.1359375,15.085 20.1428125,15.0366406 L20.1463281,15.0261719 L20.1463281,15.0254688 L20.1466406,15.0235156 C20.1538281,14.9714063 20.160625,14.919375 20.1667969,14.8672656 L20.1678906,14.8570313 L20.170625,14.8344531 C20.1797656,14.7467969 20.1853906,14.6603906 20.1905469,14.5732813 C20.1909375,14.5683594 20.1939062,14.5642969 20.1941406,14.5592969 C20.1974219,14.5085156 20.1996875,14.4577344 20.2016406,14.4069531 L20.2021875,14.3814063 L20.2029687,14.3464063 L20.204375,14.2859375 C20.2046875,14.2638281 20.2057812,14.2417188 20.2058594,14.2196875 L20.2058594,14.2142188 L20.205625,14.2132813 C20.205625,14.1965625 20.204375,14.180625 20.204375,14.1639844 L20.2067969,14.1530469 C20.2070312,14.145625 20.2035937,14.1382813 20.2034375,14.1307813 L20.2026562,14.1000781 C20.2017969,13.9942969 20.1998437,13.8922656 20.1947656,13.7928906 C20.1929687,13.759375 20.1910156,13.7267188 20.1888281,13.6935156 C20.185,13.6339063 20.1829687,13.5701563 20.1780469,13.5136719 C21.6136719,14.276875 22.565625,15.7140625 22.7084375,17.3333594 Z M19.6859375,9.33398438 L19.6871875,9.33375 C19.805,9.33322266 19.923125,9.333125 20.0417188,9.33322266 C20.9792188,9.37898437 21.903125,9.57601563 22.7777344,9.91664063 C23.04375,10.0089063 23.2564063,10.2123438 23.3604688,10.4739063 C23.4657031,10.7317188 23.45375,11.0225 23.3275781,11.2707813 C23.1413281,11.6425 22.7391406,11.8544531 22.3272656,11.798125 C21.2432813,11.5766406 20.1185156,11.67 19.0858594,12.0670313 L19.0828125,12.068125 L19.0769531,12.0702344 C18.9979688,12.1117188 18.9282813,12.1689844 18.8722656,12.2383594 C18.8661719,12.2455469 18.8565625,12.2483594 18.8507031,12.2557813 C18.8426563,12.2660156 18.8419531,12.2796875 18.8345313,12.2903125 C18.7905469,12.3529688 18.7578906,12.4227344 18.7378906,12.4966406 C18.7338281,12.5117969 18.7267188,12.5250781 18.7236719,12.5403906 C18.7075,12.6178906 18.7053906,12.6976563 18.7175,12.7759375 L18.8333594,13.4667188 C18.8403125,13.5278125 18.8458594,13.5984375 18.8516406,13.6674219 C18.8559375,13.7210156 18.86,13.7744531 18.8630469,13.8301563 C18.8664844,13.8889844 18.8688281,13.9498438 18.870625,14.0121094 C18.8734375,14.1328906 18.8732031,14.2560938 18.8678906,14.3814063 C18.866875,14.4051563 18.8660156,14.4289063 18.8647656,14.4528125 C18.8566406,14.6057031 18.8405469,14.758125 18.8166406,14.909375 L18.8121875,14.9321094 C18.7882031,15.0728125 18.7550781,15.211875 18.7130469,15.3482813 C18.7090625,15.3614063 18.7045313,15.3742969 18.7002344,15.3874219 C18.6936719,15.4073438 18.6860938,15.426875 18.6790625,15.4466406 C18.6420313,15.5521094 18.5975,15.6547656 18.5457813,15.7539063 C18.5257031,15.7921094 18.5063281,15.830625 18.4839844,15.8671875 C18.4159375,15.9844531 18.3340625,16.093125 18.2402344,16.1909375 L18.2373438,16.1946094 L18.226875,16.2066406 C18.14,16.2944531 18.0585938,16.3874219 17.983125,16.4851563 L17.9792188,16.4896094 L17.9785938,16.4910156 L17.9742188,16.4960156 C17.9379688,16.50125 17.9014844,16.5063281 17.8647656,16.5113281 C17.5229688,16.5574219 17.1655469,16.5948437 16.788125,16.6200781 C16.738125,16.6234375 16.6858594,16.6252344 16.6352344,16.6282031 C16.231875,16.651875 15.8142188,16.6667969 15.3750781,16.6667969 C15.2348438,16.6667969 15.0857031,16.6563281 14.9335156,16.6408594 C14.8616406,16.6334375 14.78625,16.6216406 14.7117969,16.6110156 C14.63125,16.5996875 14.5509375,16.5885156 14.4691406,16.5739844 C14.3774219,16.5575 14.2844531,16.538125 14.1911719,16.5177344 C14.1263281,16.5035938 14.0616406,16.4892188 13.996875,16.4734375 C13.8909375,16.4475781 13.7852344,16.4196875 13.6797656,16.3898438 C13.6371094,16.3777344 13.5950781,16.3651563 13.5529688,16.3525 C13.0532813,16.2102344 12.5742969,16.0032813 12.128125,15.7369531 C12.0464844,15.6523438 11.9589844,15.5735156 11.8663281,15.5010938 C11.8646061,15.4777344 11.8641406,15.4542188 11.8651563,15.4307813 C11.8673438,15.4163281 11.8754688,15.4042188 11.8767188,15.389375 C11.9117969,15.1196094 11.985,14.85625 12.0942188,14.6071094 C12.1005469,14.5917187 12.10625,14.5770313 12.1128125,14.5613281 C12.1689063,14.4260937 12.2365625,14.2817969 12.3109375,14.133125 C12.3290625,14.096875 12.3475781,14.0603125 12.3667969,14.0232031 C12.4478125,13.8670312 12.5360938,13.70625 12.6352344,13.5400781 L12.6609375,13.4977344 C13.0366406,12.8796875 13.4652344,12.2953125 13.9417969,11.7511719 C13.958125,11.7325 13.9749219,11.7139062 13.9914844,11.6952344 C14.1580469,11.5067187 14.3310938,11.3200781 14.5126563,11.1385937 L14.5135156,11.1377344 C14.6892188,10.9632812 14.8740625,10.7982812 15.0671875,10.6434375 C15.1015625,10.6157812 15.1358594,10.5853125 15.1702344,10.5588281 C15.3227344,10.4417969 15.4810156,10.3325 15.6445313,10.2313281 C15.7107031,10.19 15.7769531,10.1480469 15.8432031,10.1104687 C15.9803906,10.0321875 16.1180469,9.963125 16.2559375,9.89992187 C16.3405469,9.86125 16.4252344,9.825 16.5100781,9.79132812 C16.6407031,9.7396875 16.7717969,9.69210937 16.90375,9.6515625 C16.9872656,9.62570312 17.0709375,9.60359375 17.1546094,9.58171875 C17.2967969,9.54507812 17.4392969,9.51054687 17.5836719,9.4840625 C17.6454688,9.4725 17.7075781,9.46390625 17.7695313,9.4540625 C17.9389844,9.42773437 18.1090625,9.40375 18.2823438,9.38796875 C18.3089063,9.38546875 18.3357031,9.38414062 18.3623438,9.38179687 C18.7890625,9.34609375 19.2279688,9.33554688 19.6859375,9.33398438 Z M8.7084375,13.3932031 C8.7084375,9.44140625 9.41351562,6.6178125 10.8041406,5.00195313 L10.8041406,5.00195313 C10.950625,4.83203125 11.0016406,4.59976563 10.9399219,4.38414063 L10.3077344,2.171875 C10.243125,1.94523438 10.3672656,1.70773438 10.5902344,1.63140625 C10.8132031,1.55507813 11.056875,1.66671875 11.1446875,1.88546875 L11.7264063,3.33921875 C11.7921094,3.50351563 11.9203906,3.63492188 12.0830469,3.70453125 C12.2457031,3.77414063 12.429375,3.77625 12.5935938,3.7103125 C13.0764844,3.52171875 13.584375,3.40476563 14.1010938,3.36328125 C14.4449219,3.3325 14.7084375,3.04445313 14.7085156,2.69921875 L14.7085156,2 C14.7085156,1.63179688 15.0069531,1.33335938 15.3751563,1.33335938 C15.7433594,1.33335938 16.0417969,1.63179688 16.0417969,2 L16.0417969,2.94203125 C16.041875,3.23890625 16.238125,3.5 16.5232813,3.58265625 C18.2289844,4.07546875 19.3751563,5.31507813 19.3751563,6.66664063 C19.3696094,7.11953125 19.3059375,7.56984375 19.1857031,8.00648438 L19.1736719,8.00695313 C18.7244531,8.01390625 18.2759375,8.04460938 17.83,8.0990625 C17.8000781,8.1028125 17.7700781,8.1059375 17.7401563,8.11 C17.5510938,8.13601563 17.3608594,8.16976563 17.1699219,8.2096875 C17.1028906,8.22351563 17.0357813,8.23851563 16.9688281,8.25421875 C16.7960938,8.29523438 16.6228125,8.3415625 16.4489844,8.39703125 C16.3688281,8.42242188 16.2888281,8.45289063 16.20875,8.4815625 C16.0850781,8.52617188 15.96125,8.57539063 15.8372656,8.62898438 C15.7323438,8.6740625 15.6275781,8.72195313 15.5228125,8.77375 C15.3807031,8.84390625 15.2384375,8.9209375 15.0961719,9.00476563 C15.0544531,9.029375 15.0126563,9.04679688 14.9709375,9.07257813 C15.1600781,8.50328125 15.4847656,7.99992188 16.041875,7.99992188 C16.4100781,7.99992188 16.7085156,7.70140625 16.7085156,7.33328125 C16.7085156,6.96507813 16.41,6.66664063 16.041875,6.66664063 C14.0616406,6.66664063 13.4475781,8.8909375 13.3816406,10.3915625 C13.2996875,10.4771094 13.2179688,10.5641406 13.1357031,10.6546875 C13.0802344,10.715625 13.0258594,10.7766406 12.9714844,10.8384375 C12.8804688,10.9421094 12.7901563,11.0482813 12.7003906,11.1571094 C12.6392969,11.2307813 12.5778906,11.3036719 12.5186719,11.378125 C12.3982031,11.5289844 12.2802344,11.683125 12.1646875,11.8404688 C12.1374219,11.8776563 12.1113281,11.9146875 12.0846094,11.9519531 C11.46,12.7699219 10.9785938,13.6878125 10.6609375,14.6667188 L10.2498438,14.6667188 C10.2329688,14.6605469 10.2132813,14.6540625 10.1963281,14.6478906 C10.1088281,14.6161719 10.0172656,14.5846875 9.92765625,14.5533594 C9.80773438,14.5113281 9.69367188,14.4705469 9.56695313,14.4264844 C9.2996875,14.3342969 9.016875,14.2365625 8.7228125,14.12875 L8.70859375,14.1235156 L8.70859375,13.3932031 L8.7084375,13.3932031 Z M2.193125,1.33335938 L4.8109375,1.33335938 C5.45117188,1.33648438 6.04164063,1.67929688 6.36171875,2.23375 C7.024375,3.37835938 7.37390625,4.67742188 7.37507812,6 L7.37507812,12.8997656 C7.03742187,13.0092188 6.73609375,13.1214062 6.455625,13.2421875 C5.60234375,13.1757813 4.75171875,13.3997656 4.04179688,13.8777344 L4.04179688,6 C4.04179687,4.22914063 3.02875,2.5071875 2.193125,1.33335938 Z M2.83640625,28.7267187 L2.83234375,28.7366406 C2.68109375,29.0982813 2.51242187,29.2724219 2.2246875,29.3157813 C2.22007812,29.3164063 2.2165625,29.32 2.21203125,29.3207813 C2.155625,29.3289063 2.09875,29.333125 2.04179687,29.3334375 C2.01195312,29.3334375 1.9821875,29.3353906 1.95257812,29.3392969 C1.76539062,28.9492969 1.37507812,27.621875 1.37507812,23.3334375 C1.37507812,19.0458594 2.72804687,16.8357031 3.818125,15.7489844 C3.82570312,15.7421875 3.83585937,15.7397656 3.843125,15.7325 C4.90953125,14.6803906 5.94304687,14.4701563 6.343125,14.5821094 C6.35257812,14.5848438 6.3625,14.5828125 6.37203125,14.585 C6.38359375,14.5891406 6.40101562,14.5917969 6.41015625,14.5964063 C7.2884375,15.0213281 8.195,15.385 9.12335937,15.6849219 C9.23710937,15.7240625 9.33273437,15.7584375 9.43640625,15.7948438 C9.53679687,15.8299219 9.63820312,15.8654688 9.73359375,15.9 C10.1244531,16.0278906 10.5003125,16.1978125 10.8546094,16.4067969 C10.8725781,16.4274219 10.8841406,16.4517969 10.90375,16.4714063 C10.9863281,16.5479688 11.0736719,16.6192188 11.1652344,16.6846875 C11.1980469,16.7225781 11.2277344,16.7630469 11.2539844,16.8057031 C11.2594531,16.8153906 11.264375,16.8266406 11.2696094,16.8370313 C11.2986719,16.89625 11.3210937,16.9584375 11.3364844,17.0225 C11.340625,17.0390625 11.3460937,17.0528125 11.3496094,17.070625 C11.3667969,17.1571094 11.3753125,17.2451563 11.3750781,17.3333594 C11.3750781,19.640625 7.66414062,22.6725781 5.6703125,24.3014844 C5.04140625,24.8151563 4.5446875,25.2207813 4.23703125,25.5286719 C4.15453125,25.61125 4.07679687,25.6985156 4.00429687,25.7900781 C3.99765625,25.7985156 3.99242187,25.8075781 3.98585937,25.8160156 C3.56101562,26.4325781 3.26335937,27.1277344 3.11039062,27.8607031 C3.03601562,28.1544531 2.94453125,28.4435938 2.83640625,28.7267187 Z M7.37507813,37 C7.37414063,37.9200781 6.62851562,38.6657031 5.7084375,38.6666406 C4.78835938,38.6657031 4.04273438,37.9200781 4.04179688,37 L4.04179688,33.9585938 C5.00554688,35.0178125 6.13054688,35.9182813 7.37515625,36.6266406 L7.37515625,37 L7.37507813,37 Z M10.3750781,38.6666478 C9.57726562,38.6654688 8.89195312,38.0996094 8.73992187,37.3164062 C9.6159375,37.7105469 10.5242187,38.0285937 11.4548437,38.266875 C11.1548437,38.5258594 10.7714062,38.6678125 10.3750781,38.6666478 Z M18.0594531,37.6907813 C16.7341406,37.4478906 15.3891406,37.3282813 14.0417187,37.3333594 C13.5878906,37.3203906 13.1360156,37.2682813 12.6911719,37.1777344 C12.6851562,37.1764062 12.680625,37.1717187 12.6745312,37.170625 C11.1666406,36.8750781 9.7115625,36.3552344 8.3578125,35.6282813 C8.17671875,35.5308594 8.00242187,35.4275781 7.82859375,35.3239062 C7.75390625,35.2792187 7.67929687,35.2361719 7.60476562,35.1896094 C7.46085937,35.1 7.32117187,35.0067188 7.18242187,34.9127344 C7.0690625,34.8358594 6.95632812,34.7564844 6.84421875,34.6746875 C6.7215625,34.5855469 6.5990625,34.4964062 6.48085937,34.4036719 C6.34101562,34.2942187 6.20421875,34.1772656 6.06734375,34.0600781 C5.89523437,33.9121875 5.7284375,33.7602344 5.566875,33.6042188 C5.45703125,33.4985937 5.34757812,33.3924219 5.240625,33.2811719 C5.1221875,33.1573437 5.00703125,33.0310156 4.89523437,32.9021875 C4.81679687,32.8127344 4.7409375,32.7192188 4.6646875,32.6263281 C4.450625,32.364375 4.2490625,32.0934375 4.06015625,31.8134375 C3.73929687,31.3478906 3.45554687,30.8578125 3.21171875,30.3477344 C3.22492187,30.3391406 3.23507813,30.3276563 3.24804688,30.31875 C3.33054687,30.263125 3.40835938,30.2009375 3.48078125,30.1327344 C3.52007812,30.0950781 3.55492187,30.0541406 3.59078125,30.0136719 C3.64179688,29.9570313 3.68976562,29.8977344 3.73460937,29.8360156 C3.76453125,29.7942969 3.79445312,29.753125 3.82179687,29.7096094 C3.86851562,29.6353125 3.91101562,29.5582813 3.95101562,29.4795313 C3.98898437,29.405 4.02390625,29.3298438 4.05679687,29.2528906 C4.08226562,29.1930469 4.10820312,29.1335156 4.13109375,29.0726563 C4.16242187,28.9895313 4.19078125,28.9073438 4.2178125,28.8239844 L4.2334375,28.7757031 C4.29429687,28.5838281 4.349375,28.3935156 4.39789062,28.2151563 C4.505,27.7333594 4.6753125,27.2678906 4.904375,26.8307031 C4.98117187,26.7001563 5.07367187,26.5796094 5.17984375,26.4716406 C5.44023437,26.21125 5.93765625,25.805 6.51382812,25.3342969 C6.65726562,25.2171094 6.80554687,25.0958594 6.9565625,24.971875 C7.21460937,25.9614063 7.35515625,26.9778906 7.37515625,28.0003125 C7.28898437,29.3203906 7.94515625,30.5785156 9.07695312,31.2633594 C9.16835937,31.3092188 9.26929687,31.3330469 9.3715625,31.3330469 C9.67765625,31.3316406 9.94367187,31.1223438 10.0170312,30.8251563 C10.0903906,30.5279688 9.95234375,30.2189063 9.68210937,30.0752344 C9.16171875,29.7294531 8.82164062,29.1705469 8.75375,28.5494531 C9.178125,28.6316406 9.60960937,28.6710938 10.0417969,28.6670313 C10.41,28.6671875 10.7085937,28.3689063 10.7088281,28.0007031 C10.7090625,27.6325 10.4107031,27.3339063 10.0425,27.3336719 C9.58054687,27.3414844 9.12023437,27.2753125 8.67921875,27.1376563 C8.6771875,27.1311719 8.67257812,27.1260937 8.67039062,27.1196875 C8.57695312,26.0725781 8.38,25.0374219 8.08234375,24.0292187 L8.13226562,23.9858594 C8.256875,23.8785938 8.38148437,23.7713281 8.50664062,23.6609375 C8.56960937,23.6053906 8.6321875,23.5478906 8.69515625,23.4916406 C8.80492187,23.3935156 8.91460937,23.2958594 9.02375,23.1955469 C9.09117187,23.1335156 9.15726562,23.0698438 9.22429687,23.0070313 C9.32773437,22.9101563 9.43148437,22.8139063 9.53351562,22.7152344 C9.60367187,22.6474219 9.67164062,22.5778906 9.7409375,22.5092969 C9.83789062,22.4132813 9.9353125,22.3177344 10.0300781,22.2203125 C10.0996875,22.14875 10.16625,22.0757812 10.2344531,22.0035156 L10.2505469,21.9864844 C10.3727344,22.4173437 10.5967969,22.8124219 10.9039062,23.1383594 C11.2165625,23.5863281 11.3814062,24.1207813 11.3752344,24.6670312 C11.3752344,25.0352344 11.67375,25.3336719 12.041875,25.3336719 C12.4100781,25.3336719 12.7085156,25.0352344 12.7085156,24.6670312 C12.7085156,24.6414844 12.7065625,24.5765625 12.7024219,24.495625 C12.9122656,24.5989844 13.1414062,24.6573437 13.3751562,24.6670312 C13.7445312,24.6675781 14.045,24.3697656 14.0476562,24.0003906 C14.0488281,23.8242187 13.9796875,23.6549219 13.855625,23.5299219 C13.7315625,23.4049219 13.5627344,23.3345313 13.3865625,23.334375 C12.8049219,23.0582813 12.2823437,22.6721094 11.8477344,22.1971094 L11.8465625,22.1957031 C11.5335937,21.7471875 11.3688281,21.2119531 11.3752344,20.6650781 L11.37375,20.6578906 C11.4308594,20.5804688 11.4824219,20.5021875 11.5367187,20.4242969 C11.6040625,20.3277344 11.6727344,20.2314063 11.7354687,20.1342188 C11.7891406,20.0510156 11.8367187,19.9673438 11.8867187,19.88375 C11.9445312,19.7872656 12.0035937,19.6909375 12.0561719,19.5939844 C12.1023437,19.50875 12.1417969,19.4232031 12.1836719,19.3377344 C12.2307031,19.2417188 12.2790625,19.1460156 12.3203125,19.0497656 C12.3575,18.963125 12.3872656,18.8763281 12.4194531,18.7895313 C12.455,18.6939063 12.4917969,18.5982813 12.5209375,18.5024219 C12.5475781,18.4151563 12.56625,18.3278906 12.5874219,18.2405469 C12.6104687,18.145 12.6347656,18.0494531 12.6509375,17.9539063 C12.6657812,17.8661719 12.6722656,17.7786719 12.6809375,17.6910938 C12.6880469,17.6195313 12.7026562,17.5478125 12.7055469,17.4763281 C12.7576562,17.4950781 12.8132031,17.509375 12.8660937,17.5274219 C12.9439062,17.5536719 13.0214062,17.5775 13.1002344,17.6019531 C13.2460937,17.6473438 13.3903906,17.6903906 13.5385937,17.7290625 C13.5988281,17.7446875 13.6576562,17.7574219 13.7177344,17.771875 C13.8761719,17.81 14.0325781,17.8461719 14.1892187,17.8752344 C14.2590625,17.8882813 14.3246875,17.8961719 14.3932812,17.9072656 C14.5307812,17.9292969 14.668125,17.9524219 14.8004687,17.9661719 C14.99125,17.9876563 15.1830469,17.9991406 15.375,18.0004688 C15.7165625,18.0004688 16.0457812,17.9913281 16.3686719,17.9776563 C16.4655469,17.9735156 16.5595312,17.9675781 16.6546875,17.9622656 C16.8910156,17.9490625 17.1215625,17.9320313 17.3464062,17.91125 C17.4007031,17.9061719 17.4598437,17.9044531 17.5134375,17.8989063 L17.5141406,17.9025781 C17.5252344,18.0214063 17.5485937,18.13875 17.5839062,18.2527344 C17.5892187,18.2701563 17.5948437,18.2875 17.6007031,18.3048438 C17.6140625,18.3446094 17.6228125,18.385 17.6391406,18.4242969 C17.6609375,18.4767969 17.6940625,18.5242188 17.7205469,18.5746875 C17.7326562,18.5978125 17.7385156,18.6221094 17.7517187,18.645 C17.7600781,18.6594531 17.7721875,18.6721094 17.7809375,18.6864063 C17.8219531,18.7521875 17.8667969,18.815625 17.9151562,18.87625 C17.945625,18.9151563 17.9764844,18.9535156 18.01,18.9907031 C18.0621094,19.0482813 18.1171094,19.1032031 18.1747656,19.1552344 C18.2150781,19.191875 18.2569531,19.2270313 18.3003125,19.2615625 C18.3607031,19.3095313 18.4227344,19.3557031 18.4889062,19.3994531 C18.5397656,19.4332031 18.5929687,19.4644531 18.6470312,19.4955469 C18.7141406,19.5341406 18.7814844,19.5720313 18.8532812,19.6064844 C18.9155469,19.6364844 18.9809375,19.6628125 19.0464844,19.6896094 C19.1175,19.7185938 19.1875781,19.7479688 19.2622656,19.7730469 C19.3382812,19.7986719 19.4180469,19.8192188 19.4975,19.840625 C19.5684375,19.8596875 19.6376562,19.8807813 19.7111719,19.8964063 C19.7485156,19.904375 19.7867969,19.9105469 19.8247656,19.9176563 C19.2396094,21.6725 18.8648437,23.490625 18.7085156,25.3338281 C18.7090625,25.4889062 18.7194531,25.64375 18.7396094,25.7975 C18.6260937,26.1325781 18.07875,27.3338281 17.3751562,27.3338281 C17.0069531,27.3338281 16.7085156,27.6322656 16.7085156,28.0004687 C16.7085156,28.3686719 17.0069531,28.6671094 17.3751562,28.6671094 C18.1758594,28.6270313 18.9064062,28.1980469 19.3315625,27.5183594 C19.4832812,27.8055469 19.6458594,28.0807813 19.8035937,28.3435156 C20.3088281,29.0225 20.6214844,29.8252344 20.7085156,30.6671094 C20.6490625,32.0232812 20.1800781,33.3295313 19.3634375,34.4138281 C18.6586719,35.3780469 18.21,36.505625 18.0594531,37.6907813 Z M23.3750781,38.6666406 C22.2974219,38.625625 21.2286719,38.4544531 20.1921094,38.156875 C19.9284375,38.0932813 19.655625,38.0285937 19.3771875,37.964375 C19.4749219,36.9277344 19.8632031,35.9396875 20.4974219,35.1139062 C21.1680469,34.1471875 21.6501562,33.0625 21.9184375,31.916875 C22.4826562,32.3641406 22.9714844,32.8989063 23.36625,33.5010156 C23.3541406,33.9911719 23.1927344,34.4659375 22.9036719,34.8620313 C22.7327344,35.0299219 22.665,35.2766406 22.7263281,35.5082031 C22.7876562,35.7398438 22.9685156,35.9207031 23.2001562,35.9820313 C23.4317969,36.0433594 23.6784375,35.975625 23.8463281,35.8046875 C24.09125,35.5479688 24.2810156,35.2438281 24.4038281,34.9109375 C24.6708594,35.156875 25.0129688,35.3057031 25.3749219,35.3332812 C25.7309375,35.3332031 26.0240625,35.0535156 26.0408594,34.6978906 C26.0576562,34.3422656 25.7921094,34.0361719 25.4377344,34.0025781 C25.3827344,33.9836719 25.0389844,33.8372656 24.6379687,33.0351563 C23.965,31.9528906 23.0732812,31.023125 22.02,30.305625 C21.8651562,29.3534375 21.4982812,28.4482031 20.9465625,27.656875 C20.44125,26.9778906 20.1286719,26.1751563 20.0416406,25.3332813 C20.049375,24.9308594 20.0878906,24.5295313 20.1569531,24.1329688 C20.7778125,25.3625781 21.886875,26.2746875 23.2132031,26.6464063 C24.0009375,26.8436719 24.5979687,27.8782031 24.7607031,28.2590625 C24.9038281,28.5982813 25.2948437,28.7573438 25.6340625,28.6142188 C25.9732812,28.4710938 26.1323437,28.0800781 25.9892187,27.7408594 C25.9039062,27.5383594 25.1080469,25.7460938 23.5367187,25.3535156 C21.3196094,24.7988281 20.7010937,21.8971094 20.6949219,21.8678125 C20.6907031,21.846875 20.6771875,21.8310938 20.6710937,21.8110156 C20.8696875,21.0635938 21.0692969,20.4021875 21.1985937,19.9889063 C21.5683594,19.9732813 21.935,19.9135156 22.2905469,19.8107813 C22.316875,19.8030469 22.3432031,19.7959375 22.369375,19.7875781 C22.423125,19.7699219 22.4760156,19.74875 22.5292187,19.7279688 C22.7878125,19.6342188 23.0286719,19.4975 23.2417187,19.3235156 C25.9305469,23.6757031 27.3748437,28.9953906 27.3748437,31.9999219 C27.3750781,37.8007812 24.8689062,38.6666406 23.3750781,38.6666406 Z" id="Shape"></path>
                            </g>
                        </g>
                    </g>
                </g>
            </g>
        </g>
    </g>
</svg>