<?xml version="1.0" encoding="UTF-8"?>
<svg width="41px" height="46px" viewBox="0 0 41 46" version="1.1" xmlns="http://www.w3.org/2000/svg" xmlns:xlink="http://www.w3.org/1999/xlink">
    <title>4FB604BD-CCFA-41E6-B4C2-8D769ECA99F3</title>
    <g id="Početna-&amp;-Dropdowns" stroke="none" stroke-width="1" fill="none" fill-rule="evenodd">
        <g id="Početna" transform="translate(-747.000000, -2752.000000)" fill="#497A59" fill-rule="nonzero">
            <g id="Pretrazi-prema-namjeni" transform="translate(285.000000, 2731.000000)">
                <g id="namjene" transform="translate(270.000000, 0.000000)">
                    <g id="za-imunitet" transform="translate(165.000000, 0.000000)">
                        <g id="immunity" transform="translate(27.000000, 21.000000)">
                            <path d="M0.749296875,44.1132812 C1.12151953,44.1132812 1.423125,44.4148867 1.423125,44.7871094 L1.423125,44.7871094 L1.423125,45.3261719 C1.423125,45.6983945 1.12151953,46 0.749296875,46 C0.377074219,46 0.07546875,45.6983945 0.07546875,45.3261719 L0.07546875,45.3261719 L0.07546875,44.7871094 C0.07546875,44.4148867 0.377074219,44.1132812 0.749296875,44.1132812 Z M18.1746719,2.90464844 C21.0701563,2.90464844 23.7919727,4.03182812 25.8387031,6.07846875 C26.9464766,7.18633203 27.815625,8.54485937 28.3523516,10.0073359 C28.4805586,10.3567383 28.3013203,10.743875 27.951918,10.872082 C27.6021563,11.0001094 27.2153789,10.8209609 27.0871719,10.4716484 C26.6173789,9.19146484 25.8561328,8.00193359 24.8857305,7.03153125 C23.0936172,5.23923828 20.710332,4.25230469 18.1747617,4.25230469 C12.9413633,4.25230469 8.68366797,8.50964062 8.68366797,13.7425 L8.68366797,13.7425 L8.68366797,15.3954453 C8.92498828,15.3001211 9.18742188,15.2471133 9.46225391,15.2471133 L9.46225391,15.2471133 L10.9143086,15.2471133 C11.2865313,15.2471133 11.5881367,15.5487187 11.5881367,15.9209414 L11.5881367,15.9209414 L11.5881367,18.3290234 L13.3794414,16.0491484 C13.5071094,15.8866211 13.7024297,15.7916562 13.90925,15.7916562 L13.90925,15.7916562 L16.8739141,15.7916562 C17.5569961,15.7916562 18.2239063,15.5526719 18.7515586,15.1188164 L18.7515586,15.1188164 L20.9232617,13.333082 C21.0723125,13.2105352 21.2664648,13.1578867 21.4573828,13.1881641 C21.6479414,13.2185312 21.8163086,13.3292187 21.9198086,13.4921055 L21.9198086,13.4921055 L24.7613867,17.9615625 L24.7613867,15.9209414 C24.7613867,15.5487187 25.0629922,15.2471133 25.4352148,15.2471133 L25.4352148,15.2471133 L26.8873594,15.2471133 C27.1620117,15.2471133 27.4243555,15.3000312 27.6655859,15.3952656 L27.6655859,15.3952656 L27.6655859,13.7425 C27.6655859,13.5966836 27.6626211,13.4679375 27.6566016,13.3489844 C27.6377344,12.9773008 27.923707,12.6607812 28.2953906,12.6419141 C28.6689609,12.622957 28.9835938,12.9091094 29.0024609,13.2807031 C29.0096484,13.4226562 29.0131523,13.5736836 29.0131523,13.7425 L29.0131523,13.7425 L29.0131523,18.8250508 C29.0131523,19.997332 28.0594609,20.9510234 26.8872695,20.9510234 L26.8872695,20.9510234 L26.1089531,20.9510234 L26.1089531,21.4570234 C26.1089531,24.3609531 24.5404609,26.9050586 22.2065898,28.2879336 L22.2065898,28.2879336 L22.2065898,31.6743242 L24.5272539,31.6743242 C24.8458398,31.6743242 25.1642461,31.6934609 25.4803164,31.7275117 C25.7228945,30.7601641 26.4783906,29.9801406 27.4820352,29.7287578 L27.4820352,29.7287578 L32.5326914,28.4681602 C32.6399648,28.4412969 32.7520898,28.4412969 32.8590938,28.4681602 L32.8590938,28.4681602 L37.9083125,29.728668 C39.1370156,30.0361133 39.9948438,31.1343633 39.9948438,32.3994531 L39.9948438,32.3994531 L39.9948438,33.9115234 C39.9948438,34.2837461 39.6932383,34.5853516 39.3210156,34.5853516 C38.948793,34.5853516 38.6471875,34.2837461 38.6471875,33.9114336 L38.6471875,33.9114336 L38.6471875,32.3993633 C38.6471875,31.7536562 38.2090195,31.1930312 37.5815508,31.0359844 L37.5815508,31.0359844 L32.6959375,29.8163555 L27.8089766,31.0360742 C27.1824961,31.1930312 26.7445977,31.7536562 26.7445977,32.3993633 L26.7445977,32.3993633 L26.7445977,37.9436211 C26.7445977,39.9459687 27.8277539,41.8023203 29.5712617,42.7881758 L29.5712617,42.7881758 L32.6958477,44.5522578 L35.8198047,42.7879961 C37.5636719,41.8024102 38.6470977,39.9461484 38.6470977,37.9436211 L38.6470977,37.9436211 L38.6470977,37.0559648 C38.6470977,36.6837422 38.9487031,36.3821367 39.3209258,36.3821367 C39.6931484,36.3821367 39.9948438,36.6837422 39.9948438,37.0559648 L39.9948438,37.0559648 L39.9948438,37.9436211 C39.9948438,40.4312148 38.6489844,42.7370547 36.4827617,43.9613555 L36.4827617,43.9613555 L33.0271914,45.9128516 C32.9244102,45.9709805 32.8100391,46 32.6958477,46 L32.6958477,46 L3.65385547,46 C3.28163281,46 2.98002734,45.6983945 2.98002734,45.3261719 L2.98002734,45.3261719 L2.98002734,42.6757812 C2.98002734,42.3035586 3.28163281,42.0019531 3.65385547,42.0019531 C4.02607813,42.0019531 4.32768359,42.3035586 4.32768359,42.6757812 L4.32768359,42.6757812 L4.32768359,44.6523437 L8.87889844,44.6523437 L8.87889844,43.5110586 C8.87889844,43.1388359 9.18050391,42.8372305 9.55272656,42.8372305 C9.92494922,42.8372305 10.2265547,43.1388359 10.2265547,43.5110586 L10.2265547,43.5110586 L10.2265547,44.6523437 L30.1317969,44.6523437 L28.9083945,43.961625 C26.7424414,42.7369648 25.3970313,40.431125 25.3970313,37.9438008 L25.3970313,37.9438008 L25.3970313,33.0744492 C25.1089922,33.0409375 24.8183477,33.0220703 24.5273438,33.0220703 L24.5273438,33.0220703 L21.5330313,33.0220703 C21.1608086,33.0220703 20.8592031,32.7204648 20.8592031,32.3482422 L20.8592031,32.3482422 L20.8592031,28.9237578 C20.0204219,29.2262617 19.1165938,29.3915742 18.1748516,29.3915742 C17.2332891,29.3915742 16.3297305,29.2263516 15.4910391,28.9239375 L15.4910391,28.9239375 L15.4910391,32.3482422 C15.4910391,32.7204648 15.1894336,33.0220703 14.8172109,33.0220703 L14.8172109,33.0220703 L11.8218203,33.0220703 C8.03104297,33.0220703 4.832875,35.8553828 4.38239844,39.6123789 C4.34133984,39.9545937 4.05051563,40.2060664 3.71423047,40.2060664 C3.68745703,40.2060664 3.66041406,40.2044492 3.63319141,40.201125 C3.26366406,40.1569219 3.0000625,39.8213555 3.04435547,39.451918 C3.57587109,35.0180391 7.34930859,31.6744141 11.8217305,31.6744141 L11.8217305,31.6744141 L14.143293,31.6744141 L14.143293,28.2883828 C11.8090625,26.9055977 10.2403906,24.3613125 10.2403906,21.4571133 L10.2403906,21.4571133 L10.2403906,20.9511133 L9.46216406,20.9511133 C8.28988281,20.9511133 7.33619141,19.9974219 7.33619141,18.8251406 L7.33619141,18.8251406 L7.33592188,13.7425 C7.33592188,7.76645312 12.1981758,2.90464844 18.1746719,2.90464844 Z M0.760257813,39.6793125 C1.13239063,39.684793 1.42968359,39.9908008 1.42420313,40.3629336 C1.42348438,40.413875 1.423125,40.4649063 1.423125,40.5160273 L1.423125,41.3383672 C1.423125,41.7105898 1.12151953,42.0121953 0.749296875,42.0121953 C0.377074219,42.0121953 0.07546875,41.7105898 0.07546875,41.3383672 L0.07546875,41.3383672 L0.0757607422,40.4295752 L0.0757607422,40.4295752 L0.0767265625,40.3432578 C0.0820273438,39.9744492 0.382734375,39.6792227 0.750285156,39.6792227 L0.750285156,39.6792227 Z M34.1478125,32.5571289 C34.5200352,32.5571289 34.8216406,32.8587344 34.8216406,33.230957 L34.8216406,33.230957 L34.8216406,34.7353008 L36.3258945,34.7353008 C36.6981172,34.7353008 36.9997227,35.0369063 36.9997227,35.4091289 L36.9997227,35.4091289 L36.9997227,38.3133281 C36.9997227,38.6855508 36.6981172,38.9871562 36.3258945,38.9871562 L36.3258945,38.9871562 L34.8215508,38.9871562 L34.8215508,40.4915 C34.8215508,40.8637227 34.5199453,41.1653281 34.1477227,41.1653281 L34.1477227,41.1653281 L31.2435234,41.1653281 C30.8713906,41.1653281 30.5696953,40.8637227 30.5696953,40.4915 L30.5696953,40.4915 L30.5696953,38.9871563 L29.0653516,38.9871563 C28.6931289,38.9871563 28.3915234,38.6855508 28.3915234,38.3133281 L28.3915234,38.3133281 L28.3915234,35.4091289 C28.3915234,35.0369063 28.6931289,34.7353008 29.0653516,34.7353008 L29.0653516,34.7353008 L30.5697852,34.7353008 L30.5697852,33.230957 C30.5697852,32.8587344 30.8713906,32.5571289 31.2436133,32.5571289 L31.2436133,32.5571289 Z M33.4738945,33.9047852 L31.9173516,33.9047852 L31.9173516,35.4091289 C31.9173516,35.7813516 31.6157461,36.082957 31.2435234,36.082957 L31.2435234,36.082957 L29.7391797,36.082957 L29.7391797,37.6395 L31.2436133,37.6395 C31.6158359,37.6395 31.9174414,37.9411055 31.9174414,38.3133281 L31.9174414,38.3133281 L31.9174414,39.8176719 L33.4739844,39.8176719 L33.4739844,38.3133281 C33.4739844,37.9411055 33.7755898,37.6395 34.1478125,37.6395 L34.1478125,37.6395 L35.6520664,37.6395 L35.6520664,36.082957 L34.1477227,36.082957 C33.7755,36.082957 33.4738945,35.7813516 33.4738945,35.4091289 L33.4738945,35.4091289 L33.4738945,33.9047852 Z M16.539875,36.7328867 C17.0067031,36.7328867 17.4559219,36.9037695 17.8047852,37.2138203 C18.0154687,37.4011445 18.3334258,37.4013242 18.5441094,37.2138203 C18.8932422,36.9035898 19.3423711,36.7328867 19.8091094,36.7328867 L19.8091094,36.7328867 L22.7123203,36.7328867 C23.084543,36.7328867 23.3861484,37.0344922 23.3861484,37.4067148 C23.3861484,37.7789375 23.084543,38.080543 22.7123203,38.080543 L22.7123203,38.080543 L19.8091094,38.080543 C19.6727266,38.080543 19.5414648,38.1304062 19.4394023,38.2210586 C19.0789492,38.5415312 18.6266758,38.7018125 18.174582,38.7018125 C17.7223086,38.7019023 17.2702148,38.5415312 16.9094922,38.2209687 C16.8076094,38.1304961 16.6764375,38.080543 16.5399648,38.080543 L16.5399648,38.080543 L13.6366641,38.080543 C13.2644414,38.080543 12.9628359,37.7789375 12.9628359,37.4067148 C12.9628359,37.0344922 13.2644414,36.7328867 13.6366641,36.7328867 L13.6366641,36.7328867 Z M1.0738125,35.7774883 C1.22448047,35.4371602 1.62248828,35.2836172 1.96272656,35.4340156 C2.30305469,35.5845937 2.45677734,35.9826016 2.30610938,36.3228398 C2.18176563,36.6037812 2.06883203,36.8936172 1.97027344,37.1841719 C1.87512891,37.4649336 1.61296484,37.6418359 1.33220313,37.6418359 C1.26041797,37.6418359 1.18746484,37.6303359 1.11576953,37.6059883 C0.7633125,37.4864961 0.574550781,37.1039414 0.694042969,36.7514844 C0.805539063,36.4228359 0.933296875,36.0950859 1.0738125,35.7774883 Z M3.77469531,31.9661367 C4.04566406,31.7111602 4.47215234,31.723918 4.72721875,31.9948867 C4.98228516,32.2659453 4.9694375,32.6923437 4.69846875,32.9474102 C4.4749375,33.1578242 4.257875,33.3809961 4.05330078,33.6109062 C3.92024219,33.7604961 3.73534375,33.8368633 3.54972656,33.8368633 C3.39043359,33.8368633 3.23051172,33.7807109 3.102125,33.6664297 C2.82405859,33.4190898 2.79926172,32.9930508 3.04660156,32.7149844 C3.27741016,32.4555156 3.52241406,32.2035937 3.77469531,31.9661367 Z M7.74147656,29.5004648 C8.09007031,29.3706406 8.47828516,29.5485312 8.60792969,29.8972148 C8.73757422,30.2459883 8.55995313,30.6340234 8.21108984,30.763668 C7.92305078,30.8707617 7.63662891,30.9919609 7.35964063,31.1241211 C7.26602344,31.1688633 7.16719531,31.1899766 7.06989453,31.1899766 C6.81833203,31.1899766 6.57692188,31.0483828 6.46138281,30.8061641 C6.30110156,30.4703281 6.44350391,30.0680977 6.77933984,29.9079062 C7.09226563,29.7585859 7.41597266,29.6214844 7.74147656,29.5004648 Z M10.9636328,28.6560234 C11.2085469,28.3758008 11.6342266,28.3473203 11.9144492,28.5924141 C12.0400508,28.702293 12.1705039,28.8105547 12.3022148,28.9140547 C12.5279922,29.0915859 12.6163984,29.3927422 12.5225117,29.6641602 C12.4285352,29.9355781 12.1729297,30.1176016 11.8856992,30.1176016 L11.8856992,30.1176016 L11.8216406,30.1176016 C11.6722305,30.1176016 11.5221016,30.1207461 11.3754766,30.1270352 L11.3754766,30.1270352 L11.3460977,30.1276641 C10.9872617,30.1276641 10.6889805,29.8446562 10.6734375,29.4826758 C10.6667891,29.3266172 10.7136875,29.1805312 10.7979609,29.0626562 C10.8058672,28.9175586 10.860582,28.7738984 10.9636328,28.6560234 Z M25.6229883,27.3447539 C25.8538867,27.0531211 26.2777695,27.0038867 26.569582,27.2351445 C26.8612148,27.4662227 26.9103594,27.8900156 26.6791914,28.1818281 C26.560418,28.3316875 26.4363438,28.4799297 26.3105625,28.6226016 C26.1774141,28.7735391 25.9916172,28.850625 25.8050117,28.850625 C25.6466172,28.850625 25.4875938,28.7951016 25.3594766,28.6820781 C25.0804219,28.4359063 25.0538281,28.0100469 25.3,27.7309922 C25.4102383,27.6060195 25.5188594,27.4761055 25.6229883,27.3447539 Z M21.1909961,14.8576406 L19.6074102,16.1597461 C18.8391563,16.7914375 17.8683047,17.1393125 16.8737344,17.1393125 L16.8737344,17.1393125 L14.2365508,17.1393125 L11.5878672,20.5103398 L11.5878672,21.4571133 C11.5878672,25.0890469 14.5426484,28.0438281 18.174582,28.0438281 C21.8065156,28.0438281 24.7612969,25.0890469 24.7612969,21.4571133 L24.7612969,21.4571133 L24.7612969,20.4733242 L21.1909961,14.8576406 Z M8.67495312,25.1462773 C9.01213672,24.9891406 9.41319922,25.1350469 9.57042578,25.4723203 C9.69288281,25.7347539 9.82908594,25.9950312 9.97553125,26.2456953 C10.1632148,26.5669766 10.0548633,26.9796289 9.73349219,27.1674023 C9.62675781,27.2297539 9.50969141,27.2594023 9.39433203,27.2594023 C9.162625,27.2594023 8.93711719,27.1398203 8.81169531,26.9253633 C8.64449609,26.6390312 8.48879687,26.3417383 8.34891016,26.04175 C8.19168359,25.7044766 8.33767969,25.3035039 8.67495312,25.1462773 Z M27.069832,24.7769297 C27.1997461,24.4282461 27.5876914,24.2509844 27.9365547,24.3808086 C28.2852383,24.5107227 28.4625898,24.8987578 28.3326758,25.2475313 C28.2456172,25.4810352 28.1492148,25.7147188 28.0461641,25.9419336 C27.9333203,26.1904414 27.6884063,26.3374258 27.432082,26.3374258 C27.3390039,26.3374258 27.2443984,26.3180195 27.1540156,26.2770508 C26.815125,26.1232383 26.6650859,25.723793 26.8188984,25.385082 C26.9091914,25.186168 26.9936445,24.9815039 27.069832,24.7769297 Z M7.49440625,21.4041953 L8.03337891,21.4078789 C8.3878125,21.4103047 8.67980469,21.6869336 8.70136719,22.0407383 C8.71151953,22.2082969 8.72625391,22.3771133 8.74512109,22.5424258 C8.78716797,22.9121328 8.5215,23.246082 8.15179297,23.2882188 C8.12591797,23.2910938 8.10013281,23.2926211 8.07470703,23.2926211 C7.75414453,23.2926211 7.47553906,23.064418 7.41408594,22.7476289 C7.07564453,22.7098047 6.81357031,22.4215859 6.81589076,22.0733516 C6.81842188,21.7028359 7.11966797,21.4041953 7.48964453,21.4041953 L7.48964453,21.4041953 L7.49440625,21.4041953 Z M28.8595195,21.4041953 C29.2294961,21.4041953 29.5307422,21.7028359 29.5332745,22.0734414 C29.5356836,22.4215859 29.2735195,22.7098945 28.9349883,22.7476289 C28.873625,23.0645078 28.5948398,23.2927109 28.2743672,23.2927109 C28.2488516,23.2927109 28.2231562,23.2911836 28.1972812,23.2883086 C27.8274844,23.2461719 27.5618164,22.9122227 27.6039531,22.5425156 C27.6228203,22.3771133 27.6375547,22.2082969 27.647707,22.0407383 C27.6693594,21.6869336 27.9613516,21.4103047 28.3156953,21.4078789 L28.3156953,21.4078789 L28.8547578,21.4041953 L28.8547578,21.4041953 Z M31.2435234,20.8487812 C31.6157461,20.8487812 31.9173516,21.1503867 31.9173516,21.5226094 L31.9173516,21.5226094 L31.9173516,22.0616719 C31.9173516,22.4320078 31.6184414,22.7329844 31.2481953,22.7355 L31.2481953,22.7355 L30.7091328,22.7391836 C30.3343945,22.7391836 30.0331484,22.440543 30.0306157,22.0700273 C30.0282969,21.7386836 30.2655742,21.4615156 30.5802969,21.4029375 C30.6367187,21.0878555 30.9121797,20.8487812 31.2435234,20.8487812 Z M5.10564062,20.8487812 C5.43698437,20.8487812 5.71244531,21.0878555 5.76886719,21.4029375 C6.08358984,21.4616055 6.32077734,21.7386836 6.31854707,22.0700273 C6.31601562,22.440543 6.01476953,22.7391836 5.64479297,22.7391836 L5.64479297,22.7391836 L5.64003125,22.7391836 L5.10096875,22.7355 C4.73072266,22.7328945 4.4318125,22.4320078 4.4318125,22.0616719 L4.4318125,22.0616719 L4.4318125,21.5226094 C4.4318125,21.1503867 4.73341797,20.8487812 5.10564062,20.8487812 Z M10.2402109,16.5947695 L9.46198438,16.5947695 C9.03289063,16.5947695 8.68366797,16.9439922 8.68366797,17.3730859 L8.68366797,17.3730859 L8.68366797,18.8251406 C8.68366797,19.2542344 9.03289063,19.603457 9.46198438,19.603457 L9.46198438,19.603457 L10.2402109,19.603457 L10.2402109,16.5947695 Z M26.8872695,16.5947695 L26.1089531,16.5947695 L26.1089531,19.603457 L26.8872695,19.603457 C27.3163633,19.603457 27.6654961,19.2542344 27.6654961,18.8251406 L27.6654961,18.8251406 L27.6654961,17.3730859 C27.6654961,16.9439922 27.3163633,16.5947695 26.8872695,16.5947695 L26.8872695,16.5947695 Z M5.10564062,16.0422305 C5.47786328,16.0422305 5.77946875,16.3438359 5.77946875,16.7160586 L5.77946875,16.7160586 L5.77946875,17.7842109 C5.77946875,18.1564336 5.47786328,18.4580391 5.10564062,18.4580391 C4.73341797,18.4580391 4.4318125,18.1564336 4.4318125,17.7842109 L4.4318125,17.7842109 L4.4318125,16.7160586 C4.4318125,16.3438359 4.73341797,16.0422305 5.10564062,16.0422305 Z M31.2435234,16.0279453 C31.6157461,16.0279453 31.9173516,16.3295508 31.9173516,16.7017734 L31.9173516,16.7017734 L31.9173516,17.7699258 C31.9173516,18.1421484 31.6157461,18.4437539 31.2435234,18.4437539 C30.8713008,18.4437539 30.5696953,18.1421484 30.5696953,17.7699258 L30.5696953,17.7699258 L30.5696953,16.7017734 C30.5696953,16.3295508 30.8713008,16.0279453 31.2435234,16.0279453 Z M5.22687542,11.2427129 L5.32629687,11.2492461 C5.69492578,11.3009961 5.95160937,11.6416836 5.89985937,12.0102227 C5.85332031,12.3422852 5.81980859,12.6811758 5.8003125,13.0174609 C5.77964844,13.3757578 5.48253516,13.6523867 5.12828125,13.6523867 C5.11516406,13.6523867 5.10204687,13.6520273 5.08883984,13.6512188 C4.71724609,13.6297461 4.43351953,13.3111602 4.45490234,12.9397461 C4.47646484,12.5668047 4.51357031,12.1910781 4.56532031,11.8228086 C4.61707031,11.4541797 4.95865625,11.1978555 5.32629687,11.2492461 Z M31.0198125,11.2348711 C31.3885313,11.1828516 31.7293086,11.4391758 31.781418,11.807625 C31.8336172,12.1762539 31.8711719,12.5518906 31.8931836,12.924293 C31.9151055,13.2957969 31.6317383,13.614832 31.2602344,13.6367539 C31.2467578,13.6375625 31.2331914,13.6379219 31.2198945,13.6379219 C30.8659102,13.6379219 30.5689766,13.3617422 30.5478633,13.0038047 C30.5280078,12.6678789 30.4941367,12.3288984 30.4471484,11.9964766 C30.3950391,11.6280273 30.651543,11.2870703 31.0198125,11.2348711 Z M6.16912109,7.05893359 C6.35051562,6.73405859 6.76101172,6.61771094 7.08606641,6.79946484 C7.41094141,6.98094922 7.52710937,7.39153516 7.34553516,7.71641016 C7.18157031,8.00983984 7.02766797,8.31387109 6.88805078,8.62005859 C6.77502734,8.86802734 6.53038281,9.0145625 6.27450781,9.0145625 C6.18107031,9.0145625 6.08610547,8.99497656 5.99545312,8.95364844 C5.65683203,8.79929687 5.50742187,8.39967187 5.66186328,8.06096094 C5.81657422,7.72153125 5.98727734,7.38434766 6.16912109,7.05893359 Z M29.256,6.78841406 C29.5807852,6.60683984 29.9913711,6.72228906 30.1732148,7.04689453 C30.355418,7.37221875 30.5263008,7.70886328 30.6811016,8.04766406 C30.8358125,8.38610547 30.6868516,8.78582031 30.3483203,8.94053125 C30.257668,8.98203906 30.1623438,9.00171484 30.0687266,9.00171484 C29.8130313,9.00171484 29.5686563,8.85544922 29.4554531,8.60775 C29.3158359,8.30246094 29.1618438,7.99887891 28.9975195,7.70562891 C28.8156758,7.38093359 28.9313945,6.97025781 29.256,6.78841406 Z M9.37690234,3.19259766 C9.66233594,2.95397266 10.0873867,2.99215625 10.3259219,3.27767969 C10.5645469,3.56329297 10.5264531,3.98825391 10.24075,4.22678906 C9.98226953,4.44268359 9.72971875,4.67160547 9.49019531,4.90708594 C9.35902344,5.03601172 9.18832031,5.10033984 9.01779688,5.10033984 C8.84341016,5.10033984 8.66920313,5.03304688 8.5373125,4.899 C8.27649609,4.63360156 8.28008984,4.20702344 8.54548828,3.94611719 C8.81088672,3.68521094 9.09048047,3.43167188 9.37690234,3.19259766 Z M26.0128203,3.26977344 C26.2511758,2.98389062 26.675957,2.9454375 26.96175,3.18361328 C27.2479922,3.42205859 27.5279453,3.67541797 27.7939727,3.93641406 C28.0596406,4.19696094 28.0637734,4.62353906 27.8031367,4.88920703 C27.6712461,5.02370312 27.4965898,5.09117578 27.3221133,5.09117578 C27.1517695,5.09117578 26.9814258,5.02711719 26.8502539,4.89837109 C26.6100117,4.66280078 26.3572812,4.43414844 26.0989805,4.21879297 C25.8130977,3.98052734 25.7744648,3.55565625 26.0128203,3.26977344 Z M13.7550781,0.728902344 C14.1071758,0.609230469 14.4902695,0.797273438 14.6102109,1.14955078 C14.7301523,1.50182813 14.5418398,1.88465234 14.1895625,2.00468359 C13.8713359,2.11303516 13.5540977,2.23585156 13.2464727,2.36971875 C13.1589648,2.4078125 13.0676836,2.42587109 12.9779297,2.42587109 C12.717832,2.42587109 12.470043,2.27439453 12.3597148,2.02076563 C12.2112031,1.67953906 12.3674414,1.28251953 12.708668,1.13400781 C13.0499844,0.98540625 13.4019922,0.849203125 13.7550781,0.728902344 Z M21.7247578,1.14550781 C21.8443398,0.793140625 22.2268047,0.604648438 22.5793516,0.723871094 C22.9330664,0.8438125 23.285793,0.980015625 23.6278281,1.1284375 C23.9692344,1.27658984 24.125832,1.67351953 23.9776797,2.01483594 C23.8673516,2.26891406 23.6194727,2.42057031 23.3591953,2.42057031 C23.2696211,2.42057031 23.1786992,2.40260156 23.0912813,2.3646875 C22.7831172,2.23082031 22.46525,2.10818359 22.1464844,2.00010156 C21.7940273,1.88051953 21.6052656,1.49805469 21.7247578,1.14550781 Z M18.3532446,0.00114134838 L18.7276602,0.0109609375 C19.0994336,0.0256953125 19.3889102,0.339070313 19.3741758,0.711023438 C19.3594414,1.08270703 19.0446289,1.37065625 18.6741133,1.35753906 C18.3373789,1.34415234 17.9945352,1.34433203 17.6609453,1.35816797 L17.6609453,1.35816797 L17.6329141,1.35870703 C17.2734492,1.35870703 16.9749883,1.07498047 16.9599844,0.712550781 C16.9448008,0.3406875 17.2338281,0.0268632813 17.6056914,0.0115898438 C17.9753086,-0.00350390625 18.3548984,-0.003953125 18.7276602,0.0109609375 Z" id="Combined-Shape"></path>
                        </g>
                    </g>
                </g>
            </g>
        </g>
    </g>
</svg>