<?xml version="1.0" encoding="UTF-8"?>
<svg width="19px" height="19px" viewBox="0 0 19 19" version="1.1" xmlns="http://www.w3.org/2000/svg" xmlns:xlink="http://www.w3.org/1999/xlink">
    <title>26A3E0F2-17EF-4F29-B046-045B73D77741</title>
    <g id="CMS-&amp;-Blog-&amp;-Brand-list" stroke="none" stroke-width="1" fill="none" fill-rule="evenodd">
        <g id="CMS---export-" transform="translate(-1625.000000, -4800.000000)" fill="#497A59" fill-rule="nonzero">
            <g id="Newsletter-+-Footer" transform="translate(0.000000, 3550.000000)">
                <g id="Footer" transform="translate(0.000000, 580.000000)">
                    <g id="socials" transform="translate(1530.000000, 650.000000)">
                        <g id="instagram" transform="translate(75.000000, 0.000000)">
                            <g id="instagram-(12)" transform="translate(20.000000, 20.000000)">
                                <path d="M14.2363293,0 L4.74559756,0 C2.13587805,0 0.000231707317,2.13564634 0.000231707317,4.74536585 L0.000231707317,14.236561 C0.000231707317,16.8455854 2.13587805,18.9819268 4.74559756,18.9819268 L14.2363293,18.9819268 C16.8460488,18.9819268 18.9816951,16.8455854 18.9816951,14.236561 L18.9816951,4.74536585 C18.9816951,2.13564634 16.8460488,0 14.2363293,0 Z M17.3998293,14.236561 C17.3998293,15.9804829 15.9812244,17.400061 14.2363293,17.400061 L4.74559756,17.400061 C3.0014439,17.400061 1.58209756,15.9804829 1.58209756,14.236561 L1.58209756,4.74536585 C1.58209756,3.00098049 3.0014439,1.58186585 4.74559756,1.58186585 L14.2363293,1.58186585 C15.9812244,1.58186585 17.3998293,3.00098049 17.3998293,4.74536585 L17.3998293,14.236561 Z" id="Shape"></path>
                                <circle id="Oval" cx="14.6325488" cy="4.34984146" r="1.18634146"></circle>
                                <path d="M9.49096341,4.74536585 C6.8696122,4.74536585 4.74559756,6.8696122 4.74559756,9.49073171 C4.74559756,12.110878 6.8696122,14.236561 9.49096341,14.236561 C12.1115732,14.236561 14.2363293,12.110878 14.2363293,9.49073171 C14.2363293,6.8696122 12.1115732,4.74536585 9.49096341,4.74536585 Z M9.49096341,12.6546951 C7.74393659,12.6546951 6.32746341,11.238222 6.32746341,9.49073171 C6.32746341,7.74324146 7.74393659,6.32723171 9.49096341,6.32723171 C11.2379902,6.32723171 12.6544634,7.74324146 12.6544634,9.49073171 C12.6544634,11.238222 11.2379902,12.6546951 9.49096341,12.6546951 Z" id="Shape"></path>
                            </g>
                        </g>
                    </g>
                </g>
            </g>
        </g>
    </g>
</svg>