<?xml version="1.0" encoding="UTF-8"?>
<svg width="19px" height="19px" viewBox="0 0 19 19" version="1.1" xmlns="http://www.w3.org/2000/svg" xmlns:xlink="http://www.w3.org/1999/xlink">
    <title>6718E2CB-7CB0-4512-93C0-0E6524C63AEC</title>
    <g id="User-account-&amp;-Checkout-&amp;-Search-results" stroke="none" stroke-width="1" fill="none" fill-rule="evenodd">
        <g id="Thank-you-page" transform="translate(-667.000000, -892.000000)" fill="#383838" fill-rule="nonzero">
            <g id="check" transform="translate(660.000000, 892.000000)">
                <g id="information" transform="translate(7.000000, 0.000000)">
                    <path d="M9.5,0 C4.2617,0 0,4.26175758 0,9.50005758 C0,14.7383576 4.2617,19 9.5,19 C14.7383,19 19,14.7383576 19,9.50005758 C19,4.26175758 14.7383,0 9.5,0 Z M9.5,17.2727273 C5.21406061,17.2727273 1.72727273,13.7859394 1.72727273,9.50005758 C1.72727273,5.21417576 5.21406061,1.72727273 9.5,1.72727273 C13.7859394,1.72727273 17.2727273,5.21417576 17.2727273,9.50005758 C17.2727273,13.7859394 13.7858818,17.2727273 9.5,17.2727273 Z" id="Shape"></path>
                    <path d="M9.49988485,4.03030303 C8.86505455,4.03030303 8.3486,4.54710303 8.3486,5.18233636 C8.3486,5.81699394 8.86505455,6.33333333 9.49988485,6.33333333 C10.1347152,6.33333333 10.6511697,5.81699394 10.6511697,5.18233636 C10.6511697,4.54710303 10.1347152,4.03030303 9.49988485,4.03030303 Z" id="Path"></path>
                    <path d="M9.5,8.06060606 C9.02304242,8.06060606 8.63636364,8.44728485 8.63636364,8.92424242 L8.63636364,14.1060606 C8.63636364,14.5830182 9.02304242,14.969697 9.5,14.969697 C9.97695758,14.969697 10.3636364,14.5830182 10.3636364,14.1060606 L10.3636364,8.92424242 C10.3636364,8.44728485 9.97695758,8.06060606 9.5,8.06060606 Z" id="Path"></path>
                </g>
            </g>
        </g>
    </g>
</svg>