<?xml version="1.0" encoding="UTF-8"?>
<svg width="277px" height="654px" viewBox="0 0 277 654" version="1.1" xmlns="http://www.w3.org/2000/svg" xmlns:xlink="http://www.w3.org/1999/xlink">
    <title>81DADB43-83B9-4921-967A-373C566537BD</title>
    <g id="CMS-&amp;-Blog-&amp;-Brand-list" stroke="none" stroke-width="1" fill="none" fill-rule="evenodd" fill-opacity="0.0699573864">
        <g id="CMS" transform="translate(-143.000000, -4280.000000)" fill="#497A59" fill-rule="nonzero">
            <g id="Newsletter-+-Footer" transform="translate(0.000000, 3550.000000)">
                <g id="Footer" transform="translate(0.000000, 580.000000)">
                    <g id="Leaf-02" transform="translate(281.773650, 477.000000) scale(-1, 1) translate(-281.773650, -477.000000) translate(143.773650, 150.000000)">
                        <path d="M272.408808,55.7322228 C258.867047,60.402931 245.622889,65.8956067 232.750162,72.1796315 C229.588255,73.7402153 226.442689,75.341652 223.337974,77.0002829 C220.51922,78.4955019 217.684125,79.9825502 214.971585,81.6575223 C209.582344,84.9364825 204.489295,88.6791743 199.750312,92.8430676 C195.086943,97.0397032 191.089464,101.921707 187.895204,107.321363 C186.261143,110.017659 184.831341,112.787491 183.278983,115.491958 C181.726626,118.196425 180.051714,120.941746 178.270588,123.556336 L178.188885,123.670724 C177.600708,124.17013 177.054212,124.716645 176.554825,125.304844 C175.981836,126.015984 175.480983,126.782343 175.059659,127.59261 L174.986127,127.780534 C174.120075,128.801858 173.221341,129.798671 172.265416,130.74646 C170.051264,132.94435 167.673706,134.978829 165.312489,137.013307 C163.469378,138.543093 161.717904,140.180043 160.067155,141.915664 C160.960442,138.740026 161.845558,135.561664 162.722503,132.380579 C163.523193,129.471847 164.340223,126.563115 165.173594,123.654383 C165.990624,120.819187 166.734122,117.934966 167.624684,115.165134 C169.356789,109.731688 171.709835,104.54336 173.703389,99.2079615 C175.63158,94.0114627 176.677379,88.5861873 178.213396,83.258959 C179.561496,78.593549 181.277259,74.0833803 183.066555,69.5813822 L183.066555,69.5813822 C184.261873,67.4020351 185.662633,65.3418586 187.24975,63.4289237 C188.969955,61.5164986 190.841573,59.7459116 192.846407,58.1343778 C196.858025,54.7926043 201.245477,51.9247253 205.322458,48.6646577 C209.677752,45.2431352 213.442473,41.1304982 216.46675,36.4904704 C219.558741,31.5680979 221.956218,26.2423163 223.591253,20.6640269 C224.53637,17.5547717 225.310979,14.3962184 225.911619,11.2024773 C226.570362,7.96308053 227.050412,4.68989719 227.349592,1.39776265 C227.447636,0.0986379643 225.715532,-0.416109553 224.898501,0.376438212 C221.131992,3.94698845 217.300121,7.43583273 213.680677,11.1534537 C210.061233,14.8710746 206.597025,18.7439369 203.312564,22.7475287 C200.028102,26.7511205 196.849855,30.9671478 193.892205,35.264881 C190.863887,39.4887657 188.2016,43.9634273 185.934331,48.6401459 C183.483241,53.9183506 181.988075,59.6622792 182.617189,65.504255 C182.62721,65.6018913 182.649161,65.697931 182.682551,65.7902258 C182.429272,66.272291 182.200503,66.7788679 181.996246,67.2854448 C179.365408,71.280866 177.845732,75.9952996 176.415929,80.5299801 C175.598899,83.1445707 174.855402,85.783673 174.169096,88.4391166 C173.482791,91.0945601 172.845507,93.8889038 171.930434,96.5443473 C170.083945,101.904258 167.616514,107.01088 165.810877,112.378961 C163.915367,118.024843 162.599949,123.817795 161.112954,129.586236 C159.707662,135.065982 158.326881,140.551175 156.970611,146.041815 C155.835025,147.731646 154.842952,149.513616 154.004791,151.369043 C150.507902,159.131109 149.36406,167.628528 147.182589,175.799124 C147.100886,174.165005 146.961991,172.530886 146.725052,170.953961 C146.688798,170.752122 146.577973,170.571296 146.414581,170.447384 C146.365559,169.360694 146.275685,168.282176 146.177642,167.179145 C145.720105,162.603612 144.870393,158.068931 144.331154,153.501569 C143.824595,149.1303 143.514123,144.611961 144.437367,140.273374 C145.385122,135.706012 147.75451,131.906685 150.516072,128.213576 C151.937705,126.326168 153.408359,124.471443 154.756459,122.494159 C156.091048,120.521153 157.265863,118.444661 158.269689,116.284506 C160.236664,111.998735 161.542414,107.439465 162.142412,102.762171 C162.788714,97.912855 163.023767,93.0175661 162.845058,88.128634 C162.681652,83.1282295 162.248626,78.1523368 161.848281,73.1682736 C160.949548,61.9745577 159.764854,50.8135243 158.58016,39.668832 C158.433095,38.2880014 158.245178,36.8990001 158.147134,35.5018283 C158.081772,34.5131862 156.733672,33.6716149 155.965664,34.6030628 C149.543806,42.4713463 143.007565,50.4131651 137.917466,59.2210671 C135.358877,63.6403385 133.22243,68.290902 131.536461,73.1110794 C129.869917,78.0400653 128.505665,83.0661497 127.45131,88.1613163 C126.348319,93.2597679 125.441415,98.3990725 124.591704,103.538377 C123.717482,108.824752 122.87594,114.160151 122.957643,119.544574 C122.965147,124.478234 123.856159,129.370673 125.588481,133.990187 C127.212189,138.047968 129.174541,141.96188 131.454758,145.690479 C135.760507,152.986821 140.71171,160.119751 143.187311,168.323029 C143.285355,168.649853 143.367058,168.993018 143.448761,169.328012 C143.650277,171.894107 143.614722,174.473319 143.342547,177.032884 C143.242149,178.104306 143.075703,179.168507 142.844159,180.219416 C142.716597,180.679627 142.858756,181.172465 143.211822,181.494029 C143.211822,181.714635 143.14646,181.943412 143.113779,182.188529 C142.571322,185.834951 141.818396,189.446941 140.858775,193.006398 C138.881562,200.196522 136.299747,207.198722 134.012062,214.249946 C131.63723,221.612129 129.681394,229.10295 128.153956,236.686401 C125.130944,251.605909 125.106433,266.99114 121.944526,281.8126 C120.863981,286.658526 120.113314,291.572157 119.697693,296.519672 C119.321859,301.42203 119.281008,306.324387 119.101261,311.226744 C118.926961,316.33609 118.679129,321.445436 118.357763,326.554781 C118.145336,329.82302 117.91112,333.091258 117.655117,336.359496 C118.749938,322.379607 97.9238382,316.25166 96.2080748,304.257226 C96.2135772,304.230269 96.2135772,304.202478 96.2080748,304.17552 C96.2080748,304.061132 96.2080748,303.946744 96.2080748,303.840526 C96.1427123,303.252243 96.0936905,302.949931 96.0364984,302.288113 C95.9304161,301.155582 95.8813324,300.018434 95.889433,298.880974 C95.858212,296.464584 96.0634469,294.050934 96.5022056,291.674509 C96.7228038,290.595991 97.000594,289.517472 97.3192358,288.455295 C97.4663013,287.9814 97.6297073,287.499335 97.8176242,287.033611 C97.8176242,287.033611 97.9892006,286.657764 98.0137115,286.592399 C98.1280957,286.363622 98.24248,286.143016 98.3650345,285.930581 C99.9722356,283.333044 101.792293,280.873419 103.806456,278.577045 C107.826244,273.674687 111.560072,268.63343 114.068355,262.766942 C116.614762,256.762379 118.027521,250.33825 118.235209,243.819331 C118.374104,240.069028 118.235209,236.326895 118.316912,232.576592 C118.233744,228.816448 118.626308,225.060875 119.485265,221.399217 C119.6452,220.826712 119.349817,220.225377 118.79896,220.002045 C118.258712,219.781852 117.63837,219.981747 117.328305,220.47594 C111.249601,228.401418 105.138215,236.482137 101.510601,245.870151 C99.5742392,250.870555 98.7490387,256.058883 98.1771175,261.394282 C97.8829867,264.115091 97.6133667,266.827728 97.1313189,269.524025 C96.6413537,272.117194 95.969734,274.672717 95.1214246,277.171702 C93.9123102,280.507342 92.8840805,283.905804 92.0412207,287.352264 C91.8614741,285.09718 91.7716008,282.825754 91.7389196,280.562499 C91.7348431,280.491746 91.7348431,280.420817 91.7389196,280.350064 C92.5598642,277.607674 92.5598642,274.684911 91.7389196,271.942521 C91.7389196,271.738256 91.7389196,271.542162 91.7389196,271.346068 C91.7439557,271.045478 91.6360864,270.753929 91.4366184,270.529008 C92.362422,260.847971 92.7905648,251.125782 92.7193558,241.400835 C92.6785043,236.555672 92.9644649,231.408197 90.7421427,226.963393 C89.6424244,224.980704 88.4171045,223.070337 87.0736771,221.243976 C85.8187871,219.359653 84.7255169,217.372563 83.8055563,215.303953 C82.8754816,213.196587 82.139822,211.008674 81.6077451,208.767477 C81.4933609,208.26907 81.4279984,207.746152 81.280933,207.255916 C81.0211492,206.624669 80.3847216,206.232246 79.7040647,206.283616 C78.8147018,206.320037 78.0063504,206.810619 77.5634456,207.58274 C76.3787518,209.380271 76.7464154,211.798768 76.8526293,213.816905 C76.9288855,216.349789 77.0242057,218.882674 77.1385899,221.415558 C77.3673584,226.563034 77.6832767,231.705062 78.0863449,236.841643 C78.4866897,241.948265 78.76448,247.128423 79.6468726,252.186021 C80.0582229,254.613862 80.7661677,256.981996 81.7548105,259.237245 C82.7263106,261.327394 83.8174945,263.359797 85.0229313,265.324339 C91.2568717,275.946113 88.1603273,289.738078 92.155605,301.413859 C90.6359288,299.836934 89.099912,298.26818 87.5638952,296.699425 C83.4133818,292.450716 79.2465278,288.193836 74.9571193,284.075855 C71.0190337,280.30104 66.7868173,276.885731 61.7620815,274.597965 C56.9357217,272.469424 51.8290373,271.044124 46.598001,270.365596 C40.7103354,269.648261 34.790242,269.228304 28.8602754,269.107324 C28.4234909,269.116479 28.0332737,269.382581 27.8652427,269.78587 C27.6972118,270.189159 27.7830387,270.65362 28.0840967,270.97022 C32.4552083,274.712353 36.8099792,278.478997 41.2219423,282.180277 C45.3070933,285.636439 49.3922443,289.378572 54.1473601,291.984992 C58.9024758,294.591412 64.2131721,295.727125 69.3277812,297.377585 C79.4775426,300.632844 88.9926943,305.607543 97.458131,312.084657 C98.6428247,313.849505 99.9092216,315.55716 101.21647,317.240303 C104.411058,321.3256 107.899777,325.247486 110.70219,329.635096 C113.766054,334.431236 116.151782,339.938217 115.996546,345.722998 C115.996546,346.235973 116.279265,346.707188 116.731873,346.948588 L116.731873,347.161023 C116.478594,350.380238 116.225315,353.599453 115.996546,356.818667 C115.8168,358.256692 115.628883,359.711058 115.408284,361.140912 C114.513664,366.561006 113.967855,372.032936 113.774224,377.522956 C113.643499,382.997255 113.847757,388.463384 114.019333,393.921341 C114.084696,395.931308 114.155505,397.946721 114.231761,399.967582 C114.231761,406.103699 114.419678,412.223475 114.950748,418.343251 C114.999769,419.405429 115.048791,420.467606 115.114154,421.529784 C114.697468,420.549312 114.248102,419.568841 113.790565,418.60471 C113.749206,418.507065 113.702846,418.411615 113.65167,418.31874 C113.654736,418.172851 113.638249,418.027209 113.602648,417.885698 C113.35437,416.893026 113.023687,415.922805 112.614041,414.985137 C110.792064,407.819524 107.760882,400.915371 104.566294,394.289018 C102.567293,390.132909 100.40761,386.063952 98.0872442,382.082148 C96.1724618,378.71563 94.0466626,375.473601 91.722579,372.375481 C88.3335397,368.098374 84.4563091,364.231972 80.1697719,360.854941 C75.8803634,357.357926 71.4030379,354.097859 66.9502233,350.813279 C58.1426378,344.317656 48.9755589,338.148856 39.0323014,333.458935 C33.944075,331.022383 28.6226956,329.106179 23.1492343,327.739518 C17.3897534,326.382054 11.5328004,325.477799 5.63210683,325.035051 C4.13694157,324.912492 2.6499466,324.683715 1.16295164,324.585668 C0.174345098,324.512133 -0.225999699,325.631504 0.125323286,326.39137 C2.34468781,331.17591 5.13764521,335.672787 8.44269072,339.782976 C11.7790311,343.916625 15.6219952,347.614239 19.8811135,350.788768 C22.0952654,352.422887 24.3829499,353.999812 26.6788048,355.560395 C27.7981361,356.336602 28.9256378,357.104638 30.0367989,357.897186 C30.5842091,358.281204 31.1234491,358.665222 31.6708593,359.065581 C31.9404793,359.253505 32.2019289,359.45777 32.4878895,359.653864 L32.8392125,359.923493 L33.1660246,360.168611 C37.2206879,363.454779 40.9573486,367.114978 44.3266571,371.100868 C47.7418433,374.981901 51.1733702,378.838422 55.2912024,381.992272 C59.5690117,385.090648 64.3240613,387.469638 69.3686327,389.035325 C74.3851981,390.74298 79.5324884,392.042104 84.5163726,393.823294 L85.6438743,394.248165 L85.7010664,394.248165 L85.8399615,394.305359 L86.4445639,394.58316 C87.2615941,394.967178 88.0786243,395.400219 88.8956545,395.82509 C90.6194577,396.791978 92.2887251,397.853037 93.8958793,399.003452 C97.3764523,401.496398 100.602964,404.326196 103.528665,407.451848 C104.19046,408.162689 104.827743,408.889872 105.448686,409.633397 C106.396441,411.357392 107.499432,412.983341 108.447187,414.707336 C109.394942,416.431332 110.350868,418.179839 111.208749,419.952859 C112.066631,421.725878 112.769277,423.466215 113.463753,425.255575 C114.158228,427.044936 114.795512,428.736249 115.334752,430.509268 C115.334752,438.058898 115.620712,445.608529 115.963865,453.149988 C116.323358,460.936566 116.707362,468.723143 117.303795,476.50155 C118.480318,491.878611 120,507.255672 122.156954,522.526515 C121.956565,522.751452 121.84604,523.042318 121.846482,523.343574 C121.928185,531.914529 124.510001,540.15866 126.797685,548.337426 C126.895729,548.680591 126.985602,549.023756 127.083646,549.35875 C127.083646,549.35875 127.083646,549.35875 127.083646,549.35875 L127.083646,549.35875 C129.34682,557.44764 131.634504,565.536529 133.660739,573.690784 C135.776847,582.204544 138.048191,590.661111 140.417579,599.101336 C142.786966,607.541561 145.197206,615.973615 147.623785,624.430182 C150.050365,632.886748 152.63218,641.228926 155.197655,649.611957 L156.178091,652.814831 C156.476151,653.690042 157.404038,654.181924 158.295654,653.937371 C159.187269,653.692817 159.73439,652.796367 159.544256,651.891553 C157.370955,643.402305 155.189485,634.913056 152.926311,626.440148 C150.663138,617.967241 148.350942,609.608722 145.989725,601.21752 C144.731498,596.72914 143.456931,592.2571 142.166023,587.801402 C142.174557,587.750007 142.174557,587.697556 142.166023,587.646161 C142.217643,585.119366 142.641613,582.613998 143.42425,580.210919 C143.768909,580.188836 144.067501,579.964081 144.184088,579.638977 C144.845883,578.004858 145.31976,576.370739 145.818148,574.654914 C147.798645,571.100977 150.213837,567.807415 153.008014,564.850199 C156.238074,561.484026 159.723563,558.37265 163.43332,555.543891 C167.142637,552.602477 171.00719,549.824474 174.487738,546.556236 C178.002345,543.374628 181.146079,539.805936 183.859075,535.918121 C186.418455,532.130492 188.591726,528.095836 190.346294,523.874663 C193.949398,515.352732 196.139038,506.307883 197.699566,497.21401 C198.516596,492.581282 199.080347,487.915872 200.060783,483.323997 C200.900968,478.867566 202.272475,474.527962 204.145934,470.398115 C204.652493,469.36862 205.199903,468.355466 205.779995,467.366824 C206.072922,466.772335 205.902187,466.053566 205.37321,465.654324 C204.844234,465.255082 204.106222,465.28798 203.614865,465.732705 C200.444788,469.000943 197.078623,472.081258 193.892205,475.284131 C190.705788,478.487005 187.404986,481.689878 184.243079,484.974458 C177.878966,491.505323 171.930229,498.428482 166.43182,505.703259 C154.978673,520.596858 147.116435,537.93243 143.456931,556.360951 C141.830428,564.145325 140.622215,572.011268 139.837487,579.924948 C139.437143,578.633994 139.020457,577.351211 138.652794,576.068427 C136.021956,567.693567 133.579036,559.286024 131.201478,550.845799 C131.013561,550.167639 130.817474,549.49765 130.621387,548.819491 C130.766884,548.623534 130.84435,548.38539 130.841985,548.141332 C130.359937,538.9249 132.5986,529.757492 135.531738,521.08849 C137.508951,515.254685 139.886509,509.56795 142.157853,503.848533 C142.451984,503.276592 142.762456,502.729162 143.097438,502.214414 C144.26398,500.306848 145.580853,498.495399 147.035523,496.797309 C150.103018,493.321759 153.516783,490.16795 157.22389,487.384783 C161.309041,484.239104 165.541257,481.330372 169.610068,478.168352 C173.675081,475.091456 177.344138,471.523809 180.533762,467.546577 C184.055293,462.897865 187.153324,457.943024 189.790714,452.741458 C190.079758,452.215877 189.94292,451.558071 189.468261,451.191369 C188.993602,450.824666 188.322582,450.858353 187.887033,451.270751 C181.522368,456.254815 173.629856,458.738676 167.003742,463.32238 C163.466218,465.779435 160.378901,468.828166 157.877514,472.334546 C155.230336,475.986803 152.975333,479.92503 150.614116,483.77338 C149.478444,485.628105 148.359112,487.491001 147.239781,489.353897 C148.098105,486.443047 148.76406,483.478894 149.233335,480.48063 C150.050365,475.112549 150.205601,469.695444 150.867395,464.319192 C152.09294,453.787295 156.063707,444.023433 160.369456,434.422983 C162.858675,428.88332 165.514023,423.419915 168.335501,418.032769 C168.572381,417.818285 168.730587,417.530627 168.784867,417.215709 C168.807501,417.165348 168.826611,417.113476 168.842059,417.060468 C169.201553,416.379585 169.561046,415.709596 169.920539,415.050501 C170.108456,414.740019 170.304544,414.445877 170.508801,414.151736 C170.713059,413.857594 170.966338,413.489918 171.203277,413.163094 C171.334002,412.983341 171.464726,412.803588 171.603622,412.632005 L171.603622,412.574811 L171.881412,412.231646 C172.494184,411.455439 173.147809,410.695574 173.809603,409.96022 C174.991275,408.632785 176.251781,407.377691 177.584283,406.201746 L178.466675,405.466393 L178.523867,405.417369 L178.523867,405.417369 L178.973234,405.090545 C179.738137,404.620939 180.529219,404.195376 181.342622,403.815933 C186.673395,401.040678 191.793555,397.878354 196.661938,394.354383 C201.417054,390.906392 205.820846,387.058041 209.236033,382.23739 C212.896328,377.081744 215.322908,371.296962 218.019107,365.618399 C218.281545,365.145473 218.239882,364.562172 217.912893,364.13135 C217.59041,363.68883 217.025092,363.496027 216.499431,363.649285 C209.271094,366.657243 202.487062,370.637645 196.335126,375.480307 C190.256351,380.278415 184.860504,385.883371 180.296823,392.140152 C177.735515,395.647171 175.475191,399.364404 173.539983,403.252161 C173.420553,403.474613 173.374782,403.729223 173.409258,403.979344 C172.319885,405.727852 171.268639,407.489977 170.255522,409.26572 C169.384598,410.293831 168.566512,411.365563 167.804431,412.476764 C167.318842,413.176638 166.900305,413.92073 166.554375,414.699166 C166.554375,414.805384 166.464502,414.903431 166.42365,415.001478 C166.382799,415.099525 166.42365,415.001478 166.42365,415.001478 C166.42365,415.001478 166.42365,415.001478 166.42365,415.001478 L166.42365,415.050501 L166.42365,415.099525 C166.42365,415.197572 166.333777,415.328302 166.325606,415.360984 C166.276585,415.518949 166.235733,415.67419 166.203052,415.826708 C166.151688,416.063748 166.116204,416.303953 166.096838,416.54572 C166.09282,416.594662 166.09282,416.64385 166.096838,416.692791 C166.100865,416.719878 166.100865,416.747411 166.096838,416.774497 C163.841835,421.01776 161.684875,425.307322 159.625959,429.643185 C157.444488,434.226889 155.271188,438.875958 153.392018,443.631244 C153.588962,439.597448 153.350648,435.554172 152.681202,431.571445 C152.301895,429.294756 151.772393,427.045655 151.096164,424.838875 C150.409858,422.57562 149.519295,420.394071 148.694095,418.179839 C147.798279,415.934919 147.119762,413.609276 146.66786,411.234833 C146.316552,408.862875 146.152639,406.466926 146.177642,404.069221 C146.095939,398.29261 146.063258,392.515999 145.973384,386.739388 C145.973384,385.579163 144.167747,384.901004 143.628508,386.102081 C139.477994,395.343025 138.595602,405.572611 138.375003,415.58159 C138.309641,418.065451 138.28513,420.546589 138.301471,423.025003 C138.237282,425.733952 138.511751,428.44031 139.118501,431.08121 C140.376727,435.88552 143.301695,440.068865 144.968437,444.701592 C145.945295,447.387279 146.656784,450.162185 147.092716,452.986576 C147.43258,455.749064 147.609909,458.52913 147.623785,461.312413 C147.642202,461.743233 147.840849,462.146472 148.171195,462.423614 C147.48489,466.803053 146.970161,471.215175 146.243004,475.594614 C145.487634,480.501299 144.426146,485.355937 143.064757,490.130103 C140.352216,499.273 136.740943,508.105414 133.546355,517.093069 C131.095264,524.029904 129.020008,531.146493 128.366383,538.459176 C127.753611,534.177784 127.116327,529.912733 126.560747,525.721218 C125.531289,517.893787 124.362935,510.319645 123.357988,502.516726 C121.372605,487.033448 120.089867,471.468463 119.027728,455.870797 C118.455807,447.373377 118.210698,438.859617 117.843034,430.354027 C118.181023,430.101372 118.370967,429.69696 118.349593,429.275508 C118.349593,418.147157 118.030951,407.018806 117.663288,395.898625 C117.540733,392.082957 117.360987,388.267289 117.230262,384.459792 C117.320135,382.417143 117.434519,380.374494 117.589755,378.331845 C117.973759,373.086323 118.570191,367.873483 119.07675,362.636131 C120.081697,352.169598 121.078474,341.703066 121.838312,331.220191 C122.573639,321.088653 122.843259,310.948944 123.41518,300.809235 C124.036123,289.942343 125.228987,275.995136 131.471098,266.312981 C133.336357,263.681912 135.555004,261.320219 138.064532,259.294439 C140.6409,257.023014 143.192758,254.721629 145.720105,252.390286 C146.537135,251.62225 147.354165,250.813361 148.114003,249.988131 C150.100239,248.542001 152.274538,247.37372 154.576712,246.515628 C157.699947,245.346165 160.944939,244.532147 164.25035,244.088961 C167.755409,243.582384 171.334002,243.500678 174.871742,243.271901 C178.785317,243.043125 182.707062,242.798007 186.579785,242.193383 C190.230949,241.634162 193.798651,240.624192 197.201178,239.186604 C200.241367,237.847323 203.128509,236.184555 205.812676,234.227052 C211.483541,230.057463 216.333927,224.874481 220.118875,218.939868 C222.168698,215.792245 224.016194,212.517392 225.650169,209.135153 C227.357762,205.66265 228.844757,202.083929 230.339923,198.513379 C230.683075,197.69632 231.009887,196.87926 231.377551,196.062201 C231.684375,195.490656 231.592319,194.787056 231.148783,194.313693 C230.679998,193.85377 229.963107,193.760404 229.392168,194.084916 C223.643504,197.339739 217.607414,200.058402 211.360311,202.206488 C205.543056,204.28182 199.652268,206.20191 193.892205,208.440653 C187.78082,210.826467 181.636752,213.277645 175.917541,216.611248 C170.732164,219.693214 166.109729,223.636102 162.248626,228.270688 C158.692745,232.557975 155.69231,237.277035 153.318486,242.315942 C153.058935,242.290052 152.799868,242.369542 152.599499,242.536548 C151.186037,243.655919 149.854278,244.881509 148.457156,246.017222 C147.060034,247.152934 145.679253,248.198771 144.372005,249.367166 C141.700316,251.712127 139.167523,254.220499 136.626559,256.720702 C134.172983,258.954267 131.937834,261.416576 129.951422,264.074238 C129.136837,265.265707 128.407848,266.513497 127.769951,267.8082 C127.69123,267.758524 127.605988,267.720026 127.516672,267.693811 C127.72093,266.059692 127.925187,264.360208 128.145785,262.685236 C128.627833,259.000298 129.08537,255.143777 129.61644,251.458838 C130.18019,247.553293 130.752112,243.647749 131.422076,239.758545 C132.719057,232.202899 134.501146,224.7386 136.757284,217.411967 C138.995946,210.221843 141.602273,203.154277 143.70204,195.91513 C144.666136,192.581527 145.613891,189.1989 146.283856,185.775421 C148.102715,181.909399 149.51557,177.865091 150.499732,173.707451 C151.954045,168.06974 153.106058,162.342153 155.026079,156.835172 C155.93643,154.154335 157.122003,151.575005 158.56382,149.138471 C160.155227,146.615366 162.006354,144.265774 164.086944,142.1281 C168.351841,137.568907 173.327555,133.687874 177.159427,128.720152 C177.845732,127.829558 178.491186,126.922621 179.103959,125.991174 C180.686146,124.424869 182.610396,123.247342 184.725127,122.551353 C188.222016,121.374787 191.759757,120.279927 195.215794,118.964461 C199.537884,117.330342 203.500481,114.879164 207.585632,112.762979 C209.527312,111.699255 211.545511,110.78161 213.623485,110.017659 C215.821461,109.252752 218.099254,108.740161 220.413006,108.489758 C225.315187,107.942328 230.331752,108.162934 235.258444,107.533798 C239.664232,106.986597 243.928871,105.620422 247.832539,103.505695 C251.485526,101.483474 254.810551,98.9186773 257.694094,95.8988703 C260.695281,92.8703228 263.228637,89.4116167 265.210772,85.6366023 C266.984076,81.8453201 268.229381,77.8288616 268.911918,73.6993623 C269.653742,69.3612014 270.791446,65.10013 272.310764,60.9695745 C272.735664,59.8136761 273.240726,58.6888473 273.82227,57.6032891 C274.085138,57.1609328 274.054227,56.6034936 273.744063,56.1929147 C273.433899,55.7823359 272.90615,55.600251 272.408808,55.7322228 Z M195.166773,37.8141068 C200.870424,29.4483152 207.253983,21.5669606 214.252598,14.2501094 C217.332802,11.0308948 220.51922,7.8443625 223.893554,4.91111872 C223.664786,6.48804365 223.419677,8.05679799 223.117376,9.61738173 C222.578136,12.419896 221.957193,15.2060691 221.205525,17.9595597 C219.791312,23.4152521 217.673796,28.6639136 214.906222,33.5735678 C212.168269,38.3014742 208.610411,42.5041034 204.399214,45.9847023 C200.379425,49.3183053 195.991973,52.2025255 191.923163,55.4871049 C189.651183,57.2285332 187.55997,59.1939056 185.681052,61.3535925 C185.321559,61.786634 184.970236,62.2278462 184.635253,62.6772289 C184.913044,53.5506738 190.158377,45.1594722 195.166773,37.8141068 Z M89.9006016,256.794237 C89.7862174,260.062475 89.6554926,263.330713 89.4839162,266.598952 C87.3432971,262.513654 84.581735,258.771521 83.3970412,254.261352 C82.8012172,251.873773 82.3995617,249.441894 82.1960068,246.989522 C81.9073228,244.325908 81.6349794,241.656847 81.3789766,238.982339 C80.866971,233.606087 80.4012638,228.221665 79.981855,222.829071 C79.7367459,219.767822 79.5107009,216.703848 79.3037199,213.637152 C79.1304398,212.386846 79.0730037,211.123207 79.1321436,209.862336 C79.1321436,209.739777 79.1321436,209.617219 79.197506,209.49466 C80.0430994,213.004654 81.3508765,216.386863 83.0865697,219.552663 C84.067006,221.325682 85.2190186,222.976142 86.3546905,224.651114 C87.540775,226.246354 88.495261,228.001351 89.1897853,229.863954 C89.7514722,231.874229 90.0265302,233.953742 90.0068155,236.040924 C90.0558374,238.31235 90.072178,240.583776 90.0803483,242.855201 C90.1048592,247.528782 90.0640077,252.161509 89.9006016,256.794237 Z M72.6040723,295.032624 C70.1529817,294.1502 67.7018911,293.398505 65.2508005,292.663151 C62.7322932,291.984945 60.2620534,291.138755 57.8566772,290.130267 C53.0607099,288.022253 49.0000698,284.672309 44.9476,281.436753 C40.7153836,278.054127 36.4423157,274.720524 32.177418,271.386921 C36.262569,271.550332 40.3885715,271.852645 44.432871,272.391904 C49.4257781,272.980622 54.318744,274.227947 58.9841789,276.101354 C63.7873775,278.237457 68.1701929,281.214779 71.9259372,284.892915 C76.1499834,288.822971 80.0962392,293.06351 84.1813902,297.148808 C86.5344372,299.50194 88.8956545,301.830559 91.2813827,304.159179 C85.3854516,300.483798 79.1266582,297.425476 72.6040723,295.032624 L72.6040723,295.032624 Z M93.4220018,293.496552 C93.4220018,288.594195 95.1459355,283.961467 96.6901226,279.377763 C97.559867,276.970425 98.2909457,274.515222 98.8797635,272.024227 C99.4429323,269.303149 99.8602133,266.553905 100.12982,263.788267 C100.701741,258.542744 101.265492,253.346246 102.997596,248.321329 C104.655255,243.722038 106.849132,239.334127 109.533837,235.248377 C111.543732,232.078186 113.741543,229.038724 115.996546,226.040116 C115.718756,227.674235 115.522669,229.308354 115.391944,230.983326 C115.114154,234.374123 115.081472,237.773091 114.942577,241.163888 C114.846094,244.379938 114.523937,247.585245 113.978482,250.756167 C113.379338,253.857511 112.526767,256.90447 111.429347,259.866381 C110.400017,262.694002 109.128918,265.427648 107.630157,268.036976 C106.004402,270.756484 104.174437,273.348571 102.156055,275.790872 C100.069456,278.289388 98.1167388,280.896742 96.3061184,283.601961 C95.1376982,285.508673 94.3471425,287.622445 93.9775823,289.827955 C93.7488139,291.00452 93.5608969,292.23011 93.4220018,293.47204 L93.4220018,293.496552 Z M99.0186586,398.799187 C95.8675149,396.146852 92.4312131,393.853161 88.7730999,391.960398 C84.5653944,389.860555 79.9083223,388.69216 75.4391671,387.303159 C70.4144314,385.742575 65.6348047,384.116627 61.1002871,381.461183 C56.7781973,378.911957 53.2813081,375.423113 49.8906327,371.591104 C46.4999574,367.759095 43.3298802,363.747332 39.5225195,360.258488 C35.3801764,356.44282 30.5923794,353.395188 25.9679885,350.208655 C21.6144571,347.272774 17.534568,343.950225 13.7778979,340.281382 C10.1550635,336.699641 6.93830487,332.72924 4.18596338,328.442189 C3.89183251,327.984636 3.60587194,327.527082 3.31991137,327.069529 L3.54867982,327.069529 C3.61729495,327.189854 3.70256391,327.299883 3.80195918,327.396353 C9.81530145,332.944187 17.3564902,336.081696 24.8486571,339.080304 C28.5334633,340.551012 32.2019289,341.997207 35.7886915,343.745714 C39.536206,345.575425 43.0730587,347.808297 46.3365514,350.40475 C49.7762485,353.141899 52.9790069,356.17319 56.2062762,359.171799 C59.4907925,362.267552 62.9381113,365.185877 66.5335379,367.914336 C70.2346847,370.684168 74.1074079,373.208882 77.8820874,375.880667 C81.4754509,378.390052 84.8582664,381.188216 87.9969212,384.247356 C92.4977149,388.714848 96.3828718,393.762436 99.5497283,399.25674 L99.0186586,398.799187 Z M104.876765,404.150927 C104.362036,402.933508 103.765604,401.699748 103.161002,400.555865 C102.196906,398.676628 101.175618,396.830073 100.056287,395.032542 C97.7958099,391.434584 95.2172878,388.046563 92.3516922,384.909175 C89.4583267,381.737661 86.2924677,378.82595 82.8904825,376.20749 C79.1403139,373.306929 75.1858877,370.684168 71.296824,367.987871 C67.5859801,365.440072 64.0385544,362.662065 60.6754314,359.670205 C57.4073106,356.728791 54.2127225,353.664817 50.871069,350.788768 C47.5793288,347.875467 44.0016258,345.302275 40.1924843,343.108408 C36.6016936,341.167816 32.890215,339.459383 29.0808736,337.993615 C21.7276018,335.011348 14.0311773,332.274198 7.60931991,327.469888 L7.48676538,327.371841 L9.93785598,327.649641 C12.8301429,328.009147 15.7224298,328.466701 18.5902058,329.022301 C24.038445,330.095828 29.3630516,331.722013 34.4814432,333.875635 C44.4982334,338.124345 53.5590983,344.260462 62.26047,350.715232 C66.5989003,353.918106 70.9536713,357.120979 75.2267392,360.43007 C79.5991825,363.711796 83.6978133,367.343313 87.4821922,371.288792 C90.1423274,374.19849 92.506975,377.365151 94.5413331,380.742171 C96.8780395,384.500645 98.9859774,388.389848 100.94685,392.360758 C103.283556,397.091532 105.497708,401.969378 107.368707,406.953441 C106.592529,406.013823 105.742817,405.082375 104.876765,404.175439 L104.876765,404.150927 Z M194.668384,492.5486 C193.165049,501.74052 191.678054,510.924269 188.499806,519.724 C186.991137,523.993066 185.055881,528.099131 182.723403,531.979894 C180.317862,535.891793 177.439272,539.492219 174.152756,542.699715 C170.770251,546.041489 167.167148,549.170827 163.531363,552.218459 C159.895579,555.266091 156.259794,558.207505 152.909971,561.500255 C151.431146,562.962792 150.001343,564.490693 148.645073,566.09213 C149.764404,562.823892 150.940928,559.555653 152.231836,556.344609 C155.160125,548.754586 159.030482,541.5626 163.751961,534.937649 C168.654143,528.245932 174.512249,522.346762 179.561496,515.769432 C182.011474,512.555047 184.197354,509.147684 186.097737,505.5807 C187.960566,502.091855 189.602797,498.496793 191.196006,494.88539 C192.903599,491.012528 194.56217,487.106983 196.375977,483.283144 C195.714183,486.330777 195.174943,489.492797 194.668384,492.573112 L194.668384,492.5486 Z M145.336101,560.364542 C147.104799,550.91047 149.868104,541.669908 153.579935,532.796953 C157.171661,524.614847 161.625113,516.83883 166.864846,509.600633 C172.115947,502.401418 177.819428,495.54335 183.940778,489.067926 C188.434444,484.255445 193.083346,479.598206 197.830291,475.014502 C194.963027,480.122792 192.401226,485.396637 190.158377,490.808263 C186.947449,498.161799 183.679328,505.515335 179.063107,512.17437 C174.340673,518.939623 168.564269,524.879646 163.539533,531.399781 C158.516016,537.993988 154.39452,545.228848 151.284081,552.912959 C148.83299,558.861153 146.823096,564.972758 144.943926,571.125217 C144.290302,572.132924 143.6857,573.165142 143.130119,574.221872 C143.70204,569.564633 144.437367,564.948247 145.336101,560.364542 Z M151.602722,486.592236 C154.053813,482.686691 156.357838,478.707611 158.955994,474.924625 C161.237291,471.483186 164.075816,468.445745 167.355065,465.93697 C170.664623,463.656073 174.153912,461.647678 177.78854,459.931582 C180.190609,458.705993 182.576337,457.480404 184.880362,456.091403 C183.131415,458.921833 181.221887,461.649827 179.161151,464.261998 C175.931447,468.196159 172.303604,471.785799 168.335501,474.973649 C162.126071,480.096612 155.32021,484.565928 149.453933,490.08925 C150.162026,488.929026 150.878289,487.763354 151.602722,486.592236 L151.602722,486.592236 Z M176.930658,401.961207 C180.218922,396.261057 184.152992,390.958781 188.655042,386.159276 C193.792123,380.673375 199.636124,375.895245 206.033274,371.95061 C208.617258,370.357643 211.287601,368.909223 214.032,367.612024 C212.085298,371.566329 209.834419,375.363457 207.299671,378.969152 C203.95969,383.440611 199.953163,387.37288 195.420052,390.628591 C190.583137,394.239229 185.517882,397.5334 180.255971,400.4905 C179.349068,401.005248 178.384972,401.44646 177.527091,402.026572 C177.322833,402.165472 177.126746,402.320714 176.930658,402.467784 C176.994626,402.30681 177.008856,402.130352 176.97151,401.961207 L176.930658,401.961207 Z M145.883511,439.219123 C144.845883,437.094768 143.669359,435.019437 142.786966,432.813376 C141.87902,430.481385 141.357446,428.016926 141.242779,425.517034 C141.103884,423.000491 141.152906,420.467606 141.152906,417.951063 C141.091408,413.006431 141.287762,408.061956 141.741168,403.137773 C142.053706,400.104292 142.600017,397.099474 143.375228,394.150118 C143.375228,396.797391 143.375228,399.452835 143.375228,402.100107 C143.375228,407.002465 143.579486,411.904822 145.131843,416.594744 C145.875341,418.849828 146.765904,421.039548 147.582934,423.27012 C148.36677,425.449261 149.010808,427.676185 149.511125,429.937326 C150.492458,434.404315 150.882525,438.980901 150.671308,443.549538 C150.564734,446.157084 150.291836,448.755168 149.854278,451.327945 C149.564893,449.673737 149.183013,448.03705 148.710435,446.425588 C147.992092,443.951893 147.07118,441.541585 145.957044,439.219123 L145.883511,439.219123 Z M218.027278,214.388846 C217.038671,215.973942 216.001043,217.542696 214.906222,219.062427 C214.391493,219.773269 213.876764,220.492281 213.353865,221.194952 L212.994371,221.668847 L212.994371,221.668847 L212.847306,221.864941 L212.030276,222.878095 C209.936233,225.447392 207.641325,227.846205 205.167222,230.051878 C202.782352,232.196686 200.139284,234.035647 197.299221,235.526177 C194.210755,237.135578 190.909821,238.299199 187.494859,238.982339 C180.141587,240.50207 172.608569,240.330487 165.214445,241.482541 C162.513585,241.879263 159.843614,242.46351 157.22389,243.231048 L157.22389,243.231048 C158.433095,242.209724 159.674981,241.253764 160.974059,240.338658 C163.655171,238.469021 166.452322,236.771567 169.348618,235.256547 C175.133192,232.176233 181.203726,229.66786 187.233409,227.085952 C198.189784,222.420542 209.293225,217.518184 218.729923,210.18916 C219.922788,209.265883 221.08297,208.293582 222.210472,207.288599 C220.865096,209.67986 219.470698,212.046609 218.027278,214.388846 Z M175.688773,219.765098 C181.146534,216.308936 187.127195,213.874099 193.132367,211.488285 C198.851579,209.216859 204.685174,207.402987 210.486089,205.458385 C215.978769,203.629336 221.347033,201.445927 226.557073,198.921909 C224.209012,202.059032 221.462492,204.877063 218.386771,207.30494 C213.72373,210.968655 208.710032,214.162538 203.418778,216.840025 C192.454232,222.559442 180.672657,226.530351 169.716282,232.27428 C166.481882,233.95216 163.359719,235.83808 160.369456,237.920161 C159.10306,238.810756 157.918366,239.758545 156.67648,240.739017 C161.27636,232.372327 167.518471,224.912573 175.688773,219.765098 Z M136.160852,147.577887 C131.683526,140.142645 127.091816,132.568503 126.095039,123.760601 C125.620841,118.490845 125.744179,113.18436 126.462703,107.942328 C127.042794,102.819365 127.7291,97.6882307 128.676855,92.6142909 C130.547854,82.5807996 133.497333,72.8087674 138.2933,63.7720887 C141.985186,57.0792471 146.26417,50.7275303 151.079823,44.7917954 C149.828377,48.3831395 148.866651,52.0689747 148.203877,55.8139287 C146.790414,63.3717296 146.185812,71.0520893 144.935756,78.6262314 C144.255371,82.5293245 143.33861,86.3874988 142.190534,90.1794534 C140.932308,94.4281631 139.486164,98.6196786 138.342322,102.909241 C136.105552,111.646592 135.316183,120.691539 136.005616,129.684283 C136.624446,137.540522 137.74883,145.348722 139.37178,153.060356 C138.317811,151.230143 137.222991,149.391759 136.12817,147.577887 L136.160852,147.577887 Z M142.117002,136.523071 C140.839672,140.83643 140.425979,145.35945 140.899627,149.832971 C140.899627,149.906507 140.899627,149.980042 140.899627,150.061748 C139.853828,144.342331 138.946924,138.622914 138.399514,132.821791 C137.582484,123.997548 137.672357,115.026234 139.6414,106.357233 C141.512399,98.0967605 144.756009,90.228477 146.381899,81.9108108 C147.844383,74.4592277 148.481667,66.8850856 149.707212,59.4008202 C150.826544,52.5130081 152.476945,45.6251961 155.777747,39.4482259 C155.843109,40.9434449 155.883961,42.4304933 155.957493,43.9175417 C156.080048,46.7037147 156.194432,49.4817172 156.316987,52.2597197 C156.562096,57.8266188 156.864397,63.3880708 157.22389,68.9440757 C157.853003,78.8631786 159.029527,88.8721581 158.473946,98.8239435 C158.280044,103.415034 157.474987,107.959785 156.080048,112.338108 C154.617564,116.791083 152.101111,120.59041 149.298697,124.316201 C146.496284,128.041993 143.612167,131.914855 142.117002,136.523071 Z M182.494634,120.296268 C183.891756,117.738872 185.207174,115.132452 186.579785,112.583226 C188.072888,109.822461 189.709178,107.141577 191.481966,104.551531 C193.261493,102.010127 195.265833,99.6338181 197.470798,97.4512834 C199.66533,95.2954619 202.013672,93.3020303 204.497257,91.4867487 C207.03059,89.6924474 209.662863,88.0421027 212.381599,86.5435384 C218.027278,83.2753002 223.820022,80.3257152 229.653617,77.4088126 C241.647621,71.3952544 253.894903,65.7983964 266.346444,60.8225038 C262.661637,64.9895075 258.903298,69.0829758 254.908021,72.9231557 C249.800842,77.982431 244.028616,82.3227515 237.750387,85.824526 C234.351343,87.59313 230.795665,89.0428047 227.128994,90.1549416 C223.256271,91.3723604 219.318185,92.3936848 215.494484,93.7663449 C212.109651,94.9577526 208.885144,96.5632029 205.894379,98.5461432 C202.962738,100.543467 200.172733,102.741153 197.54433,105.123473 C192.200953,109.821565 187.396815,115.091599 182.494634,120.255415 L182.494634,120.296268 Z M268.40536,63.1020999 C267.601834,65.1872998 266.903752,67.3116178 266.313762,69.4669938 C265.251623,73.2663207 264.312038,77.4578362 262.906746,80.9058275 C262.857725,81.0038747 262.661637,81.4859398 262.596275,81.6411811 L262.530912,81.8127636 L262.367506,82.1804404 C262.138738,82.6788468 261.901799,83.1772531 261.64035,83.6593182 C261.158302,84.5907661 260.619062,85.481361 260.047141,86.3637853 C259.47522,87.2462096 258.903298,88.0550986 258.290526,88.8721581 L257.86567,89.4440998 L257.58788,89.803606 C257.261068,90.2121358 256.934256,90.6206656 256.591103,91.0291954 C255.278694,92.5989769 253.85911,94.0759438 252.342546,95.4494875 C250.921796,96.7544729 249.394035,97.9379153 247.775347,98.9873554 C244.431572,101.256868 240.671871,102.842441 236.712758,103.652765 C231.916791,104.625066 226.973758,104.469825 222.120599,104.960061 C219.617003,105.157799 217.138188,105.595575 214.718305,106.267356 C212.470226,106.947668 210.283691,107.816847 208.182064,108.865605 C204.03972,110.900084 200.150657,113.408456 195.926611,115.295864 C194.227188,116.055729 192.454232,116.660353 190.697617,117.256807 C189.275985,117.747043 187.78899,118.188255 186.383698,118.752026 C189.749862,115.181476 193.124197,111.602755 196.71096,108.24464 C201.792887,103.489354 207.389544,99.0445496 213.933956,96.4789826 C221.393442,93.5457388 229.359486,92.0913728 236.606544,88.5861873 C243.069714,85.3571584 249.026192,81.2006867 254.287078,76.2485881 C259.596486,71.238816 264.615761,65.9301973 269.320433,60.3486092 L269.728949,59.8828853 C269.271412,60.9042097 268.830215,61.9663871 268.40536,63.0449057 L268.40536,63.1020999 Z" id="Shape"></path>
                    </g>
                </g>
            </g>
        </g>
    </g>
</svg>