<?xml version="1.0" encoding="UTF-8"?>
<svg width="591px" height="760px" viewBox="0 0 591 760" version="1.1" xmlns="http://www.w3.org/2000/svg" xmlns:xlink="http://www.w3.org/1999/xlink">
    <title>744B729B-07C1-4DA2-802C-C6C6E7BE8B49</title>
    <g id="CMS-&amp;-Blog-&amp;-Brand-list" stroke="none" stroke-width="1" fill="none" fill-rule="evenodd" fill-opacity="0.0699573864">
        <g id="CMS---export-" transform="translate(-1184.000000, -340.000000)" fill="#497A59" fill-rule="nonzero">
            <g id="FIXED-SIDEBAR" transform="translate(1184.129510, 100.000000)">
                <g id="Leaf-01" transform="translate(0.000000, 240.000000)">
                    <path d="M589.75921,388.750257 C584.870266,380.144762 576.759706,374.197262 569.977356,367.269508 C562.639231,359.8045 556.629315,351.133026 549.140471,343.799976 C545.43154,340.119256 541.2764,336.917933 536.772102,334.27078 C532.297635,331.669338 527.521731,329.671129 522.868285,327.418431 C513.184597,322.705673 504.838539,315.740217 495.550487,310.39595 C486.289862,305.062278 476.434995,300.835807 466.188565,297.803462 C459.893057,295.931954 453.447901,294.60747 446.924808,293.844746 C450.023965,292.685408 453.113702,291.488367 456.165759,290.197072 C459.153838,288.997487 462.039553,287.556927 464.794415,285.889611 C468.072551,283.815998 471.253347,281.616711 474.336805,279.291751 C487.454924,269.503139 498.759804,257.492956 507.739877,243.804687 C512.117542,237.0158 515.740603,229.768542 518.544537,222.191981 C519.924851,218.496208 521.076264,214.718845 521.992232,210.881363 C523.000164,206.602179 523.60304,202.257017 524.347214,197.92128 C527.700709,178.401038 531.939678,159.022179 534.34176,139.332278 C535.556931,129.454339 536.367045,119.538697 536.960501,109.594778 C537.261939,104.599255 537.488017,99.6037325 537.610476,94.617635 C537.714095,90.0556857 537.469177,85.4560344 538.043793,80.9129362 C538.350805,78.6946721 538.868093,76.5106752 539.588661,74.3904798 C540.304576,72.2320368 537.318458,71.3271874 536.159807,72.9389505 C535.217814,74.2396715 534.35118,75.5780947 533.522226,76.9353688 C532.589436,78.2784993 531.776204,79.7009211 531.091884,81.1862761 C527.794909,87.3222864 525.016029,93.7504876 521.266897,99.632009 C515.727978,108.322334 509.020988,116.173788 502.888613,124.458816 C497.236655,132.084057 491.820195,139.869533 485.122625,146.608776 C481.63725,150.096216 477.727979,152.999275 474.007107,156.213376 C470.58248,159.215117 467.430195,162.514362 464.587177,166.072464 C458.6903,173.31126 453.782517,181.247544 448.620395,188.995317 C443.459279,196.737354 437.678428,204.047295 431.334823,210.853086 C418.316479,224.8217 403.800367,237.6404 393.91886,254.210455 C389.557432,261.534081 385.120645,268.84828 380.938196,276.275586 C376.318271,284.194938 372.64142,292.628554 369.982817,301.404009 C369.408202,303.383367 368.908945,305.362725 368.475628,307.37036 C362.494508,308.156646 356.585306,309.417351 350.803839,311.140566 C344.473646,313.025669 337.21088,315.532856 332.566854,320.500103 C331.657642,321.437043 330.912483,322.520394 330.362591,323.704778 C330.313922,323.807395 330.276039,323.914794 330.249552,324.025245 C329.938593,323.821227 329.555607,323.759123 329.196168,323.854431 C328.836729,323.949739 328.534741,324.193468 328.365565,324.524797 C328.035837,325.289026 327.810862,326.094343 327.69675,326.918878 C327.601669,327.338123 327.478941,327.750607 327.329373,328.153621 C327.238827,328.417528 327.125354,328.672993 326.990256,328.917087 C326.154975,330.459327 325.129615,331.890615 323.938198,333.17742 C322.826647,334.431014 321.630315,335.63748 320.471664,336.862797 C320.174998,334.268725 320.024042,331.660041 320.019507,329.049045 C320.094867,325.203435 320.9615,321.414377 321.630315,317.634746 C322.233191,314.081327 322.770127,310.499631 323.033885,306.899084 C323.297643,303.298538 323.033885,299.716842 323.269383,296.125721 C323.774774,289.455612 325.207861,282.888691 327.527192,276.614905 C332.086438,263.419184 338.831108,251.166014 343.776571,238.158803 C348.985793,224.454104 351.566854,209.448685 352.716085,194.867413 C353.867767,179.543328 352.165296,164.138492 347.695262,149.43643 C338.840528,119.491569 321.960013,92.751383 306.313509,66.0017714 C302.790455,59.9977183 299.182622,54.0313673 295.951586,47.857655 C293.314005,42.7867279 290.817724,37.6309712 288.170723,32.5600441 C282.933242,22.5501472 276.866807,11.8710386 267.927293,4.70764721 C265.846091,3.01564907 263.60629,1.52892827 261.239143,0.268229639 C260.583477,-0.095399961 259.785384,-0.0889225209 259.1357,0.285301495 C258.486015,0.659525512 258.079626,1.34684038 258.064626,2.09677955 C257.829128,12.7476115 263.104289,22.5218706 264.658577,32.9087882 C266.354165,44.1157255 265.817229,55.5300242 266.203446,66.8406422 C266.9382,88.5853054 272.006123,110.07548 279.542067,130.444018 C283.310039,140.689552 288.020004,150.595769 291.28872,161.039239 C293.033477,166.342609 294.090865,171.848086 294.434977,177.420784 C294.717575,183.010115 294.369037,188.599445 294.274838,194.188776 C294.067599,205.631351 295.216831,217.139905 295.998685,228.544778 C296.375482,234.030428 296.460262,239.544354 297.336315,244.992302 C298.230856,250.335034 299.467412,255.614763 301.038348,260.79889 C304.486042,272.382848 308.87573,283.66519 311.956047,295.352828 C315.20072,307.133581 315.926137,319.466552 314.084951,331.546806 C314.027102,331.866095 314.069897,332.195481 314.20741,332.489358 C314.094371,334.374461 314.141471,336.344393 314.075531,338.248347 C313.993892,340.830938 313.865153,343.41353 313.689314,345.996121 C313.312934,351.051341 312.684154,356.084567 311.805328,361.076945 C310.985794,365.921659 309.685844,370.662693 308.772111,375.488557 L307.924317,379.984528 C306.48553,384.467125 305.340152,389.038757 304.495462,393.670376 C304.278804,394.961671 304.099825,396.252967 303.949106,397.553688 C303.383911,399.514195 302.752775,401.455851 302.06512,403.35038 C301.791942,403.868783 301.528184,404.387186 301.283266,404.924441 C301.184305,405.145028 301.123773,405.380924 301.104287,405.621929 C292.77191,409.054422 285.102082,413.915497 278.439935,419.986414 C277.893579,420.485966 277.347223,421.004369 276.810287,421.513347 L275.868294,420.844135 C275.842629,420.788306 275.80758,420.737297 275.764675,420.693327 C261.63478,404.038442 262.501413,380.56891 263.00067,360.011861 C263.283267,348.427904 263.631805,336.777967 262.058677,325.250562 C260.494968,313.515796 256.830615,302.176901 250.359123,292.195281 C247.146927,287.23746 243.435474,282.618958 239.771122,277.981604 C236.106769,273.344251 232.338797,268.735174 229.512818,263.560566 C224.049258,253.541244 221.976873,242.060966 216.324915,232.117048 C211.332352,223.323043 204.314504,215.782631 196.656101,209.241323 C188.843516,202.631579 180.382075,196.83043 171.401268,191.926652 C161.67048,186.544683 151.233197,182.501137 141.690808,176.845828 C136.874533,174.012959 132.420706,170.604141 128.427546,166.694548 C124.603054,162.867789 121.11768,158.711137 117.321448,154.856102 C115.735073,153.218214 114.0077,151.723215 112.159327,150.388407 C111.369219,149.943982 110.382531,150.062149 109.719565,150.680598 C109.089307,151.362438 108.960694,152.369245 109.399287,153.187785 C113.694775,162.811236 114.759227,173.810812 115.183124,184.235432 C115.616441,194.989944 115.183124,205.744457 115.070085,216.508395 C114.928786,226.782207 115.578761,237.103146 120.222787,246.472108 C122.653964,251.136886 125.836553,255.369054 129.642717,258.998617 C132.967953,262.316398 136.556946,265.379691 139.524224,269.027365 C143.019018,273.287698 144.959524,278.396327 146.909449,283.495531 C149.066613,289.15084 151.110738,294.806149 153.305582,300.461458 C155.330867,305.636065 157.403252,310.782397 160.445889,315.457452 C163.135723,319.487659 166.228866,323.233213 169.677421,326.636113 C173.275834,330.274362 177.119166,333.667547 180.840038,337.183264 C184.947128,341.057151 188.912918,345.053569 192.850449,349.097115 C200.734931,357.184207 208.713612,365.243022 217.125609,372.764583 C225.697746,380.427527 235.023477,387.204472 243.501414,394.961671 C247.721543,398.807281 251.668493,402.945082 255.954562,406.715288 C259.910932,410.212154 264.093381,413.454532 267.936713,417.083355 C268.520749,417.630035 269.104784,418.195566 269.66998,418.770522 C270.790952,420.325732 271.959023,421.833815 273.202454,423.304195 C273.49788,423.68607 273.953836,423.908959 274.436465,423.907428 C265.819042,432.971324 259.175991,443.726546 254.927789,455.492329 C252.444131,462.296363 250.774594,469.370788 249.954066,476.56778 C245.41366,472.043533 242.173204,466.454203 238.829129,461.034531 C236.989692,457.961061 234.983381,454.990716 232.819213,452.136845 C230.454811,449.082978 227.82665,446.217622 225.19849,443.389967 C214.396206,431.912699 202.607403,421.406875 189.96795,411.993577 C177.90102,402.888529 165.315993,394.518672 151.600575,388.109322 C144.71568,384.886254 137.599479,382.183015 130.311532,380.02223 C124.188578,378.221957 117.924324,376.99664 111.73543,375.469706 C108.96597,374.800495 106.224771,374.046453 103.511831,373.16988 C100.911136,372.355053 98.3889864,371.307741 95.9758865,370.040609 C91.0353096,367.551345 86.8956573,363.71957 84.0314149,358.98448 C83.2484143,357.695551 82.5620172,356.350297 81.9778701,354.959785 C81.7723801,354.236545 81.1570035,353.704656 80.4119988,353.606356 C79.6669941,353.508055 78.9348546,353.862144 78.5490155,354.507361 C76.5425704,357.15593 76.862848,360.916711 77.409204,363.989429 C78.0826906,367.264008 79.0279601,370.476677 80.235183,373.594029 C83.34376,382.171247 85.642223,391.021806 88.8073195,399.570748 C92.0666154,408.355328 96.6918012,416.367016 101.345247,424.454108 C103.521251,428.224314 105.621895,432.041647 107.421102,436.02864 C107.986298,437.272808 108.542073,438.526402 109.097849,439.798846 C107.62834,438.036275 106.139991,436.30198 104.529183,434.680791 C101.975921,431.935172 98.6417708,430.040094 94.9773739,429.251695 C89.8906115,428.130059 84.6813901,428.507079 79.5192683,428.620185 C68.1399926,428.874674 56.9114357,426.527721 45.6075195,425.604021 C37.8683623,425.038489 30.0982888,425.038489 22.3591316,425.604021 C15.1152053,426.065871 6.02497259,426.669104 0.438953953,431.947392 C0.0584258599,432.34546 -0.0880126174,432.912796 0.0522800836,433.445455 C0.192572785,433.978114 0.599435215,434.399548 1.12660886,434.55826 L1.38094698,434.633664 C1.49241396,434.927116 1.7307596,435.154231 2.02912988,435.251304 C2.32750016,435.348378 2.65375979,435.304955 2.91639561,435.133216 C7.11768449,436.38681 11.4696923,436.952341 15.7463406,437.960871 C18.2002463,438.479294 20.5887981,439.269627 22.8678079,440.317249 C25.3721745,441.61764 27.7445495,443.158073 29.9515954,444.916901 C38.6838707,451.514761 46.8038506,458.932642 55.9223431,464.993248 C65.3525505,471.108016 75.1558679,476.626439 85.2748457,481.516176 C95.4442521,486.570699 105.86708,491.097801 116.501914,495.079492 C121.673456,497.021148 126.939197,498.680038 132.138999,500.555716 C136.294415,502.096485 140.255667,504.117827 143.942171,506.57862 C151.478115,511.536441 158.156846,517.776132 164.976875,523.714206 C171.975884,529.812515 179.21039,535.401845 187.509349,539.643327 C197.616934,544.808509 207.63032,550.162202 217.879204,555.044618 C227.960632,559.983521 238.410563,564.130677 249.134532,567.448596 C252.962923,568.445826 256.906557,568.930753 260.862345,568.8907 C264.206421,568.994381 267.851934,569.116912 270.781532,570.936037 C271.183442,571.190746 271.56175,571.480954 271.911924,571.803184 C272.539919,572.594927 273.167914,573.405522 273.79591,574.234967 C273.978028,574.549151 274.147587,574.863335 274.304586,575.177518 C274.425093,575.443216 274.655657,575.642927 274.935721,575.724198 C276.066113,577.232281 277.215344,578.759214 278.402256,580.220169 C280.719558,583.047823 283.366559,585.620989 285.702701,588.467495 C288.252129,591.517762 290.516144,594.795904 292.466211,598.260605 C294.589393,601.851408 295.85924,605.882499 296.177664,610.042498 C296.180345,610.200066 296.20899,610.356112 296.262443,610.504349 C295.89339,612.428008 295.651089,614.373858 295.537109,616.329317 C295.28277,620.86299 296.479102,625.104471 297.939191,629.336528 C298.684425,631.446298 299.313366,633.595406 299.823177,635.774154 C300.096355,636.999471 300.322433,638.224788 300.520252,639.468956 C300.605031,640.025062 300.68981,640.581167 300.76517,641.137273 C300.76517,641.231528 300.821689,641.589697 300.831109,641.64625 C300.831109,641.994994 300.915889,642.334313 300.953568,642.673631 C301.537604,647.716282 302.07454,652.796635 302.253519,657.867562 C302.310038,659.583005 302.319458,661.298449 302.319458,663.004467 C302.0557,666.774673 301.810782,670.629709 301.857882,674.447043 C301.857882,674.673255 301.857882,674.899467 301.857882,675.12568 C301.852427,675.094498 301.852427,675.062606 301.857882,675.031425 C300.742343,671.281961 299.159937,667.687769 297.147917,664.333465 C296.808799,663.767934 296.441422,663.221254 296.074045,662.674574 C294.793637,660.414121 293.271208,658.299787 291.533638,656.368905 C288.377311,652.963149 284.869214,649.901617 281.068096,647.235581 C273.206962,641.292762 264.819785,636.080796 256.011081,631.66463 C247.045312,627.295616 237.543761,624.126555 227.751291,622.239115 C222.34262,621.135494 216.833319,620.601612 211.313512,620.646203 C205.911,620.774176 200.528875,621.35748 195.224271,622.389923 C184.768149,624.359856 174.669984,627.771892 164.477619,630.731504 C159.147228,632.428282 153.700751,633.735581 148.18114,634.643093 C142.397303,635.42541 136.538106,635.481964 130.726009,635.86841 C124.979543,636.111597 119.284806,637.061283 113.770135,638.696064 C108.600019,640.4535 103.625043,642.740313 98.9243246,645.520137 C94.1672599,648.215834 89.5891738,651.175446 84.8886286,654.003101 C81.4409341,656.057863 77.9649798,658.056072 74.5267053,660.139111 C66.9178898,664.613418 59.7015438,669.724611 52.955065,675.417871 C46.6719716,680.884669 40.7091557,687.350573 37.3839204,695.060644 C36.6111156,696.842616 35.9811352,698.683249 35.4999343,700.565145 C35.3203976,701.317757 35.6551909,702.099138 36.3237767,702.48793 C36.9923626,702.876722 37.8366159,702.780971 38.4012728,702.252312 C44.2793093,697.124832 51.8529332,697.973128 59.1251194,697.869447 C63.4582873,697.812894 67.7726153,697.54898 72.1057832,697.671512 C76.5219749,697.769101 80.9271902,698.153212 85.2936856,698.821424 C89.7869923,699.518913 94.1390001,700.706527 98.5569473,701.649079 C103.061377,702.69563 107.630874,703.438771 112.234686,703.873501 C121.092703,704.664032 130.017087,704.242283 138.76121,702.619907 C147.766663,700.989293 156.395319,697.812894 165.400772,696.125727 C169.924457,695.239667 174.516869,694.750822 179.125611,694.664772 C183.647177,694.664772 188.149904,694.966389 192.67147,694.872134 C201.742863,694.674198 210.493978,691.808841 218.962496,688.736123 C227.431013,685.663405 235.833591,682.015731 244.273848,678.650822 C247.872262,677.208719 251.574294,675.983402 255.050248,674.249107 C258.260614,672.569298 261.382717,670.725756 264.404239,668.725755 C270.395315,664.898996 276.49001,660.591536 283.347719,658.489646 C284.608168,658.09775 285.900495,657.817054 287.20989,657.650775 C288.067104,658.94207 289.093876,660.12026 289.98877,661.298449 C291.021928,662.718138 291.965746,664.200812 292.814749,665.737867 C293.210386,666.454206 293.596603,667.179971 293.96398,667.905735 C294.161799,668.311032 294.350197,668.706904 294.529176,669.112201 L294.755254,669.611753 L294.953073,670.064178 C295.588169,671.566371 296.141613,673.10183 296.610981,674.663829 C297.081977,676.247316 297.468194,677.859079 297.797892,679.480268 C297.958031,680.25316 298.09933,681.026052 298.221789,681.817795 C298.278308,682.166539 298.325408,682.534134 298.381928,682.882879 C298.384855,682.917377 298.384855,682.952061 298.381928,682.986559 C298.377803,683.014685 298.377803,683.043263 298.381928,683.071389 C298.381928,683.354154 298.447867,683.63692 298.485547,683.929111 C298.860569,687.277893 299.052393,690.644681 299.060163,694.014412 C299.060163,707.926472 296.808799,721.753703 297.439935,735.665763 C297.676216,743.653231 299.358197,751.531616 302.404238,758.918508 C302.991369,759.873347 304.186892,760.256797 305.219386,759.821434 C306.25188,759.38607 306.812536,758.262105 306.539587,757.174788 C306.539587,757.089958 306.483068,757.014554 306.445388,756.929725 C306.445388,751.962478 306.944644,747.004657 307.293182,742.056262 C307.641719,737.107866 308.046776,731.914408 307.999676,726.834055 C307.999676,722.394638 307.651139,717.559348 308.480093,713.430973 C308.998439,710.877353 309.930762,708.425768 311.240132,706.173326 C315.56388,705.13652 319.350692,702.582205 323.071565,700.263528 C327.263434,697.652661 331.549502,695.484792 336.542065,695.333984 C343.201956,695.145474 349.852426,695.663877 356.512317,695.437665 C363.332347,695.211452 370.105276,694.014412 376.849946,693.053009 C383.594617,692.091607 390.188568,691.167906 396.895558,690.621226 C402.445702,690.306173 408.00723,690.992597 413.314496,692.647712 C423.968438,695.739281 433.944144,701.017569 445.125601,702.176908 C447.941185,702.485382 450.779244,702.532711 453.603538,702.318291 C454.903488,702.21461 456.184599,702.073227 457.475129,701.912993 L459.283756,701.696207 L460.583706,701.517122 L460.932244,701.517122 L461.026443,701.517122 C463.271808,701.193796 465.542969,701.086483 467.808793,701.196654 C468.063131,701.196654 468.317469,701.253207 468.581227,701.262633 L468.581227,701.262633 L468.863825,701.30976 C469.466701,701.413441 470.060156,701.535973 470.653612,701.696207 C471.247067,701.85644 471.727484,702.007249 472.255,702.186333 L473.196993,702.535077 L473.357132,702.601056 L473.781029,702.789566 C475.109904,703.419164 476.396825,704.133844 477.63378,704.929158 C478.385005,705.360962 479.30874,705.361761 480.060708,704.931255 C480.812677,704.50075 481.280079,703.70352 481.288713,702.836694 C481.288713,702.469099 481.232193,702.120355 481.185094,701.762185 C481.137994,701.404016 481.119154,701.272058 481.081475,701.03642 C481.081475,701.03642 480.968435,700.272954 480.968435,700.178699 C480.817717,699.452934 480.610478,698.717744 480.39382,698.001405 C479.932243,696.417918 479.451827,694.825006 478.867791,693.288647 C477.552313,689.808119 475.935353,686.449283 474.035367,683.250474 C470.067935,676.51507 465.238661,670.326764 459.669973,664.842443 C457.30353,662.463466 454.727765,660.302578 451.97389,658.385965 C448.658367,656.215983 445.117831,654.411483 441.414148,653.003996 C432.963955,649.594087 423.933138,647.855992 414.821685,647.885941 C405.738547,647.882698 396.777083,649.976021 388.634279,654.003101 C379.346228,658.640454 370.642212,664.371167 361.665019,669.545775 C357.44496,671.931693 353.033768,673.962045 348.477117,675.615806 C343.720052,677.397229 338.915887,679.037268 334.290702,681.158009 C326.508771,684.685315 319.415191,689.568234 313.340777,695.579047 C310.354316,698.52542 307.866406,701.937979 305.974391,705.683199 C305.024251,707.633609 304.309586,709.690281 303.845487,711.809784 C303.845487,710.81068 303.845487,709.821 303.930266,708.821896 C303.930266,708.426024 303.930266,708.030153 303.986786,707.643707 C304.052726,706.701155 304.109245,705.758604 304.165765,704.816052 C304.467202,701.045846 304.928779,697.27564 305.362096,693.505434 C305.974391,688.340252 306.549007,683.137367 306.991744,677.981611 C307.434481,672.825854 307.745338,667.613544 307.754758,662.382383 C307.764178,657.151223 307.330861,652.089721 306.812765,646.952815 C306.45478,642.590904 305.787424,638.259966 304.81574,633.992732 C304.551982,632.67316 304.297644,631.353588 304.033886,630.034016 C303.308551,626.348639 302.602056,622.625561 302.234679,618.977887 C302.038043,616.998366 301.940582,615.010235 301.942661,613.020961 C301.942661,611.135858 302.09338,609.250755 302.14048,607.365652 C302.357138,606.837823 302.583216,606.328846 302.818715,605.819868 C304.702701,601.719769 307.236662,597.902435 308.319954,593.444167 C309.403246,588.985898 309.196007,584.018651 309.017029,579.305894 C308.82863,574.234967 307.660559,569.295997 307.198982,564.22507 C306.737406,559.154143 306.492487,554.365981 307.764178,549.568394 C309.035869,544.770807 311.937207,540.633006 313.896553,536.061631 C317.890603,526.71152 317.089909,516.26805 317.165268,506.286429 C317.250048,496.172851 316.552973,485.974444 317.711624,475.898569 C318.353697,470.682614 319.473088,465.536671 321.0557,460.525554 C322.431009,456.076711 323.6556,451.590165 324.936711,447.122471 C325.671465,444.568157 326.43448,442.023268 327.254014,439.49723 L327.376473,439.544357 C344.558426,444.549306 362.503393,445.765197 380.278801,444.134583 C397.589251,442.450487 414.613814,438.560833 430.939186,432.560051 C437.343788,430.159639 443.450524,427.028555 449.138491,423.228791 C454.857003,419.254712 460.125594,414.668826 464.850935,409.552368 C469.769336,404.098994 474.367693,398.364949 478.622873,392.37908 C482.786482,386.780324 487.279789,381.181568 492.960007,377.034342 C493.902,376.355705 494.843993,375.71477 495.861345,375.149239 C500.495951,376.685598 505.111717,378.306786 509.755742,379.861996 C515.228722,381.671695 520.748801,383.980946 526.607997,384.028074 C540.737893,384.14118 554.528671,375.54511 568.536107,380.465229 C575.393816,382.887586 581.187073,387.572067 587.517266,391.031231 C588.168908,391.413789 588.997046,391.304135 589.52681,390.765147 C590.056575,390.22616 590.152347,389.395819 589.75921,388.750257 L589.75921,388.750257 Z M253.053223,399.06177 C248.908454,395.018224 244.660065,391.078359 240.279798,387.298727 C235.89953,383.519096 231.170725,379.890273 226.639739,376.157769 C217.926303,368.994377 210.192541,360.831881 202.618917,352.509152 C195.045293,344.186422 187.499929,336.268989 179.427048,328.606045 C172.352681,321.876228 165.560911,314.995602 161.265423,306.097916 C158.674942,300.744223 156.489518,295.183169 154.256995,289.688094 C152.024471,284.193019 149.857887,278.311497 147.144948,272.901252 C142.661061,263.975289 134.145444,258.574469 128.031909,250.949227 C121.598097,242.928114 119.431513,232.663728 119.214854,222.587852 C118.979356,211.965297 119.610491,201.333316 119.393833,190.701335 C119.177175,180.474651 118.301121,170.078308 115.72948,160.153241 C118.922837,166.147869 119.996709,173.348962 122.040833,179.748887 C123.670481,184.838665 126.345742,189.400614 128.832603,194.103946 C131.715102,199.564461 134.566201,205.037543 137.3859,210.523193 C143.122637,221.664152 148.689816,232.861664 154.341774,244.040325 C159.268398,253.73918 164.185601,263.372056 168.330371,273.42908 C175.866315,291.667452 182.563885,311.074587 196.203944,325.806667 C199.774098,329.661703 203.739888,333.196271 207.507861,336.796818 C211.275833,340.397365 215.439442,344.2524 219.367553,348.022606 C227.371391,355.46016 234.80284,363.491513 241.598588,372.048244 C244.729916,376.077895 247.563408,380.330654 250.076525,384.772689 C252.309049,388.750257 254.277814,392.869207 256.303099,396.941029 C257.951587,400.277662 259.666014,403.642571 261.56884,406.884948 C258.676922,404.340059 255.822683,401.757468 253.053223,399.06177 Z M260.777566,400.456746 C256.529177,392.077464 252.845985,383.490819 247.589664,375.62994 C235.569833,357.570653 218.990755,343.356976 203.447871,328.426961 C199.786581,325.01383 196.421037,321.296294 193.387385,317.314278 C190.484821,313.344116 187.865857,309.173966 185.550003,304.834897 C180.840038,296.097444 177.138005,286.869865 173.388873,277.698839 C169.489022,268.131941 165.278313,258.847809 160.530668,249.648506 C154.765671,238.532682 148.981834,227.429425 143.179157,216.338736 C140.328058,210.85937 137.458119,205.395713 134.569341,199.947765 C131.743362,194.594073 128.578265,189.315784 126.091403,183.811284 C123.218325,177.562167 122.257492,170.615563 119.996709,164.159085 C123.651642,168.344014 127.325414,172.519517 131.762201,175.940979 C141.012573,183.057242 151.704194,187.68517 162.141476,192.727821 C180.039344,201.371018 198.040831,212.521402 209.617925,229.072607 C212.598159,233.342503 215.052524,237.95666 216.927791,242.815008 C218.990755,248.140424 220.554464,253.644924 222.692788,258.951489 C224.896912,264.412756 227.800554,269.564471 231.330864,274.277377 C234.825658,278.990134 238.58421,283.523807 242.097844,288.255416 C245.682841,292.964505 248.773207,298.030783 251.319956,303.373942 C253.759289,308.7223 255.555366,314.341535 256.670476,320.113656 C258.92184,331.424274 258.808801,343.008232 258.620402,354.479084 C258.432003,365.949936 258.045786,377.345384 259.308057,388.703129 C259.795728,393.465528 260.706788,398.174937 262.030417,402.775423 C261.56884,402.002531 261.173203,401.239064 260.777566,400.456746 Z M51.9565524,682.147688 C58.2698189,676.534305 65.0981011,671.529189 72.3507014,667.198822 C79.6888271,662.636872 87.2436111,658.433093 94.6099966,653.927696 C103.728489,648.347792 112.98828,643.126056 123.689321,641.429463 C129.22824,640.552891 134.861358,640.420933 140.447377,640.025062 C146.056886,639.693973 151.62317,638.838813 157.073554,637.470747 C167.237659,634.831603 177.138005,631.325311 187.27385,628.601338 C197.409695,625.877364 207.56438,624.190197 217.973403,624.972514 C227.976692,625.876613 237.788138,628.275329 247.080987,632.088778 C255.856619,635.730036 264.234282,640.265626 272.081482,645.623818 C273.824169,646.773731 275.623376,647.95192 277.413163,649.14896 C276.169732,648.658834 274.916881,648.206409 273.645191,647.744559 C267.691795,645.66152 261.58768,643.861246 255.257487,643.465375 C244.970923,642.82444 234.731459,645.105414 224.623874,646.688901 C213.998192,648.366643 203.193532,648.574004 192.445392,648.68711 C171.608506,648.913322 150.724521,648.347792 130.179653,652.457316 C120.729979,654.34192 111.477042,657.106194 102.541578,660.714067 C98.1895701,662.476639 93.9129217,664.418295 89.7493126,666.586163 C85.8117817,668.640925 82.1003292,671.044432 78.219318,673.184024 C72.2094025,676.520656 65.6719709,678.839333 59.4359771,681.666987 C53.6803997,684.315557 47.557445,687.322296 43.1771775,692.091607 C45.6980302,688.439435 48.645313,685.101209 51.9565524,682.147688 L51.9565524,682.147688 Z M268.549008,662.090192 C262.454314,665.766143 256.529177,670.158433 249.831607,672.684471 C241.29715,675.917423 232.875733,679.489693 224.397795,682.8169 C220.149407,684.485216 215.853919,686.068703 211.511331,687.463679 C207.21877,688.960027 202.806946,690.088862 198.323429,690.838013 C193.73102,691.332687 189.104956,691.436741 184.494971,691.149055 C179.882177,690.953784 175.261165,691.127135 170.675933,691.667459 C166.152766,692.2585 161.667638,693.111368 157.243113,694.221773 C152.730966,695.343409 148.313019,696.794939 143.791452,697.888298 C134.960596,700.061412 125.873672,701.012822 116.784512,700.715953 C112.198135,700.521484 107.63257,699.985894 103.125614,699.113615 C98.5381075,698.246468 94.0542207,696.926896 89.4572947,696.069174 C80.6663786,694.500914 71.7287629,693.912938 62.8083121,694.316028 C56.2143609,694.570517 49.1023136,693.684519 42.7344407,695.824111 C45.9937366,691.111353 51.344257,688.057486 56.3462399,685.550299 C62.6010736,682.430454 69.1761849,680.055224 75.5252179,677.152165 C78.6432148,675.728913 81.5257135,673.966341 84.5024114,672.269749 C88.6283409,669.919654 92.8610295,667.780062 97.2004774,665.850973 C105.852339,662.051013 114.840408,659.068991 124.047279,656.943861 C133.221901,654.812487 142.552307,653.419346 151.949112,652.777784 C162.471174,652.023742 173.049756,652.07087 183.600078,652.052019 C194.385898,652.052019 205.171718,651.995466 215.929278,651.109467 C225.952084,650.261171 235.645192,647.339261 245.630318,646.283604 C250.225866,645.705279 254.876689,645.721118 259.468196,646.330731 C262.038604,646.775837 264.580212,647.373846 267.079499,648.121579 C272.891596,649.771044 279.20295,651.684424 284.242612,655.143588 C278.647174,656.236948 273.419112,659.158857 268.549008,662.090192 Z M383.14246,661.439832 C387.161612,659.040214 391.359634,656.954139 395.699227,655.200141 C399.646776,653.722418 403.7587,652.728642 407.945136,652.240529 C420.884544,650.872788 433.941453,653.316677 445.511818,659.271963 C446.967071,660.002125 448.376404,660.820526 449.731947,661.722597 C450.297143,662.109043 450.852918,662.514341 451.399274,662.919638 L451.502894,663.004467 L451.597093,663.070446 L451.907951,663.324935 L453.000663,664.267486 C458.453778,668.947417 463.256592,674.336351 467.281277,680.290862 C469.393857,683.338963 471.282795,686.53631 472.933235,689.85776 C473.56437,691.130204 474.167246,692.430925 474.694762,693.778774 C471.6012,690.250476 468.314902,686.89615 464.850935,683.731175 C460.528647,679.720912 455.744125,676.240348 450.59858,673.363108 C439.906959,667.632395 427.755249,666.906631 415.904977,666.011207 C403.885146,665.068655 391.912415,664.333465 379.920844,666.011207 C377.72914,666.32539 375.553136,666.711837 373.392832,667.170545 C376.605028,665.228889 379.854904,663.296658 383.14246,661.439832 Z M342.090404,684.164749 C346.112714,681.798944 350.219804,679.527395 354.439932,677.566888 C355.278306,677.218144 356.11668,676.859974 356.955054,676.482954 C357.567349,676.200188 358.179645,675.917423 358.83904,675.615806 C364.321558,673.324637 370.034709,671.630848 375.879694,670.56373 C387.334329,668.471266 399.118662,668.829436 410.686336,669.72486 C416.583212,670.18671 422.498928,670.488326 428.386385,671.044432 C434.073384,671.470785 439.681079,672.633543 445.069081,674.503596 C455.798382,678.462312 464.502397,686.888722 471.991242,695.239729 C472.537598,695.852387 473.065114,696.483897 473.60205,697.124832 C470.903969,696.149538 468.048627,695.682953 465.180632,695.748707 C462.686368,695.850782 460.200931,696.108917 457.738887,696.521599 L455.902001,696.794939 L455.082467,696.91747 L454.941168,696.91747 L454.72451,696.91747 L454.432492,696.91747 L454.281773,696.91747 C452.887623,697.08713 451.455794,697.219087 450.080484,697.332193 C444.532145,697.794043 439.435963,696.794939 434.066603,695.315133 C428.697242,693.835327 423.450341,691.846543 418.052721,690.300759 C412.668082,688.580351 407.088464,687.544834 401.445384,687.218615 C398.342941,687.206055 395.243136,687.401285 392.166753,687.802997 C388.766158,688.151741 385.374983,688.566464 381.993228,689.000038 C375.210879,689.867185 368.428529,690.988821 361.617919,691.582629 C354.80731,692.176436 348.081479,691.648608 341.30855,691.582629 C338.199063,691.411655 335.080223,691.591877 332.011079,692.119883 C330.390247,692.490682 328.811921,693.027631 327.301113,693.722221 C332.029918,690.366737 337.013061,687.199764 342.090404,684.164749 Z M531.779539,87.1243506 C532.401255,85.8801826 533.05123,84.6454401 533.710625,83.4295487 C533.607006,84.5229084 533.531646,85.6162682 533.484546,86.7190534 C533.249048,91.4977895 533.201949,96.2953767 532.94761,101.083538 C532.429514,110.970904 531.515781,120.820567 530.526688,130.679655 C528.586183,149.926557 524.686332,168.862417 521.163278,187.873681 C519.55247,196.564005 518.516277,205.452266 516.038836,213.963506 C513.826343,221.435646 510.760326,228.627664 506.901503,235.397127 C499.008645,249.193843 488.736145,261.482838 476.559908,271.694786 C471.086929,276.332139 465.255992,280.988344 458.79392,284.249572 C452.652125,287.369417 446.124113,289.490158 439.80334,292.157579 C438.927287,292.525174 437.975874,292.958748 437.08098,293.335768 L434.744838,293.392321 C423.827139,293.863597 414.020991,298.717737 403.659068,301.875285 L402.867794,302.101497 C406.334204,299.270317 409.435188,296.018685 412.099325,292.421493 C416.809291,286.31376 420.784501,279.668771 424.844491,273.108613 C429.610976,265.407967 434.810777,257.96181 439.81276,250.411973 C445.568338,241.702797 451.314495,232.97477 457.37151,224.472955 C462.977135,216.345743 469.08037,208.57367 475.646175,201.201359 C481.68435,194.603498 488.155842,188.467488 494.278797,181.963883 C500.401751,175.460277 506.138489,168.768162 510.452817,161.020388 C512.717781,156.875286 514.307728,152.395341 515.162782,147.749263 C516.052717,142.687468 517.25448,137.685551 518.761196,132.77212 C520.343744,127.993384 522.27483,123.346605 524.205915,118.718677 C525.863978,114.811316 527.126283,110.74744 527.973887,106.588039 C529.273838,100.19754 529.848453,93.4300201 531.779539,87.1243506 Z M381.154855,283.175063 C385.243104,275.691204 390.028429,268.603217 394.502896,261.34557 C396.942658,257.396279 399.212861,253.399861 401.935221,249.62023 C404.657581,245.840598 407.643698,242.230626 410.733436,238.724334 C416.969429,231.655198 423.714099,225.076188 430.251531,218.299243 C436.916503,211.572466 443.063281,204.350761 448.639235,196.695963 C454.008595,189.155551 458.77508,181.172139 464.229219,173.678855 C466.851985,170.021949 469.73239,166.557115 472.848456,163.310788 C476.164271,159.908178 479.979343,157.155927 483.511817,154.017231 C490.642704,147.664434 496.417121,140.048617 501.92778,132.338546 C504.753759,128.37983 507.523219,124.402262 510.405717,120.509525 C513.570814,116.268043 516.85837,112.139667 519.938687,107.832207 C522.470905,104.295037 524.789215,100.609351 526.881175,96.794929 L526.513798,98.9345209 C525.916663,103.063331 525.083199,107.154448 524.017517,111.18769 C522.755246,115.617682 520.720541,119.802611 519.006114,124.072369 C517.091199,128.716336 515.480132,133.479988 514.183109,138.333174 C512.958519,143.11191 512.374483,148.041454 510.933233,152.754212 C509.491578,156.962218 507.444789,160.937566 504.857378,164.554956 C502.416045,168.1378 499.75119,171.562926 496.878698,174.809917 C490.934722,181.605713 484.41613,187.864255 478.151876,194.358435 C471.7288,201.094752 465.750235,208.241799 460.254009,215.754354 C448.102299,232.145325 437.372998,249.573102 426.34226,266.708688 C422.367049,272.844699 418.806316,279.2729 414.802845,285.371208 C410.799375,291.469516 406.08941,297.841164 399.919356,302.026093 C399.162197,302.537221 398.379312,303.009118 397.573793,303.43992 C389.039336,305.325023 380.278801,305.956533 371.603045,306.974488 C373.818039,298.676571 377.025132,290.676237 381.154855,283.146786 L381.154855,283.175063 Z M280.55942,28.9877739 C286.211378,39.110777 290.921343,49.723907 296.74286,59.7620805 C304.712121,73.5798855 312.813261,87.2940098 320.726002,101.149517 C328.261946,114.345238 335.524712,127.625789 340.724514,141.961997 C345.924315,156.298205 349.202451,171.181094 348.919853,186.516406 C348.72888,194.307249 347.960618,202.073187 346.62139,209.750301 C345.511574,217.005946 343.880846,224.172174 341.741866,231.193348 C337.568837,244.115729 331.012566,256.076707 325.991743,268.650344 C324.232877,272.974786 322.732462,277.400014 321.498436,281.902618 C321.498436,281.657555 321.498436,281.393641 321.498436,281.139152 C321.178159,269.913363 322.32739,258.744128 322.32739,247.51834 C322.320906,236.300165 320.883749,225.128673 318.050742,214.274548 C315.224763,203.359802 311.682869,192.652417 308.988769,181.709394 C303.48753,159.342647 301.726003,136.372667 298.560906,113.628899 C295.508999,92.2226032 290.630489,71.1171605 283.978854,50.5439268 C281.378953,42.4097073 278.656594,34.2754878 275.623376,26.2920766 C273.824169,21.5793191 271.855404,16.3952858 268.963485,11.9935703 C273.541571,17.0550719 277.234184,23.059125 280.55942,28.9877739 Z M307.594619,269.771981 C304.241124,259.403914 301.481085,248.781359 301.057188,237.810059 C300.595611,226.339207 299.738397,214.896632 299.257981,203.435206 C298.777565,191.97378 300.331853,180.408673 298.250049,169.098055 C296.271863,158.371819 291.656097,148.192262 287.530168,138.144663 C279.372508,118.162572 273.108255,96.9928648 271.148909,75.4272864 C270.009098,62.8442239 270.800372,50.1574807 269.368542,37.5744181 C268.698916,31.5487479 267.436813,25.603876 265.60057,19.8261733 C264.332831,16.1340016 263.33792,12.3536191 262.623872,8.51555528 C264.166223,9.92686903 265.498548,11.5519994 266.580243,13.341419 C268.591361,16.6010388 270.309388,20.0328216 271.714105,23.5963793 C274.728483,30.9200045 277.215344,38.5169696 279.721046,46.0291051 C286.537734,66.2253204 291.676488,86.9501486 295.084952,107.992441 C298.598586,130.236656 300.181134,152.725935 304.78748,174.809917 C309.337306,196.677112 318.597098,217.573478 319.67097,240.091034 C320.207906,251.17544 319.171714,262.193867 319.077514,273.268847 C319.030415,279.254049 319.388372,285.239251 319.68039,291.224453 C319.068094,296.879762 319.350692,302.535071 318.804336,308.256358 C318.710137,309.246038 318.587678,310.226291 318.436959,311.21597 C318.220805,307.640075 317.770825,304.082184 317.089909,300.565138 C315.008104,290.036838 310.891595,279.998664 307.594619,269.771981 Z M312.88862,378.580126 L313.425556,376.412258 C314.970425,371.6995 316.571813,367.071572 317.918863,362.377666 C319.887628,355.487614 321.244098,348.682392 320.857881,341.547278 C321.507856,340.812087 322.233191,340.076897 322.920846,339.388835 C324.333835,337.984433 325.746825,336.56118 327.103295,335.109651 C328.436408,333.708058 329.559619,332.120662 330.43795,330.396893 C330.757794,329.731689 331.022443,329.041302 331.229224,328.332705 L331.530662,328.502365 C331.888619,328.709726 332.237157,328.945364 332.576274,329.181002 C333.424068,329.774809 334.253022,330.396893 335.081976,331.018977 C336.851166,332.412545 338.742882,333.642889 340.733934,334.694928 C343.16862,335.811775 345.688625,336.732122 348.269878,337.447179 C350.153864,338.03156 352.03785,338.559389 353.921836,339.030665 C353.675105,339.231929 353.49189,339.500367 353.39432,339.803557 C353.309541,340.067472 353.187082,340.331386 353.121142,340.595301 C353.079468,340.765019 353.057344,340.938951 353.055203,341.113704 L353.055203,341.170257 C353.05961,341.18885 353.05961,341.208217 353.055203,341.22681 L353.055203,341.22681 C353.051539,341.261273 353.051539,341.296028 353.055203,341.330491 C352.932744,341.914873 352.791445,342.50868 352.650146,343.093062 C352.508847,343.677444 352.311028,344.242975 352.11321,344.808506 C352.02843,345.062995 351.943651,345.298633 351.849452,345.543696 L351.623373,346.099801 C351.623373,346.099801 351.538594,346.307163 351.500914,346.401418 C350.369204,348.897151 349.030007,351.29337 347.497444,353.564809 C346.67791,354.808977 345.801856,356.034294 344.897543,357.24076 C344.172208,358.183312 343.183116,359.314373 342.250543,360.454861 C340.489016,362.613304 338.765168,364.790598 337.003642,366.93019 C335.439933,368.815293 333.961004,370.804076 332.359616,372.670328 C330.570722,374.717882 328.658027,376.653745 326.632298,378.46702 C322.176671,382.519991 317.438446,386.24307 312.973399,390.286616 C311.51331,391.615613 310.062641,392.982313 308.687331,394.414991 C310.26988,389.212107 311.57925,383.896117 312.88862,378.580126 Z M356.587677,339.775281 L356.531157,339.615047 C361.970005,340.76134 367.481045,341.532902 373.025455,341.924298 C375.295658,342.103383 377.565861,342.291893 379.817224,342.536957 L379.675926,342.829148 C379.533447,343.089289 379.376191,343.341048 379.204929,343.583189 L379.07305,343.762274 L378.903491,343.988486 C378.686833,344.233549 378.460755,344.469187 378.234676,344.704825 C378.008598,344.940463 377.7731,345.15725 377.528181,345.364611 L377.151384,345.685079 C377.151384,345.685079 376.934726,345.854738 376.849946,345.939568 L376.557929,346.156354 L376.115192,346.467396 C375.794914,346.703034 375.465217,346.919821 375.173199,347.136608 C374.476124,347.598458 373.750789,348.032032 373.025455,348.446755 C371.471166,349.332753 369.869778,350.124496 368.24955,350.887963 C361.608499,354.026659 354.637751,356.543272 348.251038,360.172095 C348.976373,359.116438 349.682868,358.041929 350.389362,356.976846 C352.177321,354.341971 353.722263,351.549961 355.005128,348.635265 C356.079,346.014972 357.397791,342.631212 356.587677,339.775281 Z M307.707658,401.493553 L308.583712,400.551002 C310.553418,398.427714 312.631728,396.407948 314.810286,394.499821 C319.416632,390.465701 324.314995,386.78975 328.940181,382.755629 C331.101548,380.921224 333.1465,378.953758 335.063136,376.864682 C336.702204,375.036132 338.171713,373.047349 339.726001,371.143395 L340.602055,370.078312 C341.19916,370.189645 341.801936,369.914465 342.109244,369.390249 C342.259963,369.154611 342.410681,368.937824 342.57082,368.721037 L342.759219,368.494825 C342.883431,368.340478 343.015484,368.192617 343.154856,368.051826 C343.644424,367.525694 344.170076,367.034375 344.727984,366.581445 L345.067102,366.308106 L345.36854,366.081893 C345.688817,365.855681 346.018515,365.620043 346.310533,365.403256 C347.017027,364.93198 347.742362,364.460705 348.477117,364.055407 C351.829963,362.190683 355.289963,360.525751 358.83904,359.06931 C362.493973,357.476398 366.186585,355.977741 369.794419,354.299999 C373.05389,352.900718 376.139312,351.126181 378.988271,349.012285 C380.291102,348.035888 381.424129,346.851237 382.341766,345.505994 C382.848608,344.756931 383.20089,343.914156 383.377958,343.027083 C385.497884,343.324985 387.601257,343.730809 389.679891,344.242975 C394.069579,345.355186 398.346227,346.966949 402.773594,347.852947 C397.771612,351.29326 392.939187,355.025764 387.937204,358.466077 C380.991396,363.3566 373.631523,367.630065 365.941667,371.23765 C362.173695,372.971945 358.339784,374.611984 354.72253,376.713874 C351.085665,378.823077 347.654366,381.268696 344.473646,384.018648 C341.798386,386.337325 339.433984,388.976469 336.730464,391.28572 C334.168243,393.481865 331.521242,395.593181 328.911921,397.732773 C328.073548,398.41141 327.254014,399.118323 326.46274,399.844088 C323.250543,400.117428 320.038347,400.551002 316.873251,401.069405 C313.758275,401.581299 310.680633,402.299212 307.660559,403.218422 C307.641719,402.671742 307.669979,402.077935 307.707658,401.493553 Z M345.528678,401.427574 C342.46713,400.205864 339.197443,399.591234 335.90151,399.617876 C334.780538,399.570748 333.650146,399.561323 332.529175,399.617876 C336.052229,396.865625 339.763681,394.339587 342.985297,391.219742 C345.735981,388.483895 348.724459,385.998329 351.915391,383.792436 C355.251428,381.533928 358.760234,379.542114 362.409193,377.83551 C366.299625,376.025812 370.246575,374.432899 374.042807,372.43469 C377.839039,370.436481 381.362093,368.306315 384.894567,366.015915 C391.902995,361.453965 398.431007,356.251081 405.241616,351.396941 C411.835567,346.684183 418.900515,342.706616 426.907456,341.255087 C431.46546,340.584746 436.077921,340.360615 440.679394,340.585875 C445.20503,340.719688 449.734481,340.537017 454.234673,340.039195 C461.196002,339.153197 468.12907,338.154092 475.137499,337.682816 C482.145927,337.211541 489.220294,337.211541 495.993224,338.992963 C499.131809,339.781072 502.111254,341.104284 504.800859,342.904552 C507.977927,345.132908 510.97057,347.613546 513.749793,350.322432 C516.278732,352.753947 519.000595,354.976228 521.888612,356.96742 C520.692281,356.863739 519.49595,356.797761 518.346719,356.741208 C512.996198,356.496144 507.485539,356.863739 502.191538,355.949465 C498.357627,355.280253 494.542555,354.526212 490.680383,354.064362 C486.818212,353.602511 482.795902,353.187789 478.839531,353.03698 C470.939881,352.715321 463.028586,353.246213 455.242606,354.620467 C441.319949,357.089952 428.480584,363.10343 416.404234,370.266822 C410.394318,373.848518 404.572801,377.712979 398.666505,381.454908 C393.843501,384.508775 388.832098,387.279876 383.773595,389.937872 C372.630407,395.842266 361.131683,401.048878 349.34375,405.527674 C348.985793,403.680273 347.205426,402.191041 345.528678,401.399298 L345.528678,401.427574 Z M254.78649,467.886881 C257.719031,454.294374 263.822859,441.588559 272.599578,430.806905 C281.392774,419.979492 293.028663,411.819423 306.20047,407.243117 C312.201948,405.290842 318.405376,404.026022 324.691793,403.472911 L326.914896,403.284401 C327.322452,403.410755 327.76245,403.380508 328.148907,403.199571 C330.47563,403.039338 332.802353,402.954508 335.129075,403.020487 C337.955054,403.086465 341.24261,403.303252 343.833091,404.415463 C344.30994,404.627059 344.764372,404.885986 345.189561,405.188355 C345.189561,405.188355 345.613458,405.55595 345.688817,405.64078 L345.858376,405.819864 C345.858376,405.819864 345.914896,405.904694 345.952575,405.951822 L345.867796,406.074353 L345.867796,406.074353 C345.730791,406.208334 345.586108,406.334221 345.434479,406.451374 C345.269091,406.603614 345.089262,406.739355 344.897543,406.856671 L344.709144,406.969777 C339.311524,405.254334 333.14147,406.404246 327.885149,408.025435 C321.808668,409.920209 316.222722,413.128321 311.52273,417.422673 C301.735423,426.263807 296.516781,438.59238 292.786489,450.977507 C290.808304,457.575367 289.018517,464.173228 286.738894,470.610855 C284.459271,477.048482 281.972409,483.373002 280.144943,489.923735 C275.80792,503.474711 276.846771,518.175752 283.046281,530.981278 C286.060659,537.795926 290.224268,543.931936 293.841521,550.426116 C296.987282,556.110939 299.707672,562.021214 301.980341,568.108382 C299.815601,564.091205 297.160863,560.358437 294.077019,556.9957 C293.900436,556.269433 293.351673,555.691634 292.63577,555.478192 C290.535552,553.334357 288.284722,551.343632 285.90052,549.521267 C282.198487,546.693612 278.091398,544.497467 274.295166,541.830046 C270.753282,539.442084 267.702527,536.39592 265.308552,532.856956 C260.598587,525.712416 258.309544,517.144622 255.888622,509.038679 C252.079471,495.630735 251.700476,481.479712 254.78649,467.886881 L254.78649,467.886881 Z M104.92482,378.259659 C110.482579,380.012804 116.228736,381.153292 121.880695,382.548268 C129.162805,384.320522 136.30379,386.629801 143.245096,389.45717 C157.054714,395.112479 170.063638,402.831976 182.253028,411.456322 C195.123898,420.486921 207.185978,430.619778 218.303101,441.740502 C223.578262,447.065918 228.825163,452.523291 232.988772,458.781833 C236.945143,464.738759 240.326897,471.100982 245.008603,476.558355 C246.127542,477.859963 247.326179,479.09079 248.597596,480.243731 C248.860434,480.487231 249.187201,480.650712 249.539589,480.715007 C249.165901,486.327222 249.345748,491.962625 250.076525,497.539551 C250.151885,498.161635 250.255504,498.774294 250.349703,499.424654 L250.208404,499.424654 C236.728484,497.662083 225.509347,488.623014 215.439442,480.177752 C210.23022,475.823165 205.077519,471.35547 199.623379,467.368478 C193.406225,462.84423 186.567356,459.196556 179.841525,455.445201 C165.297153,447.18845 150.159325,439.666889 136.651145,429.675843 C124.339296,420.580221 114.796907,408.063137 106.168251,395.57433 C102.145941,389.758787 98.1047907,383.924393 94.6759361,377.741255 C93.7056833,375.950407 92.660071,374.065304 91.5956189,372.180201 C95.738207,374.810243 100.223538,376.856006 104.92482,378.259659 L104.92482,378.259659 Z M108.372515,429.053759 C104.180646,421.060922 99.1692428,413.529936 95.3730109,405.329738 C91.4919997,396.969306 89.0993374,388.005641 86.2450985,379.268189 C85.1241268,375.809025 83.8241764,372.415839 82.665525,368.966101 C81.8434684,366.715322 81.24708,364.388344 80.8851582,362.019496 C81.4754738,362.559892 82.0406697,363.125423 82.5807457,363.716089 L83.080002,364.3853 C83.6451978,365.120491 84.2480733,365.817979 84.8697887,366.496616 C86.9766937,369.46751 88.8837307,372.575367 90.5782664,375.799599 C92.1702346,378.627254 93.7056833,381.568014 95.4483704,384.348541 C97.3794561,387.411834 99.4424208,390.409147 101.467706,393.425312 C110.105782,406.206311 119.365573,419.100415 131.225265,429.100887 C137.664235,434.337968 144.530239,439.026266 151.751293,443.116627 C158.99522,447.37696 166.427545,451.279123 173.85987,455.190712 C181.009597,458.960918 188.328883,462.561465 195.148912,466.925478 C200.734016,470.675922 206.082168,474.76811 211.162793,479.178648 C221.430517,487.661611 232.235177,497.087126 245.498439,500.310653 C247.049934,500.692525 248.622678,500.982082 250.208404,501.1778 C250.355277,501.193195 250.503709,501.173823 250.641721,501.121247 C251.835684,507.252694 253.434292,513.298261 255.427046,519.218236 L255.370526,519.218236 C246.537018,519.707453 237.686233,518.641922 229.2208,516.070114 C220.394325,513.525225 212.076527,509.707891 203.683369,506.03194 C199.5386,504.222241 195.35615,502.487947 191.088922,500.942162 C187.028932,499.471782 182.931263,498.114508 178.908952,496.51217 C174.93801,495.001987 171.084162,493.199938 167.378958,491.120775 C163.865324,489.103715 160.511829,486.756762 157.186593,484.438085 C143.565374,474.918315 130.443411,464.050696 119.930769,451.052911 C119.805367,450.599753 119.503293,450.215993 119.092395,449.987828 C114.35417,443.691584 111.989768,435.972087 108.372515,429.053759 Z M257.829128,565.252451 C253.260462,565.026239 249.134532,563.697241 244.810784,562.226861 C239.450844,560.407736 234.166263,558.334123 228.966462,556.071999 C218.3973,551.491199 208.101316,546.288315 197.880692,540.991175 C193.170727,538.578244 188.357142,536.278418 183.835576,533.601572 C179.961711,531.235054 176.265567,528.588886 172.776578,525.684139 C165.608011,519.830894 158.96696,513.374416 151.619414,507.77566 C148.07804,504.994752 144.309367,502.516547 140.353178,500.367206 C135.964601,498.205486 131.424794,496.365805 126.769638,494.862705 C105.235678,487.162059 84.70023,476.954226 64.7864974,465.832119 C59.8821406,463.121689 55.1333399,460.138555 50.5624028,456.89673 C46.0314163,453.654353 41.7453481,450.072658 37.3745004,446.632345 C33.0036528,443.192032 28.8965632,439.525506 23.8945803,437.301085 C19.3164942,435.236897 14.4275504,434.47343 9.53860657,433.530879 C8.64371319,433.351794 7.74881982,433.153858 6.86334638,432.946497 C12.6471835,430.458161 19.5331526,430.590118 25.7032069,431.202776 C34.058685,432.022796 42.2540243,434.162388 50.3363244,436.396235 C69.4022632,441.693375 88.5624014,447.584322 105.951593,457.349155 C114.927262,462.58336 123.326072,468.750351 131.008607,475.74776 C138.817729,482.637812 146.391353,489.82948 154.831611,495.956065 C163.271868,502.082649 172.729478,507.049896 181.97043,512.06427 C191.211381,517.078644 200.527692,522.432336 208.92085,529.030197 C217.606026,535.844844 226.159322,542.895129 235.362594,549.012289 C239.469684,551.755114 243.567353,554.43196 247.561404,557.335018 C251.380013,560.30986 255.481718,562.90178 259.807313,565.073366 L260.429029,565.346706 L257.829128,565.252451 Z M242.022485,550.322435 C237.519758,547.287419 232.969932,544.346659 228.599084,541.104282 C224.002158,537.68282 219.518272,534.119975 215.024965,530.575981 C210.860008,527.177294 206.524336,523.993609 202.034881,521.03736 C197.579254,518.209706 192.963488,515.645966 188.328883,513.129353 C178.908952,508.030149 169.394823,503.251413 160.474149,497.388743 C142.8212,485.785934 129.23766,469.06507 111.292693,457.858133 C93.9600214,447.056493 74.1216483,440.581164 54.5376133,435.236897 C46.6394842,432.928454 38.6164245,431.071766 30.5073713,429.675843 L29.8950758,429.591013 C34.1246245,429.525035 38.373013,429.591013 42.5460421,429.873779 C53.5673605,430.571267 64.4285401,432.899369 75.515798,433.210411 C80.5743005,433.351794 85.6328031,432.692008 90.6818857,433.050177 C94.6288364,433.342368 97.8033529,434.181239 100.685852,436.820383 C103.642615,439.705449 106.417417,442.771503 108.99423,446.000835 C111.311533,448.696532 113.779555,451.712697 116.963491,453.437566 C118.065623,454.841968 119.224274,456.208668 120.401766,457.556516 C123.227745,460.732915 126.176183,463.777356 129.24708,466.699266 C135.704238,472.793705 142.514046,478.502858 149.641229,483.79715 C156.432999,488.896354 163.422587,494.004983 171.12809,497.624381 C179.125611,501.394587 187.603548,503.948901 195.789467,507.257257 C204.512323,510.772974 212.905481,515.052158 221.797895,518.143727 C227.872983,520.334796 234.172852,521.842729 240.581236,522.639698 C240.650949,522.988567 240.809997,523.313347 241.042812,523.582249 C249.44539,533.573295 252.864825,546.420272 259.308057,557.514103 C260.699911,559.900901 262.274618,562.176127 264.018022,564.319325 C255.728483,561.557649 249.049753,555.035193 242.022485,550.322435 Z M290.252528,587.638049 C287.831606,584.4428 285.043306,581.624571 282.433986,578.59898 C279.824665,575.57339 277.83706,572.594927 275.425558,569.522209 C272.825657,566.195003 269.6794,562.641583 265.67593,561.039246 C265.498993,560.969473 265.310331,560.934278 265.120154,560.935565 C258.799381,551.51005 255.511825,540.331389 249.963486,530.434599 C248.492527,527.827823 246.836653,525.329941 245.008603,522.960165 C246.186094,522.960165 247.373005,523.016718 248.559916,522.960165 C250.83012,522.903612 253.109743,522.790506 255.370526,522.583145 C255.748617,522.549047 256.110193,522.412154 256.416138,522.187273 C259.119658,530.057578 262.831111,537.550862 269.500421,542.829151 C273.268394,545.788763 277.356643,548.135716 281.322434,550.737158 C284.462502,552.814855 287.401729,555.181515 290.101809,557.806294 C290.704684,572.180205 296.158824,585.82835 297.430515,600.042027 C295.642025,595.574019 293.224959,591.384493 290.252528,587.600347 L290.252528,587.638049 Z M304.712121,590.211215 C304.62962,590.297118 304.556951,590.391959 304.495462,590.49398 C303.44043,592.32253 302.441917,594.173073 301.499924,596.045609 C300.953568,591.615617 300.143454,587.223327 299.239141,582.849888 C298.334828,578.476449 297.355155,574.366924 296.497941,570.116017 C296.045785,567.872744 295.555948,565.601195 295.160311,563.348497 C299.391291,568.453275 302.389104,574.465358 303.920847,580.917657 C304.570943,583.970365 304.836765,587.092466 304.712121,590.211215 Z M324.380935,435.444258 C321.479596,444.040328 319.275333,452.900312 316.760211,461.618913 C313.934232,471.327194 313.500916,481.50675 313.538595,491.544924 C313.576275,501.583097 313.905973,511.489313 312.91688,521.376679 C312.573559,526.140429 311.343556,530.798032 309.290207,535.109654 C307.001164,539.558497 304.307064,543.799979 303.280291,548.767225 C301.886142,555.478192 303.007113,562.076053 304.080985,568.70219 C302.456714,564.02178 300.569727,559.43683 298.429027,554.969214 C295.263931,548.371354 291.185101,542.367301 287.793926,535.920248 C284.269546,529.49297 281.816421,522.533554 280.53116,515.316072 C279.565352,508.842713 279.856405,502.243723 281.388373,495.880661 C283.004016,489.541804 285.036877,483.316805 287.473648,477.246417 C289.91341,470.771089 292.098834,464.267483 294.067599,457.641346 C297.581233,445.755772 301.066608,433.304666 309.139488,423.568109 C313.11233,418.733161 318.079375,414.811177 323.7027,412.068981 C329.07206,409.476964 335.091396,407.459904 341.120151,408.072563 C341.59474,408.123466 342.066371,408.198971 342.533141,408.298775 C340.460707,409.33393 338.555458,410.674749 336.881182,412.276342 C335.409488,413.946014 334.076829,415.733402 332.896552,417.620609 C331.65071,419.49976 330.506126,421.444189 329.467697,423.445578 C327.472289,427.3099 325.7749,431.321137 324.390355,435.444258 L324.380935,435.444258 Z M495.390349,371.020863 C494.957747,371.067103 494.562906,371.288481 494.297637,371.633522 C488.918319,374.874231 484.138223,379.019437 480.167741,383.886691 C475.561395,389.381766 471.576765,395.376394 466.979839,400.852618 C458.209884,411.31494 447.744341,420.240902 435.310034,425.990467 C428.171675,429.11476 420.798117,431.67072 413.257977,433.634559 C404.738769,436.041519 396.081709,437.930078 387.334329,439.289868 C369.840705,442.126708 351.976404,441.743401 334.620399,438.158807 C332.485215,437.700098 330.356311,437.184837 328.233686,436.613022 C329.88527,431.778882 331.988955,427.111424 334.51678,422.672685 C336.476125,419.307776 338.55793,415.481017 341.807806,413.24717 C344.106269,411.635407 347.459764,410.419516 348.938693,407.855776 L348.938693,407.855776 C359.544149,404.126114 369.899144,399.71846 379.939684,394.660055 C385.374983,391.992634 390.734924,389.18383 395.953565,386.177091 C401.473644,382.962991 406.777065,379.400146 412.193525,376.025812 C423.893078,368.739888 436.091888,362.085475 449.543548,358.682864 C464.709636,354.846679 480.488019,355.157721 495.851925,357.561228 C498.922822,358.051354 501.96546,358.71114 505.074037,358.899651 C507.815237,359.06931 510.575276,359.050459 513.316476,359.059884 C518.638736,359.059884 524.497933,358.975055 529.499916,361.020392 C529.801354,361.142923 530.102792,361.284306 530.441909,361.435114 C518.949594,362.811239 507.438439,365.20532 497.104776,370.266822 C496.51132,370.408205 495.936705,370.719247 495.399769,371.020863 L495.390349,371.020863 Z M562.460252,374.15956 C558.799351,373.69265 555.090133,373.759323 551.448353,374.357495 C544.232687,375.44143 537.224259,377.665851 529.999172,378.693232 C526.571383,379.215082 523.075035,379.067847 519.703189,378.259659 C517.432985,377.694128 515.191042,376.987214 512.949099,376.318002 C508.832589,375.102111 504.725499,373.857943 500.62783,372.547796 C504.751467,370.661867 509.039951,369.160008 513.438935,368.061251 C520.891949,366.218689 528.485647,365.001716 536.140967,364.423003 C537.874234,364.272194 539.616921,364.121386 541.359608,364.00828 C543.102295,363.895174 544.138488,361.35971 542.301601,360.473712 C540.466945,359.486284 538.580197,358.598986 536.649643,357.815716 C534.680878,357.099377 532.702692,356.449017 530.743347,355.713827 C527.112626,354.2851 523.770988,352.20931 520.88068,349.587242 C514.908444,344.42206 509.576764,338.399156 501.96546,335.55265 C495.314989,333.054889 487.835565,332.819251 480.855396,333.083165 C473.453761,333.502337 466.07799,334.295089 458.75624,335.458395 C454.971249,336.075902 451.152301,336.463059 447.320445,336.617733 C442.610479,336.702563 437.900514,336.391521 433.14345,336.542329 C428.590633,336.640499 424.075848,337.396055 419.738889,338.785602 C415.879626,340.097887 412.174608,341.826656 408.689311,343.941358 L407.38936,344.846208 C402.264918,344.365507 397.347715,342.339021 392.439931,340.906343 C386.892366,339.435704 381.212524,338.520076 375.484057,338.172943 C370.034466,337.842496 364.608786,337.194176 359.234677,336.231287 C353.867927,335.181278 348.596876,333.690133 343.475134,331.773018 C341.276883,330.775486 339.210718,329.509091 337.323919,328.002812 L335.79789,326.8529 C351.453815,325.533328 366.638742,321.112761 381.80483,317.182321 C398.478106,312.85601 415.839038,309.095229 433.152869,310.75412 C442.5728,311.696671 451.465214,314.759964 460.414148,317.729001 C470.104116,320.93996 479.863164,323.937274 489.691291,326.720942 C506.129069,331.4337 522.529168,336.730839 536.790942,346.448545 C540.276119,348.728447 543.501263,351.38342 546.408691,354.365978 C549.23467,357.410419 551.617912,360.888434 554.321432,364.064833 C556.974299,367.106055 560.02201,369.778345 563.383405,372.010542 C565.342751,373.348965 567.330356,374.640261 569.261442,376.016386 C567.078818,375.131033 564.798981,374.50774 562.469672,374.15956 L562.460252,374.15956 Z M577.277802,380.29557 C572.511317,374.979579 565.794907,371.963415 560.255988,367.533422 C556.902493,364.847151 554.312012,361.406838 551.693272,358.032503 C549.181415,354.708939 546.299155,351.682669 543.102295,349.012285 C530.027432,338.370879 513.712113,331.914401 497.726491,327.069686 C488.137002,324.166628 478.660552,321.027931 469.221782,317.644171 C464.342259,315.897309 459.440755,314.188149 454.517271,312.516691 C450.035956,310.913501 445.446271,309.631533 440.783013,308.680507 C423.337302,305.409853 405.778552,308.426018 388.832098,312.940839 C371.885643,317.455661 354.76963,323.082694 337.116681,324.930095 C335.88267,325.052626 334.639239,325.156307 333.405228,325.250562 C333.253226,325.1596 333.095949,325.077767 332.934232,325.005499 C334.244641,322.826931 336.136843,321.057652 338.397791,319.89687 C341.363053,318.221405 344.494846,316.85991 347.742362,315.834473 C354.190871,313.722731 360.809328,312.171202 367.524216,311.197119 C371.546526,310.603312 376.30359,310.254568 380.627338,309.792717 C386.156838,309.236612 391.686337,308.623954 397.140476,307.568296 C407.596599,305.532385 417.223767,300.7725 427.613951,298.538653 C432.783937,297.548177 438.070164,297.313236 443.307554,297.841164 C448.381482,298.248848 453.418856,299.026954 458.379443,300.169267 C468.538844,302.512402 478.373949,306.089198 487.666006,310.820099 C492.230136,313.124652 496.667055,315.673224 500.957527,318.454766 C505.375475,321.338973 509.670963,324.39284 514.14543,327.12624 C522.962484,332.44223 533.07007,335.411267 541.331348,341.68866 C549.592627,347.966053 555.715582,356.288783 562.403732,363.970578 C565.632619,367.649038 569.057005,371.150968 572.662036,374.461176 C575.789453,377.354809 578.97339,380.239017 581.818209,383.424841 C580.33928,382.388034 578.832091,381.322951 577.287222,380.29557 L577.277802,380.29557 Z" id="Shape"></path>
                </g>
            </g>
        </g>
    </g>
</svg>