<?xml version="1.0" encoding="UTF-8"?>
<svg width="400px" height="516px" viewBox="0 0 400 516" version="1.1" xmlns="http://www.w3.org/2000/svg" xmlns:xlink="http://www.w3.org/1999/xlink">
    <title>6F120B9B-3F61-4C90-A63A-FD0555DF168B</title>
    <g id="Product-category-&amp;-Details-&amp;-Cart" stroke="none" stroke-width="1" fill="none" fill-rule="evenodd" fill-opacity="0.05">
        <g id="Detalji-proizvoda" transform="translate(-1520.000000, -94.000000)" fill="#497A59" fill-rule="nonzero">
            <g id="Leaf-01" transform="translate(1720.000000, 351.882403) scale(1, -1) translate(-1720.000000, -351.882403) translate(1520.000000, 94.382403)">
                <path d="M399.16021,263.113541 C395.85128,257.289179 390.361899,253.263798 385.771476,248.574963 C380.804894,243.522504 376.737269,237.653487 371.668677,232.690339 C369.158403,230.199158 366.346125,228.032442 363.297531,226.240799 C360.269127,224.480093 357.036704,223.127667 353.887164,221.602999 C347.33306,218.413315 341.68429,213.698963 335.397961,210.081862 C329.130194,206.471931 322.460233,203.611376 315.525255,201.559027 C311.264337,200.292355 306.902133,199.395919 302.487179,198.879693 C304.584748,198.095031 306.67594,197.284851 308.741631,196.410878 C310.764019,195.598976 312.717126,194.623977 314.581668,193.495507 C316.800373,192.092046 318.953196,190.603527 321.040138,189.02995 C329.91873,182.404832 337.570088,174.276113 343.647971,165.011632 C346.610857,160.416785 349.063014,155.511704 350.96077,150.383743 C351.894992,147.882374 352.67429,145.325783 353.294235,142.728503 C353.976422,139.83227 354.38446,136.891382 354.888131,133.956873 C357.15784,120.745203 360.026855,107.629224 361.65263,94.3027264 C362.47508,87.6171496 363.023381,80.9060553 363.425043,74.1758229 C363.629062,70.7947583 363.782076,67.4136937 363.864958,64.0390085 C363.93509,60.9513947 363.769325,57.8382636 364.158235,54.7634086 C364.366027,53.2620454 364.716137,51.7838749 365.203832,50.3488865 C365.688376,48.8880114 363.667315,48.2755921 362.883118,49.3664639 C362.245559,50.2468166 361.659005,51.1526867 361.097953,52.0713156 C360.466623,52.9803718 359.916213,53.9430938 359.453052,54.9484102 C357.221596,59.1013783 355.340798,63.4521067 352.803314,67.4328318 C349.054469,73.3146084 344.515051,78.6286212 340.364544,84.236085 C336.539191,89.396993 332.873228,94.6663503 328.340186,99.2275979 C325.981219,101.587964 323.33535,103.552809 320.816993,105.728173 C318.49914,107.759809 316.365614,109.9928 314.441406,112.400991 C310.450288,117.300345 307.128607,122.671772 303.634785,127.915612 C300.141644,133.15557 296.229054,138.103076 291.935582,142.709365 C283.124521,152.163587 273.299741,160.839526 266.61175,172.054454 C263.659853,177.011222 260.656951,181.961611 257.82619,186.988552 C254.699337,192.34852 252.210775,198.056551 250.411382,203.995945 C250.022471,205.335612 249.684565,206.675279 249.391288,208.034085 C245.343153,208.566258 241.343693,209.419527 237.430687,210.585832 C233.146292,211.861705 228.230714,213.558617 225.08755,216.920543 C224.472177,217.554682 223.96784,218.287915 223.595662,219.089528 C223.562722,219.158981 223.537082,219.231671 223.519155,219.306426 C223.308692,219.168343 223.04948,219.12631 222.806205,219.190816 C222.56293,219.255322 222.358539,219.420283 222.244038,219.644533 C222.020871,220.161777 221.868604,220.706831 221.791371,221.264892 C221.727018,221.548645 221.643953,221.827822 221.542723,222.100589 C221.481439,222.279207 221.404639,222.45211 221.313202,222.617318 C220.747868,223.661135 220.053885,224.629858 219.247512,225.500792 C218.495192,226.349248 217.685493,227.165807 216.901295,227.995125 C216.700506,226.239408 216.598336,224.473801 216.595267,222.706629 C216.646272,220.103847 217.232826,217.539342 217.685493,214.981216 C218.09353,212.576194 218.456939,210.152035 218.635455,207.715116 C218.813972,205.278198 218.635455,202.854039 218.794845,200.4235 C219.136903,195.909044 220.106843,191.464427 221.67661,187.21821 C224.762395,178.287095 229.327315,169.993918 232.674498,161.190391 C236.200198,151.914791 237.947109,141.758839 238.724931,131.889958 C239.504411,121.518327 238.352146,111.092042 235.326743,101.141408 C229.333691,80.8741585 217.908638,62.7758938 207.318788,44.6712497 C204.934318,40.6075928 202.492468,36.5694533 200.305642,32.3909678 C198.520477,28.9588683 196.830947,25.4693544 195.039407,22.0372549 C191.49458,15.2623669 187.388702,8.03454391 181.338269,3.18622485 C179.929673,2.04104844 178.413733,1.03480763 176.811602,0.181542903 C176.367835,-0.0645685015 175.827671,-0.0601844473 175.387952,0.193097459 C174.948234,0.446379365 174.673182,0.911567091 174.66303,1.41914014 C174.50364,8.62782506 178.073969,15.2432288 179.125941,22.2732915 C180.273546,29.8583591 179.910138,37.5837727 180.171537,45.2390134 C180.668833,59.9562135 184.098899,74.5011707 189.199369,88.2869832 C191.749603,95.2213553 194.937397,101.92607 197.149726,108.994409 C198.330611,112.58383 199.046271,116.310041 199.279172,120.081749 C199.47044,123.864714 199.234543,127.647679 199.170787,131.430643 C199.030524,139.175195 199.808346,146.964403 200.33752,154.683437 C200.592543,158.396229 200.649923,162.128158 201.242853,165.815433 C201.848295,169.431495 202.68522,173.004916 203.748459,176.513631 C206.081924,184.353874 209.052947,191.989976 211.137764,199.900391 C213.333821,207.873828 213.824796,216.221016 212.578647,224.397161 C212.539494,224.613262 212.568458,224.836197 212.66153,225.035098 C212.585023,226.310972 212.616901,227.644259 212.572272,228.932892 C212.517017,230.680838 212.429884,232.428785 212.310873,234.176731 C212.056132,237.5982 211.630561,241.004783 211.035755,244.383719 C210.481079,247.662714 209.601248,250.871535 208.982816,254.137771 L208.409013,257.180729 C207.435215,260.214636 206.660002,263.308803 206.088299,266.443571 C205.941661,267.317544 205.820525,268.191517 205.718515,269.07187 C205.33598,270.398778 204.908816,271.712928 204.443398,272.995181 C204.258506,273.346046 204.079989,273.696911 203.914224,274.060535 C203.847245,274.209833 203.806276,274.369491 203.793088,274.532608 C198.153577,276.855785 192.962492,280.145853 188.453425,284.254764 C188.083641,284.59287 187.713857,284.943735 187.350448,285.288221 L186.71289,284.835286 C186.695518,284.7975 186.671797,284.762976 186.642758,284.733216 C177.079377,273.460875 177.665931,257.57625 178.003837,243.66285 C178.195105,235.822608 178.431002,227.93771 177.366279,220.135744 C176.307931,212.193432 173.827828,204.519053 169.447799,197.763303 C167.273724,194.407756 164.761742,191.281866 162.281639,188.143218 C159.801536,185.004569 157.251301,181.885059 155.338624,178.382786 C151.640784,171.601519 150.238155,163.831449 146.412802,157.101217 C143.033741,151.149267 138.283928,146.045774 133.100576,141.618493 C127.81287,137.144893 122.086007,133.218565 116.007626,129.899595 C109.421645,126.256977 102.357494,123.520228 95.899024,119.692608 C92.6392781,117.775268 89.6248436,115.468116 86.922197,112.822029 C84.3337086,110.232006 81.9747413,107.418705 79.4053796,104.809544 C78.3316904,103.700991 77.1625721,102.689147 75.9115578,101.785724 C75.3767978,101.484928 74.708989,101.564907 74.2602807,101.983485 C73.8337103,102.444966 73.7466623,103.126392 74.0435107,103.680396 C76.9507785,110.19373 77.6712199,117.638452 77.9581213,124.694032 C78.2513983,131.97289 77.9581213,139.251748 77.8816143,146.536985 C77.7859804,153.490495 78.225896,160.475902 81.3690605,166.816993 C83.0145273,169.974204 85.1685636,172.838615 87.7446478,175.295172 C89.9952301,177.540709 92.4243289,179.614004 94.4326389,182.082819 C96.7979818,184.966293 98.1113528,188.42391 99.4310993,191.875148 C100.891109,195.702768 102.274611,199.530388 103.760123,203.358009 C105.130874,206.860281 106.533504,210.343416 108.592818,213.507582 C110.413349,216.235302 112.506847,218.770364 114.840894,221.073511 C117.276368,223.535947 119.877608,225.832519 122.395965,228.212023 C125.175721,230.833943 127.859843,233.538795 130.524839,236.275543 C135.861205,241.74904 141.261328,247.203399 146.954727,252.294134 C152.756512,257.48056 159.068343,262.067325 164.806372,267.317544 C167.662635,269.920326 170.334006,272.720868 173.234898,275.272615 C175.912645,277.63936 178.743405,279.833862 181.344645,282.289919 C181.739931,282.659922 182.135218,283.042684 182.517753,283.431825 C183.276448,284.484421 184.067021,285.50512 184.908598,286.500301 C185.108548,286.758762 185.417148,286.909617 185.7438,286.908581 C179.911365,293.043198 175.415222,300.322535 172.539959,308.28584 C170.858972,312.890939 169.728998,317.679044 169.173649,322.550105 C166.100616,319.488009 163.907414,315.705044 161.64408,312.036908 C160.399115,309.956725 159.041206,307.946339 157.576456,306.014785 C155.976183,303.94787 154.197394,302.008543 152.418605,300.094733 C145.107415,292.3267 137.12853,285.216159 128.573909,278.84506 C120.406782,272.682592 111.888997,267.017714 102.606142,262.679744 C97.9463149,260.49831 93.1299351,258.668707 88.1973145,257.206247 C84.0531828,255.987788 79.8134172,255.15847 75.6246563,254.125013 C73.7502337,253.672078 71.8949378,253.161728 70.0587686,252.568447 C68.2985691,252.016956 66.5915306,251.308115 64.9582988,250.450497 C61.6144227,248.765716 58.8126276,246.172298 56.8740541,242.967499 C56.3441044,242.095128 55.8795379,241.184634 55.4841761,240.24351 C55.3450965,239.754007 54.928598,239.394014 54.4243647,239.327483 C53.9201314,239.260951 53.4246055,239.500605 53.1634623,239.9373 C51.8054622,241.729902 52.0222321,244.27527 52.3920162,246.354943 C52.8478447,248.571241 53.4876211,250.745636 54.3046924,252.855519 C56.4086362,258.660743 57.9642795,264.650968 60.1064768,270.437055 C62.3124301,276.382625 65.4428434,281.805087 68.5923835,287.278584 C70.0651442,289.830331 71.4869002,292.413974 72.7046374,295.112447 C73.0871726,295.954523 73.4633322,296.802979 73.8394919,297.664194 C72.8449003,296.471252 71.8375575,295.297448 70.7473321,294.200197 C69.019236,292.34191 66.7626199,291.059285 64.2824865,290.525682 C60.8396694,289.766537 57.3139696,290.021712 53.8201478,290.098264 C46.1184383,290.270507 38.5187382,288.682045 30.8680335,288.056867 C25.6300252,287.674104 20.3710922,287.674104 15.133084,288.056867 C10.2302574,288.369456 4.07781563,288.777735 0.297092354,292.350181 C0.0395437292,292.6196 -0.0595686074,293.003584 0.0353841513,293.364098 C0.13033691,293.724612 0.405709113,294.009846 0.762510227,294.117266 L0.934651084,294.1683 C1.01009405,294.366914 1.1714109,294.52063 1.37335356,294.586331 C1.57529621,294.652032 1.79611492,294.622643 1.97387181,294.506407 C4.81738375,295.354863 7.76290509,295.737625 10.6574217,296.420217 C12.3182716,296.771096 13.9348887,297.306008 15.4773657,298.015059 C17.1723685,298.895188 18.7780369,299.937782 20.2718074,301.12819 C26.1819768,305.593747 31.6777331,310.614309 37.8493016,314.716242 C44.2318447,318.854833 50.8669157,322.589806 57.7156316,325.899273 C64.5984786,329.32027 71.6528463,332.384299 78.8507035,335.079182 C82.350901,336.393332 85.9148543,337.5161 89.4341784,338.785595 C92.2466432,339.828417 94.9276933,341.196498 97.4227893,342.86201 C102.523259,346.217557 107.043551,350.440698 111.659476,354.4597 C116.396537,358.58715 121.292988,362.370115 126.909881,365.24083 C133.750886,368.736724 140.528135,372.360204 147.464774,375.664716 C154.288076,379.007459 161.360787,381.814333 168.618973,384.059964 C171.2101,384.734907 173.879226,385.063115 176.556579,385.036007 C178.819912,385.10618 181.287265,385.189111 183.270072,386.420329 C183.542092,386.592721 183.798138,386.78914 184.035143,387.007231 C184.460182,387.543098 184.885221,388.091724 185.31026,388.653108 C185.433522,388.865753 185.548282,389.078399 185.654542,389.291045 C185.736104,389.470874 185.892153,389.606042 186.081706,389.661048 C186.846777,390.681747 187.624599,391.715204 188.427923,392.704006 C189.996317,394.617816 191.787857,396.359383 193.369003,398.285952 C195.094503,400.350431 196.626832,402.56914 197.946674,404.914115 C199.383684,407.344438 200.24314,410.072757 200.458656,412.888324 C200.460471,412.994969 200.479858,413.100583 200.516036,413.200913 C200.266254,414.502882 200.10226,415.81987 200.025116,417.143362 C199.852975,420.211837 200.662675,423.082553 201.650891,425.946888 C202.155279,427.374821 202.580958,428.829378 202.926008,430.303996 C203.1109,431.133314 203.263914,431.962632 203.397801,432.804708 C203.455182,433.181091 203.512562,433.557474 203.563567,433.933856 C203.563567,433.99765 203.60182,434.240066 203.608196,434.278342 C203.608196,434.514379 203.665576,434.744036 203.691079,434.973693 C204.086365,438.386654 204.449773,441.825133 204.57091,445.257233 C204.609163,446.418278 204.615539,447.579323 204.615539,448.733988 C204.437022,451.285735 204.271257,453.894896 204.303135,456.47854 C204.303135,456.631645 204.303135,456.784749 204.303135,456.937854 C204.299443,456.91675 204.299443,456.895165 204.303135,456.874061 C203.548117,454.336352 202.477115,451.903735 201.115341,449.633479 C200.88582,449.250717 200.637172,448.880714 200.388524,448.51071 C199.52192,446.980793 198.491511,445.549771 197.315491,444.242914 C195.179229,441.937834 192.804882,439.865731 190.232214,438.061307 C184.911649,434.039095 179.235049,430.511537 173.273151,427.522592 C167.204949,424.565561 160.774119,422.42068 154.14639,421.143225 C150.485699,420.396273 146.7569,420.034932 143.02099,420.065112 C139.364467,420.151726 135.721743,420.546518 132.131487,421.245295 C125.054585,422.578583 118.219955,424.887914 111.32157,426.891035 C107.71386,428.039446 104.027581,428.924251 100.291804,429.538472 C96.377193,430.06796 92.4115777,430.106236 88.4778403,430.36779 C84.5885229,430.532384 80.7342175,431.175149 77.0017832,432.2816 C73.5025506,433.471066 70.135393,435.018824 66.9538576,436.900262 C63.734186,438.724761 60.6356506,440.727882 57.4542325,442.641692 C55.1207676,444.032394 52.7681759,445.38482 50.4410865,446.79466 C45.291296,449.822956 40.4071363,453.282309 35.8409916,457.135615 C31.5884748,460.835648 27.5527281,465.211894 25.3021458,470.430216 C24.7790969,471.636288 24.3527142,472.882064 24.0270283,474.155766 C23.9055144,474.665148 24.1321089,475.194002 24.5846205,475.457144 C25.0371321,475.720285 25.6085387,475.65548 25.9907092,475.297673 C29.9690757,471.827297 35.0950479,472.40144 40.0170013,472.331267 C42.9497714,472.292991 45.8697904,472.114369 48.8025606,472.197301 C51.7915228,472.263351 54.773056,472.523324 57.7283828,472.975583 C60.7695379,473.447657 63.7150593,474.251457 66.7052097,474.889394 C69.7538928,475.597719 72.8466149,476.100691 75.9625625,476.394924 C81.9578365,476.929971 87.9980282,476.644523 93.9162163,475.546468 C100.011278,474.442838 105.851316,472.292991 111.946377,471.151084 C115.008093,470.551382 118.116324,470.220523 121.235608,470.162282 C124.29589,470.162282 127.343421,470.366422 130.403702,470.302629 C136.543393,470.168662 142.466314,468.229334 148.197967,466.14966 C153.92962,464.069987 159.616643,461.601172 165.32917,459.323738 C167.764644,458.347694 170.27025,457.518377 172.622842,456.344573 C174.795678,455.207646 176.908776,453.959903 178.9538,452.606264 C183.008673,450.016241 187.133678,447.10087 191.775106,445.678271 C192.628202,445.413029 193.502873,445.223049 194.389097,445.110508 C194.969275,445.984481 195.664214,446.781902 196.269895,447.579323 C196.969156,448.540195 197.60795,449.543697 198.182571,450.584005 C198.450346,451.068836 198.711745,451.560048 198.960393,452.051259 C199.09428,452.325572 199.221792,452.593505 199.342928,452.867818 L199.495942,453.205924 L199.629829,453.512134 C200.059674,454.528847 200.434256,455.568075 200.751933,456.625265 C201.070712,457.696999 201.332111,458.787871 201.555257,459.885122 C201.663642,460.40823 201.759276,460.931338 201.842158,461.467205 C201.880412,461.703242 201.91229,461.952037 201.950543,462.188073 C201.952525,462.211422 201.952525,462.234898 201.950543,462.258247 C201.947752,462.277283 201.947752,462.296625 201.950543,462.315661 C201.950543,462.507042 201.995172,462.698423 202.020675,462.896183 C202.274497,465.162702 202.404327,467.441408 202.409585,469.722106 C202.409585,479.138052 200.88582,488.496584 201.312984,497.91253 C201.472904,503.318599 202.611301,508.65084 204.672919,513.650429 C205.0703,514.296682 205.879453,514.556208 206.578265,514.261546 C207.277076,513.966884 207.656539,513.206163 207.471802,512.470246 C207.471802,512.412831 207.433548,512.361796 207.408046,512.304382 C207.408046,508.942456 207.745952,505.586908 207.981849,502.237741 C208.217745,498.888573 208.491896,495.373542 208.460018,491.935063 C208.460018,488.930381 208.224121,485.657765 208.785173,482.863603 C209.135999,481.135264 209.767013,479.475985 210.65322,477.95149 C213.579614,477.249759 216.142601,475.520951 218.660957,473.951627 C221.498094,472.184542 224.398986,470.717287 227.778047,470.615218 C232.285588,470.48763 236.786752,470.838495 241.294292,470.685391 C245.910218,470.532286 250.494265,469.722106 255.059185,469.071411 C259.624106,468.420715 264.087017,467.795537 268.626435,467.425534 C272.382878,467.2123 276.147025,467.676885 279.739084,468.797098 C286.949873,470.88953 293.70162,474.461976 301.269442,475.246638 C303.175083,475.455419 305.095935,475.487453 307.007471,475.342329 C307.887302,475.272156 308.754382,475.176465 309.627837,475.068016 L310.85195,474.92129 L311.731781,474.800082 L311.967678,474.800082 L312.031434,474.800082 C313.551139,474.581249 315.088304,474.508618 316.621856,474.583184 C316.793997,474.583184 316.966138,474.62146 317.144655,474.627839 L317.144655,474.627839 L317.335922,474.659736 C317.74396,474.729909 318.145622,474.812841 318.547284,474.92129 C318.948946,475.02974 319.274101,475.131809 319.631134,475.253017 L320.268692,475.489054 L320.377077,475.53371 L320.663979,475.661297 C321.563387,476.087421 322.434399,476.57113 323.271594,477.109413 C323.780037,477.401667 324.405238,477.402207 324.914185,477.110833 C325.423132,476.819459 325.739478,476.279878 325.745322,475.693194 C325.745322,475.444398 325.707068,475.208362 325.67519,474.965946 C325.643312,474.72353 325.630561,474.634219 325.605059,474.474735 C325.605059,474.474735 325.528552,473.958006 325.528552,473.894212 C325.426542,473.403001 325.28628,472.90541 325.139641,472.420578 C324.827237,471.348845 324.502082,470.270732 324.106796,469.230895 C323.216455,466.875208 322.122066,464.601884 320.83612,462.436869 C318.150887,457.87822 314.882342,453.689858 311.113349,449.977965 C309.511695,448.367828 307.768369,446.905298 305.904494,445.608098 C303.660485,444.139413 301.264183,442.918093 298.757461,441.965479 C293.03821,439.657588 286.925982,438.481213 280.759178,438.501483 C274.611538,438.499288 268.546249,439.916089 263.035045,442.641692 C256.748716,445.780341 250.857673,449.658996 244.781739,453.161269 C241.925523,454.776104 238.939944,456.150284 235.855916,457.269581 C232.636245,458.475282 229.384695,459.585292 226.254282,461.020649 C220.987324,463.407996 216.186255,466.712849 212.074976,470.781081 C210.053682,472.775242 208.369818,475.084926 207.089267,477.619763 C206.446194,478.939837 205.962495,480.331832 205.648384,481.766351 C205.648384,481.090138 205.648384,480.420305 205.705764,479.744092 C205.705764,479.476159 205.705764,479.208225 205.744018,478.946671 C205.788647,478.308734 205.8269,477.670798 205.865154,477.032861 C206.069173,474.481114 206.381576,471.929367 206.674853,469.37762 C207.089267,465.881727 207.478177,462.360316 207.77783,458.870803 C208.077483,455.381289 208.287877,451.853499 208.294253,448.31295 C208.300628,444.772401 208.007351,441.346681 207.656694,437.869926 C207.414403,434.917702 206.962723,431.986441 206.305069,429.098296 C206.126553,428.205184 205.954412,427.312073 205.775896,426.418962 C205.284975,423.924629 204.806806,421.404779 204.558158,418.935964 C204.425071,417.596187 204.359108,416.250582 204.360515,414.904204 C204.360515,413.62833 204.462525,412.352457 204.494403,411.076584 C204.641041,410.719339 204.794055,410.374853 204.953445,410.030367 C206.228562,407.255343 207.943595,404.671699 208.676788,401.654258 C209.40998,398.636818 209.269717,395.274891 209.148581,392.085207 C209.021069,388.653108 208.230497,385.310319 207.918093,381.87822 C207.605689,378.44612 207.439924,375.205402 208.300628,371.958304 C209.161332,368.711206 211.125013,365.910664 212.451135,362.816671 C215.154384,356.488339 214.61246,349.42 214.663464,342.66425 C214.720845,335.819189 214.249051,328.916714 215.033248,322.09717 C215.467815,318.566913 216.22544,315.084041 217.296582,311.692422 C218.227418,308.681361 219.056244,305.644782 219.923324,302.620962 C220.42062,300.892153 220.937042,299.169724 221.491718,297.460054 L221.574601,297.491951 C233.203672,300.879395 245.349166,301.702333 257.379899,300.598703 C269.09594,299.458874 280.618487,296.826283 291.667808,292.76484 C296.002564,291.140195 300.135718,289.021019 303.985442,286.449266 C307.85584,283.759534 311.421722,280.65572 314.619922,277.192804 C317.948789,273.501857 321.061045,269.620947 323.941031,265.569597 C326.75904,261.780253 329.800195,257.990909 333.644675,255.183988 C334.282233,254.724673 334.919792,254.290876 335.608355,253.908114 C338.745144,254.947951 341.869182,256.045202 345.012347,257.097798 C348.716563,258.322636 352.452657,259.885581 356.418272,259.917478 C365.981653,259.99403 375.315513,254.176048 384.796011,257.506077 C389.437439,259.145575 393.358425,262.31612 397.64282,264.657348 C398.083863,264.91627 398.644363,264.842054 399.002917,264.477257 C399.361472,264.11246 399.426292,263.55047 399.16021,263.113541 L399.16021,263.113541 Z M171.271217,270.092569 C168.465959,267.35582 165.590569,264.689245 162.625921,262.131118 C159.661273,259.572992 156.460728,257.116936 153.39407,254.590706 C147.496652,249.742387 142.262295,244.217855 137.136323,238.584874 C132.01035,232.951893 126.903505,227.593224 121.439627,222.406799 C116.651561,217.851931 112.054762,213.194993 109.147494,207.17287 C107.394208,203.54939 105.915072,199.785563 104.404057,196.066392 C102.893043,192.347221 101.426658,188.366496 99.590489,184.704739 C96.5557095,178.663478 90.7921785,175.008101 86.6544224,169.847193 C82.2998963,164.418351 80.8335112,157.47122 80.6868727,150.651677 C80.527483,143.46213 80.9546473,136.266204 80.8080088,129.070278 C80.6613703,122.148664 80.0684407,115.112222 78.3279054,108.394749 C80.4892295,112.452026 81.2160464,117.325863 82.5995489,121.657453 C83.7025255,125.102311 85.5131923,128.189925 87.1963473,131.373229 C89.147277,135.069009 91.0769548,138.773295 92.9853806,142.486087 C96.8681132,150.026499 100.636085,157.605187 104.461438,165.171117 C107.79587,171.735485 111.123926,178.255199 113.929185,185.061983 C119.029655,197.406059 123.562697,210.541176 132.794548,220.512127 C135.210895,223.121288 137.895018,225.513551 140.445252,227.950469 C142.995487,230.387387 145.813497,232.996548 148.472117,235.548295 C153.889267,240.582172 158.919012,246.017944 163.518503,251.809302 C165.637845,254.536647 167.555606,257.414994 169.256531,260.421448 C170.767546,263.113541 172.100043,265.901324 173.470795,268.657211 C174.586522,270.915507 175.746879,273.192941 177.034748,275.387443 C175.077443,273.665014 173.14564,271.917068 171.271217,270.092569 Z M176.499199,271.036715 C173.623809,265.365458 171.130954,259.553854 167.573376,254.233462 C159.438127,242.010594 148.217093,232.390509 137.697374,222.285591 C135.219344,219.975519 132.94148,217.45942 130.888247,214.764317 C128.923737,212.077236 127.151172,209.254799 125.583758,206.318035 C122.395965,200.404362 119.890359,194.158961 117.352875,187.951837 C114.713382,181.476779 111.863495,175.193102 108.650199,168.96684 C104.748339,161.44344 100.833729,153.928545 96.9063668,146.422156 C94.976689,142.713618 93.0342601,139.015711 91.07908,135.328437 C89.1664038,131.704956 87.0242064,128.132511 85.3410514,124.40696 C83.3964973,120.17744 82.7461874,115.475846 81.2160464,111.10598 C83.6897743,113.938419 86.1762533,116.764478 89.179155,119.080189 C95.4399817,123.896611 102.676273,127.02888 109.740424,130.441842 C121.85404,136.291721 134.037787,143.838513 141.873384,155.040681 C143.890463,157.930628 145.551624,161.053577 146.82084,164.341799 C148.217093,167.946141 149.275441,171.671692 150.722699,175.263275 C152.214492,178.959564 154.179732,182.446342 156.569113,185.636126 C158.934456,188.82581 161.478315,191.894286 163.856409,195.096728 C166.282803,198.283929 168.374421,201.712882 170.098109,205.329233 C171.749095,208.949103 172.964715,212.752308 173.719443,216.658989 C175.243208,224.31423 175.166701,232.154472 175.039189,239.918162 C174.911677,247.681852 174.650278,255.394507 175.504607,263.081644 C175.834672,266.304926 176.451295,269.492343 177.347152,272.606039 C177.034748,272.082931 176.766973,271.566202 176.499199,271.036715 Z M35.1651793,461.690483 C39.4381177,457.891239 44.0596285,454.503681 48.9683258,451.572806 C53.9349083,448.485193 59.0481294,445.639995 64.0338386,442.590657 C70.2054071,438.814072 76.4726095,435.279903 83.7152766,434.131617 C87.464122,433.538335 91.2767232,433.449024 95.0574464,433.181091 C98.8540682,432.957004 102.621435,432.378215 106.310358,431.452282 C113.189617,429.66606 119.890359,427.292935 126.750491,425.449298 C133.610623,423.605661 140.483506,422.463754 147.52853,422.993241 C154.298945,423.605153 160.939518,425.228649 167.229095,427.809664 C173.168608,430.274136 178.838769,433.34391 184.149903,436.970435 C185.329387,437.748718 186.547124,438.546139 187.758486,439.356318 C186.916908,439.024591 186.068955,438.718382 185.208251,438.405793 C181.17888,436.995952 177.047499,435.777493 172.763105,435.50956 C165.800963,435.075763 158.8707,436.61957 152.029695,437.691303 C144.838032,438.826831 137.525233,438.967177 130.250688,439.043729 C116.147889,439.196834 102.013212,438.814072 88.1080563,441.595476 C81.712338,442.871012 75.4497749,444.741925 69.4020831,447.183802 C66.4565618,448.376744 63.5620452,449.690893 60.7440356,451.158148 C58.0790401,452.54885 55.5670587,454.175588 52.9403167,455.623705 C48.872692,457.882001 44.4480344,459.451325 40.2273956,461.365135 C36.3319118,463.157737 32.18778,465.192755 29.223132,468.420715 C30.9292928,465.948856 32.9240697,463.689481 35.1651793,461.690483 L35.1651793,461.690483 Z M181.759058,448.115189 C177.634053,450.603143 173.623809,453.575928 169.090766,455.285598 C163.314484,457.473721 157.614709,459.891501 151.87668,462.143418 C149.001291,463.272566 146.094023,464.3443 143.154877,465.288446 C140.24959,466.301203 137.263584,467.06522 134.229055,467.572259 C131.120826,467.907064 127.989818,467.97749 124.869693,467.782778 C121.747666,467.650615 118.620078,467.767942 115.516706,468.133644 C112.455341,468.533672 109.419721,469.110909 106.425119,469.862452 C103.371212,470.621597 100.381062,471.604019 97.3207799,472.344026 C91.3438893,473.81483 85.1936864,474.458763 79.0419711,474.257836 C75.9378241,474.126216 72.8477634,473.763718 69.7973695,473.173344 C66.6924585,472.586442 63.657679,471.693331 60.5463924,471.112808 C54.5965338,470.05138 48.5473861,469.653427 42.5098559,469.926246 C38.0469448,470.098489 33.2333764,469.498828 28.9234793,470.946945 C31.1294326,467.757261 34.7507661,465.690346 38.136203,463.993434 C42.369593,461.881864 46.8197529,460.274263 51.1168988,458.309418 C53.2272181,457.346134 55.1781479,456.153192 57.1928335,455.004906 C59.9853407,453.414317 62.8501046,451.966201 65.7871251,450.660557 C71.642869,448.088672 77.7261643,446.070383 83.957549,444.632055 C90.167107,443.189501 96.4821028,442.246596 102.842039,441.812375 C109.96357,441.302025 117.123354,441.333922 124.264012,441.321163 C131.564059,441.321163 138.864107,441.282887 146.145028,440.683227 C152.928652,440.109084 159.489132,438.13148 166.247254,437.416991 C169.357608,437.025569 172.505373,437.03629 175.612992,437.448888 C177.352693,437.750143 179.072901,438.154887 180.764467,438.660967 C184.698204,439.777357 188.969847,441.072368 192.380787,443.413596 C188.593688,444.153602 185.055237,446.131206 181.759058,448.115189 Z M259.318078,447.675013 C262.038316,446.050906 264.879617,444.639011 267.816736,443.451872 C270.488512,442.451721 273.27154,441.779115 276.104999,441.448751 C284.862636,440.523038 293.699799,442.177108 301.530841,446.207759 C302.515784,446.701946 303.469647,447.255855 304.387104,447.866394 C304.76964,448.127948 305.145799,448.402261 305.515583,448.676574 L305.585715,448.733988 L305.649471,448.778644 L305.859865,448.950887 L306.599433,449.588823 C310.290205,452.756289 313.540841,456.403622 316.264824,460.433747 C317.694658,462.49676 318.973127,464.660785 320.090176,466.908805 C320.51734,467.77002 320.925378,468.650372 321.282411,469.562622 C319.188629,467.174603 316.9644,464.904331 314.619922,462.762217 C311.694516,460.047995 308.45626,457.692283 304.973658,455.744913 C297.737367,451.866257 289.512859,451.375046 281.49237,450.769006 C273.357121,450.131069 265.25375,449.633479 257.137627,450.769006 C255.65424,450.981652 254.18148,451.243206 252.719345,451.553668 C254.89342,450.239519 257.092998,448.931748 259.318078,447.675013 Z M231.533268,463.055667 C234.255644,461.454446 237.0354,459.917019 239.891663,458.59011 C240.45909,458.354074 241.026518,458.111658 241.593945,457.856483 C242.008358,457.665102 242.422771,457.473721 242.869062,457.269581 C246.579735,455.718875 250.446503,454.572486 254.4025,453.850241 C262.155214,452.434021 270.131074,452.676437 277.960295,453.282477 C281.951413,453.595066 285.955281,453.799206 289.940024,454.175588 C293.789093,454.464152 297.584486,455.251129 301.231189,456.516816 C308.492983,459.19615 314.384025,464.899305 319.452617,470.551424 C319.822401,470.966083 320.179434,471.3935 320.542843,471.827297 C318.71673,471.1672 316.784181,470.851407 314.843068,470.89591 C313.154902,470.964996 311.472711,471.139707 309.806354,471.419018 L308.563114,471.604019 L308.008438,471.686951 L307.912804,471.686951 L307.766166,471.686951 L307.568522,471.686951 L307.466513,471.686951 C306.522926,471.80178 305.553837,471.891091 304.623001,471.967643 C300.86778,472.280232 297.418587,471.604019 293.784503,470.602459 C290.150418,469.600898 286.599216,468.254852 282.946004,467.208635 C279.301578,466.044231 275.525187,465.343373 271.705844,465.122582 C269.606051,465.114081 267.508045,465.246217 265.42589,465.518103 C263.124303,465.75414 260.829092,466.034832 258.540256,466.328283 C253.949833,466.915185 249.35941,467.674329 244.749861,468.076229 C240.140311,468.47813 235.588142,468.120885 231.004095,468.076229 C228.899535,467.960511 226.788645,468.082488 224.71139,468.439853 C223.61438,468.690817 222.546139,469.054234 221.523596,469.524346 C224.724141,467.253291 228.096827,465.109824 231.533268,463.055667 Z M359.91847,58.9674116 C360.339259,58.1253351 360.779174,57.289638 361.225465,56.4666996 C361.155334,57.2067062 361.104329,57.9467128 361.072451,58.6930988 C360.913061,61.9274379 360.881183,65.1745358 360.709043,68.4152544 C360.358385,75.1072105 359.739953,81.7736493 359.070517,88.4464673 C357.757146,101.473135 355.117653,114.289284 352.733183,127.156467 C351.642957,133.038244 350.941643,139.053987 349.264863,144.814556 C347.767406,149.871842 345.692268,154.739536 343.080544,159.321237 C337.738508,168.659116 330.785885,176.97654 322.544777,183.88818 C318.840561,187.026829 314.894072,190.178236 310.520419,192.385497 C306.363536,194.497067 301.945254,195.932425 297.667235,197.737786 C297.074306,197.986581 296.430371,198.280032 295.824691,198.535207 L294.243545,198.573483 C286.854239,198.892451 280.217253,202.177826 273.204107,204.314914 L272.668558,204.468018 C275.014689,202.551822 277.113495,200.351056 278.916633,197.916408 C282.104427,193.782578 284.794925,189.285124 287.542803,184.845085 C290.76885,179.633142 294.288174,174.593442 297.673611,169.483569 C301.569095,163.589033 305.458203,157.681739 309.557706,151.92755 C313.351699,146.426899 317.482484,141.166613 321.926345,136.176893 C326.013097,131.711336 330.393125,127.558368 334.537257,123.156604 C338.681388,118.754841 342.564121,114.22549 345.48414,108.98165 C347.017111,106.176166 348.093217,103.144055 348.671934,99.9995013 C349.274259,96.5735826 350.087634,93.1881901 351.107408,89.8626868 C352.178507,86.6283477 353.485502,83.4833197 354.792498,80.3510504 C355.914706,77.7064743 356.769058,74.9559664 357.342733,72.1408048 C358.222564,67.8155938 358.611474,63.2352082 359.91847,58.9674116 Z M257.972829,191.658249 C260.739834,186.593032 263.978632,181.795747 267.007036,176.883635 C268.658313,174.21068 270.19483,171.505828 272.037374,168.947702 C273.879919,166.389576 275.90098,163.946278 277.992173,161.573153 C282.212812,156.788628 286.777732,152.33583 291.20239,147.749065 C295.713369,143.196254 299.873625,138.308468 303.647536,133.127555 C307.281621,128.024061 310.507668,122.620737 314.199133,117.54914 C315.974271,115.074077 317.923783,112.729012 320.032796,110.531837 C322.277002,108.228885 324.859115,106.36611 327.24996,104.24178 C332.07628,99.942087 335.984515,94.7875583 339.714234,89.569236 C341.62691,86.8899017 343.501332,84.1978088 345.452262,81.5631301 C347.59446,78.6924149 349.81954,75.8982521 351.904357,72.9828813 C353.61821,70.5888575 355.187286,68.0943154 356.603164,65.5126423 L356.354516,66.9607586 C355.950364,69.7552159 355.38626,72.5241611 354.664986,75.253936 C353.810657,78.2522386 352.43353,81.0846776 351.273173,83.9745309 C349.977123,87.1176552 348.886722,90.3417857 348.008873,93.6265135 C347.180046,96.8608527 346.78476,100.197262 345.809295,103.386945 C344.833556,106.235004 343.44825,108.925594 341.697041,111.373913 C340.044701,113.79885 338.241076,116.11704 336.296919,118.314665 C332.273923,122.914188 327.862017,127.150088 323.622251,131.545472 C319.274992,136.104739 315.228585,140.941996 311.508635,146.026636 C303.284128,157.120355 296.022334,168.915805 288.556521,180.513495 C285.866023,184.666463 283.456051,189.017191 280.746427,193.144642 C278.036802,197.272092 274.849008,201.584544 270.672999,204.416983 C270.160539,204.762925 269.630668,205.082313 269.085477,205.373889 C263.309195,206.649762 257.379899,207.07718 251.507983,207.766151 C253.007133,202.149963 255.177755,196.735186 257.972829,191.639111 L257.972829,191.658249 Z M189.887932,19.6194747 C193.713284,26.4709151 196.901078,33.6540825 200.841191,40.4481086 C206.234938,49.8002609 211.717943,59.0822402 217.073436,68.4599099 C222.173906,77.391024 227.089484,86.3795524 230.608808,96.0825699 C234.128132,105.785587 236.346837,115.858608 236.155569,126.237839 C236.026315,131.510829 235.506341,136.766962 234.599926,141.962979 C233.848781,146.873737 232.745073,151.723975 231.297372,156.476039 C228.472986,165.222151 224.035578,173.317568 220.63739,181.827644 C219.446956,184.754508 218.431447,187.749587 217.596234,190.797035 C217.596234,190.631171 217.596234,190.452549 217.596234,190.280306 C217.379464,182.682479 218.157286,175.122929 218.157286,167.525103 C218.152898,159.93243 217.180203,152.371353 215.262769,145.025075 C213.350093,137.637768 210.952872,130.390807 209.129454,122.984361 C205.406111,107.846123 204.213877,92.2996051 202.071679,76.9061921 C200.006091,62.4180056 196.704223,48.133442 192.20227,34.2090875 C190.442608,28.7036936 188.600063,23.1982997 186.547124,17.7949757 C185.329387,14.6052921 183.996889,11.0966402 182.039584,8.11747569 C185.138119,11.5431959 187.63735,15.6068528 189.887932,19.6194747 Z M208.185868,182.586789 C205.916158,175.569485 204.048111,168.379938 203.76121,160.954355 C203.448806,153.190665 202.868628,145.446113 202.543473,137.688803 C202.218318,129.931492 203.27029,122.104009 201.861285,114.448768 C200.522412,107.189048 197.398374,100.299332 194.605867,93.4989261 C189.084608,79.9746677 184.844842,65.646609 183.51872,51.0506169 C182.747274,42.5341617 183.282824,33.9475334 182.313734,25.4310782 C181.860518,21.3527904 181.006303,17.3291885 179.763499,13.4187298 C178.905469,10.919798 178.232095,8.36116352 177.748814,5.76348919 C178.792706,6.71869309 179.694449,7.81861211 180.42656,9.02972519 C181.787723,11.2358977 182.950516,13.5585933 183.901256,15.9704767 C185.941443,20.927245 187.624599,26.069015 189.320505,31.1533706 C193.934169,44.8225519 197.412174,58.8495084 199.719088,73.0913305 C202.097182,88.1466371 203.16828,103.367807 206.285943,118.314665 C209.365351,133.114796 215.632554,147.257853 216.35937,162.498162 C216.722779,170.000297 216.021464,177.457778 215.957708,184.953534 C215.925831,189.004432 216.168103,193.05533 216.365746,197.106229 C215.951333,200.933849 216.142601,204.761469 215.772816,208.633745 C215.709061,209.303579 215.626178,209.967033 215.524169,210.636866 C215.377871,208.216633 215.073316,205.808584 214.61246,203.428182 C213.203455,196.302428 210.417323,189.508402 208.185868,182.586789 Z M211.768948,256.230204 L212.132356,254.762949 C213.177952,251.573266 214.261802,248.440996 215.173511,245.264072 C216.506009,240.600754 217.424094,235.994851 217.162694,231.16567 C217.60261,230.668079 218.09353,230.170489 218.558948,229.704795 C219.515286,228.754269 220.471624,227.790985 221.389709,226.808562 C222.291985,225.859938 223.052195,224.785558 223.646667,223.618879 C223.863143,223.168656 224.042263,222.701389 224.182216,222.221797 L224.386235,222.336626 C224.628507,222.476972 224.864404,222.636456 225.093925,222.79594 C225.667728,223.19784 226.22878,223.618879 226.789831,224.039917 C227.987253,224.98311 229.267602,225.81583 230.615184,226.52787 C232.263026,227.283773 233.968613,227.906682 235.715654,228.390645 C236.990771,228.786166 238.265888,229.143411 239.541006,229.462379 C239.374014,229.598598 239.25001,229.780282 239.183973,229.985487 C239.126593,230.164109 239.04371,230.342732 238.999081,230.521354 C238.970875,230.636222 238.955901,230.753943 238.954452,230.872219 L238.954452,230.910495 C238.957435,230.92308 238.957435,230.936187 238.954452,230.948772 L238.954452,230.948772 C238.951972,230.972097 238.951972,230.995619 238.954452,231.018945 C238.871569,231.414465 238.775935,231.816366 238.680302,232.211886 C238.584668,232.607407 238.45078,232.990169 238.316893,233.372931 C238.259513,233.545174 238.202133,233.704658 238.138377,233.870522 L237.985363,234.246904 C237.985363,234.246904 237.927982,234.387251 237.90248,234.451044 C237.136517,236.140204 236.230123,237.76201 235.192855,239.299363 C234.638179,240.14144 234.04525,240.970757 233.433193,241.787316 C232.942273,242.425253 232.272836,243.190777 231.641653,243.962681 C230.449418,245.423556 229.282686,246.89719 228.090451,248.345306 C227.032104,249.621179 226.031136,250.967226 224.947287,252.230341 C223.73653,253.616163 222.441981,254.926393 221.070929,256.153651 C218.055277,258.896779 214.848356,261.416629 211.826328,264.153378 C210.838112,265.052869 209.856271,265.977877 208.925436,266.947541 C209.996534,263.42613 210.882741,259.828167 211.768948,256.230204 Z M241.345297,229.966349 L241.307044,229.8579 C244.988159,230.633732 248.718135,231.15594 252.470697,231.420845 C254.007214,231.542053 255.54373,231.66964 257.067495,231.835504 L256.971862,232.033264 C256.87543,232.209332 256.768995,232.379728 256.653082,232.543613 L256.563824,232.664821 L256.449063,232.817926 C256.302425,232.98379 256.149411,233.143274 255.996397,233.302758 C255.843383,233.462242 255.683993,233.608968 255.518228,233.749314 L255.263204,233.966212 C255.263204,233.966212 255.116566,234.081041 255.059185,234.138455 L254.861542,234.285181 L254.56189,234.4957 C254.34512,234.655184 254.121974,234.801909 253.924331,234.948635 C253.452537,235.261224 252.961617,235.554675 252.470697,235.835367 C251.418725,236.435027 250.334875,236.970894 249.238274,237.487623 C244.743485,239.611952 240.025551,241.315243 235.702902,243.7713 C236.193823,243.056811 236.671992,242.329563 237.150161,241.608694 C238.360285,239.825361 239.405931,237.935676 240.274198,235.962954 C241.001015,234.18949 241.893598,231.899297 241.345297,229.966349 Z M208.262375,271.738445 L208.855304,271.100509 C210.188439,269.663428 211.595078,268.296411 213.069567,267.004955 C216.18723,264.274586 219.502535,261.786633 222.632948,259.056263 C224.095802,257.814703 225.479865,256.483085 226.77708,255.069159 C227.886432,253.831562 228.881024,252.485515 229.932996,251.196883 L230.525925,250.476015 C230.930057,250.551367 231.338028,250.36512 231.546019,250.010321 C231.648029,249.850837 231.750038,249.704111 231.858423,249.557386 L231.985935,249.404281 C232.070004,249.299816 232.15938,249.199741 232.25371,249.104451 C232.585059,248.748355 232.94083,248.415821 233.318433,248.109269 L233.547954,247.924268 L233.751973,247.771163 C233.968743,247.618058 234.191888,247.458574 234.389531,247.311848 C234.8677,246.99288 235.358621,246.673912 235.855916,246.399599 C238.125186,245.137518 240.46698,244.01066 242.869062,243.024914 C245.34279,241.946801 247.842021,240.932481 250.283871,239.796954 C252.489943,238.849894 254.578215,237.648853 256.506444,236.218129 C257.388225,235.557285 258.155079,234.75549 258.776153,233.845004 C259.119193,233.338024 259.357624,232.767619 259.477467,232.167231 C260.912273,232.368856 262.335876,232.643526 263.742735,232.990169 C266.713759,233.742934 269.608276,234.833806 272.604802,235.433467 C269.219365,237.761936 265.948689,240.288165 262.563252,242.616634 C257.862197,245.926633 252.880895,248.818995 247.676255,251.260677 C245.12602,252.43448 242.531156,253.54449 240.082931,254.967089 C237.621432,256.394638 235.299063,258.049879 233.146292,259.911099 C231.335625,261.480423 229.735353,263.266646 227.905559,264.829591 C226.171399,266.315983 224.379859,267.744962 222.613822,269.193078 C222.046394,269.652392 221.491718,270.130845 220.956169,270.622056 C218.782094,270.807058 216.608018,271.100509 214.465821,271.451374 C212.357547,271.797834 210.27454,272.28373 208.230497,272.90587 C208.217745,272.535866 208.236872,272.133966 208.262375,271.738445 Z M233.860358,271.69379 C231.788244,270.866913 229.575258,270.45092 227.344507,270.468951 C226.585813,270.437055 225.820742,270.430675 225.062047,270.468951 C227.446517,268.606176 229.958498,266.896506 232.138949,264.784935 C234.000664,262.933262 236.023322,261.250984 238.183006,259.757994 C240.440899,258.229393 242.815725,256.881296 245.28541,255.726234 C247.918528,254.501395 250.589899,253.423282 253.15926,252.070856 C255.728622,250.718431 258.113092,249.276694 260.503937,247.726507 C265.247374,244.638894 269.665656,241.117483 274.275206,237.832109 C278.738117,234.642425 283.519807,231.950332 288.939056,230.96791 C292.024,230.51421 295.145801,230.362515 298.260165,230.514975 C301.323201,230.605542 304.388819,230.481906 307.434635,230.144971 C312.146194,229.545311 316.838626,228.869098 321.582063,228.55013 C326.3255,228.231161 331.113566,228.231161 335.697614,229.436862 C337.821868,229.970269 339.838412,230.865843 341.658788,232.084299 C343.809088,233.592493 345.834565,235.271435 347.715596,237.104861 C349.42723,238.750556 351.269438,240.254638 353.224103,241.602315 C352.414404,241.532142 351.604704,241.487486 350.826882,241.44921 C347.205549,241.283346 343.47583,241.532142 339.89275,240.913343 C337.297886,240.460408 334.715773,239.950059 332.101782,239.63747 C329.487792,239.324881 326.765416,239.044189 324.087669,238.942119 C318.741036,238.724413 313.386522,239.083731 308.116823,240.013852 C298.693705,241.685247 290.003779,245.755283 281.830277,250.603602 C277.762652,253.027761 273.822539,255.643302 269.825046,258.175911 C266.560745,260.242826 263.168932,262.11836 259.745242,263.917341 C252.203321,267.913547 244.420767,271.437481 236.44247,274.468815 C236.200198,273.218459 234.995212,272.210519 233.860358,271.674652 L233.860358,271.69379 Z M172.444325,316.674708 C174.429124,307.475042 178.560311,298.875505 184.500561,291.578277 C190.451962,284.250079 198.327352,278.72719 207.242281,275.629859 C211.304195,274.308523 215.502793,273.452468 219.757559,273.078113 L221.262197,272.950525 C221.538039,273.036044 221.835838,273.015573 222.097399,272.893111 C223.672169,272.784662 225.246939,272.727247 226.821709,272.771903 C228.734385,272.816558 230.959465,272.963284 232.712752,273.716049 C233.035492,273.859261 233.34306,274.034508 233.630836,274.239157 C233.630836,274.239157 233.917738,274.487953 233.968743,274.545367 L234.083503,274.666575 C234.083503,274.666575 234.121757,274.723989 234.147259,274.755886 L234.089879,274.838818 L234.089879,274.838818 C233.997151,274.929499 233.899227,275.014701 233.796602,275.093993 C233.684664,275.197031 233.562952,275.288904 233.433193,275.368305 L233.305682,275.444858 C229.65247,274.283813 225.47646,275.062096 221.918883,276.159347 C217.806205,277.441766 214.025531,279.613077 210.844487,282.519576 C204.220252,288.503422 200.688177,296.847635 198.163444,305.230123 C196.824571,309.69568 195.613209,314.161237 194.070317,318.518345 C192.527425,322.875453 190.84427,327.156008 189.607406,331.589668 C186.672027,340.761226 187.375141,350.711169 191.571087,359.378192 C193.611275,363.990474 196.429285,368.143442 198.87751,372.538826 C201.006621,376.386423 202.847832,380.386608 204.386018,384.506519 C202.920881,381.787617 201.124103,379.26121 199.0369,376.985245 C198.917385,376.493694 198.545972,376.102629 198.061435,375.958167 C196.639968,374.507179 195.116563,373.159819 193.50289,371.926407 C190.997284,370.012597 188.217528,368.526204 185.648166,366.720843 C183.250952,365.104626 181.186144,363.042924 179.565856,360.647686 C176.378063,355.812126 174.828795,350.013281 173.190269,344.527025 C170.612163,335.452274 170.355652,325.874593 172.444325,316.674708 L172.444325,316.674708 Z M71.0151067,256.013305 C74.7767032,257.199868 78.6658115,257.971771 82.4911639,258.915917 C87.419834,260.115412 92.2529879,261.678376 96.9509959,263.591994 C106.297607,267.419614 115.102293,272.644316 123.352303,278.481437 C132.063552,284.593517 140.227397,291.451626 147.751676,298.978343 C151.322004,302.582686 154.873207,306.276339 157.691216,310.512239 C160.368963,314.543999 162.657799,318.850072 165.826466,322.543726 C166.583784,323.424679 167.395045,324.257726 168.255564,325.038058 C168.433458,325.202864 168.65462,325.313511 168.893123,325.357027 C168.640204,329.155481 168.761928,332.969628 169.256531,336.744197 C169.307536,337.165235 169.377668,337.579894 169.441424,338.020071 L169.34579,338.020071 C160.222324,336.827129 152.629,330.709316 145.813497,324.993403 C142.287797,322.046135 138.800351,319.022315 135.108886,316.323843 C130.900998,313.261746 126.272322,310.792931 121.720153,308.253943 C111.876246,302.665618 101.630677,297.574883 92.4880848,290.812753 C84.1551922,284.656664 77.6967222,276.184864 71.8566842,267.732203 C69.1343085,263.796133 66.3991815,259.847305 64.0784677,255.66244 C63.4217822,254.45036 62.7140921,253.174487 61.9936507,251.898613 C64.7974328,253.678676 67.8331898,255.063286 71.0151067,256.013305 L71.0151067,256.013305 Z M73.3485717,290.391715 C70.5114353,284.982012 67.1196229,279.884897 64.5502612,274.334848 C61.9235192,268.676349 60.3041201,262.609571 58.3723171,256.695898 C57.6136222,254.35467 56.7337912,252.058098 55.9495939,249.723249 C55.3932104,248.19988 54.9895634,246.624937 54.7446079,245.021656 C55.1441447,245.387406 55.52668,245.770168 55.8922136,246.169942 L56.2301198,246.622877 C56.612655,247.120467 57.0206926,247.592541 57.4414814,248.051855 C58.8674746,250.062613 60.1581934,252.166069 61.3050873,254.34829 C62.3825615,256.262101 63.4217822,258.252463 64.6012659,260.134376 C65.9082613,262.207671 67.3045149,264.23631 68.6752662,266.277707 C74.5216797,274.928129 80.7888821,283.655103 88.8157465,290.423612 C93.1737629,293.968168 97.820805,297.141297 102.708151,299.909731 C107.610978,302.793205 112.641316,305.434263 117.671655,308.0817 C122.510725,310.633447 127.464557,313.070365 132.080482,316.024012 C135.860586,318.562384 139.480317,321.332054 142.91898,324.31719 C149.86837,330.05862 157.181169,336.437987 166.157996,338.619731 C167.208077,338.87819 168.27254,339.074167 169.34579,339.206633 C169.445196,339.217053 169.545658,339.203941 169.639067,339.168357 C170.447163,343.318236 171.529132,347.40999 172.877865,351.416742 L172.839612,351.416742 C166.860926,351.747853 160.870547,351.026681 155.140981,349.286033 C149.167056,347.563604 143.537412,344.97996 137.856764,342.492007 C135.051506,341.267168 132.220745,340.093365 129.332604,339.047149 C126.584726,338.051967 123.811345,337.133338 121.088969,336.048846 C118.40136,335.026726 115.793003,333.807065 113.285251,332.399848 C110.907156,331.034663 108.637447,329.446201 106.386865,327.876877 C97.1677658,321.433716 88.2865727,314.078305 81.1714173,305.281158 C81.0865427,304.974452 80.8820934,304.714716 80.60399,304.56029 C77.3970696,300.298872 75.7967972,295.074171 73.3485717,290.391715 Z M174.50364,382.573571 C171.41148,382.420466 168.618973,381.520975 165.692578,380.525794 C162.064869,379.294576 158.488165,377.891115 154.96884,376.360067 C147.815431,373.259695 140.846914,369.738284 133.929402,366.15308 C130.741609,364.519962 127.483683,362.963396 124.423402,361.151656 C121.801496,359.549952 119.299876,357.758975 116.938462,355.792987 C112.08664,351.8314 107.591851,347.461534 102.618893,343.67219 C100.222024,341.790018 97.6713141,340.112722 94.9936906,338.658007 C92.0234188,337.194914 88.9507909,335.949783 85.8000937,334.932457 C71.2255011,329.720514 57.3267208,322.811659 43.8487292,315.284006 C40.5293676,313.449536 37.3152893,311.430494 34.2215924,309.236366 C31.1549349,307.041863 28.2540427,304.617704 25.2957702,302.289235 C22.3374977,299.960766 19.5577416,297.479192 16.1723047,295.973661 C13.0737693,294.57658 9.7648395,294.059851 6.45590969,293.421914 C5.8502289,293.300707 5.2445481,293.16674 4.6452429,293.026394 C8.5598535,291.342241 13.2204078,291.431552 17.3964175,291.846211 C23.0515634,292.401216 28.5983244,293.849332 34.0685783,295.361242 C46.972767,298.946446 59.9407116,302.933551 71.7100457,309.542575 C77.7849487,313.085184 83.4694227,317.259121 88.669108,321.9951 C93.9544698,326.658418 99.080442,331.525875 104.792968,335.672463 C110.505494,339.819052 116.906584,343.180979 123.161035,346.574802 C129.415486,349.968625 135.720942,353.592106 141.401591,358.057663 C147.279882,362.669945 153.068915,367.441712 159.297864,371.581921 C162.07762,373.438317 164.851001,375.250057 167.55425,377.214903 C170.138757,379.228332 172.914868,380.982592 175.842513,382.452363 L176.263302,382.637365 L174.50364,382.573571 Z M163.805404,372.468653 C160.757874,370.414497 157.678465,368.424135 154.720192,366.229632 C151.608906,363.913922 148.574126,361.502521 145.532971,359.103879 C142.714049,356.803583 139.779584,354.648805 136.741036,352.647959 C133.725383,350.734149 130.601346,348.998961 127.464557,347.29567 C121.088969,343.844433 114.649626,340.610094 108.611945,336.642127 C96.6640944,328.789126 87.4704976,317.472129 75.3250037,309.887061 C63.5939231,302.576306 50.1669362,298.193681 36.9120902,294.57658 C31.5664868,293.014182 26.1363279,291.757541 20.647967,290.812753 L20.2335539,290.755339 C23.0961926,290.710683 25.9715824,290.755339 28.7959676,290.94672 C36.2554047,291.418793 43.6064569,292.994497 51.1105232,293.205016 C54.5342135,293.300707 57.9579039,292.854151 61.3752187,293.096567 C64.0465898,293.294327 66.1951627,293.862091 68.1460924,295.648314 C70.1472858,297.600981 72.0253248,299.676144 73.7693604,301.861817 C75.3377549,303.686316 77.0081588,305.727714 79.1631073,306.895138 C79.909051,307.845664 80.6932483,308.770672 81.4901967,309.682921 C83.4028729,311.832768 85.3984317,313.893304 87.4768731,315.870908 C91.8471998,319.995739 96.456207,323.859802 101.28002,327.44308 C105.876818,330.894317 110.607504,334.351934 115.822734,336.801611 C121.235608,339.353358 126.973636,341.082167 132.514022,343.321325 C138.417816,345.700829 144.098464,348.597061 150.117018,350.689494 C154.228753,352.172451 158.492624,353.193048 162.829939,353.732452 C162.877123,353.968573 162.984769,354.188391 163.142343,354.370389 C168.829367,361.132518 171.143705,369.827595 175.504607,377.33611 C176.44664,378.951541 177.512432,380.491456 178.692401,381.942014 C173.081884,380.072859 168.561592,375.658337 163.805404,372.468653 Z M196.448411,397.724568 C194.809885,395.561963 192.922712,393.654532 191.156674,391.606755 C189.390636,389.558978 188.045387,387.543098 186.413237,385.463424 C184.653575,383.211508 182.524129,380.806486 179.814504,379.721994 C179.69475,379.67477 179.56706,379.65095 179.438344,379.651821 C175.160325,373.272454 172.935245,365.706524 169.180024,359.008189 C168.184451,357.243874 167.063724,355.553259 165.826466,353.94935 C166.623414,353.94935 167.426738,353.987627 168.230062,353.94935 C169.766578,353.911074 171.309471,353.834522 172.839612,353.694176 C173.095511,353.671098 173.340232,353.578446 173.547302,353.426242 C175.377095,358.753014 177.889077,363.824611 182.402993,367.397056 C184.953227,369.400178 187.720232,370.98864 190.404355,372.749345 C192.529612,374.15557 194.518937,375.757371 196.346402,377.533871 C196.75444,387.262406 200.445905,396.49973 201.306609,406.119815 C200.096125,403.095782 198.460209,400.260232 196.448411,397.699051 L196.448411,397.724568 Z M206.234938,399.466135 C206.1791,399.524276 206.129916,399.588466 206.088299,399.657516 C205.374234,400.895114 204.698421,402.147596 204.060863,403.414964 C203.691079,400.416661 203.142778,397.443876 202.530722,394.483849 C201.918665,391.523823 201.255604,388.742419 200.675426,385.865324 C200.369398,384.347035 200.037867,382.809608 199.770092,381.284939 C202.633699,384.739949 204.662676,388.809041 205.699389,393.176079 C206.139386,395.24221 206.3193,397.355307 206.234938,399.466135 Z M219.547164,294.716926 C217.583483,300.534909 216.091596,306.531514 214.389314,312.432429 C212.476638,319.003177 212.183361,325.892893 212.208863,332.68692 C212.234365,339.480946 212.457511,346.185661 211.788074,352.877617 C211.555708,356.101813 210.723219,359.254167 209.333473,362.172355 C207.784206,365.183416 205.960788,368.054131 205.265849,371.416058 C204.322262,375.958167 205.080957,380.423724 205.807773,384.908419 C204.708436,381.740629 203.431287,378.637448 201.982421,375.613681 C199.840224,371.148124 197.079594,367.084467 194.784383,362.72098 C192.399016,358.370877 190.738694,353.660612 189.868805,348.775684 C189.215128,344.394391 189.412119,339.928069 190.448984,335.621428 C191.542481,331.33117 192.91836,327.117973 194.567613,323.00942 C196.21889,318.626794 197.698026,314.225031 199.030524,309.740336 C201.408618,301.695954 203.767586,293.26881 209.231464,286.678923 C211.920359,283.406539 215.282149,280.752065 219.088122,278.896095 C222.722207,277.141769 226.796207,275.776585 230.876583,276.191244 C231.197794,276.225696 231.517002,276.2768 231.832921,276.344349 C230.430258,277.044961 229.14075,277.952453 228.007568,279.036441 C227.011498,280.166507 226.109529,281.376245 225.310695,282.653543 C224.467485,283.925387 223.692809,285.241414 222.989981,286.595992 C221.639451,289.211439 220.490626,291.926319 219.55354,294.716926 L219.547164,294.716926 Z M335.289576,251.113951 C334.996783,251.145247 334.729547,251.29508 334.550008,251.52861 C330.909183,253.721984 327.673924,256.527538 324.986627,259.821787 C321.868965,263.540959 319.172091,267.598236 316.060805,271.304648 C310.125133,278.385746 303.041855,284.427007 294.62608,288.318421 C289.794704,290.433002 284.80414,292.162924 279.70083,293.492088 C273.934869,295.121163 268.075607,296.399376 262.155214,297.319708 C250.315198,299.239735 238.2243,298.980305 226.477428,296.554184 C225.032294,296.243721 223.591412,295.894982 222.154779,295.507968 C223.272603,292.23613 224.696416,289.077106 226.407296,286.072883 C227.733418,283.795449 229.142423,281.205426 231.342001,279.693516 C232.897644,278.602645 235.167353,277.779706 236.16832,276.044518 L236.16832,276.044518 C243.346294,273.520212 250.35475,270.537029 257.150378,267.113404 C260.829092,265.308043 264.456801,263.406992 267.988876,261.371974 C271.724971,259.19661 275.314426,256.785209 278.980389,254.501395 C286.898868,249.570144 295.155254,245.066311 304.259593,242.76336 C314.524288,240.166957 325.203397,240.377476 335.60198,242.004215 C337.680421,242.335942 339.739736,242.782498 341.84368,242.910085 C343.698976,243.024914 345.567023,243.012155 347.422319,243.018534 C351.024526,243.018534 354.990141,242.96112 358.375578,244.345443 C358.579596,244.428374 358.783615,244.524065 359.013136,244.626135 C351.23492,245.557522 343.443952,247.177882 336.449933,250.603602 C336.048271,250.699292 335.65936,250.909812 335.295952,251.113951 L335.289576,251.113951 Z M380.683758,253.238281 C378.20599,252.922268 375.695521,252.967393 373.230696,253.372247 C368.346996,254.105874 363.603559,255.611405 358.713484,256.306756 C356.393491,256.659954 354.027096,256.560303 351.744967,256.013305 C350.20845,255.630543 348.691061,255.152091 347.173671,254.699156 C344.387539,253.876217 341.607783,253.034141 338.834403,252.147409 C341.625358,250.870976 344.527886,249.854489 347.505201,249.11083 C352.549543,247.863749 357.689101,247.040078 362.870367,246.648394 C364.043475,246.546324 365.222958,246.444255 366.402442,246.367702 C367.581926,246.29115 368.28324,244.5751 367.040001,243.975439 C365.798271,243.307129 364.521284,242.70659 363.214648,242.176458 C361.882151,241.691626 360.543277,241.25145 359.217155,240.753859 C356.759814,239.78687 354.498131,238.381936 352.541915,236.60727 C348.499793,233.111377 344.891211,229.034961 339.739736,227.108393 C335.238571,225.41786 330.176355,225.258376 325.452045,225.436998 C320.442478,225.720702 315.450416,226.257251 310.494917,227.044599 C307.933163,227.462539 305.348427,227.724575 302.754954,227.829261 C299.56716,227.886675 296.379367,227.676156 293.159695,227.778226 C290.078263,227.844669 287.02257,228.356044 284.087234,229.296515 C281.475212,230.184695 278.967585,231.354759 276.608671,232.786029 L275.728839,233.398449 C272.26052,233.073101 268.932463,231.701537 265.610782,230.731873 C261.856085,229.736517 258.011861,229.116802 254.134725,228.881857 C250.446339,228.658204 246.774136,228.219408 243.136837,227.567707 C239.504519,226.857041 235.936972,225.847806 232.47048,224.550266 C230.982662,223.875118 229.584242,223.017997 228.307221,221.998519 L227.274376,221.220237 C237.870602,220.327125 248.148049,217.335202 258.412744,214.675006 C269.697534,211.746876 281.447741,209.201509 293.166071,210.324277 C299.541658,210.962214 305.560212,213.035509 311.61702,215.045009 C318.175375,217.218247 324.780483,219.246886 331.432346,221.130925 C342.557746,224.320609 353.657643,227.905813 363.310282,234.482941 C365.669116,236.026022 367.851955,237.822957 369.819757,239.841609 C371.732433,241.902145 373.345457,244.256132 375.17525,246.405978 C376.970761,248.464335 379.033509,250.272992 381.308565,251.783785 C382.634687,252.689655 383.979936,253.563628 385.286932,254.495016 C383.80969,253.895792 382.266654,253.473936 380.690133,253.238281 L380.683758,253.238281 Z M390.712556,257.391249 C387.486509,253.793286 382.940716,251.751888 379.19187,248.753585 C376.922161,246.935466 375.168875,244.606997 373.396461,242.323183 C371.696389,240.073732 369.745621,238.025495 367.581926,236.218129 C358.732611,229.015823 347.690093,224.645957 336.870722,221.366962 C330.380374,219.402117 323.966533,217.277788 317.578195,214.987595 C314.27564,213.805286 310.95821,212.648494 307.625903,211.517219 C304.592864,210.43215 301.486478,209.56449 298.330296,208.920817 C286.522709,206.707176 274.638614,208.748574 263.168932,211.804291 C251.699251,214.860008 240.114809,218.66849 228.166958,219.918846 C227.331756,220.001778 226.490179,220.071951 225.654977,220.135744 C225.552099,220.074179 225.445651,220.018793 225.336197,219.969881 C226.223107,218.495385 227.503785,217.297903 229.034038,216.512264 C231.040983,215.378277 233.16064,214.456792 235.358621,213.762756 C239.723093,212.33349 244.202591,211.283385 248.747354,210.624108 C251.46973,210.222208 254.689401,209.986171 257.615796,209.673582 C261.358266,209.297199 265.100735,208.88254 268.7922,208.168051 C275.869102,206.790108 282.384953,203.568528 289.417225,202.056618 C292.91637,201.386245 296.494189,201.227232 300.038954,201.584544 C303.473084,201.860472 306.882475,202.387109 310.239894,203.160248 C317.115969,204.746127 323.772555,207.16697 330.061594,210.368933 C333.150684,211.928699 336.153675,213.65362 339.057548,215.53622 C342.047699,217.488307 344.954966,219.555222 347.98337,221.405238 C353.95092,225.003201 360.791925,227.012702 366.383315,231.261361 C371.974705,235.510019 376.118837,241.143 380.645504,246.342185 C382.830876,248.831836 385.148565,251.202009 387.588519,253.44242 C389.705214,255.400886 391.860162,257.352972 393.78559,259.509199 C392.784622,258.807468 391.764528,258.0866 390.718932,257.391249 L390.712556,257.391249 Z" id="Shape"></path>
            </g>
        </g>
    </g>
</svg>