<?xml version="1.0" encoding="UTF-8"?>
<svg width="46px" height="48px" viewBox="0 0 46 48" version="1.1" xmlns="http://www.w3.org/2000/svg" xmlns:xlink="http://www.w3.org/1999/xlink">
    <title>B898568C-FE9D-4DC8-AD96-66E9FF80058A</title>
    <g id="Početna-&amp;-Dropdowns" stroke="none" stroke-width="1" fill="none" fill-rule="evenodd">
        <g id="Početna" transform="translate(-1073.000000, -2751.000000)" fill="#497A59" fill-rule="nonzero">
            <g id="Pretrazi-prema-namjeni" transform="translate(285.000000, 2731.000000)">
                <g id="namjene" transform="translate(270.000000, 0.000000)">
                    <g id="bubrezi-i-jetra" transform="translate(488.000000, 0.000000)">
                        <g id="Group-59" transform="translate(7.000000, 0.000000)">
                            <g id="liver" transform="translate(23.021302, 20.000000)">
                                <path d="M33.2948228,40.9176563 C33.6825728,40.9386563 33.9798541,41.2700625 33.9587603,41.6579063 C33.9587603,41.6579063 33.6505103,47.335125 33.6505103,47.335125 C33.6304478,47.7235313 33.2940728,48.0210938 32.9102603,47.9990625 C32.5225103,47.9779688 32.2252291,47.6465625 32.2463228,47.2588125 L32.2463228,47.2588125 L32.5545728,41.5815938 C32.5756666,41.1938438 32.9049166,40.8955313 33.2948228,40.9176563 Z M35.4432916,23.5944375 C35.8316041,23.5944375 36.1465103,23.9091562 36.1465103,24.2974687 L36.1465103,24.2974687 L36.1470728,28.010625 L39.3554791,47.1809062 C39.4196041,47.563875 39.1610416,47.9263125 38.7780728,47.9904375 C38.4292291,48.0490312 38.0268541,47.761875 37.9685416,47.4130312 L37.9685416,47.4130312 L35.2138853,30.9537187 L34.4766353,32.121375 L34.1576041,37.9965 C34.1365103,38.38425 33.8050103,38.6824687 33.4173541,38.6604375 C33.0296041,38.6393437 32.7323228,38.3079375 32.7534166,37.9201875 L32.7534166,37.9201875 L33.0822916,31.8624375 C33.0887603,31.742625 33.1257916,31.6265625 33.1898228,31.525125 C33.8645416,30.4564687 34.7410103,29.4012187 34.7408228,28.0692187 L34.7408228,28.0692187 L34.7402603,24.2976562 C34.7401666,23.9093437 35.0549791,23.5944375 35.4432916,23.5944375 Z M8.95301034,23.5944375 C9.34141659,23.5944375 9.65632284,23.909625 9.65613534,24.29775 C9.65612813,24.2977716 9.65604936,24.3195366 9.65590999,24.3596996 L9.65532108,24.5320375 C9.65319958,25.1577549 9.64749251,26.8710329 9.64493477,27.6174389 L9.64417377,27.837384 C9.64407239,27.8662353 9.64398464,27.8909047 9.64391191,27.910974 L9.64366659,27.9728438 C9.63916659,29.30175 10.5239791,30.4478438 11.1652291,31.5460313 C11.2211978,31.6418438 11.2537291,31.7496563 11.2600103,31.8605625 L11.2600103,31.8605625 L12.1372291,47.25675 C12.1593541,47.6445 11.8629166,47.97675 11.4752603,47.9987813 C11.0881666,48.0208125 10.7553541,47.7244688 10.7332291,47.3368125 L10.7332291,47.3368125 L9.86557284,32.1091875 L9.25357284,31.0610625 L7.16332284,47.386125 C7.11860409,47.735625 6.72691659,48.0387188 6.37657284,47.9942813 C5.99135409,47.9449688 5.71910409,47.59275 5.76841659,47.2075313 L5.76841659,47.2075313 L8.23751034,27.924375 L8.24988534,24.2952188 C8.25129159,23.9076563 8.56582284,23.5944375 8.95301034,23.5944375 Z M8.65497909,15.0122813 C9.54326034,14.7175313 9.99466659,15.9972188 9.13732284,16.3332188 C6.05566659,17.4583125 3.87335409,20.318625 3.57776034,23.620125 L3.57776034,23.620125 L1.40341659,47.361 C1.37154159,47.7092813 0.99063534,48.0295313 0.63907284,47.9970938 C0.25235409,47.9616563 -0.03245841,47.6194688 0.00297909004,47.23275 C0.00297909004,47.23275 0.473341448,42.0971159 0.976519785,36.6031817 L1.05218796,35.7770015 L1.05218796,35.7770015 L1.12802022,34.9490298 C1.65865459,29.1553179 2.17722909,23.4932813 2.17722909,23.4932813 C2.52110409,19.6529063 5.06388534,16.323375 8.65497909,15.0122813 Z M30.2951978,0 C30.6835103,0 30.9983228,0.3148125 30.9983228,0.703125 L30.9983228,0.703125 L30.9983228,4.25746875 C30.9983228,5.71265625 30.2238541,7.08478125 28.9772603,7.83853125 L28.9772603,7.83853125 L27.8232916,8.53621875 L27.8232916,10.3906875 C27.8232916,11.1722813 28.2896041,11.873625 29.0113853,12.1775625 L29.0113853,12.1775625 L35.7577291,15.0181875 C39.3356041,16.3318125 41.8693853,19.650375 42.2180416,23.4799688 L42.2180416,23.4799688 L45.3279166,47.2054688 C45.4202603,48.1424063 44.0739166,48.2925938 43.9339478,47.3881875 C43.9278509,47.3759494 43.2390767,42.101654 42.5108326,36.5252654 L42.4040532,35.7076277 C41.6200331,29.7042477 40.8266914,23.6316002 40.8190103,23.6200313 C40.5229478,20.3060625 38.3243228,17.4394688 35.2277603,16.3206563 L35.2277603,16.3206563 L28.4658541,13.4734688 C27.2214166,12.9494063 26.4172291,11.739375 26.4172291,10.3905938 L26.4172291,10.3905938 L26.4172291,9.38625 C25.0562603,10.198875 23.8613228,11.1240938 22.1985728,11.0845313 C20.5702291,11.1195 19.4230103,10.2564375 18.0868853,9.45103125 L18.0868853,9.45103125 L18.0868853,10.3504688 C18.0868853,11.7000938 17.2819478,12.9105938 16.0362916,13.4341875 L16.0362916,13.4341875 L12.9221041,14.7432188 C12.5634166,14.8827188 12.2565728,14.7574688 12.0014791,14.3674687 C11.8510103,14.0095313 12.0192916,13.5973125 12.3772291,13.4468437 L12.3772291,13.4468437 L15.4914166,12.1378125 C16.2138541,11.8341563 16.6806353,11.132625 16.6806353,10.3505625 L16.6806353,10.3505625 L16.6806353,8.60090625 L15.4196041,7.83853125 C14.1729166,7.084875 13.3985416,5.71265625 13.3985416,4.25746875 L13.3985416,4.25746875 L13.3985416,0.703125 C13.3985416,0.3148125 13.7133541,0 14.1016666,0 C14.4899791,0 14.8047916,0.3148125 14.8047916,0.703125 L14.8047916,0.703125 L14.8047916,4.2575625 C14.8047916,5.2235625 15.3191041,6.134625 16.1471041,6.63525 L16.1471041,6.63525 L20.3027603,9.1475625 C21.4720103,9.85453125 22.9247603,9.8544375 24.0941041,9.1475625 L24.0941041,9.1475625 L28.2497603,6.63515625 C29.0777603,6.13453125 29.5920728,5.22346875 29.5920728,4.25746875 L29.5920728,4.25746875 L29.5920728,0.703125 C29.5920728,0.3148125 29.9068853,0 30.2951978,0 Z M15.3300728,43.4378437 C16.2592291,43.4660625 16.2595103,44.815125 15.3300728,44.8440937 C14.4008228,44.8153125 14.4007291,43.4661562 15.3300728,43.4378437 Z M18.1089166,43.3835625 C19.0380728,43.4117813 19.0383541,44.7608438 18.1089166,44.7898125 C17.1796666,44.7610313 17.1795728,43.4119688 18.1089166,43.3835625 Z M20.6489791,42.0511875 C21.5781353,42.0794063 21.5784166,43.4284688 20.6489791,43.4574375 C19.7197291,43.4286563 19.7196353,42.0795 20.6489791,42.0511875 Z M26.6395103,30.78975 C28.8527603,30.78975 29.8053541,33.1455937 29.8448228,33.2459062 C29.9136353,33.42075 29.9096041,33.6159375 29.8336666,33.7877812 C28.8356041,36.0447187 26.5738853,37.4540625 23.7128228,37.6365937 C23.5072291,38.7496875 22.8056041,39.7200937 21.7796978,40.2614062 L21.7796978,40.2614062 L17.4086978,42.56775 C16.3643228,43.1188125 15.0653228,42.3407812 15.0653228,41.156625 L15.0653228,41.156625 L15.0653228,34.7532187 C15.0653228,32.5677187 16.8458228,30.78975 19.0345103,30.78975 L19.0345103,30.78975 Z M13.5113228,41.3352187 C14.4404791,41.3634375 14.4407603,42.7125 13.5113228,42.7414687 C12.5821666,42.7126875 12.5819791,41.3635312 13.5113228,41.3352187 Z M23.1651353,40.66575 C24.0942916,40.6939688 24.0945728,42.0430313 23.1651353,42.072 C22.2358853,42.0432188 22.2357916,40.6941563 23.1651353,40.66575 Z M22.3692916,32.196 L19.0344166,32.196 C17.6212291,32.196 16.4714791,33.343125 16.4714791,34.7532187 L16.4714791,34.7532187 L16.4714791,41.156625 C16.5017603,41.3176875 16.5953228,41.3734687 16.7523541,41.3239687 L16.7523541,41.3239687 L21.1233541,39.017625 C21.8919166,38.6120625 22.3692916,37.8212812 22.3692916,36.9539062 L22.3692916,36.9539062 L22.3692916,32.196 Z M13.3903853,38.4759375 C14.3195416,38.5041562 14.3198228,39.8532187 13.3903853,39.8821875 C12.4611353,39.8533125 12.4610416,38.50425 13.3903853,38.4759375 Z M24.9769478,38.4759375 C25.9061041,38.5041562 25.9063853,39.8532187 24.9769478,39.8821875 C24.0476978,39.8533125 24.0476041,38.50425 24.9769478,38.4759375 Z M27.6978541,37.5833438 C28.6270103,37.6115625 28.6272916,38.960625 27.6978541,38.9895938 C26.7686041,38.9608125 26.7685103,37.6116563 27.6978541,37.5833438 Z M29.9822603,35.8696875 C30.9114166,35.8979063 30.9116978,37.2469688 29.9822603,37.2759375 C29.0530103,37.2471563 29.0529166,35.898 29.9822603,35.8696875 Z M13.3903853,35.604375 C14.3195416,35.6331562 14.3197291,36.9816562 13.3903853,37.010625 C12.4612291,36.98175 12.4610416,35.6333437 13.3903853,35.604375 Z M26.6394166,32.196 L23.7755416,32.196 L23.7755416,36.2234062 C25.9281353,36.0523125 27.5807603,35.0862187 28.4098853,33.5041875 C28.1666041,33.0601875 27.5730728,32.196 26.6394166,32.196 L26.6394166,32.196 Z M31.4794478,33.441 C32.4086041,33.4692187 32.4088853,34.8182812 31.4794478,34.84725 C30.5501978,34.8184687 30.5501041,33.4694062 31.4794478,33.441 Z M13.3800728,34.1334375 C12.4824166,33.88875 12.7950728,32.5775625 13.7063228,32.7646875 C14.6123228,33.0339375 14.2884166,34.2696562 13.3800728,34.1334375 Z M30.7763228,30.7632187 C31.7054791,30.7914375 31.7057603,32.1405 30.7763228,32.1694687 C29.8470728,32.1406875 29.8469791,30.7915312 30.7763228,30.7632187 Z M14.3625728,30.4678125 C15.0123541,29.8028437 16.0058228,30.7164375 15.3966353,31.4203125 C14.7463853,32.0843437 13.7536666,31.1701875 14.3625728,30.4678125 Z M28.0153853,29.2725 C28.1850728,28.9228125 28.6060103,28.7784375 28.9556978,28.9490625 C29.6233853,29.2768125 29.3801041,30.286125 28.6463228,30.2840625 C28.1415728,30.2946562 27.7804478,29.723625 28.0153853,29.2725 Z M17.0438228,28.7353125 C17.4131978,28.6134375 17.8106978,28.813125 17.9325728,29.1825 C18.0719791,29.6040938 17.6966978,30.1059375 17.2650728,30.1059375 C16.4796353,30.102375 16.2896978,28.992375 17.0438228,28.7353125 Z M25.1447603,29.11875 C25.1729791,28.1895937 26.5220416,28.1893125 26.5510103,29.11875 C26.5221353,30.048 25.1731666,30.0480937 25.1447603,29.11875 Z M22.2731978,29.11875 C22.3019791,28.1895938 23.6504791,28.1894063 23.6794478,29.11875 C23.6505728,30.0479063 22.3021666,30.0480938 22.2731978,29.11875 Z M19.4025728,29.11875 C19.4307916,28.1895937 20.7798541,28.1893125 20.8088228,29.11875 C20.7799478,30.048 19.4309791,30.0480937 19.4025728,29.11875 Z M24.0793853,3.45065625 C25.0094791,3.47953125 25.0076978,4.8286875 24.0793853,4.85690625 L24.0793853,4.85690625 L20.3171041,4.85690625 C19.9287916,4.85690625 19.6139791,4.54209375 19.6139791,4.15378125 C19.6139791,3.76546875 19.9287916,3.45065625 20.3171041,3.45065625 L20.3171041,3.45065625 Z" id="Combined-Shape"></path>
                            </g>
                        </g>
                    </g>
                </g>
            </g>
        </g>
    </g>
</svg>