<?xml version="1.0" encoding="UTF-8"?>
<svg width="15px" height="20px" viewBox="0 0 15 20" version="1.1" xmlns="http://www.w3.org/2000/svg" xmlns:xlink="http://www.w3.org/1999/xlink">
    <title>B72D7843-21A1-46C5-B1B0-07C7FE24F39A</title>
    <g id="Početna-&amp;-Dropdowns" stroke="none" stroke-width="1" fill="none" fill-rule="evenodd">
        <g id="Moj-račun-dropdown" transform="translate(-1506.000000, -216.000000)" fill="#383838" fill-rule="nonzero">
            <g id="Group-2" transform="translate(1502.000000, 112.000000)">
                <g id="unlock-(2)" transform="translate(4.000000, 104.000000)">
                    <path d="M12.109375,8.33332031 L2.109375,8.33332031 C0.960195313,8.33332031 0.0260546875,9.26832031 0.0260546875,10.4166406 L0.0260546875,17.9166406 C0.0260546875,19.065 0.960195313,20 2.109375,20 L12.109375,20 C13.2585547,20 14.1926953,19.065 14.1926953,17.9166797 L14.1926953,10.4166797 C14.1926953,9.26832031 13.2585547,8.33332031 12.109375,8.33332031 Z M13.359375,17.9166797 C13.359375,18.6058594 12.7985547,19.1666797 12.109375,19.1666797 L2.109375,19.1666797 C1.42019531,19.1666797 0.859375,18.6058594 0.859375,17.9166797 L0.859375,10.4166797 C0.859375,9.7275 1.42019531,9.16667969 2.109375,9.16667969 L12.109375,9.16667969 C12.7985547,9.16667969 13.359375,9.7275 13.359375,10.4166797 L13.359375,17.9166797 Z" id="Shape"></path>
                    <path d="M12.109375,8.33332031 L2.52605469,8.33332031 L2.52605469,5.41664062 C2.52605469,2.88914062 4.58273438,0.833320312 7.109375,0.833320312 C9.63601563,0.833320312 11.6926953,2.88914062 11.6926953,5.41664062 C11.6926953,5.64664062 11.879375,5.83332031 12.109375,5.83332031 C12.339375,5.83332031 12.5260547,5.64664062 12.5260547,5.41664062 C12.5260547,2.43 10.0960547,0 7.109375,0 C4.12269531,0 1.69269531,2.43 1.69269531,5.41667969 L1.69269531,8.75 C1.69269531,8.98 1.879375,9.16667969 2.109375,9.16667969 L12.109375,9.16667969 C12.339375,9.16667969 12.5260547,8.98 12.5260547,8.75 C12.5260547,8.52 12.339375,8.33332031 12.109375,8.33332031 Z" id="Path"></path>
                    <path d="M7.109375,14.1666797 C6.879375,14.1666797 6.69269531,14.3533594 6.69269531,14.5833594 L6.69269531,17.0833594 C6.69269531,17.3133594 6.879375,17.5000391 7.109375,17.5000391 C7.339375,17.5000391 7.52605469,17.3133594 7.52605469,17.0833594 L7.52605469,14.5833594 C7.52605469,14.3533203 7.339375,14.1666797 7.109375,14.1666797 Z" id="Path"></path>
                    <path d="M7.109375,10.8333203 C5.96019531,10.8333203 5.02605469,11.7683203 5.02605469,12.9166406 C5.02605469,14.0649609 5.96019531,15 7.109375,15 C8.25855469,15 9.19269531,14.065 9.19269531,12.9166797 C9.19269531,11.7683594 8.25855469,10.8333203 7.109375,10.8333203 Z M7.109375,14.1666797 C6.42019531,14.1666797 5.859375,13.6058594 5.859375,12.9166797 C5.859375,12.2275 6.42019531,11.6666797 7.109375,11.6666797 C7.79855469,11.6666797 8.359375,12.2275 8.359375,12.9166797 C8.359375,13.6058203 7.79855469,14.1666797 7.109375,14.1666797 Z" id="Shape"></path>
                </g>
            </g>
        </g>
    </g>
</svg>