<?xml version="1.0" encoding="UTF-8"?>
<svg width="19px" height="17px" viewBox="0 0 19 17" version="1.1" xmlns="http://www.w3.org/2000/svg" xmlns:xlink="http://www.w3.org/1999/xlink">
    <title>logout</title>
    <g id="320" stroke="none" stroke-width="1" fill="none" fill-rule="evenodd">
        <g id="Moj-raÄun---nova-lozinka" transform="translate(-232.000000, -209.000000)" fill="#383838" fill-rule="nonzero">
            <g id="Group-3" transform="translate(0.000000, 137.000000)">
                <g id="Group-14" transform="translate(220.000000, 72.000000)">
                    <g id="logout" transform="translate(12.000000, 0.000000)">
                        <path d="M18.3993527,8.05386489 L16.4059901,6.64854475 C16.0448175,6.39394828 15.5456308,6.65320223 15.5456308,7.09464348 L15.5456308,7.95416583 L5.97452088,7.95416583 C5.67309495,7.95416583 5.4286867,8.19853769 5.4286867,8.5 C5.4286867,8.80146231 5.67309495,9.04579779 5.97452088,9.04579779 L15.5455581,9.04579779 L15.5455581,9.90528375 C15.5455581,10.3496359 16.0474009,10.6040505 16.4058809,10.3513825 L18.3992436,8.94606234 C18.7036532,8.73160019 18.7098025,8.27320283 18.3993527,8.05386489 Z" id="Path"></path>
                        <path d="M15.6633412,12.0046404 C15.4024863,11.8537818 15.0685308,11.942856 14.9175631,12.2038202 C13.6354477,14.4203413 11.2387769,15.908368 8.5,15.908368 C4.41503106,15.908368 1.09163196,12.5849689 1.09163196,8.5 C1.09163196,4.41503106 4.41503106,1.09163196 8.5,1.09163196 C11.2405962,1.09163196 13.6361755,2.58104134 14.9175267,4.79610707 C15.068458,5.05707118 15.4024863,5.146109 15.6633048,4.99528688 C15.9242326,4.84435559 16.0133795,4.51043651 15.8624846,4.24950878 C14.3878846,1.70034203 11.6338253,0 8.5,0 C3.80202737,0 0,3.80162712 0,8.5 C0,13.1979726 3.80162712,17 8.5,17 C11.6351716,17 14.3885395,15.2984572 15.862521,12.7504184 C16.0134159,12.4894907 15.924269,12.155608 15.6633412,12.0046404 Z" id="Path"></path>
                    </g>
                </g>
            </g>
        </g>
    </g>
</svg>