<?xml version="1.0" encoding="UTF-8"?>
<svg width="20px" height="12px" viewBox="0 0 20 12" version="1.1" xmlns="http://www.w3.org/2000/svg" xmlns:xlink="http://www.w3.org/1999/xlink">
    <!-- Generator: Sketch 48.2 (47327) - http://www.bohemiancoding.com/sketch -->
    <title>brza narudzba</title>
    <desc>Created with Sketch.</desc>
    <defs></defs>
    <g id="header" stroke="none" stroke-width="1" fill="none" fill-rule="evenodd" transform="translate(-1408.000000, -80.000000)">
        <g id="Header" transform="translate(536.000000, 60.000000)" fill="#FFFFFF" fill-rule="nonzero">
            <g id="Brza-narudžba" transform="translate(849.000000, 0.000000)">
                <g id="listing-option-(1)" transform="translate(23.000000, 20.000000)">
                    <g id="brza-narudzba">
                        <path d="M2.91671227,4.66666667 L0.41662106,4.66666667 C0.30378904,4.66666667 0.206144191,4.69950335 0.123686515,4.76550507 C0.0411832312,4.83154328 0,4.90969457 0,4.99999544 L0,7.00000456 C0,7.09023246 0.0411832312,7.16852969 0.123686515,7.23438548 C0.206189799,7.30016829 0.30378904,7.33333333 0.41662106,7.33333333 L2.91671227,7.33333333 C3.02954429,7.33333333 3.12718914,7.30031423 3.20964682,7.23438548 C3.2921501,7.16838375 3.33333333,7.09023246 3.33333333,7.00000456 L3.33333333,4.99999544 C3.33333333,4.90969457 3.2921045,4.83154328 3.20964682,4.76550507 C3.12718914,4.6996128 3.02954429,4.66666667 2.91671227,4.66666667 Z" id="Shape"></path>
                        <path d="M2.91671227,9.33333333 L0.41662106,9.33333333 C0.30378904,9.33333333 0.206144191,9.36653577 0.123686515,9.43235687 C0.0412288383,9.49817797 0,9.57658681 0,9.6667442 L0,11.6667351 C0,11.7571479 0.0411832312,11.8353013 0.123686515,11.9012319 C0.206189799,11.9671989 0.30378904,12 0.41662106,12 L2.91671227,12 C3.02954429,12 3.12718914,11.9673084 3.20964682,11.9012319 C3.2921501,11.8353013 3.33333333,11.7571479 3.33333333,11.6667351 L3.33333333,9.6667442 C3.33333333,9.57658681 3.2921045,9.49843337 3.20964682,9.43235687 C3.12718914,9.36642631 3.02954429,9.33333333 2.91671227,9.33333333 Z" id="Shape"></path>
                        <path d="M2.91671227,0 L0.41662106,0 C0.30378904,0 0.206144191,0.0329461342 0.123686515,0.0989478581 C0.0412288383,0.164949582 0,0.243064392 0,0.333328773 L0,2.33333789 C0,2.42363876 0.0411832312,2.50171708 0.123686515,2.56771881 C0.206189799,2.63372053 0.30378904,2.66666667 0.41662106,2.66666667 L2.91671227,2.66666667 C3.02954429,2.66666667 3.12718914,2.63382999 3.20964682,2.56771881 C3.2921501,2.50171708 3.33333333,2.42363876 3.33333333,2.33333789 L3.33333333,0.333328773 C3.33333333,0.243027907 3.2921045,0.164949582 3.20964682,0.0989478581 C3.12718914,0.0331285602 3.02954429,0 2.91671227,0 Z" id="Shape"></path>
                        <path d="M19.6514831,9.33333333 L5.0151073,9.33333333 C4.92074035,9.33333333 4.83907517,9.36653577 4.77011177,9.43235687 C4.70114837,9.49817797 4.66666667,9.57658681 4.66666667,9.6667442 L4.66666667,11.6667351 C4.66666667,11.7571479 4.70111022,11.8353013 4.77011177,11.9012319 C4.83911331,11.9671989 4.92062592,12 5.0151073,12 L19.6514831,12 C19.7460026,12 19.8275534,11.9673084 19.8966312,11.9012319 C19.9656709,11.8353013 20,11.7571479 20,11.6667351 L20,9.6667442 C20,9.57658681 19.9655564,9.49843337 19.8966312,9.43235687 C19.8275534,9.36653577 19.7459645,9.33333333 19.6514831,9.33333333 Z" id="Shape"></path>
                        <path d="M19.8966312,0.0989478581 C19.8275534,0.033092075 19.7460026,0 19.6514831,0 L5.0151073,0 C4.92074035,0 4.83907517,0.0329461342 4.77011177,0.0989478581 C4.70114837,0.164949582 4.66666667,0.243027907 4.66666667,0.333328773 L4.66666667,2.33333789 C4.66666667,2.42363876 4.70111022,2.50171708 4.77011177,2.56771881 C4.83911331,2.63372053 4.92062592,2.66666667 5.0151073,2.66666667 L19.6514831,2.66666667 C19.7460026,2.66666667 19.8275534,2.63382999 19.8966312,2.56771881 C19.9656709,2.50171708 20,2.42363876 20,2.33333789 L20,0.333328773 C19.9999619,0.243064392 19.9655183,0.164949582 19.8966312,0.0989478581 Z" id="Shape"></path>
                        <path d="M19.6514831,4.66666667 L5.0151073,4.66666667 C4.92074035,4.66666667 4.83907517,4.69950335 4.77011177,4.76550507 C4.70111022,4.83154328 4.66666667,4.90969457 4.66666667,4.99999544 L4.66666667,7.00000456 C4.66666667,7.09023246 4.70111022,7.16838375 4.77011177,7.23438548 C4.83911331,7.30016829 4.92062592,7.33333333 5.0151073,7.33333333 L19.6514831,7.33333333 C19.7460026,7.33333333 19.8275534,7.30031423 19.8966312,7.23438548 C19.9656709,7.16838375 20,7.09023246 20,7.00000456 L20,4.99999544 C20,4.90969457 19.9655564,4.83154328 19.8966312,4.76550507 C19.8275534,4.6996128 19.7459645,4.66666667 19.6514831,4.66666667 Z" id="Shape"></path>
                    </g>
                </g>
            </g>
        </g>
    </g>
</svg>