<?xml version="1.0" encoding="UTF-8"?>
<svg width="37px" height="37px" viewBox="0 0 37 37" version="1.1" xmlns="http://www.w3.org/2000/svg" xmlns:xlink="http://www.w3.org/1999/xlink">
    <title>BA98051E-D4E2-4BAB-B45C-68F68A39B61B</title>
    <g id="PoÄetna-&amp;-Dropdowns" stroke="none" stroke-width="1" fill="none" fill-rule="evenodd">
        <g id="Detox-izbornik" transform="translate(-1068.000000, -167.000000)" fill="#497A59" fill-rule="nonzero">
            <g id="kategoriej" transform="translate(894.000000, 140.000000)">
                <g id="Group-54-Copy" transform="translate(147.000000, 0.000000)">
                    <g id="molecule" transform="translate(27.000000, 27.000000)">
                        <path d="M34.4827214,31.9654428 C34.0054773,31.9654428 33.5588402,32.0989784 33.1781317,32.330568 L22.9920238,22.1443801 C22.9742829,22.1266393 22.9555032,22.1107365 22.9362441,22.0957127 C23.7343413,21.1130151 24.2138229,19.8616479 24.2138229,18.5 C24.2138229,17.1401102 23.73554,15.8903413 22.9393607,14.908203 L29.8828942,7.96466955 C30.6283283,8.53237581 31.5576436,8.87041037 32.5647948,8.87041037 C35.0103909,8.87041037 37,6.8808013 37,4.43520518 C37,1.98960907 35.0103909,0 32.5647948,0 C30.1191987,0 28.1295896,1.98960907 28.1295896,4.43520518 C28.1295896,5.44235637 28.4676242,6.37167171 29.0353305,7.11702592 L22.091797,14.0605594 C21.1096587,13.26446 19.8598898,12.7861771 18.5,12.7861771 C17.1401102,12.7861771 15.8903413,13.26446 14.908203,14.0606393 L11.7018294,10.8542657 C11.933419,10.4735572 12.0669546,10.0269201 12.0669546,9.54967603 C12.0669546,8.16165659 10.9376955,7.03239741 9.54967603,7.03239741 C8.16165659,7.03239741 7.03239741,8.16165659 7.03239741,9.54967603 C7.03239741,10.9376955 8.16165659,12.0669546 9.54967603,12.0669546 C10.0269201,12.0669546 10.4735572,11.933419 10.8542657,11.7018294 L14.0606393,14.908203 C13.26446,15.8903413 12.7861771,17.1401102 12.7861771,18.5 C12.7861771,19.2713261 12.9406501,20.0070108 13.2189093,20.6789244 L5.59483153,24.8086199 C5.01545788,24.1043413 4.13760691,23.6544276 3.15658747,23.6544276 C1.41606911,23.6544276 0,25.0704968 0,26.8110151 C0,28.5515335 1.41606911,29.9676026 3.15658747,29.9676026 C4.89710583,29.9676026 6.31317495,28.5515335 6.31317495,26.8110151 C6.31317495,26.4804125 6.26187041,26.1616371 6.16717279,25.8619611 L13.7915702,21.7321058 C14.8227754,23.2296069 16.54827,24.2138229 18.5,24.2138229 C18.7189633,24.2138229 18.93473,24.2002376 19.1473801,24.1761037 L19.9419611,27.7516782 C19.1120583,28.1636328 18.5399568,29.0198272 18.5399568,30.0075594 C18.5399568,31.3955788 19.669216,32.524838 21.0572354,32.524838 C22.4452549,32.524838 23.574514,31.3955788 23.574514,30.0075594 C23.574514,28.6379201 22.4748229,27.5210475 21.1121361,27.4916393 L20.3174752,23.9157451 C20.970689,23.6959827 21.5715594,23.3619438 22.0957927,22.9362441 C22.1108164,22.9555032 22.1267192,22.9742829 22.14446,22.9920238 L32.330568,33.1781317 C32.0989784,33.5588402 31.9654428,34.0054773 31.9654428,34.4827214 C31.9654428,35.8707408 33.0947019,37 34.4827214,37 C35.8707408,37 37,35.8707408 37,34.4827214 C37,33.0947019 35.8707408,31.9654428 34.4827214,31.9654428 Z M3.15658747,28.7688985 C2.07703456,28.7688985 1.1987041,27.890568 1.1987041,26.8110151 C1.1987041,25.7314622 2.07703456,24.8531317 3.15658747,24.8531317 C4.23614039,24.8531317 5.11447084,25.7314622 5.11447084,26.8110151 C5.11447084,27.890568 4.23614039,28.7688985 3.15658747,28.7688985 Z M22.3758099,30.0075594 C22.3758099,30.7346134 21.7842894,31.3261339 21.0572354,31.3261339 C20.3301814,31.3261339 19.7386609,30.7346134 19.7386609,30.0075594 C19.7386609,29.2805054 20.3301814,28.6889849 21.0572354,28.6889849 C21.7842894,28.6889849 22.3758099,29.2805054 22.3758099,30.0075594 Z M32.5647948,1.1987041 C34.3494255,1.1987041 35.8012959,2.65057451 35.8012959,4.43520518 C35.8012959,6.21983585 34.3494255,7.67170626 32.5647948,7.67170626 C30.7801641,7.67170626 29.3282937,6.21983585 29.3282937,4.43520518 C29.3282937,2.65057451 30.7801641,1.1987041 32.5647948,1.1987041 Z M8.23110151,9.54967603 C8.23110151,8.82262203 8.82262203,8.23110151 9.54967603,8.23110151 C10.27673,8.23110151 10.8682505,8.82262203 10.8682505,9.54967603 C10.8682505,10.27673 10.27673,10.8682505 9.54967603,10.8682505 C8.82262203,10.8682505 8.23110151,10.27673 8.23110151,9.54967603 Z M18.5,23.0151188 C16.0103715,23.0151188 13.9848812,20.9896285 13.9848812,18.5 C13.9848812,16.0103715 16.0103715,13.9848812 18.5,13.9848812 C20.9896285,13.9848812 23.0151188,16.0103715 23.0151188,18.5 C23.0151188,20.9896285 20.9896285,23.0151188 18.5,23.0151188 Z M34.4827214,35.8012959 C33.7556674,35.8012959 33.1641469,35.2097754 33.1641469,34.4827214 C33.1641469,33.7556674 33.7556674,33.1641469 34.4827214,33.1641469 C35.2097754,33.1641469 35.8012959,33.7556674 35.8012959,34.4827214 C35.8012959,35.2097754 35.2097754,35.8012959 34.4827214,35.8012959 Z" id="Shape"></path>
                        <path d="M18.5,15.3434125 C18.1689978,15.3434125 17.9006479,15.6117624 17.9006479,15.9427646 C17.9006479,16.2737667 18.1689978,16.5421166 18.5,16.5421166 C19.5795529,16.5421166 20.4578834,17.4204471 20.4578834,18.5 C20.4578834,18.8310022 20.7262333,19.0993521 21.0572354,19.0993521 C21.3882376,19.0993521 21.6565875,18.8310022 21.6565875,18.5 C21.6565875,16.7594816 20.2405184,15.3434125 18.5,15.3434125 Z" id="Path"></path>
                        <path d="M32.5647948,3.75593952 C32.9393499,3.75593952 33.2440605,4.06065011 33.2440605,4.43520518 C33.2440605,4.76620734 33.5124104,5.03455724 33.8434125,5.03455724 C34.1744147,5.03455724 34.4427646,4.76620734 34.4427646,4.43520518 C34.4427646,3.39968467 33.6003153,2.55723542 32.5647948,2.55723542 C32.2337927,2.55723542 31.9654428,2.82558531 31.9654428,3.15658747 C31.9654428,3.48758963 32.2337927,3.75593952 32.5647948,3.75593952 Z" id="Path"></path>
                    </g>
                </g>
            </g>
        </g>
    </g>
</svg>