<?xml version="1.0" encoding="UTF-8"?>
<svg width="55px" height="56px" viewBox="0 0 55 56" version="1.1" xmlns="http://www.w3.org/2000/svg" xmlns:xlink="http://www.w3.org/1999/xlink">
    <title>4900BEFD-CAEA-4994-81FB-581A1EF61213</title>
    <g id="Početna-&amp;-Dropdowns" stroke="none" stroke-width="1" fill="none" fill-rule="evenodd">
        <g id="Početna" transform="translate(-933.000000, -4092.000000)" fill="#F5F4F2" fill-rule="nonzero">
            <g id="Newsletter" transform="translate(0.000000, 3977.000000)">
                <g id="Content" transform="translate(690.000000, 115.000000)">
                    <g id="ikona" transform="translate(243.245667, 0.000157)">
                        <path d="M53.9046667,23.4883216 L43.1213333,16.4977108 C43.037,16.4437228 42.944,16.4232677 42.8533333,16.3930881 L42.8533333,13.9820701 C42.8533333,13.3382378 42.3353333,12.8168006 41.695,12.8168006 L37.3943333,12.8168006 L28.411,7.16851321 C28.0356667,6.9317707 27.5583333,6.9317707 27.1826667,7.16851321 L18.1993333,12.8168006 L12.7403333,12.8168006 C12.1003333,12.8168006 11.582,13.3379024 11.582,13.9820701 L11.582,16.3924174 C11.4913333,16.422597 11.398,16.4433875 11.314,16.4977108 L0.530666667,23.4883216 C0.200333333,23.7032677 0,24.07213 0,24.4678186 L0,54.761136 C0,55.4049683 0.518,55.9264054 1.15833333,55.9264054 L53.277,55.9264054 C53.917,55.9264054 54.4353333,55.4053036 54.4353333,54.761136 L54.4353333,24.4681539 C54.4353333,24.07213 54.235,23.703603 53.9046667,23.4883216 Z M27.797,9.53090842 L33.024,12.8168006 L22.57,12.8168006 L27.797,9.53090842 Z M13.8986667,15.1470042 L40.537,15.1470042 L40.537,41.3623815 C40.537,41.3657348 40.539,41.3684174 40.539,41.372106 L36.621,43.7653515 L27.193,38.5922258 C26.8413333,38.4010881 26.4136667,38.4020941 26.0643333,38.603627 L17.461,43.5493994 L13.897,41.3724414 C13.897,41.3690881 13.899,41.3664054 13.899,41.3630521 L13.8986667,15.1470042 Z M2.31666667,25.1029324 L11.582,19.0971839 L11.582,39.9586929 L2.31666667,34.2990042 L2.31666667,25.1029324 Z M2.31666667,37.0242258 L15.1623333,44.8699264 L2.31666667,52.2545491 L2.31666667,37.0242258 Z M4.65066667,53.5965372 L26.6523333,40.9495911 L49.7006667,53.5965372 L4.65066667,53.5965372 Z M52.119,52.2689683 L38.971,45.0546929 L52.119,37.0238905 L52.119,52.2689683 Z M52.119,34.2990042 L42.8533333,39.9583575 L42.8533333,19.0971839 L52.119,25.1032677 L52.119,34.2990042 Z" id="Shape"></path>
                        <path d="M18.5313333,26.7983575 L32.4296667,26.7983575 C33.0696667,26.7983575 33.588,26.2772557 33.588,25.6330881 L33.588,18.6424773 C33.588,17.9986449 33.07,17.4772078 32.4296667,17.4772078 L18.5313333,17.4772078 C17.8913333,17.4772078 17.373,17.9983096 17.373,18.6424773 L17.373,25.6330881 C17.373,26.2772557 17.8913333,26.7983575 18.5313333,26.7983575 Z M19.6893333,19.8074114 L31.2713333,19.8074114 L31.2713333,24.4678186 L19.6893333,24.4678186 L19.6893333,19.8074114 Z" id="Shape"></path>
                        <rect id="Rectangle" x="17.373" y="29.1285611" width="18.531" height="2.33020359"></rect>
                        <rect id="Rectangle" x="17.373" y="33.7893036" width="18.531" height="2.33020359"></rect>
                        <path d="M48.6443333,13.9820701 C48.9406667,13.9820701 49.237,13.8683935 49.4633333,13.6407048 L53.5576667,9.52185453 C54.01,9.06681261 54.01,8.32942339 53.5576667,7.87438148 C53.1053333,7.41900423 52.3723333,7.41933956 51.92,7.87438148 L47.8256667,11.9932318 C47.3733333,12.4482737 47.3733333,13.1856629 47.8256667,13.6407048 C48.0516667,13.8683935 48.348,13.9820701 48.6443333,13.9820701 Z" id="Path"></path>
                        <path d="M4.97233333,13.6407048 C5.19866667,13.8683935 5.495,13.9820701 5.79133333,13.9820701 C6.08766667,13.9820701 6.384,13.8683935 6.61033333,13.6407048 C7.06266667,13.1856629 7.06266667,12.4482737 6.61033333,11.9932318 L2.51566667,7.87438148 C2.06333333,7.41933956 1.33033333,7.41933956 0.878,7.87438148 C0.425666667,8.32942339 0.425666667,9.06681261 0.878,9.52185453 L4.97233333,13.6407048 Z" id="Path"></path>
                        <path d="M38.949,8.07323178 C39.0893333,8.13023776 39.2353333,8.15605812 39.3786667,8.15605812 C39.838,8.15605812 40.2733333,7.87941142 40.4543333,7.42336351 L42.7706667,1.59768687 C43.0083333,1.00046531 42.7186667,0.322094051 42.125,0.08333956 C41.537,-0.154408943 40.857,0.133303632 40.6196667,0.732872494 L38.3033333,6.55854914 C38.0656667,7.15610603 38.355,7.83447728 38.949,8.07323178 Z" id="Path"></path>
                        <path d="M15.1393333,7.42369884 C15.3203333,7.88008208 15.7556667,8.15639345 16.215,8.15639345 C16.3586667,8.15639345 16.5046667,8.13023776 16.6446667,8.07323178 C17.2383333,7.83414196 17.528,7.15610603 17.2903333,6.55888447 L14.974,0.733207824 C14.7363333,0.133638961 14.058,-0.154408943 13.4686667,0.0836748894 C12.875,0.32276471 12.5853333,1.00080064 12.823,1.59802219 L15.1393333,7.42369884 Z" id="Path"></path>
                    </g>
                </g>
            </g>
        </g>
    </g>
</svg>