<?xml version="1.0" encoding="UTF-8"?>
<svg width="30px" height="31px" viewBox="0 0 30 31" version="1.1" xmlns="http://www.w3.org/2000/svg" xmlns:xlink="http://www.w3.org/1999/xlink">
    <title>15D88E96-731B-4BFA-8E6C-77AF1EDBEA98</title>
    <g id="PoÄetna-&amp;-Dropdowns" stroke="none" stroke-width="1" fill="none" fill-rule="evenodd">
        <g id="Detox-izbornik" transform="translate(-926.000000, -170.000000)" fill="#497A59" fill-rule="nonzero">
            <g id="kategoriej" transform="translate(894.000000, 140.000000)">
                <g id="Group-63" transform="translate(2.000000, 0.000000)">
                    <g id="parasite" transform="translate(30.000000, 30.000000)">
                        <path d="M15.4722723,7.99064814 C12.5831452,10.8800498 10.9917771,14.7189441 10.9917771,18.8003613 C10.9917771,22.8817785 12.5831452,26.7209474 15.4722723,29.6100745 C15.9746217,30.1126985 16.6346248,30.3637359 17.2949025,30.3637359 C17.9549056,30.3637359 18.6146339,30.1126985 19.117258,29.6100745 C20.1219568,28.6053756 20.1219568,26.9703369 19.117258,25.9653634 C17.2067373,24.0548426 16.1545227,21.5104113 16.1545227,18.800636 C16.154248,16.0905859 17.2067373,13.5461546 19.117258,11.6356339 C20.1219568,10.6306604 20.1219568,8.99562162 19.117258,7.99092278 C18.1122846,6.98594938 16.4772458,6.98594938 15.4722723,7.99064814 Z M18.1229962,10.6413721 C16.899395,11.8652479 15.9847841,13.3170899 15.4184393,14.9021409 C15.3835578,14.8202929 15.33357,14.7450366 15.270124,14.6815906 C15.1393869,14.5508535 14.9581126,14.4755971 14.7732678,14.4755971 C14.588423,14.4755971 14.4068741,14.5508535 14.2761369,14.6815906 C14.1453997,14.8123278 14.0701435,14.9938767 14.0701435,15.1787215 C14.0701435,15.3641156 14.1453997,15.5448405 14.2761369,15.6755777 C14.4068741,15.8071389 14.588423,15.8815712 14.7732678,15.8815712 C14.9053783,15.8815712 15.0355662,15.8428445 15.1468026,15.7730813 C14.8845043,16.7475678 14.7485486,17.7632529 14.7485486,18.8003613 C14.7485486,19.988257 14.9268016,21.1481375 15.2695747,22.2500653 C15.2676521,22.247868 15.2660042,22.2456707 15.2640816,22.2437481 C15.1330697,22.1130109 14.9517955,22.0377546 14.7669507,22.0377546 C14.5821059,22.0377546 14.400557,22.1130109 14.2698197,22.2437481 C14.1393573,22.3744853 14.0638263,22.5560342 14.0638263,22.740879 C14.0638263,22.9262731 14.1390826,23.1069981 14.2698197,23.2377352 C14.400557,23.3692964 14.5821059,23.4437287 14.7669507,23.4437287 C14.9526194,23.4437287 15.1330697,23.3692964 15.2640816,23.2377352 C15.376142,23.1264987 15.4461798,22.9787328 15.4645819,22.8224524 C16.0336732,24.3594384 16.9312554,25.7678844 18.1229962,26.9596252 C18.5797524,27.4163814 18.5797524,28.1593311 18.1229962,28.6160873 C17.66624,29.0728435 16.9232903,29.0728435 16.4665341,28.6160873 C13.9297932,26.0793464 12.4949801,22.7364845 12.402695,19.1681283 C12.4378512,19.250251 12.4878389,19.325782 12.5518343,19.3889533 C12.6822968,19.5205145 12.8632964,19.5949468 13.0486905,19.5949468 C13.2335353,19.5949468 13.4142603,19.5205145 13.5458214,19.3889533 C13.6765585,19.2582161 13.7518149,19.0774912 13.7518149,18.8918224 C13.7518149,18.7069776 13.6765585,18.5262527 13.5458214,18.3949661 C13.4142603,18.264229 13.2335353,18.1895221 13.0486905,18.1895221 C12.8630217,18.1895221 12.6822968,18.264229 12.5518343,18.3949661 C12.486191,18.4600601 12.4348299,18.5377883 12.3999484,18.6221083 C12.4455416,14.9828904 13.885024,11.5664201 16.4665341,8.98490994 C16.6947749,8.75666923 16.994976,8.64241152 17.2949025,8.64241152 C17.5945543,8.64241152 17.8947555,8.75666923 18.1229962,8.98490994 C18.5797524,9.44166614 18.5797524,10.1846159 18.1229962,10.6413721 L18.1229962,10.6413721 Z" id="Shape"></path>
                        <path d="M14.5186599,0.0612730027 C7.89720588,1.55266567 4.78176068,7.88051032 4.65239676,8.14912576 C4.05501576,9.38920645 4.57796451,10.8841697 5.8180452,11.4815508 C6.16658612,11.6493667 6.53490243,11.728743 6.89772557,11.728743 C7.82716809,11.728743 8.72090511,11.2082661 9.14964616,10.3180997 C9.17134416,10.2738797 11.3622907,5.89061345 15.6159184,4.93233179 C16.0776184,4.82823648 16.4981198,4.59697444 16.8315545,4.26353972 C16.8315545,4.26353972 16.8315545,4.26353972 16.8315545,4.26326508 C17.4410205,3.65379906 17.6920579,2.78835182 17.5028185,1.94817312 C17.2004202,0.605370395 15.8617373,-0.241125389 14.5186599,0.0612730027 L14.5186599,0.0612730027 Z M15.8372927,3.26927792 C15.6922733,3.41429732 15.5088018,3.51509674 15.3069282,3.56069 C13.6136619,3.94218988 12.2134557,4.77522751 11.1027389,5.70878985 C11.1129012,5.66154868 11.1183944,5.61320888 11.1183944,5.56459444 C11.1183944,5.37974965 11.0431381,5.19820069 10.9124009,5.06746357 C10.7816638,4.93672632 10.6001148,4.86147007 10.41527,4.86147007 C10.2304252,4.86147007 10.049151,4.93672632 9.9184138,5.06746357 C9.78767661,5.19820069 9.71242029,5.37892566 9.71242029,5.56459444 C9.71242029,5.74943922 9.78767661,5.93071348 9.9184138,6.06145066 C10.049151,6.19218785 10.2304252,6.26744416 10.41527,6.26744416 C10.4388906,6.26744416 10.4625112,6.26634553 10.4858571,6.26387356 C8.7599065,7.92280761 7.89830452,9.676224 7.8840223,9.70561242 C7.62309721,10.2475125 6.96996063,10.476028 6.42833514,10.2151029 C5.88670965,9.95417792 5.65819423,9.30104126 5.91911932,8.75914114 C5.94850767,8.69844167 6.1462614,8.29524387 6.51979622,7.7036306 C6.53819832,7.85991095 6.6087854,8.00822625 6.72029656,8.12001206 C6.85130839,8.25129859 7.03258264,8.32600556 7.21742743,8.32600556 C7.40227228,8.32600556 7.58382117,8.25129859 7.71428372,8.12001206 C7.84584483,7.98927487 7.92055179,7.80772598 7.92055179,7.62288119 C7.92055179,7.43803633 7.84584483,7.25676208 7.71428372,7.1260249 C7.58382117,6.99528771 7.40227228,6.92003147 7.21742743,6.92003147 C7.1531575,6.92003147 7.08943685,6.92964444 7.02818811,6.94694791 C8.15675763,5.36436881 10.1606621,3.1465058 13.1124111,1.96657522 C13.0835721,2.0440288 13.0676419,2.12615148 13.0676419,2.20909821 C13.0676419,2.39421764 13.1428982,2.57549189 13.2736354,2.70622908 C13.4043726,2.83696627 13.5859215,2.91222258 13.7707662,2.91222258 C13.955611,2.91222258 14.1368854,2.83696627 14.2676225,2.70622908 C14.3983597,2.57549189 14.473616,2.39421764 14.473616,2.20909821 C14.473616,2.02425343 14.3986344,1.84297911 14.2676225,1.71224199 C14.2291704,1.67351517 14.1854998,1.64028157 14.1393573,1.61199178 C14.3640274,1.54607387 14.5930922,1.48564912 14.8276501,1.4329148 C14.9081249,1.41478741 14.9883249,1.40599835 15.0674264,1.40599835 C15.5659306,1.40599835 16.0171937,1.75096874 16.1311767,2.25716337 C16.2138488,2.62438104 16.1039856,3.00258503 15.8372927,3.26927792 Z" id="Shape"></path>
                        <path d="M0.729731879,14.2558708 C-0.243381275,15.2289839 -0.243106635,16.812387 0.729731879,17.7852255 C1.88686583,18.9423595 3.42769699,19.5795659 5.0679543,19.5795659 C6.70848625,19.5795659 8.24904271,18.9423595 9.40617673,17.7852255 C10.3792898,16.8121124 10.3792898,15.2289839 9.40617673,14.2558708 C8.43306357,13.2827576 6.84993512,13.2827576 5.87682196,14.2558708 C5.66149013,14.4714773 5.37419794,14.5901295 5.0679543,14.5901295 C4.76198531,14.5901295 4.47469312,14.4714773 4.25908657,14.2558708 C3.28624813,13.2827576 1.70284503,13.2827576 0.729731879,14.2558708 L0.729731879,14.2558708 Z M6.87108376,15.2501326 C7.29597964,14.8252367 7.98729369,14.8252367 8.41218957,15.2501326 C8.83708544,15.6747537 8.83708544,16.3660679 8.41218957,16.7909637 C7.52037517,17.6825034 6.33302881,18.1735919 5.06822894,18.1735919 C3.80315444,18.1735919 2.61553337,17.6825034 1.72399368,16.7909637 C1.2990978,16.3660679 1.2990978,15.6750285 1.72399368,15.2501326 C1.9365789,15.0375473 2.21563138,14.9315294 2.49468387,14.9315294 C2.77373635,14.9315294 3.05251419,15.0375473 3.26509948,15.2498579 C3.74602558,15.7310587 4.38652786,15.9961036 5.06822894,15.9961036 C5.74993002,15.9961036 6.39015767,15.7310587 6.87108376,15.2501326 Z" id="Shape"></path>
                        <path d="M2.93633386,4.05754622 C3.11650948,4.05754622 3.29695981,3.98860713 3.43401414,3.85100344 L3.47081827,3.81419931 C3.74520159,3.53981599 3.74520159,3.09459546 3.47081827,2.81993751 C3.19616032,2.54555419 2.75121443,2.54555419 2.47655648,2.81993751 L2.438379,2.85811491 C2.1642704,3.13304758 2.16509432,3.57799346 2.44002698,3.85210207 C2.57708132,3.98915641 2.75670759,4.05754622 2.93633386,4.05754622 Z" id="Path"></path>
                        <path d="M7.56184854,17.0008024 C7.74669332,17.0008024 7.92824222,16.9263701 8.0589794,16.7948089 C8.18971659,16.6640717 8.2649729,16.4833468 8.2649729,16.2976781 C8.2649729,16.1128332 8.18971659,15.9321083 8.0589794,15.8008218 C7.92824222,15.6700846 7.74669332,15.5948283 7.56184854,15.5948283 C7.37700368,15.5948283 7.1957295,15.6700846 7.06499224,15.8008218 C6.93425513,15.9315589 6.85899881,16.1128332 6.85899881,16.2976781 C6.85899881,16.4833468 6.93425513,16.6640717 7.06499224,16.7948089 C7.1957295,16.9263701 7.37700368,17.0008024 7.56184854,17.0008024 Z" id="Path"></path>
                        <path d="M2.30626854,15.8810219 C2.17553136,16.0117591 2.10109903,16.1930333 2.10109903,16.3778781 C2.10109903,16.562723 2.17553136,16.7442719 2.30626854,16.8755584 C2.43782972,17.0062955 2.61855462,17.0810025 2.80394876,17.0810025 C2.98906819,17.0810025 3.16951851,17.0062955 3.30107962,16.8755584 C3.43181688,16.7442719 3.50707312,16.562723 3.50707312,16.3778781 C3.50707312,16.1930333 3.43181688,16.0117591 3.30107962,15.8810219 C3.17034251,15.7502847 2.98906819,15.6750285 2.80394876,15.6750285 C2.61855462,15.6750285 2.43782972,15.7502847 2.30626854,15.8810219 Z" id="Path"></path>
                        <path d="M15.8367434,27.1274412 C16.0224122,27.1274412 16.2031371,27.0521849 16.3344236,26.9214478 C16.4654355,26.7907105 16.5404171,26.6091616 16.5404171,26.4243168 C16.5404171,26.2394721 16.4654355,26.0581978 16.3344236,25.9274606 C16.2031371,25.7967234 16.0224122,25.7214671 15.8367434,25.7214671 C15.6518986,25.7214671 15.4711737,25.7967234 15.3398871,25.9274606 C15.20915,26.0581978 15.134443,26.2394721 15.134443,26.4243168 C15.134443,26.6091616 15.20915,26.7907105 15.3398871,26.9214478 C15.4711737,27.0521849 15.6518986,27.1274412 15.8367434,27.1274412 Z" id="Path"></path>
                        <path d="M8.89201703,21.763646 C8.89201703,21.5779772 8.81676072,21.3972523 8.68602353,21.2665151 C8.55528635,21.1357779 8.37373745,21.0605216 8.18889267,21.0605216 C8.00404781,21.0605216 7.82277356,21.1357779 7.69203637,21.2665151 C7.56129919,21.3972523 7.48604294,21.5779772 7.48604294,21.763646 C7.48604294,21.9484908 7.56129919,22.129765 7.69203637,22.2605022 C7.82277356,22.3912394 8.00404781,22.4664957 8.18889267,22.4664957 C8.37373745,22.4664957 8.55528635,22.3912394 8.68602353,22.2605022 C8.81676072,22.129765 8.89201703,21.9484908 8.89201703,21.763646 Z" id="Path"></path>
                        <path d="M2.23458283,20.6312312 C2.10384565,20.7619684 2.02941332,20.9432427 2.02941332,21.1280875 C2.02941332,21.3129323 2.10384565,21.4944812 2.23458283,21.6252184 C2.36614401,21.7559556 2.54686891,21.8312118 2.7317137,21.8312118 C2.91738248,21.8312118 3.09783281,21.7559556 3.22939391,21.6252184 C3.3601311,21.4944812 3.43538742,21.3129323 3.43538742,21.1280875 C3.43538742,20.9432427 3.3601311,20.7619684 3.22939391,20.6312312 C3.09783281,20.5004941 2.91738248,20.425237 2.7317137,20.425237 C2.54686891,20.4249631 2.36614401,20.5002194 2.23458283,20.6312312 Z" id="Path"></path>
                        <path d="M8.84971967,27.9483938 C9.03456446,27.9483938 9.21528943,27.8734122 9.34685061,27.7424004 C9.47758772,27.6116632 9.55284404,27.4303889 9.55284404,27.2455441 C9.55284404,27.0606993 9.47758772,26.8791504 9.34685061,26.7484132 C9.21528943,26.617676 9.03456446,26.5424197 8.84971967,26.5424197 C8.66487489,26.5424197 8.48360064,26.617676 8.35203946,26.7484132 C8.22130227,26.8791504 8.14686995,27.0606993 8.14686995,27.2455441 C8.14686995,27.4303889 8.22130227,27.6116632 8.35203946,27.7424004 C8.48360064,27.8734122 8.66432554,27.9483938 8.84971967,27.9483938 Z" id="Path"></path>
                        <path d="M22.4337529,3.06053788 C22.248908,3.06053788 22.0673591,3.13579412 21.9368966,3.26653131 C21.8058847,3.39726849 21.7306285,3.57854274 21.7306285,3.76338753 C21.7306285,3.94823239 21.8058847,4.12978128 21.9368966,4.26051847 C22.0673591,4.39125565 22.248908,4.4665119 22.4337529,4.4665119 C22.6185977,4.4665119 22.7998719,4.39125565 22.9306091,4.26051847 C23.0616209,4.12978128 23.1366025,3.94823239 23.1366025,3.76338753 C23.1366025,3.57854274 23.0616209,3.39726849 22.9306091,3.26653131 C22.7998719,3.13579412 22.6185977,3.06053788 22.4337529,3.06053788 Z" id="Path"></path>
                        <path d="M22.344489,8.89399814 C22.344489,9.078843 22.4189213,9.26011725 22.5504825,9.39085443 C22.6812197,9.52159162 22.8619446,9.59629858 23.0473387,9.59629858 C23.2321835,9.59629858 23.4137325,9.52159162 23.5444696,9.39085443 C23.6752068,9.2595679 23.7504631,9.078843 23.7504631,8.89399814 C23.7504631,8.70887871 23.6752068,8.52760446 23.5444696,8.39604328 C23.4137325,8.2653061 23.2321835,8.19032449 23.0473387,8.19032449 C22.8619446,8.19032449 22.6812197,8.2653061 22.5504825,8.39604328 C22.4189213,8.52760446 22.344489,8.70832943 22.344489,8.89399814 Z" id="Path"></path>
                        <path d="M21.6976695,27.5413508 C21.5669323,27.6720879 21.491676,27.8536368 21.491676,28.0384816 C21.491676,28.2233264 21.5669323,28.4048754 21.6976695,28.5356126 C21.8284067,28.666899 22.009681,28.741606 22.1948004,28.741606 C22.3801946,28.741606 22.5609194,28.666899 22.6916566,28.5356126 C22.8232178,28.4048754 22.8976501,28.2233264 22.8976501,28.0384816 C22.8976501,27.8536368 22.8232178,27.6729119 22.6916566,27.5413508 C22.5609194,27.4106136 22.3801946,27.3353573 22.1948004,27.3353573 C22.0099556,27.3353573 21.8284067,27.4106136 21.6976695,27.5413508 Z" id="Path"></path>
                        <path d="M26.747256,21.8957565 C26.6165189,22.0273176 26.5412625,22.2077679 26.5412625,22.3926127 C26.5412625,22.5782815 26.6165189,22.7590064 26.747256,22.8897436 C26.8779932,23.0213048 27.0587181,23.0957371 27.2443869,23.0957371 C27.4292317,23.0957371 27.610506,23.0213048 27.7412431,22.8897436 C27.8719804,22.7590064 27.9472366,22.5782815 27.9472366,22.3926127 C27.9472366,22.2077679 27.8719804,22.0273176 27.7412431,21.8957565 C27.610506,21.7650193 27.4292317,21.689763 27.2443869,21.689763 C27.0587181,21.689763 26.8779932,21.7650193 26.747256,21.8957565 Z" id="Path"></path>
                        <path d="M20.8907244,18.3337175 C20.8907244,18.5185622 20.9659808,18.6998365 21.0967179,18.8305737 C21.2274551,18.9613109 21.4087293,19.0365671 21.5935742,19.0365671 C21.7786936,19.0365671 21.9599678,18.9613109 22.090705,18.8305737 C22.2214422,18.6998365 22.2966985,18.5185622 22.2966985,18.3337175 C22.2966985,18.1480487 22.2214422,17.9673237 22.090705,17.8365865 C21.9599678,17.7053001 21.7786936,17.6305931 21.5935742,17.6305931 C21.4087293,17.6305931 21.2274551,17.7053001 21.0967179,17.8365865 C20.9659808,17.9673237 20.8907244,18.1480487 20.8907244,18.3337175 Z" id="Path"></path>
                        <path d="M25.2322428,18.0488972 C25.4179115,18.0488972 25.5986364,17.9739155 25.7293736,17.8431783 C25.8606602,17.7121665 25.9353671,17.5308922 25.9353671,17.3460475 C25.9353671,17.1612027 25.8606602,16.9796537 25.7293736,16.8489165 C25.5986364,16.7181793 25.4170875,16.6429231 25.2322428,16.6429231 C25.0473979,16.6429231 24.8661237,16.7181793 24.7353865,16.8489165 C24.6046493,16.9796537 24.529393,17.1612027 24.529393,17.3460475 C24.529393,17.5308922 24.6046493,17.7121665 24.7353865,17.8431783 C24.8661237,17.9736409 25.0473979,18.0488972 25.2322428,18.0488972 Z" id="Path"></path>
                        <path d="M26.5981168,14.430004 C26.7832362,14.430004 26.9636865,14.3547476 27.0952476,14.2240105 C27.2259849,14.0932733 27.3012411,13.9117244 27.3012411,13.7268796 C27.3012411,13.5420347 27.2259849,13.3607605 27.0952476,13.2300233 C26.9636865,13.0992861 26.7832362,13.0240299 26.5981168,13.0240299 C26.4127226,13.0240299 26.2319977,13.0992861 26.1004365,13.2300233 C25.9696994,13.3607605 25.895267,13.5420347 25.895267,13.7268796 C25.895267,13.9117244 25.9696994,14.0932733 26.1004365,14.2240105 C26.2311737,14.3547476 26.4127226,14.430004 26.5981168,14.430004 Z" id="Path"></path>
                        <path d="M15.8957948,10.0728302 C15.7104008,10.0728302 15.5288518,10.1480864 15.3981147,10.2788236 C15.2673774,10.4095608 15.1929452,10.590835 15.1929452,10.7756798 C15.1929452,10.9607993 15.2673774,11.1420736 15.3981147,11.2728107 C15.5288518,11.4035479 15.7104008,11.4788042 15.8957948,11.4788042 C16.0809143,11.4788042 16.2613646,11.4035479 16.3929258,11.2728107 C16.5236629,11.1420736 16.5989192,10.9607993 16.5989192,10.7756798 C16.5989192,10.590835 16.5236629,10.4095608 16.3929258,10.2788236 C16.2613646,10.1480864 16.0809143,10.0728302 15.8957948,10.0728302 Z" id="Path"></path>
                        <path d="M18.2839458,18.6556166 C18.2839458,20.4180967 19.717935,21.8518112 21.4801404,21.8518112 C26.0336946,21.8518112 29.7385558,18.1472247 29.7385558,13.5936704 C29.7385558,11.831465 28.3045666,10.3974758 26.5420865,10.3974758 C24.7798811,10.3974758 23.3458919,11.831465 23.3458919,13.5936704 C23.3458919,14.6225392 22.5090091,15.4594219 21.4801404,15.4594219 C19.717935,15.4594219 18.2839458,16.8934111 18.2839458,18.6556166 L18.2839458,18.6556166 Z M24.751866,13.5936704 C24.751866,12.6065498 25.5549658,11.8034499 26.5420865,11.8034499 C27.5294819,11.8034499 28.3325818,12.6065498 28.3325818,13.5936704 C28.3325818,17.37214 25.2586099,20.4458371 21.4801404,20.4458371 C20.4930197,20.4458371 19.6899199,19.6427372 19.6899199,18.6556166 C19.6899199,17.6684959 20.4930197,16.865396 21.4801404,16.865396 C23.2843685,16.865396 24.751866,15.3976239 24.751866,13.5936704 Z" id="Shape"></path>
                    </g>
                </g>
            </g>
        </g>
    </g>
</svg>