<?xml version="1.0" encoding="UTF-8"?>
<svg width="30px" height="30px" viewBox="0 0 30 30" version="1.1" xmlns="http://www.w3.org/2000/svg" xmlns:xlink="http://www.w3.org/1999/xlink">
    <title>DC58E888-5E6E-4A0D-B8A0-CD28DDE14332</title>
    <g id="Početna-&amp;-Dropdowns" stroke="none" stroke-width="1" fill="none" fill-rule="evenodd">
        <g id="Početna" transform="translate(-1132.000000, -1534.000000)" fill="#497A59" fill-rule="nonzero">
            <g id="Zasto-kupovati-na-suplementi.hr" transform="translate(0.000000, 990.000000)">
                <g id="Zasto-kupovati" transform="translate(1110.000000, 98.000000)">
                    <g id="benefiti" transform="translate(0.000000, 148.000000)">
                        <g id="placanje" transform="translate(0.000000, 276.000000)">
                            <g id="payment-method-(1)" transform="translate(22.000000, 22.000000)">
                                <path d="M9.66902344,18.1594922 C11.8594336,18.1594922 13.0293164,19.3947656 13.402793,19.8775195 L13.402793,19.8775195 L17.8899609,21.4004883 C17.8951758,21.4022461 17.900332,21.4041211 17.9054883,21.4059961 C18.7378711,21.7149023 19.3265625,22.3231055 19.5625781,23.037832 L19.5625781,23.037832 L23.6446875,21.9089648 C25.1415234,21.3977344 26.4063281,21.8641406 26.945625,23.1260742 C26.9480859,23.1318164 26.9504297,23.1376172 26.9527148,23.1434766 C27.6055664,24.8181445 26.3205469,25.9362891 25.4582227,26.3330273 L25.4582227,26.3330273 L25.4108789,26.3523633 L16.3879688,29.5829883 C15.7032422,29.8933594 15.0361523,29.9986523 14.4466992,29.9986523 C13.5998438,29.9986523 12.9129492,29.7815039 12.5615625,29.6432813 L12.5358398,29.6324414 C10.7050195,28.8092578 9.68835938,28.2230273 9.01570313,27.8351367 C8.14101563,27.3307617 7.82777344,27.1501172 6.87539063,27.0670313 L6.87539063,27.0670313 L6.87539063,27.2356641 C6.87539063,27.5592773 6.61306641,27.8216016 6.28945313,27.8216016 L6.28945313,27.8216016 L4.65568359,27.8216016 L4.65568359,28.3275 C4.65568359,28.6511133 4.39335938,28.9134375 4.06974609,28.9134375 L4.06974609,28.9134375 L0.5859375,28.9134375 C0.262324219,28.9134375 0,28.6511133 0,28.3275 L0,28.3275 L0,20.9401758 C0,20.6165625 0.262324219,20.3542383 0.5859375,20.3542383 L0.5859375,20.3542383 L6.009375,20.3542383 C6.78410156,19.2096094 8.13826172,18.1594922 9.66902344,18.1594922 Z M9.66908203,19.3313086 C8.50787109,19.3313086 7.43080078,20.263125 6.87539062,21.1734375 L6.87539062,21.1734375 L6.87539062,25.8926953 C8.18027344,26.0004492 8.64228516,26.2669336 9.60111328,26.8198242 C10.2907617,27.2175 11.2346484,27.7617773 13.003125,28.5575391 C13.4710547,28.7394727 14.6650195,29.0850586 15.9210938,28.507793 C15.9288867,28.5042188 15.9367969,28.5008203 15.944707,28.4975977 C15.9525,28.4944336 15.9632227,28.4902148 15.9711328,28.4874023 L15.9711328,28.4874023 L24.99,25.2582422 C25.2496875,25.134375 26.2487109,24.5820117 25.8643359,23.5778906 C25.4929688,22.7225977 24.6588867,22.8008203 24.0234961,23.0178516 L24.0234961,23.0178516 L19.6241016,24.2366016 C19.6137305,24.2840625 19.6017773,24.3315234 19.5883008,24.3789844 C19.4193164,24.973418 19.0289648,25.4664258 18.4891406,25.7671875 C18.1400391,25.9617188 17.7553711,26.0608008 17.3664258,26.0608008 C17.1539648,26.0608008 16.9402148,26.0312695 16.7302734,25.9715625 C16.7246484,25.9699805 16.719082,25.9682813 16.7135156,25.9665234 L16.7135156,25.9665234 L11.4547852,24.3000586 C11.1462891,24.2022656 10.9754297,23.8729688 11.0732227,23.5644727 C11.170957,23.2559766 11.5001367,23.0851172 11.8088086,23.1829102 L11.8088086,23.1829102 L17.0583984,24.8465039 C17.349375,24.9270117 17.6546484,24.890625 17.9187305,24.7434961 C18.1850977,24.5950781 18.3777539,24.3517969 18.4611328,24.0584766 C18.6417773,23.4233203 18.2487305,22.7864063 17.505,22.5072656 L17.505,22.5072656 L12.8482617,20.9267578 C12.7189453,20.8828711 12.6089648,20.7951563 12.5374219,20.6787891 C12.5042578,20.6265234 11.6604492,19.3313086 9.66908203,19.3313086 Z M3.48380859,21.5260547 L1.171875,21.5260547 L1.171875,27.7415039 L3.48380859,27.7415039 L3.48380859,21.5260547 Z M5.70351563,21.5260547 L4.65568359,21.5260547 L4.65568359,26.649668 L5.70351563,26.649668 L5.70351563,21.5260547 Z M9.65039062,22.5030469 C9.68789062,22.5100781 9.72480469,22.5217969 9.75996094,22.5364453 C9.79570313,22.5510937 9.8296875,22.5692578 9.86132812,22.5903516 C9.89355469,22.6114453 9.9234375,22.6360547 9.95039063,22.6630078 C9.97734375,22.6899609 10.0019531,22.7198437 10.0230469,22.7520703 C10.0441406,22.7837109 10.0623047,22.8176953 10.0769531,22.8528516 C10.0916016,22.8885937 10.1027344,22.9255078 10.1103516,22.9630078 C10.1179688,23.0005078 10.1220703,23.0391797 10.1220703,23.0772656 C10.1220703,23.1153516 10.1179688,23.1540234 10.1103516,23.1915234 C10.1027344,23.2290234 10.0916016,23.2659375 10.0769531,23.3010937 C10.0623047,23.3368359 10.0441406,23.3708203 10.0230469,23.4024609 C10.0019531,23.4346875 9.97734375,23.4645703 9.95039063,23.4915234 C9.9234375,23.5184766 9.89355469,23.5430859 9.86132812,23.5641797 C9.8296875,23.5852734 9.79570312,23.6034961 9.75996094,23.6181445 C9.72480469,23.632793 9.68789063,23.6445117 9.65039062,23.651543 C9.61289062,23.6591602 9.57421875,23.6632617 9.53613281,23.6632617 C9.49804687,23.6632617 9.459375,23.6591602 9.421875,23.651543 C9.384375,23.6445117 9.34746094,23.632793 9.31171875,23.6181445 C9.2765625,23.6034961 9.24257812,23.585332 9.2109375,23.5641797 C9.17871094,23.5430859 9.14882812,23.5184766 9.121875,23.4915234 C9.09492187,23.4645703 9.0703125,23.4346875 9.04921875,23.4024609 C9.02753906,23.3708203 9.00996094,23.3368359 8.9953125,23.3010937 C8.98066406,23.2659375 8.96894531,23.2290234 8.96191406,23.1915234 C8.95429687,23.1540234 8.95019531,23.1153516 8.95019531,23.0772656 C8.95019531,23.0391797 8.95429687,23.0005078 8.96191406,22.9630078 C8.96894531,22.9255078 8.98066406,22.8885937 8.9953125,22.8528516 C9.00996094,22.8176953 9.02753906,22.7837109 9.04921875,22.7520703 C9.0703125,22.7198437 9.09492187,22.6899609 9.121875,22.6630078 C9.14882812,22.6360547 9.17871094,22.6114453 9.2109375,22.5903516 C9.24257812,22.5692578 9.2765625,22.5510937 9.31171875,22.5364453 C9.34746094,22.5217969 9.384375,22.5100781 9.421875,22.5030469 C9.496875,22.4878125 9.57480469,22.4878125 9.65039062,22.5030469 Z M8.43837891,0.17296875 C8.6671875,-0.0558398437 9.03820313,-0.0558398437 9.26701172,0.17296875 L9.26701172,0.17296875 L11.2544531,2.16035156 L13.6122656,1.31613281 C15.2804883,0.560097656 16.8424219,1.02146484 17.4383789,1.25595703 C17.4471094,1.25935547 17.4556641,1.26292969 17.4641602,1.26679688 C19.2950391,2.08998047 20.3116992,2.67621094 20.9843555,3.06410156 C21.8589844,3.56847656 22.1722266,3.7490625 23.1246094,3.83220703 L23.1246094,3.83220703 L23.1246094,3.66357422 C23.1246094,3.33996094 23.3869336,3.07763672 23.7105469,3.07763672 L23.7105469,3.07763672 L25.3443164,3.07763672 L25.3443164,2.57173828 C25.3443164,2.248125 25.6066406,1.98580078 25.9302539,1.98580078 L25.9302539,1.98580078 L29.4140625,1.98580078 C29.7376758,1.98580078 30,2.248125 30,2.57173828 L30,2.57173828 L30,9.95917969 C30,10.282793 29.7376758,10.5451172 29.4140625,10.5451172 L29.4140625,10.5451172 L23.9905078,10.5451172 C23.2158398,11.6896875 21.8617383,12.7398047 20.330918,12.7398047 C20.1643359,12.7398047 20.0036133,12.7325977 19.84875,12.7192383 L19.84875,12.7192383 L13.8918164,18.6761133 C13.6593164,18.9085547 13.241543,18.8545898 13.063125,18.6761133 L13.063125,18.6761133 L1.91349609,7.52648438 C1.66195313,7.27494141 1.70244141,6.90890625 1.91349609,6.69779297 L1.91349609,6.69779297 Z M14.8126758,16.0978711 C13.9974023,15.5947852 12.9574805,15.5947852 12.1422656,16.0978711 L12.1422656,16.0978711 L13.4775,17.4331055 Z M11.0323242,3.59560547 C10.4030273,4.05316406 9.64716797,4.30019531 8.85269531,4.30019531 C8.05822266,4.30019531 7.30236328,4.05316406 6.67306641,3.59560547 L6.67306641,3.59560547 L5.33613281,4.93248047 C5.79375,5.56177734 6.04072266,6.31763672 6.04072266,7.11210938 C6.04072266,7.90652344 5.79369141,8.66244141 5.33613281,9.29173828 L5.33613281,9.29173828 L11.2981055,15.2537695 C12.5929102,14.3145117 14.3620898,14.3145117 15.6568945,15.2537695 L15.6568945,15.2537695 L16.995,13.9156641 C16.379707,13.063125 16.1516016,11.9777344 16.3743164,10.9460156 L16.3743164,10.9460156 L14.395957,10.2745898 C14.2473047,10.8420117 13.9505273,11.3626758 13.5268945,11.7863086 C12.8757422,12.4374609 12.0203906,12.7630078 11.1650977,12.7630078 C10.3097461,12.7630078 9.45445313,12.4374023 8.80335938,11.7863086 C7.50105469,10.4840039 7.50105469,8.36507813 8.80330078,7.06277344 C9.28330078,6.58283203 9.89519531,6.26285156 10.5561328,6.14044922 C10.7613281,5.71646484 11.0908594,5.36601563 11.5108594,5.13199219 C11.7595313,4.99341797 12.0261914,4.90330078 12.2996484,4.86292969 L12.2996484,4.86292969 Z M17.4649219,11.8528125 C17.4851367,12.2821289 17.6131055,12.7027734 17.8392773,13.0713281 L17.8392773,13.0713281 L18.4982813,12.4123242 C18.0885938,12.2545313 17.7455859,12.0557227 17.4649219,11.8528125 Z M10.3388086,7.41990234 C10.0766016,7.52800781 9.83595703,7.68744141 9.63205078,7.89146484 C8.78666016,8.73685547 8.78666016,10.1123438 9.63205078,10.9576758 C10.4773242,11.8030664 11.8528711,11.8029492 12.6982617,10.9576758 C12.9929883,10.6628906 13.1932031,10.2957422 13.2816797,9.89642578 L13.2816797,9.89642578 L12.1100391,9.49875 L12.1100391,9.49875 L12.0945117,9.49324219 C11.0950781,9.12234375 10.4469727,8.32001953 10.3388086,7.41990234 Z M16.9967578,2.34146484 C16.5287695,2.15947266 15.3348633,1.81394531 14.0788477,2.39121094 C14.0710547,2.39478516 14.0632031,2.39818359 14.0552344,2.40140625 L14.0552344,2.40140625 C14.0428711,2.40638672 14.0351367,2.40925781 14.0288672,2.41154297 L14.0288672,2.41154297 L12.1709766,3.07681641 L14.3325,5.23833984 C14.3329102,5.23869141 14.3332617,5.23910156 14.3336133,5.23945313 L14.3336133,5.23945313 L14.3700586,5.27589844 L18.5451563,6.59894531 C18.8536523,6.69673828 19.0244531,7.02603516 18.9267188,7.33453125 C18.8289844,7.64302734 18.4996875,7.81400391 18.1911328,7.71609375 L18.1911328,7.71609375 L12.941543,6.05255859 C12.6504492,5.971875 12.3452344,6.00837891 12.0812109,6.15550781 C11.8154297,6.30357422 11.623125,6.54609375 11.5393945,6.83847656 L11.5393945,6.83847656 C11.5388672,6.84035156 11.53875,6.84076172 11.5386328,6.84117188 L11.5101848,6.96807245 C11.4124716,7.55938724 11.8010664,8.13131641 12.4949414,8.39173828 L12.4949414,8.39173828 L17.1536133,9.97289063 C17.2963477,10.0213477 17.4082617,10.1194336 17.4765234,10.2414258 C17.484082,10.2525 17.535,10.3191211 17.5469531,10.3366992 C17.7713086,10.6214648 18.4519922,11.3406445 19.7173828,11.5244531 L19.7173828,11.5244531 C19.9100391,11.5523438 20.1136523,11.5678125 20.330918,11.5678125 C21.4921289,11.5678125 22.5691992,10.6359961 23.1245508,9.72556641 L23.1245508,9.72556641 L23.1245508,5.00630859 C21.8197266,4.89855469 21.3577148,4.63212891 20.3988867,4.07917969 C19.7092383,3.68150391 18.765293,3.13722656 16.9967578,2.34146484 Z M25.3443164,4.24951172 L24.2964844,4.24951172 L24.2964844,9.373125 L25.3443164,9.373125 L25.3443164,4.24951172 Z M28.828125,3.15767578 L26.5161914,3.15767578 L26.5161914,9.373125 L28.828125,9.373125 L28.828125,3.15767578 Z M4.49197266,5.77664063 L3.15650391,7.11210938 L4.49197266,8.44763672 C4.73753906,8.05060547 4.86884766,7.59164063 4.86884766,7.11210938 C4.86884766,6.63257813 4.73748047,6.17361328 4.49197266,5.77664063 L4.49197266,5.77664063 Z M20.5787109,7.24763672 C20.615625,7.25466797 20.6525391,7.26638672 20.6882812,7.28103516 C20.7234375,7.29568359 20.7574219,7.31384766 20.7890625,7.33494141 C20.8212891,7.35603516 20.8511719,7.38064453 20.878125,7.40759766 C20.9050781,7.43455078 20.9296875,7.46443359 20.9507812,7.49666016 C20.9724609,7.52830078 20.9900391,7.56228516 21.0046875,7.59744141 C21.0199219,7.63318359 21.0310547,7.67009766 21.0386719,7.70759766 C21.0462891,7.74509766 21.0498047,7.78376953 21.0498047,7.82185547 C21.0498047,7.85994141 21.0462891,7.89861328 21.0386719,7.93611328 C21.0310547,7.97361328 21.0199219,8.01052734 21.0046875,8.04568359 C20.9900391,8.08142578 20.9724609,8.11541016 20.9507812,8.14705078 C20.9296875,8.17927734 20.9050781,8.20916016 20.878125,8.23611328 C20.8511719,8.26306641 20.8212891,8.28767578 20.7890625,8.30876953 C20.7574219,8.32986328 20.7234375,8.34802734 20.6882812,8.36267578 C20.6525391,8.37732422 20.615625,8.38845703 20.5787109,8.39607422 C20.540625,8.40369141 20.5019531,8.40779297 20.4638672,8.40779297 C20.4257812,8.40779297 20.3871094,8.40369141 20.3496094,8.39607422 C20.3121094,8.38845703 20.2751953,8.37732422 20.2400391,8.36267578 C20.2042969,8.34802734 20.1703125,8.32986328 20.1386719,8.30876953 C20.1064453,8.28767578 20.0765625,8.26306641 20.0496094,8.23611328 C20.0226563,8.20916016 19.9980469,8.17927734 19.9769531,8.14705078 C19.9558594,8.11541016 19.9376953,8.08142578 19.9230469,8.04568359 C19.9083984,8.01052734 19.8966797,7.97361328 19.8896484,7.93611328 C19.8820313,7.89861328 19.8779297,7.85994141 19.8779297,7.82185547 C19.8779297,7.78376953 19.8820313,7.74509766 19.8896484,7.70759766 C19.8966797,7.67009766 19.9083984,7.63318359 19.9230469,7.59744141 C19.9376953,7.56228516 19.9558594,7.52830078 19.9769531,7.49666016 C19.9980469,7.46443359 20.0226562,7.43455078 20.0496094,7.40759766 C20.0765625,7.38064453 20.1064453,7.35603516 20.1386719,7.33494141 C20.1703125,7.31384766 20.2042969,7.29568359 20.2400391,7.28103516 C20.2751953,7.26638672 20.3121094,7.25466797 20.3496094,7.24763672 C20.4251953,7.23240234 20.503125,7.23240234 20.5787109,7.24763672 Z M8.85263672,1.41591797 L7.51716797,2.75138672 C7.91414063,2.99695313 8.37304688,3.12826172 8.85263672,3.12826172 C9.33216797,3.12826172 9.79113281,2.99689453 10.1881055,2.75138672 L10.1881055,2.75138672 L8.85263672,1.41591797 Z" id="Combined-Shape"></path>
                            </g>
                        </g>
                    </g>
                </g>
            </g>
        </g>
    </g>
</svg>