<?xml version="1.0" encoding="UTF-8"?>
<svg width="14px" height="12px" viewBox="0 0 14 12" version="1.1" xmlns="http://www.w3.org/2000/svg" xmlns:xlink="http://www.w3.org/1999/xlink">
    <title>C8D33F19-68A8-4E65-B539-AADF8DB3E252</title>
    <g id="CMS-&amp;-Blog-&amp;-Brand-list" stroke="none" stroke-width="1" fill="none" fill-rule="evenodd">
        <g id="Blog---detalji" transform="translate(-786.000000, -4677.000000)" fill="#497A59" fill-rule="nonzero">
            <g id="Group-6" transform="translate(0.000000, 1401.000000)">
                <g id="Komentiranje" transform="translate(580.000000, 2871.000000)">
                    <g id="Komentari" transform="translate(0.000000, 401.000000)">
                        <g id="Group-12" transform="translate(206.000000, 2.000000)">
                            <g id="odgovor-admin-svg" transform="translate(0.000000, 2.000000)">
                                <path d="M12.8003906,5.32189453 C12.0052711,3.34431797 9.85844063,2.35550391 6.35964141,2.35550391 L4.71085312,2.35550391 L4.71085312,0.471178125 C4.71085312,0.343509375 4.66421484,0.233088282 4.57101562,0.139889063 C4.47776484,0.0466382812 4.36744687,0 4.23980391,0 C4.11213516,0 4.00171406,0.0466382812 3.90851484,0.139889063 L0.1398375,3.90854063 C0.0466382812,4.00186875 0,4.11223828 0,4.23982969 C0,4.36739531 0.0466382812,4.47776484 0.1398375,4.57104141 L3.90854063,8.33979609 C4.00184297,8.43294375 4.11226406,8.47973672 4.23982969,8.47973672 C4.36736953,8.47973672 4.47776484,8.43296953 4.57104141,8.33979609 C4.66426641,8.24662266 4.71087891,8.13617578 4.71087891,8.00855859 L4.71087891,6.12410391 L6.35966719,6.12410391 C6.84046172,6.12410391 7.27100859,6.13874766 7.65128203,6.16813828 C8.03152969,6.19760625 8.40958594,6.25035469 8.78483203,6.3265125 C9.16031016,6.40256719 9.48670078,6.50674922 9.76397813,6.63936797 C10.0412039,6.77198672 10.3000734,6.94245234 10.5405609,7.15091953 C10.7810742,7.35959297 10.9773727,7.60724766 11.1295852,7.894425 C11.2815914,8.181525 11.4006234,8.52119297 11.4865523,8.91378984 C11.5723008,9.3064125 11.6153813,9.75054609 11.6153813,10.2460359 C11.6153813,10.5158625 11.603032,10.8177609 11.5785656,11.1514219 C11.5785656,11.1807351 11.5724813,11.2384336 11.560132,11.3243625 C11.5479375,11.4102914 11.5417758,11.4752344 11.5417758,11.5193203 C11.5417758,11.5928226 11.562607,11.6542078 11.6042438,11.7032953 C11.6460609,11.7523312 11.7037594,11.7767976 11.7773391,11.7767976 C11.8558688,11.7767976 11.9244984,11.7351609 11.9834344,11.6516812 C12.0176719,11.6075695 12.0494602,11.5535578 12.0790828,11.4896976 C12.1085508,11.4259922 12.1417313,11.3524125 12.1784438,11.2689586 C12.2153367,11.1855047 12.2410922,11.1268265 12.2557359,11.0924086 C12.8788688,9.69408516 13.1905125,8.58755391 13.1905125,7.77291797 C13.1905125,6.79650469 13.0604977,5.97936797 12.8003906,5.32189453 Z" id="Path"></path>
                            </g>
                        </g>
                    </g>
                </g>
            </g>
        </g>
    </g>
</svg>