<?xml version="1.0" encoding="UTF-8"?>
<svg width="30px" height="26px" viewBox="0 0 30 26" version="1.1" xmlns="http://www.w3.org/2000/svg" xmlns:xlink="http://www.w3.org/1999/xlink">
    <title>08B60511-E5AD-4803-A9FD-36C783B64D4B</title>
    <g id="Početna-&amp;-Dropdowns" stroke="none" stroke-width="1" fill="none" fill-rule="evenodd">
        <g id="Početna" transform="translate(-1132.000000, -1444.000000)" fill="#497A59" fill-rule="nonzero">
            <g id="Zasto-kupovati-na-suplementi.hr" transform="translate(0.000000, 990.000000)">
                <g id="Zasto-kupovati" transform="translate(1110.000000, 98.000000)">
                    <g id="benefiti" transform="translate(0.000000, 148.000000)">
                        <g id="zamjena" transform="translate(0.000000, 184.000000)">
                            <g id="exchange-(7)" transform="translate(21.999992, 24.000000)">
                                <path d="M26.8184003,14.8918619 C26.9728368,14.8239376 27.1519415,14.8177416 27.306378,14.8795278 C27.4669526,14.9412561 27.5904671,15.0709666 27.6522533,15.2254031 L27.6522533,15.2254031 L29.6226363,20.166735 C29.6226363,20.179069 29.6287744,20.191461 29.6349704,20.2037951 C29.7522889,20.5250022 29.5855183,20.8770735 29.2643691,20.994392 C28.9432199,21.1117684 28.5911486,20.9449978 28.4737722,20.6237906 L28.4737722,20.6237906 L27.053153,17.0722138 C25.2557366,22.396539 20.3020127,25.9543118 14.6009481,25.9543118 C8.62193255,25.9543118 3.39025772,21.9580134 1.8893223,16.2322227 C1.80281005,15.9048775 2.00050271,15.5651403 2.32784792,15.478686 C2.65519313,15.3921737 2.99493032,15.5898664 3.08138466,15.9172116 C4.44641362,21.0994343 9.18391473,24.7189933 14.6008902,24.7189933 C19.7645829,24.7189933 24.261251,21.4947617 25.8857009,16.6707483 L25.8857009,16.6707483 L22.5070328,18.2087439 C22.4946987,18.2149399 22.4823067,18.221078 22.4699726,18.2272739 C22.1549615,18.3569844 21.7905562,18.2087439 21.6608457,17.8937327 C21.5311352,17.5787216 21.6793758,17.2143163 21.9943869,17.0846058 L21.9943869,17.0846058 Z M15.076476,0.0122182628 C21.0554916,0.0122182628 26.2809704,4.01471269 27.7881018,9.73430735 C27.8746141,10.0616526 27.6769214,10.4013898 27.3495762,10.4878441 C27.022231,10.5743563 26.6824938,10.3766637 26.5960395,10.0493185 C25.2310105,4.86709577 20.4935094,1.24753675 15.0765339,1.24753675 C9.90664524,1.24753675 5.41617308,4.47176837 3.80405727,9.29578174 L3.80405727,9.29578174 L7.18272542,7.75778619 C7.48540248,7.62187973 7.83747375,7.75778619 7.9795183,8.05426726 C8.12775883,8.36308241 7.99804836,8.73368374 7.68923322,8.88192428 L7.68923322,8.88192428 L2.86521985,11.0746682 C2.71078333,11.1487884 2.53167865,11.1487884 2.37724213,11.0870022 C2.21660961,11.0252739 2.09309513,10.8955635 2.03130894,10.7411269 L2.03130894,10.7411269 L0.0609258676,5.7997951 C0.0485917919,5.77506904 0.0362577161,5.75040089 0.0300617251,5.72567483 C-0.0749226847,5.40446771 0.104181992,5.05239644 0.425389119,4.94741203 C0.746596246,4.84242762 1.09866752,5.02153229 1.20365193,5.34273942 L1.20365193,5.34273942 L2.62427108,8.89431626 C4.41549157,3.56999109 9.37541139,0.0122182628 15.076476,0.0122182628 Z" id="Combined-Shape"></path>
                            </g>
                        </g>
                    </g>
                </g>
            </g>
        </g>
    </g>
</svg>