<?xml version="1.0" encoding="UTF-8"?>
<svg width="22px" height="22px" viewBox="0 0 22 22" version="1.1" xmlns="http://www.w3.org/2000/svg" xmlns:xlink="http://www.w3.org/1999/xlink">
    <title>49F242F4-F66F-4F61-87CA-E298F41183A2</title>
    <g id="Početna-&amp;-Dropdowns" stroke="none" stroke-width="1" fill="none" fill-rule="evenodd">
        <g id="Početna" transform="translate(-1513.000000, -38.000000)" fill="#383838" fill-rule="nonzero">
            <g id="Ikone" transform="translate(1513.000000, 26.000000)">
                <g id="Search" transform="translate(0.000000, 12.000000)">
                    <path d="M6.07436328,5.00663281 C5.75708203,4.68909375 5.24231641,4.68909375 4.92503516,5.00663281 C3.74700391,6.18466406 3.168,7.82572656 3.33626562,9.50932812 C3.37824609,9.92874609 3.73157812,10.2413867 4.14420703,10.2413867 C4.17132031,10.2413867 4.19864844,10.2400117 4.22576172,10.2373047 C4.67255078,10.1926172 4.99846875,9.79403906 4.95378125,9.34755078 C4.83402734,8.15108594 5.24261719,6.98770703 6.07436328,6.15591797 C6.39190234,5.83867969 6.39190234,5.32387109 6.07436328,5.00663281 Z" id="Path"></path>
                    <path d="M9.29310938,0 C4.16887109,0 0,4.16887109 0,9.29310938 C0,14.4173477 4.16887109,18.5862188 9.29310938,18.5862188 C14.4173477,18.5862188 18.5862188,14.4173477 18.5862188,9.29310938 C18.5862188,4.16887109 14.4173047,0 9.29310938,0 Z M9.29310938,16.960582 C5.06515625,16.960582 1.62563672,13.5210625 1.62563672,9.29310938 C1.62563672,5.06515625 5.06515625,1.62563672 9.29310938,1.62563672 C13.5208047,1.62563672 16.960582,5.06515625 16.960582,9.29310938 C16.960582,13.5210625 13.5210625,16.960582 9.29310938,16.960582 Z" id="Shape"></path>
                    <path d="M21.7618672,20.6125391 L15.8554258,14.7061406 C15.5378867,14.3886016 15.0236367,14.3886016 14.7060977,14.7061406 C14.3885586,15.0234219 14.3885586,15.5381875 14.7060977,15.8554687 L20.6125391,21.7618672 C20.7713086,21.9206367 20.9791055,22 21.1872031,22 C21.3953008,22 21.6030977,21.9206367 21.7618672,21.7618672 C22.0793633,21.4445859 22.0793633,20.9298203 21.7618672,20.6125391 Z" id="Path"></path>
                </g>
            </g>
        </g>
    </g>
</svg>