<?xml version="1.0" encoding="UTF-8"?>
<svg width="47px" height="40px" viewBox="0 0 47 40" version="1.1" xmlns="http://www.w3.org/2000/svg" xmlns:xlink="http://www.w3.org/1999/xlink">
    <title>sleeping_615dba76ba801</title>
    <g id="Mobile---360px" stroke="none" stroke-width="1" fill="none" fill-rule="evenodd">
        <g id="sleeping_615dba76ba801" fill="#497B59" fill-rule="nonzero">
            <path d="M10.4921918,0.980414557 C17.2834247,-0.671731562 25.9304566,-0.193010101 30.6057078,2.09383921 C31.3073516,2.43721821 32.1479909,2.29877072 32.6973059,1.74954698 L32.6973059,1.74954698 L32.7370797,1.70996376 C32.8991078,1.54368643 33.5274483,0.921247218 34.5514612,0.939136018 C35.2125571,0.95091684 35.8252511,1.22425017 36.2766667,1.70899903 C37.1667123,2.66470679 37.1271689,4.1500036 36.1867123,5.09055154 L36.1867123,5.09055154 L35.4862557,5.79100816 C35.0238813,6.25329127 34.8451598,6.93219538 35.019863,7.56260634 C35.5688128,9.54370223 35.8341096,11.9900036 35.7658904,14.3650721 C38.2122831,14.7202319 40.5161187,15.7755744 42.3921005,17.4252547 C42.6763014,17.6749351 42.7039726,18.1078118 42.4542009,18.3918301 C42.2043379,18.676031 41.7714612,18.7036109 41.4876256,18.4539305 C39.3952968,16.6142045 36.7074429,15.6009625 33.9193151,15.6009625 C27.5961187,15.6009625 22.4518265,20.7452547 22.4518265,27.0684511 C22.4518265,33.3916474 27.5961187,38.5359397 33.9193151,38.5359397 C40.2424201,38.5359397 45.3867123,33.3916474 45.3867123,27.0684511 C45.3867123,24.64562 44.6400457,22.3293643 43.2272603,20.3700036 C43.0060731,20.063063 43.0754795,19.6350264 43.3822374,19.4137479 C43.6890868,19.192652 44.117032,19.2618757 44.3386758,19.5682684 C45.9206849,21.7624237 46.7568493,24.355757 46.7568493,27.0679031 C46.7568493,34.1463506 40.9980365,39.9052547 33.919589,39.9052547 C26.8411416,39.9052547 21.0822374,34.146442 21.0822374,27.0679031 C21.0822374,26.7044328 21.0982192,26.3446155 21.1279909,25.9887251 C20.4959361,26.0168529 19.8624201,26.0315561 19.2305479,26.0315561 C14.3757534,26.0315561 9.61383562,25.2159397 6.3416895,23.7789534 C5.6696347,23.4838849 4.86543379,23.639136 4.33958904,24.1650721 L4.33958904,24.1650721 L4.1213242,24.3833369 C3.17977169,25.3247981 1.64780822,25.3247981 0.706164384,24.3833369 C-0.235388128,23.4418757 -0.235388128,21.9098209 0.706164384,20.9681771 L0.706164384,20.9681771 L1.27547945,20.3987707 C1.73465753,19.9397753 1.91447489,19.2650721 1.74488584,18.6381315 C0.883972603,15.4542045 0.959041096,10.9279945 1.9273516,7.63119081 C2.11630137,6.98799447 1.9413242,6.29603099 1.47073059,5.82552871 L1.47073059,5.82552871 L0.706164384,5.06105383 C-0.235388128,4.11940999 -0.235388128,2.5873552 0.706164384,1.64580268 C1.64771689,0.704341497 3.17968037,0.704341497 4.1213242,1.64580268 L4.1213242,1.64580268 L4.45319635,1.97767483 C4.99420091,2.51886205 5.82077626,2.66406752 6.50990868,2.33877072 C6.9073516,2.15137346 7.33885845,1.9700036 7.7926484,1.79995794 C8.14680365,1.66726387 8.54159817,1.8466246 8.67438356,2.20087118 C8.80716895,2.55511775 8.62771689,2.94982095 8.27347032,3.08260634 C7.85465753,3.23968396 7.45794521,3.40625931 7.09438356,3.57776615 C5.88369863,4.14872506 4.43328767,3.89511775 3.48442922,2.94644195 L3.48442922,2.94644195 L3.15255708,2.61456981 C2.74515982,2.2069899 2.08214612,2.2069899 1.67474886,2.61456981 C1.26726027,3.02196707 1.26726027,3.68498077 1.67474886,4.09256068 L1.67474886,4.09256068 L2.43922374,4.85694424 C3.2643379,5.68196707 3.57182648,6.89292597 3.24159817,8.01730953 C2.33739726,11.0959397 2.26561644,15.3163963 3.06716895,18.2806885 C3.36442922,19.3798666 3.04890411,20.562789 2.24406393,21.3677205 L2.24406393,21.3677205 L1.67474886,21.9370356 C1.26726027,22.3445241 1.26726027,23.0075378 1.67474886,23.4149351 C2.08214612,23.822515 2.74515982,23.822515 3.15255708,23.4149351 L3.15255708,23.4149351 L3.37082192,23.1966703 C4.29283105,22.2748438 5.70808219,22.0049808 6.89246575,22.5250721 C10.4104566,24.0701862 16.0206849,24.8750264 21.3194064,24.609273 C22.4699087,18.7031543 27.6818721,14.2310082 33.9194977,14.2310082 C34.0796804,14.2310082 34.2394977,14.2347525 34.3990411,14.2406885 C34.4552968,12.025894 34.2073516,9.75986661 33.699863,7.92835976 C33.3934703,6.82315428 33.706895,5.6330173 34.5176712,4.82214972 L34.5176712,4.82214972 L35.2181279,4.1216931 C35.6275342,3.71237803 35.6528311,3.04872506 35.2743836,2.64242369 C35.0785845,2.43237803 34.8132877,2.31383921 34.5272603,2.30872506 C33.9876256,2.29365657 33.7188584,2.67959264 33.6662557,2.71785748 C32.702968,3.68105383 31.2310046,3.92443282 30.00379,3.32425017 C27.8241553,2.25804013 24.6280822,1.5783141 21.0043379,1.41027757 C17.4929224,1.24671593 13.8741096,1.56744652 10.8159361,2.31146478 C10.4485388,2.4013278 10.0779452,2.17539173 9.98853881,1.80781182 C9.89913242,1.44023191 10.1246119,1.06982095 10.4921918,0.980414557 Z M33.9194064,17.3190447 C39.2952055,17.3190447 43.6687215,21.6925607 43.6687215,27.0683598 C43.6687215,32.4441588 39.2952055,36.8176748 33.9194064,36.8176748 C32.8894521,36.8176748 31.873653,36.6570356 30.900411,36.3403232 C30.5405936,36.2233369 30.3438813,35.8367616 30.4609589,35.4771269 C30.5779452,35.1174009 30.9646119,34.9205972 31.3242466,35.0377662 C32.1605023,35.3098209 33.033653,35.4478118 33.9194064,35.4478118 C38.539863,35.4478118 42.2988584,31.6888164 42.2988584,27.0683598 C42.2988584,22.4479031 38.539863,18.6889077 33.9194064,18.6889077 C29.2988584,18.6889077 25.539863,22.4479031 25.539863,27.0683598 C25.539863,29.7718301 26.8561187,32.3243415 29.0608676,33.896305 C29.3688128,34.1158483 29.4405023,34.5436109 29.2208676,34.8516474 C29.0014155,35.1595013 28.573653,35.2312821 28.2655251,35.0116474 C25.7010502,33.1831543 24.17,30.2136566 24.17,27.0683598 C24.17,21.6925607 28.5436073,17.3190447 33.9194064,17.3190447 Z M33.9193151,32.6582228 C34.2976712,32.6582228 34.6042466,32.9647981 34.6042466,33.3431543 L34.6042466,33.3431543 L34.6042466,33.6568529 C34.6042466,34.0352091 34.2976712,34.3417844 33.9193151,34.3417844 C33.5409589,34.3417844 33.2343836,34.0352091 33.2343836,33.6568529 L33.2343836,33.6568529 L33.2343836,33.3431543 C33.2343836,32.9647981 33.5409589,32.6582228 33.9193151,32.6582228 Z M37.8719178,31.0209625 C38.1394064,30.7535652 38.5730137,30.7535652 38.8405936,31.0209625 L38.8405936,31.0209625 L39.0625114,31.2428803 C39.33,31.5103689 39.33,31.9439762 39.0625114,32.2115561 C38.9287215,32.3452547 38.753379,32.4121041 38.5781279,32.4121041 C38.4028767,32.4121041 38.2275342,32.3452547 38.0937443,32.2115561 L38.0937443,32.2115561 L37.8718265,31.9896383 C37.6043379,31.7220584 37.6043379,31.2884511 37.8719178,31.0209625 Z M28.9978539,31.0210538 C29.2652511,30.7533826 29.6989498,30.7533826 29.9665297,31.0207799 C30.2341096,31.2881771 30.2342009,31.7218757 29.9668037,31.9893643 L29.9668037,31.9893643 L29.7449772,32.2112821 C29.6111872,32.3451634 29.4358447,32.4120127 29.2605023,32.4120127 C29.0852511,32.4120127 28.91,32.3452547 28.7763014,32.2115561 C28.5087215,31.9441588 28.5086301,31.5104602 28.7760274,31.2429716 L28.7760274,31.2429716 L28.9978539,31.0210538 Z M40.5077169,26.3834283 C40.8860731,26.3834283 41.1926484,26.6900036 41.1926484,27.0683598 C41.1926484,27.4467159 40.8860731,27.7532913 40.5077169,27.7532913 L40.5077169,27.7532913 L40.1939269,27.7532913 C39.8155708,27.7532913 39.5089954,27.4467159 39.5089954,27.0683598 C39.5089954,26.6900036 39.8155708,26.3834283 40.1939269,26.3834283 L40.1939269,26.3834283 L40.5077169,26.3834283 Z M27.6445205,26.3834283 C28.0228767,26.3834283 28.3294521,26.6900036 28.3294521,27.0683598 C28.3294521,27.4467159 28.0228767,27.7532913 27.6445205,27.7532913 L27.6445205,27.7532913 L27.3307306,27.7532913 C26.9523744,27.7532913 26.6457991,27.4467159 26.6457991,27.0683598 C26.6457991,26.6900036 26.9523744,26.3834283 27.3307306,26.3834283 L27.3307306,26.3834283 L27.6445205,26.3834283 Z M33.9194064,22.5862593 C34.2977626,22.5862593 34.6043379,22.8928346 34.6043379,23.2711908 L34.6043379,23.2711908 L34.6043379,27.0683598 C34.6043379,27.6524694 33.9218721,27.9634283 33.4802283,27.5939305 L33.4802283,27.5939305 L31.8892694,26.2645241 C31.5990411,26.0220584 31.5603196,25.5900949 31.8028767,25.2998666 C32.0452511,25.0097296 32.4773059,24.9709168 32.7675342,25.2134739 L32.7675342,25.2134739 L33.2344749,25.6035196 L33.2344749,23.2711908 C33.2344749,22.8928346 33.5410502,22.5862593 33.9194064,22.5862593 Z M38.0938356,21.9252547 C38.3613242,21.6578575 38.7949315,21.6578575 39.0625114,21.9252547 C39.33,22.1927433 39.33,22.6263506 39.0625114,22.8939305 L39.0625114,22.8939305 L38.8405936,23.1158483 C38.7068037,23.249547 38.5314612,23.3163963 38.35621,23.3163963 C38.1809589,23.3163963 38.0056164,23.249547 37.8719178,23.1158483 C37.6044292,22.8483598 37.6044292,22.4147525 37.8719178,22.1471725 L37.8719178,22.1471725 L38.0938356,21.9252547 Z M28.7763014,21.9250721 C29.0436986,21.6578575 29.4773973,21.6575835 29.7448858,21.9253461 L29.7448858,21.9253461 L29.9667123,22.1472639 C30.2341096,22.4147525 30.2340183,22.8484511 29.9665297,23.1158483 C29.8328311,23.2494557 29.6575799,23.316305 29.4823288,23.316305 C29.3069863,23.316305 29.1316438,23.2494557 28.9978539,23.1155744 L28.9978539,23.1155744 L28.7760274,22.8936566 C28.5086301,22.6262593 28.5087215,22.1925607 28.7763014,21.9250721 Z M33.9193151,19.7948438 C34.2976712,19.7948438 34.6042466,20.1014191 34.6042466,20.4797753 L34.6042466,20.4797753 L34.6042466,20.7935652 C34.6042466,21.1719214 34.2976712,21.4784967 33.9193151,21.4784967 C33.5409589,21.4784967 33.2343836,21.1719214 33.2343836,20.7935652 L33.2343836,20.7935652 L33.2343836,20.4797753 C33.2343836,20.1014191 33.5409589,19.7948438 33.9193151,19.7948438 Z M41.0329224,9.21630497 C41.2874429,9.21630497 41.5210502,9.35749218 41.6394064,9.58288031 C41.7576712,9.80817711 41.7413242,10.0805972 41.596758,10.2900949 L41.596758,10.2900949 L40.4908219,11.8939305 L41.1107306,11.8939305 C41.4890868,11.8939305 41.7956621,12.2005059 41.7956621,12.578862 C41.7956621,12.9572182 41.4890868,13.2637936 41.1107306,13.2637936 L41.1107306,13.2637936 L39.1864384,13.2637936 C38.6354795,13.2637936 38.3095434,12.6437022 38.6225114,12.1900036 L38.6225114,12.1900036 L39.7284475,10.586168 L39.2349315,10.586168 C38.8565753,10.586168 38.55,10.2795926 38.55,9.90123647 C38.55,9.52288031 38.8565753,9.21630497 39.2349315,9.21630497 L39.2349315,9.21630497 L41.0329224,9.21630497 Z M45.9680822,6.20351958 C46.2226027,6.20351958 46.45621,6.34470679 46.5745662,6.57009492 C46.6928311,6.79539173 46.676484,7.06781182 46.5319178,7.27730953 L46.5319178,7.27730953 L44.8128311,9.77009492 L46.0716438,9.77009492 C46.45,9.77009492 46.7565753,10.0766703 46.7565753,10.4550264 C46.7565753,10.8333826 46.45,11.1399579 46.0716438,11.1399579 L46.0716438,11.1399579 L43.5084475,11.1399579 C42.9574886,11.1399579 42.6315525,10.5198666 42.9445205,10.066168 L42.9445205,10.066168 L44.6636073,7.57338259 L43.573105,7.57338259 C43.1947489,7.57338259 42.8881735,7.26680725 42.8881735,6.88845109 C42.8881735,6.51009492 43.1947489,6.20351958 43.573105,6.20351958 L43.573105,6.20351958 L45.9680822,6.20351958 Z" id="Combined-Shape"></path>
        </g>
    </g>
</svg>