<?xml version="1.0" encoding="UTF-8"?>
<svg width="14px" height="13px" viewBox="0 0 14 13" version="1.1" xmlns="http://www.w3.org/2000/svg" xmlns:xlink="http://www.w3.org/1999/xlink">
    <title>7090F66B-A85F-49BC-B0F2-DE4ACD470EB3</title>
    <g id="Početna-&amp;-Dropdowns" stroke="none" stroke-width="1" fill="none" fill-rule="evenodd">
        <g id="Početna" transform="translate(-354.000000, -2331.000000)" fill="#497A59" fill-rule="nonzero">
            <g id="Bestsellers" transform="translate(142.000000, 1915.000000)">
                <g id="Proizvodi" transform="translate(113.500000, 136.000000)">
                    <g id="star-(8)" transform="translate(98.500000, 280.000000)">
                        <path d="M7.13065,0.4927 L8.74135,4.30495 L12.86495,4.6592 C13.15095,4.6839 13.2673,5.04075 13.0502,5.2286 L9.9224,7.93845 L10.8597,11.96975 C10.9247,12.2499 10.62115,12.47025 10.37545,12.3214 L6.83165,10.1842 L3.28785,12.3214 C3.0415,12.4696 2.7386,12.24925 2.8036,11.96975 L3.7409,7.93845 L0.61245,5.22795 C0.39535,5.0401 0.51105,4.68325 0.7977,4.65855 L4.9213,4.3043 L6.532,0.4927 C6.6438,0.2275 7.01885,0.2275 7.13065,0.4927 Z" id="Path"></path>
                    </g>
                </g>
            </g>
        </g>
    </g>
</svg>