<?xml version="1.0" encoding="UTF-8"?>
<svg width="21px" height="26px" viewBox="0 0 21 26" version="1.1" xmlns="http://www.w3.org/2000/svg" xmlns:xlink="http://www.w3.org/1999/xlink">
    <title>2F8E3D10-AB27-4F8D-9F61-8F8CCC9CC2A2</title>
    <g id="Product-category-&amp;-Details-&amp;-Cart" stroke="none" stroke-width="1" fill="none" fill-rule="evenodd">
        <g id="Kategorije-proizvoda---Razina-1--v2" transform="translate(-280.000000, -2584.000000)" fill="#497A59" fill-rule="nonzero">
            <g id="Group-2" transform="translate(0.000000, 1750.000000)">
                <g id="Proizvodi,-Filteri" transform="translate(0.000000, 817.000000)">
                    <g id="Group-26" transform="translate(255.000000, 0.000000)">
                        <g id="vitamins" transform="translate(25.000000, 17.000000)">
                            <path d="M12.1332552,0 C12.8513284,0 13.4333247,0.581996375 13.4333247,1.30006953 L13.4333247,1.30006953 L13.4333247,3.90001029 C13.4333247,4.61788514 12.8513284,5.19988152 12.1332552,5.19988152 L12.1332552,5.19988152 L12.1332552,5.84991628 C12.1332552,6.14627023 12.4712653,6.49995105 14.0833595,6.49995105 C14.4856392,6.50054615 14.8714548,6.65983146 15.1570972,6.94329184 C15.4419461,7.22754567 15.6014298,7.61415468 15.5998429,8.01663277 L15.5998429,8.01663277 L15.5998429,18.6332062 C15.5998429,18.8724317 15.405844,19.0664305 15.1666186,19.0664305 C14.9271947,19.0664305 14.7331959,18.8724317 14.7331959,18.6332062 L14.7331959,18.6332062 L14.7331959,10.8331856 L0.866646903,10.8331856 L0.866646903,19.4998531 L12.9999021,19.4998531 C13.239326,19.4998531 13.4333247,19.6938519 13.4333247,19.9332758 C13.4333247,20.1725013 13.239326,20.3665 12.9999021,20.3665 L12.9999021,20.3665 L0.866646903,20.3665 L0.866646903,24.6997347 C0.866646903,24.9391585 1.06064571,25.1331573 1.30006953,25.1331573 L1.30006953,25.1331573 L11.2233652,25.1331573 C10.8214822,24.4559468 10.9327637,23.5922753 11.4927418,23.0388432 L11.4927418,23.0388432 L12.7174335,21.8143499 L13.9419268,20.5896582 C14.628262,19.9360529 15.7067604,19.9360529 16.3928972,20.5896582 C16.9066567,21.0996488 17.0453123,21.8770325 16.7396353,22.5332165 L16.7396353,22.5332165 L18.6332062,22.5332165 C19.5905049,22.5332165 20.3665,23.3092117 20.3665,24.2665104 C20.3665,25.2238091 19.5905049,25.9999063 18.6332062,25.9999063 L18.6332062,25.9999063 L15.1666186,25.9999063 C14.9559573,26.0021845 14.7470813,25.9629087 14.551694,25.8845554 C14.5437595,25.8821751 14.5360233,25.8795963 14.5282872,25.8762242 L14.5282872,25.8762242 L14.520551,25.8724553 L14.5074591,25.8659093 C14.2965995,25.7794231 14.1051794,25.6516775 13.9441089,25.4902103 L13.9441089,25.4902103 C13.6176037,25.8173104 13.1786269,25.9994075 12.7208057,25.9999063 L12.7208057,25.9999063 L1.30006953,25.9999063 C0.581996375,25.9999063 0,25.4178078 0,24.6997347 L0,24.6997347 L0,8.01663277 C0,7.1789468 0.678995754,6.49995105 1.51668172,6.49995105 C2.1010584,6.54140885 2.68722038,6.45174888 3.23232125,6.23731875 C3.38625076,6.17285086 3.48106813,6.0163426 3.46678601,5.84991628 L3.46678601,5.84991628 L3.46678601,5.19988152 C2.74871281,5.19988152 2.16671648,4.61788514 2.16671648,3.90001029 L2.16671648,3.90001029 L2.16671648,1.30006953 C2.16671648,0.581996375 2.74871281,0 3.46678601,0 L3.46678601,0 Z M16.4666881,23.3998634 L16.0332655,23.3998634 L14.5542727,24.8788562 C14.6300473,24.9544324 14.7195089,25.0149331 14.8176985,25.0573827 C14.8339642,25.0621434 14.8498333,25.067896 14.8655039,25.0746403 C14.9605197,25.1151063 15.0632715,25.1349425 15.1666186,25.1331573 L15.1666186,25.1331573 L16.4666881,25.1331573 L16.4666881,23.3998634 Z M18.6332062,23.3998634 L17.3333351,23.3998634 L17.3333351,25.1331573 L18.6332062,25.1331573 C19.1118556,25.1331573 19.4998531,24.7451597 19.4998531,24.2665104 C19.4998531,23.787861 19.1118556,23.3998634 18.6332062,23.3998634 L18.6332062,23.3998634 Z M13.0215236,22.734158 L12.102509,23.6537678 C11.8837148,23.8727603 11.7982205,24.191926 11.878359,24.4908586 C11.9584976,24.7899897 12.1921689,25.023661 12.4913,25.1036012 C12.790431,25.1837398 13.1095967,25.0982454 13.3283908,24.8792529 L13.3283908,24.8792529 L13.6667977,24.5402509 L13.6667977,24.5402509 L13.6767158,24.5307295 L14.2476039,23.9600399 L13.0215236,22.734158 Z M5.41669201,23.3998634 C5.65591747,23.3998634 5.84991628,23.5938622 5.84991628,23.8330877 C5.84991628,24.0725116 5.65591747,24.2665104 5.41669201,24.2665104 L5.41669201,24.2665104 L2.16671648,24.2665104 C1.92729261,24.2665104 1.73329381,24.0725116 1.73329381,23.8330877 C1.73329381,23.5938622 1.92729261,23.3998634 2.16671648,23.3998634 L2.16671648,23.3998634 Z M15.3967194,20.9661507 C15.0936211,20.8868056 14.77148,20.9770607 14.553876,21.2024008 L14.553876,21.2024008 L13.6342662,22.1214154 L14.8601481,23.3472973 L15.5397389,22.6675081 L15.7793611,22.4278859 C16.0047012,22.2102819 16.0949563,21.8879425 16.0156112,21.5850425 C15.9362661,21.2819442 15.6996193,21.0452974 15.3967194,20.9661507 Z M4.82517422,11.7037998 C8.6033898,12.2189479 10.5923732,13.1334002 10.9069766,14.4983344 C11.1656416,15.6224562 10.1633146,16.607724 9.63904177,17.0334106 C9.77035795,17.3855044 9.87687874,17.7463263 9.9580091,18.113099 C10.0056162,18.3475639 9.85426541,18.5762761 9.61999895,18.6240815 C9.59143471,18.6302308 9.56247377,18.6332062 9.53331443,18.6332062 C9.32741391,18.6332062 9.14987922,18.4884014 9.10861977,18.2864681 C9.05327654,18.0468459 8.98503975,17.8103975 8.90450445,17.5781147 C8.41216809,17.9429038 7.82342741,18.1545569 7.21147829,18.18689 C6.92781952,18.1878818 6.64753294,18.1244057 6.3920417,18.0010241 C4.39135484,17.0393614 4.33343297,12.6325343 4.33343297,12.1332552 C4.33382967,12.069184 4.34632653,12.0102703 4.37013006,11.9555222 L4.37013006,11.9555222 C4.37370057,11.945604 4.38104003,11.9404466 4.38500723,11.9325121 C4.40801736,11.8868886 4.43876356,11.8456292 4.4758574,11.8103206 L4.4758574,11.8103206 C4.49410678,11.7966336 4.50858725,11.7888974 4.52366282,11.7821531 C4.55540086,11.7579528 4.59051111,11.7383149 4.62800166,11.7242311 C4.65021829,11.7180819 4.67303002,11.7141147 4.69604005,11.712131 C4.73075354,11.70499 4.76606214,11.7022129 4.80137069,11.7037998 C4.80910685,11.7063785 4.81704136,11.7037998 4.82517422,11.7037998 Z M5.22566865,12.8521218 C5.31691552,14.3168325 5.68884572,16.7001611 6.7677408,17.2200699 C7.22972767,17.4424346 7.83949478,17.2811656 8.57998302,16.7491567 C7.90316921,15.1273427 6.72846495,13.7626069 5.22566865,12.8521218 Z M6.87307139,12.950113 C7.90416107,13.8423488 8.72915181,14.9478244 9.29111351,16.1901704 C9.72056888,15.7966187 10.1841426,15.2164076 10.0619512,14.6899528 C9.96138125,14.2565302 9.37521932,13.5285388 6.87307139,12.950113 Z M11.2666083,5.19988152 L4.33343297,5.19988152 L4.33343297,5.84991628 C4.34533468,6.33114432 4.08032203,6.77666712 3.65166011,6.99565961 C2.98059887,7.2902283 2.24784684,7.41757717 1.51668172,7.36659795 C1.15764509,7.36659795 0.866646903,7.65759614 0.866646903,8.01663277 L0.866646903,8.01663277 L0.866646903,9.96653871 L14.7332066,9.96653871 L14.7332066,8.01663277 C14.7341878,7.84385879 14.665951,7.67802752 14.5439578,7.5560344 C14.4217664,7.43384294 14.2559351,7.36560615 14.0833595,7.36659795 L14.0833595,7.36659795 L13.9136179,7.36604522 C13.0948258,7.35885978 11.2666083,7.25826355 11.2666083,5.84991628 L11.2666083,5.84991628 L11.2666083,5.19988152 Z M9.3167023,6.49995105 C9.55592781,6.49995105 9.74992657,6.69394981 9.74992657,6.93337367 C9.74992657,7.17259919 9.55592781,7.36659795 9.3167023,7.36659795 L9.3167023,7.36659795 L6.06672677,7.36659795 C5.8273029,7.36659795 5.63330414,7.17259919 5.63330414,6.93337367 C5.63330414,6.69394981 5.8273029,6.49995105 6.06672677,6.49995105 L6.06672677,6.49995105 Z M3.90001029,0.866646903 L3.46678601,0.866646903 C3.22736219,0.866646903 3.03336339,1.06064571 3.03336339,1.30006953 L3.03336339,1.30006953 L3.03336339,3.90001029 C3.03336339,4.13923581 3.22736219,4.33323456 3.46678601,4.33323456 L3.46678601,4.33323456 L12.1332552,4.33323456 C12.3726791,4.33323456 12.5666778,4.13923581 12.5666778,3.90001029 L12.5666778,3.90001029 L12.5666778,1.30006953 C12.5666778,1.06064571 12.3726791,0.866646903 12.1332552,0.866646903 L12.1332552,0.866646903 L11.7000309,0.866646903 L11.7000309,2.16671648 C11.7000309,2.40594195 11.5060321,2.59994076 11.2666083,2.59994076 C11.0273828,2.59994076 10.833384,2.40594195 10.833384,2.16671648 L10.833384,2.16671648 L10.833384,0.866646903 L9.96673706,0.866646903 L9.96673706,2.16671648 C9.96673706,2.40594195 9.7725399,2.59994076 9.53331443,2.59994076 C9.29389056,2.59994076 9.09989181,2.40594195 9.09989181,2.16671648 L9.09989181,2.16671648 L9.09989181,0.866646903 L8.23324485,0.866646903 L8.23324485,2.16671648 C8.23324485,2.40594195 8.0392461,2.59994076 7.80002058,2.59994076 C7.56059676,2.59994076 7.36659795,2.40594195 7.36659795,2.16671648 L7.36659795,2.16671648 L7.36659795,0.866646903 L6.49995105,0.866646903 L6.49995105,2.16671648 C6.49995105,2.40594195 6.30595229,2.59994076 6.06672677,2.59994076 C5.8273029,2.59994076 5.63330414,2.40594195 5.63330414,2.16671648 L5.63330414,2.16671648 L5.63330414,0.866646903 L4.76665724,0.866646903 L4.76665724,2.16671648 C4.76665724,2.40594195 4.57265843,2.59994076 4.33343297,2.59994076 C4.0940091,2.59994076 3.90001029,2.40594195 3.90001029,2.16671648 L3.90001029,2.16671648 L3.90001029,0.866646903 Z" id="Combined-Shape"></path>
                        </g>
                    </g>
                </g>
            </g>
        </g>
    </g>
</svg>