<?xml version="1.0" encoding="UTF-8"?>
<svg width="26px" height="34px" viewBox="0 0 26 34" version="1.1" xmlns="http://www.w3.org/2000/svg" xmlns:xlink="http://www.w3.org/1999/xlink">
    <title>1BA5D6A0-333C-437B-8F6A-596EF93E8E17</title>
    <g id="User-account-&amp;-Checkout-&amp;-Search-results" stroke="none" stroke-width="1" fill="none" fill-rule="evenodd">
        <g id="Moj-račun---narudžbe" transform="translate(-1058.000000, -581.000000)" fill="#383838" fill-rule="nonzero">
            <g id="Group-21" transform="translate(520.000000, 363.000000)">
                <g id="Group-11" transform="translate(35.000000, 25.000000)">
                    <g id="Group-17" transform="translate(467.000000, 50.893398)">
                        <g id="Group-19" transform="translate(30.000000, 31.106602)">
                            <g id="Group-20-Copy-2" transform="translate(6.000000, 110.000000)">
                                <g id="Combined-Shape-2" transform="translate(0.000000, 1.000000)">
                                    <path d="M24.9935265,0 C25.2722734,0 25.4982424,0.224070061 25.4982424,0.500474491 L25.4982424,0.500474491 L25.4982424,33.4991886 C25.4982424,33.7017117 25.3754022,33.8843511 25.1867169,33.9618709 C24.9980316,34.0393908 24.7808295,33.9965093 24.6364761,33.8532386 L24.6364761,33.8532386 L22.5446455,31.7787002 L20.4525263,33.8532386 C20.2553525,34.0485522 19.9358878,34.0485522 19.738714,33.8532386 L19.738714,33.8532386 L17.6468833,31.7789862 L15.5550527,33.8532386 C15.3578788,34.0485522 15.0384142,34.0485522 14.8412403,33.8532386 L14.8412403,33.8532386 L12.7491212,31.7787002 L10.6572906,33.8532386 C10.4601167,34.0485522 10.140652,34.0485522 9.94347818,33.8532386 L9.94347818,33.8532386 L7.85135909,31.7787002 L5.75952841,33.8532386 C5.56235456,34.0485522 5.24288991,34.0485522 5.04571606,33.8532386 L5.04571606,33.8532386 L2.95359697,31.7787002 L0.861766283,33.8532386 C0.717412956,33.9965093 0.500210799,34.0393908 0.311525489,33.9618709 C0.122840178,33.8843511 0,33.7017117 0,33.4991886 L0,33.4991886 L0,0.500474491 C0,0.224070061 0.225969066,0 0.504715905,0 L0.504715905,0 L24.9935265,0 Z M24.491118,1.00094898 L1.01173898,1.00094898 L1.01173898,32.2909001 L2.59798864,30.7179804 C2.79506355,30.5226994 3.11443765,30.5226994 3.31151257,30.7179804 L3.31151257,30.7179804 L5.40363167,32.7925186 L7.49575076,30.7179804 C7.69282568,30.5226994 8.01219978,30.5226994 8.2092747,30.7179804 L8.2092747,30.7179804 L10.3013938,32.7925186 L12.3935129,30.7179804 C12.5905879,30.5226994 12.909962,30.5226994 13.1070368,30.7179804 L13.1070368,30.7179804 L15.1991559,32.7925186 L17.2912751,30.7179804 C17.4883499,30.5226994 17.807724,30.5226994 18.0047989,30.7179804 L18.0047989,30.7179804 L20.0969181,32.7925186 L22.1890371,30.7179804 C22.386112,30.5226994 22.7054861,30.5226994 22.9025611,30.7179804 L22.9025611,30.7179804 L24.4888108,32.2909001 L24.491118,1.00094898 Z M7.00603213,26.3009354 C7.28477896,26.3009354 7.51074793,26.5250055 7.51074793,26.80141 C7.51074793,27.0778144 7.28477896,27.3018844 7.00603213,27.3018844 L7.00603213,27.3018844 L4.49225903,27.3018844 C4.21351219,27.3018844 3.98754323,27.0778144 3.98754323,26.80141 C3.98754323,26.5250055 4.21351219,26.3009354 4.49225903,26.3009354 L4.49225903,26.3009354 L7.00603213,26.3009354 Z M21.03194,26.3009354 C21.3106868,26.3009354 21.5366558,26.5250055 21.5366558,26.80141 C21.5366558,27.0778144 21.3106868,27.3018844 21.03194,27.3018844 L21.03194,27.3018844 L9.45404797,27.3018844 C9.17530112,27.3018844 8.94933216,27.0778144 8.94933216,26.80141 C8.94933216,26.5250055 9.17530112,26.3009354 9.45404797,26.3009354 L9.45404797,26.3009354 L21.03194,26.3009354 Z M7.00603213,23.0461354 C7.28477896,23.0461354 7.51074793,23.2702054 7.51074793,23.5466098 C7.51074793,23.8230143 7.28477896,24.0470843 7.00603213,24.0470843 L7.00603213,24.0470843 L4.49225903,24.0470843 C4.21351219,24.0470843 3.98754323,23.8230143 3.98754323,23.5466098 C3.98754323,23.2702054 4.21351219,23.0461354 4.49225903,23.0461354 L4.49225903,23.0461354 L7.00603213,23.0461354 Z M21.03194,23.0461354 C21.3106868,23.0461354 21.5366558,23.2702054 21.5366558,23.5466098 C21.5366558,23.8230143 21.3106868,24.0470843 21.03194,24.0470843 L21.03194,24.0470843 L9.45404797,24.0470843 C9.17530112,24.0470843 8.94933216,23.8230143 8.94933216,23.5466098 C8.94933216,23.2702054 9.17530112,23.0461354 9.45404797,23.0461354 L9.45404797,23.0461354 L21.03194,23.0461354 Z M7.00603213,19.7916212 C7.28477896,19.7916212 7.51074793,20.0156913 7.51074793,20.2920957 C7.51074793,20.5685001 7.28477896,20.7925702 7.00603213,20.7925702 L7.00603213,20.7925702 L4.49225903,20.7925702 C4.21351219,20.7925702 3.98754323,20.5685001 3.98754323,20.2920957 C3.98754323,20.0156913 4.21351219,19.7916212 4.49225903,19.7916212 L4.49225903,19.7916212 L7.00603213,19.7916212 Z M21.03194,19.7916212 C21.3106868,19.7916212 21.5366558,20.0156913 21.5366558,20.2920957 C21.5366558,20.5685001 21.3106868,20.7925702 21.03194,20.7925702 L21.03194,20.7925702 L9.45404797,20.7925702 C9.17536705,20.7924124 8.94949127,20.5684348 8.94933216,20.2920957 C8.94933216,20.0156913 9.17530112,19.7916212 9.45404797,19.7916212 L9.45404797,19.7916212 L21.03194,19.7916212 Z M12.2196687,3.19046675 C12.225302,3.19046675 12.2309602,3.19046675 12.2365935,3.19137237 C12.5080873,3.19137237 12.7280091,3.41129425 12.7280091,3.68278798 L12.7280091,3.68278798 L12.7280091,4.63338991 C13.6568506,4.68655701 14.542994,5.0434222 15.2494959,5.64842548 C15.3638812,5.76443098 15.4275172,5.92071684 15.4267195,6.08343361 C15.4227065,6.46285682 15.1133502,6.76817509 14.733927,6.76817509 C14.6155037,6.76657982 14.5011184,6.73031253 14.4036329,6.66346107 C13.9146351,6.28967114 13.3426587,6.04076034 12.7360602,5.93843921 L12.7360602,5.93843921 L12.7360602,8.77409298 C14.2264092,9.17689675 15.8213975,9.7569242 15.8213975,11.658128 C15.8213975,13.0759674 14.9352541,14.413246 12.7360104,14.5582404 L12.7360104,14.5582404 L12.7360104,15.4604859 C12.7360104,15.7319797 12.5160885,15.9519015 12.2445947,15.9519015 C11.969088,15.9655859 11.7346592,15.7529175 11.7217724,15.4774107 L11.7217724,15.4774107 L11.7209748,14.5743425 C10.6020228,14.5381002 9.53219991,14.1071052 8.70002129,13.3579052 C8.58563598,13.2418996 8.52199996,13.0856137 8.52267945,12.922897 C8.51798689,12.5507024 8.8039626,12.2397508 9.17533472,12.2139773 C9.3219493,12.2171928 9.46375318,12.2679421 9.57813849,12.3589717 C10.1855596,12.869705 10.9266836,13.195961 11.7129486,13.3014976 L11.7129486,13.3014976 L11.7129486,10.0791423 L11.7129486,10.0791423 L11.3813625,9.98741699 C10.0008174,9.59392295 8.66784186,9.03336374 8.66784186,7.34015146 C8.66784186,5.84982737 9.9003815,4.73005284 11.7129486,4.60116062 L11.7129486,4.60116062 L11.7129486,3.68278798 C11.7169866,3.40648353 11.944162,3.18653672 12.2196687,3.19046675 Z M12.7360602,10.3852831 L12.7360602,13.3175998 C13.9283194,13.1726054 14.3472255,12.4475835 14.3472255,11.8353268 C14.3552765,10.9894639 13.6463818,10.6430675 12.7360602,10.3852831 L12.7360602,10.3852831 Z M11.7210247,5.88205666 C10.7784987,5.95454139 10.1581909,6.49428846 10.1581909,7.24348852 C10.1581909,7.99268857 10.8429323,8.2585241 11.7210247,8.51630854 L11.7210247,8.51630854 L11.7210247,5.88205666 Z" id="Combined-Shape"></path>
                                </g>
                            </g>
                        </g>
                    </g>
                </g>
            </g>
        </g>
    </g>
</svg>