<?xml version="1.0" encoding="UTF-8"?>
<svg width="30px" height="30px" viewBox="0 0 30 30" version="1.1" xmlns="http://www.w3.org/2000/svg" xmlns:xlink="http://www.w3.org/1999/xlink">
    <title>818E75DC-95AD-4016-859D-C1A9E36C9492</title>
    <g id="Početna-&amp;-Dropdowns" stroke="none" stroke-width="1" fill="none" fill-rule="evenodd">
        <g id="Početna" transform="translate(-1565.000000, -34.000000)" fill="#383838" fill-rule="nonzero">
            <g id="Ikone" transform="translate(1513.000000, 26.000000)">
                <g id="Profile" transform="translate(52.769565, 8.769565)">
                    <path d="M14.5173913,0 C22.5269365,0 29.0363501,6.50767747 29.0347829,14.5173913 C29.0341791,17.4926159 28.1164124,20.3951042 26.4106615,22.8319465 C26.2709323,23.0389756 26.0304025,23.1545433 25.7814569,23.1342615 C25.5325113,23.1139797 25.31386,22.961002 25.2094848,22.7340856 C25.1051096,22.5071691 25.1312403,22.2415986 25.2778404,22.0393768 C26.8214459,19.8341767 27.6516278,17.208458 27.6521739,14.5173913 C27.653645,7.25523256 21.7797205,1.3826087 14.5173913,1.3826087 C7.25506354,1.3826087 1.3826087,7.25506354 1.3826087,14.5173913 C1.3826087,21.7797205 7.25485684,27.6562239 14.5167162,27.6521739 C17.2055435,27.6506638 19.8291441,26.8157088 22.0319504,25.2704144 C22.2338046,25.120303 22.5012625,25.091673 22.7303164,25.195658 C22.9593702,25.299643 23.1138703,25.5198319 23.1337353,25.7705986 C23.1536003,26.0213652 23.0356952,26.2631333 22.8258703,26.401885 C20.3923062,28.1090601 17.4926719,29.0330844 14.5180664,29.0347849 C6.50805389,29.0392792 0,22.5269365 0,14.5173913 C0,6.50784615 6.50784615,0 14.5173913,0 Z M14.5173913,2.76521688 C20.9999945,2.76331319 26.2695652,8.03503389 26.2695652,14.5173913 C26.2695652,20.9997501 20.9997501,26.2695652 14.5173913,26.2695652 C8.03503389,26.2695652 2.7631141,21.000019 2.76521676,14.5173913 C2.76570753,13.0051019 3.06169985,11.508121 3.63069794,10.108976 C3.72374967,9.88001551 3.93190209,9.7181061 4.17672,9.68425783 C4.42153791,9.65040955 4.6658128,9.74976683 4.81749792,9.94489022 C4.96918304,10.1400136 5.00522463,10.4012474 4.91204161,10.6301545 C4.40955702,11.8657448 4.14825746,13.1854061 4.14782609,14.5173913 C4.1471652,16.5572922 4.73612125,18.4561922 5.74984303,20.0586277 C6.72829792,18.983478 8.21642282,17.973913 10.3702403,17.973913 L10.3702403,17.973913 L18.6652174,17.973913 C20.8199705,17.973913 22.3057495,18.9849792 23.2835895,20.0606529 C24.2979631,18.4578558 24.8869565,16.5581311 24.8869565,14.5173913 C24.8869565,8.78225059 20.252287,4.14614069 14.5173913,4.14782609 C13.1853394,4.1482146 11.865741,4.40911805 10.6301545,4.91136621 C10.4012519,5.00452778 10.1400342,4.96847537 9.94492418,4.81679297 C9.74981413,4.66511056 9.65046231,4.42084914 9.68430287,4.17604249 C9.71814344,3.93123583 9.88003368,3.72308691 10.108976,3.63002288 C11.5082178,3.0612512 13.0052571,2.76565844 14.5173913,2.76521688 Z M24.3043435,23.6029126 C24.4840672,23.6054144 24.6557503,23.6778168 24.7829909,23.8047683 C24.9128102,23.9344361 24.9857547,24.1103944 24.9857547,24.2938795 C24.9857547,24.4773647 24.9128102,24.653323 24.7829909,24.7829909 C24.653323,24.9128102 24.4773647,24.9857547 24.2938795,24.9857547 C24.1103944,24.9857547 23.9344361,24.9128102 23.8047683,24.7829909 C23.674949,24.6533231 23.6020045,24.4773649 23.6020045,24.2938797 C23.6020045,24.1103945 23.674949,23.9344362 23.8047683,23.8047683 C23.9371387,23.6726852 24.1173715,23.5998613 24.3043435,23.6029126 Z M18.6652174,19.3565217 L10.3702403,19.3565217 C8.53807014,19.3565217 7.32313213,20.2637014 6.56401567,21.1765965 C8.4650252,23.4452206 11.3199839,24.8869565 14.5173913,24.8869565 C17.7125623,24.8869565 20.5645412,23.4471735 22.4653661,21.1813222 C21.7071173,20.2670366 20.5001479,19.3565217 18.6652174,19.3565217 L18.6652174,19.3565217 Z M14.5160412,6.91236842 C17.1804308,6.91236842 19.3565217,9.0884597 19.3565217,11.752849 C19.3565217,14.4172389 17.1804308,16.5906293 14.5160412,16.5906293 C11.8516512,16.5906293 9.67893593,14.4172389 9.67893593,11.752849 C9.67893593,9.0884597 11.8516512,6.91236842 14.5160412,6.91236842 Z M14.5160412,8.29565217 C12.5988686,8.29565217 11.0615446,9.83567709 11.0615446,11.752849 C11.0615446,13.6700226 12.5988686,15.2080206 14.5160412,15.2080206 C16.4332134,15.2080206 17.973913,13.6700226 17.973913,11.752849 C17.973913,9.83567709 16.4332134,8.29565217 14.5160412,8.29565217 Z" id="Combined-Shape"></path>
                </g>
            </g>
        </g>
    </g>
</svg>