<?xml version="1.0" encoding="UTF-8"?>
<svg width="16px" height="17px" viewBox="0 0 16 17" version="1.1" xmlns="http://www.w3.org/2000/svg" xmlns:xlink="http://www.w3.org/1999/xlink">
    <title>5871F13F-82D0-4A5F-A836-15E83CE5C4E4</title>
    <g id="CMS-&amp;-Blog-&amp;-Brand-list" stroke="none" stroke-width="1" fill="none" fill-rule="evenodd">
        <g id="CMS---export-" transform="translate(-382.000000, -3417.000000)" fill="#497A59" fill-rule="nonzero">
            <g id="Group-3" transform="translate(255.000000, 3374.000000)">
                <g id="Social-share" transform="translate(0.000000, 26.000000)">
                    <g id="viber" transform="translate(110.000000, 0.000000)">
                        <g id="Group-5" transform="translate(17.000000, 17.000000)">
                            <path d="M2.25286426,0.91311119 C2.63770234,0.783642482 3.01285576,0.784865808 3.36991415,0.916169506 C4.21324476,1.2261808 6.21481059,3.95567678 6.26410045,4.86282425 C6.30763047,5.66165637 5.69311287,6.07881066 5.36296766,6.30288327 C4.7815818,6.69781381 4.67448977,7.18306659 5.00483887,7.92542182 C5.68821955,9.46135907 6.8832565,10.6249463 8.55681795,11.3838674 C8.76422273,11.4780126 8.95419513,11.5257223 9.12138307,11.5257223 C9.40412438,11.5257223 9.633549,11.386416 9.82265487,11.0999028 C10.2494938,10.4536297 10.7666551,10.1258802 11.3598154,10.1258802 C11.800213,10.1258802 12.2663512,10.3028547 12.7848378,10.6670491 C12.8685336,10.7257688 12.9525355,10.7843356 13.0365371,10.8428513 C13.4413053,11.1250829 13.8598358,11.4168972 14.2532372,11.7334839 C14.3274013,11.793223 14.4066118,11.8537776 14.4832226,11.9122934 C15.0627734,12.3552395 15.7840263,12.906552 15.3889938,14.0219197 C14.938096,15.2957084 13.4699515,16.4130131 12.2472368,16.4130131 L12.2472368,16.4130131 L12.2265932,16.4130131 C12.2047262,16.4127072 12.1829102,16.4095979 12.1617569,16.4038381 C12.1232731,16.393287 12.0704662,16.3815633 12.0092998,16.367801 C11.8298277,16.3276861 11.584041,16.2726873 11.349723,16.1718648 C8.75005255,15.0524703 6.50621712,13.5625606 4.68060641,11.7436782 C2.81549245,9.88559846 1.33649087,7.63396431 0.284532138,5.0514204 C-0.0793564848,4.15818827 -0.0944951485,3.29951509 0.240747248,2.56822079 C0.587662216,1.81138954 1.28337811,1.23902571 2.25286426,0.91311119 Z M8.68190306,3.19744231e-14 C8.74898213,3.19744231e-14 8.81514371,0.00458747387 8.87350657,0.00856328457 C8.92177698,0.0118254882 8.96729492,0.01503672 9.00430054,0.01503672 C9.0274418,0.01503672 9.04094937,0.0137114497 9.04823835,0.0126410392 C9.06307117,0.0105511899 9.07775109,0.00973563899 9.09314462,0.0102453583 C12.8037484,0.135483395 16.0185482,3.50324992 15.9727242,7.21716682 C15.9720617,7.26701736 15.9746612,7.32395301 15.9773628,7.38440573 C15.9884746,7.63080405 16.0022371,7.93740022 15.8049248,8.14378557 C15.6918181,8.2621424 15.5337031,8.32208538 15.3349125,8.32208538 L15.3349125,8.32208538 L15.3152373,8.3218815 C14.6814014,8.30964824 14.6719716,7.71944424 14.6673841,7.43573446 C14.6661098,7.35601436 14.6648865,7.28072881 14.6570879,7.21900181 C14.1978817,3.58765943 12.5408351,1.88050748 8.93768022,1.32639161 C8.88645344,1.31854193 8.82493031,1.31405641 8.75994109,1.30936698 C8.49091124,1.2897428 7.93113748,1.24901622 7.96426923,0.67038285 C7.97864332,0.420008719 8.09098546,3.19744231e-14 8.68190306,3.19744231e-14 Z M8.9019489,2.09433474 C9.02810443,2.09433474 9.15313857,2.1149274 9.27404401,2.13495938 C9.33006215,2.14423626 9.38297103,2.15300344 9.43154728,2.15876326 C11.8737655,2.45210673 13.8446462,4.57345659 13.82492,6.88748037 C13.8248691,6.8981335 13.8241045,6.90878663 13.8225754,6.91938879 C13.8169175,6.96149161 13.8191093,7.02479875 13.821403,7.09172489 C13.8295584,7.32935604 13.8465321,7.8239367 13.3048533,7.90625637 C13.2506703,7.91451381 13.1986279,7.91869351 13.1502046,7.91869351 L13.1502046,7.91869351 L13.0337126,7.91071146 C12.5638596,7.84283193 12.534511,7.35905083 12.5198857,7.11756766 C12.5156549,7.04809292 12.5116792,6.98259399 12.5028611,6.92943027 C12.1417759,4.75384626 11.4029377,3.98299773 9.20869798,3.49269872 C9.15446385,3.48051643 9.08967852,3.47169828 9.02101933,3.46221751 C8.78675233,3.43015616 8.49509094,3.3901432 8.32933022,3.16474531 C8.23080148,3.03074011 8.19812847,2.85952538 8.2323816,2.65563766 C8.26760321,2.44593912 8.40140452,2.09433474 8.9019489,2.09433474 Z M9.30075329,4.25941853 C9.85568472,4.24601291 10.4657678,4.5354825 10.9718681,5.04948347 C11.4762354,5.5619043 11.7727901,6.20522105 11.7662656,6.77187602 C11.7841568,7.31482903 11.5862328,7.61479886 11.1779476,7.66337511 C11.1524106,7.6664844 11.1267718,7.66796259 11.1016936,7.66796259 L11.1016936,7.66796259 L11.0022033,7.65989297 C10.7115437,7.6119424 10.4938635,7.35452089 10.4586317,7.00114777 C10.3743751,6.15909145 9.95314305,5.70554321 9.1329537,5.57393367 C8.90679123,5.53748875 8.65815016,5.47107231 8.52837562,5.25433966 C8.43993931,5.106623 8.43137603,4.92659015 8.50288964,4.71923632 C8.65575447,4.27552565 9.09141157,4.26471961 9.30075329,4.25941853 Z" id="Combined-Shape"></path>
                        </g>
                    </g>
                </g>
            </g>
        </g>
    </g>
</svg>