<?xml version="1.0" encoding="UTF-8"?>
<svg width="18px" height="18px" viewBox="0 0 18 18" version="1.1" xmlns="http://www.w3.org/2000/svg" xmlns:xlink="http://www.w3.org/1999/xlink">
    <title>6F30CA2A-D41C-45DC-94EB-4429B00313D7</title>
    <g id="CMS-&amp;-Blog-&amp;-Brand-list" stroke="none" stroke-width="1" fill="none" fill-rule="evenodd">
        <g id="CMS---export-" transform="translate(-326.000000, -3416.000000)" fill="#497A59" fill-rule="nonzero">
            <g id="Group-3" transform="translate(255.000000, 3374.000000)">
                <g id="Social-share" transform="translate(0.000000, 26.000000)">
                    <g id="wapp" transform="translate(55.000000, 0.000000)">
                        <g id="whatsapp-1" transform="translate(16.000000, 16.000000)">
                            <path d="M18,8.76844818 C18,13.6107869 14.0439561,17.5363094 9.16287867,17.5363094 C7.61391725,17.5363094 6.15886785,17.1401181 4.89222944,16.446343 L0,18 L1.59474354,13.2944207 C0.790621842,11.9737829 0.327518179,10.4230606 0.327518179,8.76786124 C0.32810513,3.92552255 4.28297519,0 9.16405258,0 C14.044543,0.00117390028 18,3.92610951 18,8.76844818 Z M9.16229172,1.39811523 C5.06596669,1.39811523 1.73385072,4.70499234 1.73385072,8.77020903 C1.73385072,10.3831481 2.25975804,11.8763492 3.14898751,13.091336 L2.22160629,15.8282844 L5.07535788,14.9214466 C6.24925817,15.6915251 7.65382986,16.1399551 9.16229172,16.1399551 C13.2586167,16.1399551 16.5919076,12.8336649 16.5919076,8.76844818 C16.5930804,4.70499234 13.2592037,1.39811523 9.16229172,1.39811523 Z M13.6254606,10.7881436 C13.5702872,10.6995142 13.4258975,10.6455148 13.2098999,10.537516 C12.9944892,10.4295171 11.9280007,9.91006621 11.7301986,9.83963219 C11.5306356,9.76743732 11.3862458,9.73104641 11.241856,9.94645711 C11.0992272,10.1618678 10.6836666,10.6455148 10.5562983,10.7899045 C10.430104,10.9337072 10.3039098,10.9519027 10.0873252,10.8456648 C9.87074055,10.736492 9.17226988,10.5111032 8.34467018,9.77917633 C7.70078587,9.20866078 7.26585581,8.50608147 7.14024848,8.29067077 C7.0128803,8.07584702 7.12733558,7.95963089 7.23474746,7.85280596 C7.33159423,7.75595918 7.45133205,7.6015913 7.55991784,7.47539702 C7.66850362,7.35037664 7.70430757,7.26174717 7.77650245,7.11794438 C7.8475234,6.97414159 7.81171945,6.84912121 7.75830698,6.74053544 C7.70430757,6.63253661 7.27172532,5.57602635 7.09035772,5.1457919 C6.91016403,4.7161444 6.72997033,4.78716537 6.60318911,4.78716537 C6.47699483,4.78716537 6.33260509,4.76955686 6.18821536,4.76955686 C6.04382562,4.76955686 5.80904556,4.82179543 5.61124337,5.03720613 C5.41344116,5.25261683 4.85349073,5.77206771 4.85349073,6.82975186 C4.85349073,7.88860993 5.62885186,8.90931622 5.73743765,9.05253205 C5.84661037,9.19516094 7.23650831,11.4367236 9.4381583,12.2971925 C11.6409821,13.1570744 11.6409821,12.8700557 12.0377605,12.8336649 C12.4357127,12.7972739 13.3196596,12.314214 13.4992664,11.8129586 C13.680047,11.3093553 13.680047,10.877947 13.6254606,10.7881436 Z" id="whatsapp"></path>
                        </g>
                    </g>
                </g>
            </g>
        </g>
    </g>
</svg>