<?xml version="1.0" encoding="UTF-8"?>
<svg width="32px" height="36px" viewBox="0 0 32 36" version="1.1" xmlns="http://www.w3.org/2000/svg" xmlns:xlink="http://www.w3.org/1999/xlink">
    <title>F2500042-ED34-4714-9EE3-86411D15251B</title>
    <g id="PoÄetna-&amp;-Dropdowns" stroke="none" stroke-width="1" fill="none" fill-rule="evenodd">
        <g id="Prema-formi-izbornik" transform="translate(-1031.000000, -167.000000)" fill="#497B59" fill-rule="nonzero">
            <g id="kategorije" transform="translate(712.000000, 140.000000)">
                <g id="Group-54-Copy-2" transform="translate(290.000000, 0.000000)">
                    <g id="water-drop" transform="translate(29.000000, 26.999986)">
                        <path d="M18.6209374,7.87382363 C17.7522599,6.87150344 16.9504037,5.9360046 16.3490116,5.2009698 C16.3156009,5.13414846 16.2487796,5.10073778 16.2153689,5.06732711 C15.8478515,4.76663105 15.3132807,4.8334524 15.0125847,5.2009698 C14.4111926,5.9360046 13.6093364,6.87150344 12.7406589,7.87382363 C12.5401949,8.10769834 12.3397309,8.30816238 12.1726775,8.54203709 C11.2705893,7.30584219 10.2348585,6.10305797 9.3327703,5.06732711 C8.83161021,4.49934567 8.36386079,3.96477491 8.06316473,3.56384683 C8.02975406,3.49702549 7.96293271,3.46361481 7.92952204,3.43020414 C7.56200464,3.12950809 7.02743387,3.19632943 6.72673782,3.56384683 C6.39263109,3.96477491 5.92488167,4.49934567 5.42372158,5.10073778 C3.15179582,7.67335959 0.0446032483,11.2817123 0.0446032483,14.3889048 C0.0446032483,16.4269559 0.87987007,18.2311322 2.18288631,19.5675591 C2.71745708,20.1021299 3.31884919,20.5364686 3.98706265,20.903986 C3.88683063,21.2715034 3.78659861,21.6056102 3.71977726,21.9731276 C3.58613457,22.5745197 3.51931323,23.1759118 3.51931323,23.7773039 C3.51931323,27.1517819 4.88915081,30.1921531 7.09425522,32.3638468 C9.29935963,34.5689512 12.3397309,35.9387888 15.6807981,35.9387888 C19.0218654,35.9387888 22.0956473,34.5689512 24.2673411,32.3638468 C26.4724455,30.1587424 27.8422831,27.1183712 27.8422831,23.7773039 C27.8422831,18.5652389 22.4965754,12.3842645 18.6209374,7.87382363 Z M3.35225986,18.4315963 C2.34993968,17.4292761 1.71513689,15.9926171 1.71513689,14.4557262 C1.74854756,11.916515 4.62186543,8.57544776 6.69332715,6.16987931 C6.92720186,5.90259393 7.16107657,5.63530855 7.3615406,5.40143384 C7.56200464,5.66871922 7.79587935,5.90259393 8.02975406,6.16987931 C9.09889559,7.40607421 10.3685012,8.87614382 11.3708213,10.3796241 C11.8385708,11.1146589 12.2729095,11.816283 12.5401949,12.5179072 C12.5401949,12.5179072 12.5401949,12.5179072 12.5401949,12.5513178 C12.6070162,12.7183712 12.6738376,12.8520139 12.7072483,13.0190672 C12.7072483,13.0524779 12.7072483,13.0858886 12.7406589,13.1192993 C12.7740696,13.252942 12.8074803,13.3865847 12.840891,13.5202273 C12.840891,13.5870487 12.8743016,13.65387 12.8743016,13.7206914 C12.9077123,13.8209234 12.9077123,13.9211554 12.941123,13.9879768 C12.9745336,14.1550301 12.9745336,14.2886728 12.9745336,14.4557262 C12.9745336,15.4246357 12.7406589,16.3267239 12.3063202,17.12858 C12.0390348,17.5963294 11.7049281,18.0306682 11.3374107,18.4315963 C10.9698933,18.7991137 10.5021439,19.1332204 10.0343944,19.4005058 C9.23253828,19.8348445 8.33045012,20.0687192 7.3615406,20.0687192 C7.16107657,20.0687192 6.9940232,20.0687192 6.79355916,20.0353085 C6.76014849,20.0353085 6.76014849,20.0353085 6.72673782,20.0353085 C6.55968445,20.0018979 6.39263109,20.0018979 6.22557773,19.9684872 C6.19216705,19.9684872 6.15875638,19.9684872 6.12534571,19.9350765 C5.99170302,19.9016659 5.82464965,19.8682552 5.69100696,19.8348445 C5.65759629,19.8348445 5.62418561,19.8014338 5.59077494,19.8014338 C4.75550812,19.5341485 3.98706265,19.066399 3.35225986,18.4315963 Z M22.9977355,31.1610626 C21.0933271,33.065471 18.4872947,34.2348445 15.6139768,34.2348445 C12.7072483,34.2348445 10.1012158,33.065471 8.2302181,31.1610626 C6.35922042,29.2566543 5.18984687,26.6506218 5.18984687,23.7773039 C5.18984687,23.3095545 5.25666821,22.8083944 5.35690023,22.3072343 C5.42372158,22.0399489 5.49054292,21.7726635 5.55736427,21.5053782 C5.62418561,21.5053782 5.69100696,21.5387888 5.72441763,21.5387888 C5.79123898,21.5721995 5.891471,21.5721995 5.95829234,21.6056102 L5.99170302,21.6056102 C6.05852436,21.6056102 6.15875638,21.6390208 6.22557773,21.6390208 C6.35922042,21.6724315 6.49286311,21.6724315 6.6265058,21.7058422 C6.86038051,21.7392529 7.09425522,21.7392529 7.32812993,21.7392529 C9.36618097,21.7392529 11.1703573,20.903986 12.5067842,19.6009698 C12.6738376,19.4339164 12.840891,19.2668631 12.9745336,19.066399 C14.0102645,17.7967935 14.6450673,16.1930812 14.6450673,14.4223155 C14.6450673,14.2218515 14.6450673,14.0213874 14.6116566,13.8209234 C14.6116566,13.7206914 14.5782459,13.65387 14.5782459,13.553638 C14.5448353,13.453406 14.5448353,13.3197633 14.5114246,13.2195313 C14.4780139,13.0858886 14.4446032,12.9856566 14.4111926,12.8520139 C14.3777819,12.7517819 14.3777819,12.6849605 14.3443712,12.5847285 C14.3109606,12.4510858 14.2441392,12.3174431 14.1773179,12.1503898 C14.1439072,12.0835684 14.1439072,12.0167471 14.1104965,11.9499257 C14.1439072,11.9499257 14.1439072,11.916515 14.1104965,11.8831044 C13.8432111,11.2483016 13.5091044,10.6134988 13.1081763,9.97869602 C13.4088724,9.61117862 13.7095684,9.27707189 13.9768538,8.97637583 C14.5782459,8.30816238 15.1128167,7.63994892 15.6139768,7.03855681 C16.1151369,7.63994892 16.6831183,8.2747517 17.2510998,8.97637583 C20.9596845,13.252942 26.0715174,19.1666311 26.0715174,23.7773039 C26.0715174,26.6840324 24.9021439,29.2900649 22.9977355,31.1610626 Z" id="Shape"></path>
                        <path d="M31.0497077,7.1721995 L31.046116,7.16626911 C30.9730302,5.2018886 28.5170116,2.25064034 27.070413,0.593554489 L26.9067842,0.323011565 C26.8733735,0.289600893 26.8399629,0.222779547 26.7731415,0.189368874 C26.4056241,-0.111327182 25.8710534,-0.044505836 25.5703573,0.323011565 C25.4033039,0.556886275 25.1026079,0.890993004 24.8019118,1.25851041 C23.3986636,2.89563338 21.4274339,5.16755913 21.4274339,7.1721995 C21.4274339,8.50862641 21.9620046,9.71141064 22.8306821,10.5800881 C23.6993596,11.4487656 24.9021439,11.9833364 26.2385708,11.9833364 C27.5749977,11.9833364 28.7777819,11.4487656 29.6464594,10.5800881 C30.4976798,9.72886771 31.0266543,8.55657073 31.047703,7.25238512 L31.0497077,7.25572618 C31.0497077,7.24520182 31.0485383,7.2341763 31.0484548,7.22365194 C31.0486218,7.20644544 31.0497077,7.18948952 31.0497077,7.1721995 Z M28.4436752,9.37730391 C27.8756937,9.94528535 27.1072483,10.2793921 26.2385708,10.2793921 C25.3698933,10.2793921 24.6014478,9.94528535 24.0334664,9.37730391 C23.4654849,8.80932247 23.1313782,8.04087699 23.1313782,7.1721995 C23.1313782,5.76895124 24.8353225,3.79772154 26.0715174,2.36106261 L26.2385708,2.16059857 L26.4056241,2.36106261 C27.641819,3.79772154 29.3457633,5.76895124 29.3457633,7.1721995 C29.3457633,8.04087699 29.0116566,8.80932247 28.4436752,9.37730391 Z" id="Shape"></path>
                    </g>
                </g>
            </g>
        </g>
    </g>
</svg>