<?xml version="1.0" encoding="UTF-8"?>
<svg width="37px" height="37px" viewBox="0 0 37 37" version="1.1" xmlns="http://www.w3.org/2000/svg" xmlns:xlink="http://www.w3.org/1999/xlink">
    <title>42F7E026-2FD3-47C9-8051-AF060D9F6581</title>
    <g id="PoÄetna-&amp;-Dropdowns" stroke="none" stroke-width="1" fill="none" fill-rule="evenodd">
        <g id="Prema-formi-izbornik" transform="translate(-889.000000, -166.000000)" fill="#497A59" fill-rule="nonzero">
            <g id="kategorije" transform="translate(712.000000, 140.000000)">
                <g id="Group-54-Copy" transform="translate(145.000000, 0.000000)">
                    <g id="whey" transform="translate(32.000000, 26.000000)">
                        <g id="Group" transform="translate(2.452242, 2.452242)">
                            <path d="M1.24054581,10.473885 L18.4735302,10.473885 C18.8134542,10.473885 19.0889708,10.1982963 19.0889708,9.85844444 C19.0889708,9.51852047 18.8133821,9.2430039 18.4735302,9.2430039 L1.24054581,9.2430039 C0.900621832,9.2430039 0.625105263,9.51859259 0.625105263,9.85844444 C0.625105263,10.1982963 0.900621832,10.473885 1.24054581,10.473885 Z" id="Path_45_"></path>
                            <path d="M3.08693957,30.7842164 L1.24054581,30.7842164 L1.24054581,28.9378226 C1.24054581,28.5978986 0.964957115,28.3223821 0.625105263,28.3223821 C0.285253411,28.3223821 0.00966471735,28.5978986 0.00966471735,28.9378226 L0.00966471735,31.3996569 C0.00966471735,31.7395809 0.285253411,32.0150975 0.625105263,32.0150975 L3.08693957,32.0150975 C3.42686355,32.0150975 3.70238012,31.7395809 3.70238012,31.3996569 C3.70238012,31.0597329 3.42686355,30.7842164 3.08693957,30.7842164 L3.08693957,30.7842164 Z" id="Path_44_"></path>
                            <path d="M4.93333333,2.47279727 C5.27325731,2.47279727 5.54877388,2.19720858 5.54877388,1.85735673 L5.54877388,0.626403509 C5.54877388,0.286479532 5.27318519,0.010962963 4.93333333,0.010962963 C4.59340936,0.010962963 4.31789279,0.286551657 4.31789279,0.626403509 L4.31789279,1.85735673 C4.31789279,2.1972807 4.59340936,2.47279727 4.93333333,2.47279727 Z" id="Path_43_"></path>
                            <path d="M2.47149903,2.47279727 C2.811423,2.47279727 3.08693957,2.19720858 3.08693957,1.85735673 L3.08693957,0.626403509 C3.08693957,0.286479532 2.811423,0.010962963 2.47149903,0.010962963 C2.13157505,0.010962963 1.85605847,0.286551657 1.85605847,0.626403509 L1.85605847,1.85735673 C1.85598635,2.1972807 2.13157505,2.47279727 2.47149903,2.47279727 Z" id="Path_42_"></path>
                            <path d="M17.2426491,2.47279727 C17.5825731,2.47279727 17.8580897,2.19720858 17.8580897,1.85735673 L17.8580897,0.626403509 C17.8580897,0.286479532 17.5825731,0.010962963 17.2426491,0.010962963 C16.9027251,0.010962963 16.6272086,0.286551657 16.6272086,0.626403509 L16.6272086,1.85735673 C16.6271365,2.1972807 16.9027251,2.47279727 17.2426491,2.47279727 Z" id="Path_41_"></path>
                            <path d="M7.39516764,2.47279727 C7.73509162,2.47279727 8.01060819,2.19720858 8.01060819,1.85735673 L8.01060819,0.626403509 C8.01060819,0.286479532 7.73501949,0.010962963 7.39516764,0.010962963 C7.05531579,0.010962963 6.7797271,0.286479532 6.7797271,0.626403509 L6.7797271,1.85735673 C6.7797271,2.1972807 7.05531579,2.47279727 7.39516764,2.47279727 Z" id="Path_40_"></path>
                            <path d="M9.85707407,2.47279727 C10.1969981,2.47279727 10.4725146,2.19720858 10.4725146,1.85735673 L10.4725146,0.626403509 C10.4725146,0.286479532 10.1969259,0.010962963 9.85707407,0.010962963 C9.5171501,0.010962963 9.24163351,0.286551657 9.24163351,0.626403509 L9.24163351,1.85735673 C9.2415614,2.1972807 9.5171501,2.47279727 9.85707407,2.47279727 Z" id="Path_39_"></path>
                            <path d="M12.3189084,2.47279727 C12.6588324,2.47279727 12.9343489,2.19720858 12.9343489,1.85735673 L12.9343489,0.626403509 C12.9343489,0.286479532 12.6587602,0.010962963 12.3189084,0.010962963 C11.9789844,0.010962963 11.7034678,0.286551657 11.7034678,0.626403509 L11.7034678,1.85735673 C11.7034678,2.1972807 11.9789844,2.47279727 12.3189084,2.47279727 Z" id="Path_38_"></path>
                            <path d="M14.7807427,2.47279727 C15.1206667,2.47279727 15.3961832,2.19720858 15.3961832,1.85735673 L15.3961832,0.626403509 C15.3961832,0.286479532 15.1205945,0.010962963 14.7807427,0.010962963 C14.4408187,0.010962963 14.1653021,0.286551657 14.1653021,0.626403509 L14.1653021,1.85735673 C14.1653021,2.1972807 14.4408908,2.47279727 14.7807427,2.47279727 Z" id="Path_37_"></path>
                        </g>
                        <path d="M34.7737251,24.6199298 L26.9080877,24.6199298 L26.2003275,22.4953509 C25.9560409,21.7663138 25.3617329,21.2087173 24.6185595,21.0114561 L24.6185595,12.5137173 C24.6185595,11.8478616 24.4026179,11.1999649 24.0031189,10.6673236 L21.4723333,7.29455361 C22.24277,7.05726316 22.769425,6.34661793 22.7721657,5.54047953 L22.7721657,1.84769201 C22.7721657,0.827992203 21.9454717,0.00129824561 20.9257719,0.00129824561 L3.69278752,0.00129824561 C2.67308772,0.00129824561 1.84639376,0.827992203 1.84639376,1.84769201 L1.84639376,5.54047953 C1.84920663,6.34661793 2.3758616,7.05726316 3.14622612,7.29455361 L0.615440546,10.6697758 C0.21594152,11.2024893 0,11.850386 0,12.5161696 L0,33.8518986 C0.00201949318,35.5505809 1.37859259,36.927154 3.07734698,36.9292508 L23.5907817,36.9292508 C24.387039,36.9311209 25.0944386,36.4211988 25.3442066,35.665115 L27.5919025,28.92823 L34.7737251,28.92823 C35.3450253,28.9275088 35.8929571,28.7012534 36.2982261,28.2985809 C36.9153977,27.6824912 37.1002534,26.755039 36.7663158,25.9493333 C36.4323782,25.1436277 35.6458577,24.618848 34.7737251,24.6199298 Z M25.0334211,22.8848967 L25.6113567,24.6198577 L15.009306,24.6198577 L15.5872417,22.8854737 C15.7321404,22.4510663 16.1386355,22.1580234 16.5966277,22.1580234 L17.6250546,22.1580234 C18.3465185,22.1561481 19.025501,21.8165127 19.4597641,21.2403801 C19.6675556,20.9836881 19.9800721,20.8346062 20.3103314,20.8346062 C20.6405906,20.8346062 20.9531072,20.9837602 21.1608986,21.2403801 C21.5952339,21.8164405 22.2741442,22.1560039 22.9956082,22.1580234 L24.0240351,22.1580234 C24.481883,22.157807 24.8884503,22.4506335 25.0334211,22.8848967 L25.0334211,22.8848967 Z M12.4022125,27.0485146 L12.8237817,28.3126452 L1.23095322,28.3126452 L1.23095322,17.2342827 L23.3876784,17.2342827 L23.3876784,20.9270702 L22.9956082,20.9270702 C22.6611657,20.9260604 22.3464854,20.7686842 22.1450409,20.5017505 C21.7119318,19.9241754 21.0322281,19.5843236 20.3103314,19.5843236 C19.5884347,19.5843236 18.908731,19.9242476 18.4756218,20.5017505 C18.2741774,20.7686842 17.9594971,20.9260604 17.6250546,20.9270702 L16.5966277,20.9270702 C15.608807,20.9260604 14.7316257,21.5584503 14.4203353,22.4958558 L13.6910097,24.6813801 C13.2750663,24.7896394 12.9096101,25.0389747 12.6570292,25.3866881 C12.3067914,25.8662456 12.211731,26.4861579 12.4022125,27.0485146 Z M3.07734698,1.84776413 C3.07734698,1.50784016 3.35293567,1.23232359 3.69278752,1.23232359 L20.9257719,1.23232359 C21.2656959,1.23232359 21.5412125,1.50791228 21.5412125,1.84776413 L21.5412125,5.54055166 C21.5412125,5.88047563 21.2656238,6.1559922 20.9257719,6.1559922 L3.69278752,6.1559922 C3.35286355,6.1559922 3.07734698,5.88047563 3.07734698,5.54055166 L3.07734698,1.84776413 Z M1.60023197,11.4058811 L4.61598441,7.38694542 L20.002575,7.38694542 L23.0183275,11.403501 C23.2579981,11.7230858 23.3876062,12.1118382 23.3876062,12.5113372 L23.3876062,16.0034737 L1.23088109,16.0034737 L1.23088109,12.5137895 C1.23088109,12.1142183 1.36048928,11.7254659 1.60023197,11.4058811 Z M1.23095322,33.8518986 L1.23095322,29.5436706 L13.2325127,29.5436706 L15.2734269,35.6632398 C15.2777544,35.6755731 15.283885,35.6860312 15.2882125,35.6982924 L3.07734698,35.6982924 C2.05757505,35.6982924 1.23095322,34.8715984 1.23095322,33.8518986 L1.23095322,33.8518986 Z M35.4273918,27.4283236 C35.2535712,27.6007018 35.0185887,27.6974211 34.7737973,27.6972768 L24.0031189,27.6972768 C23.6631949,27.6972768 23.3876784,27.9728655 23.3876784,28.3127173 C23.3876784,28.6526413 23.6631949,28.9281579 24.0031189,28.9281579 L26.2945224,28.9281579 L24.1760741,35.2778772 C24.0919766,35.5295205 23.8560565,35.6989415 23.5907817,35.6982226 L17.0299532,35.6982226 C16.7637407,35.6987973 16.5273158,35.5282222 16.4440117,35.275425 L13.5704172,26.6588967 C13.5064425,26.4713723 13.5383938,26.2644464 13.6559571,26.1049786 C13.771501,25.9442125 13.9577992,25.8495127 14.1557096,25.8507977 L34.7737973,25.8507977 C35.1479805,25.8498733 35.4857407,26.0749025 35.6289805,26.4205965 C35.7721481,26.7663626 35.6925224,27.1642749 35.4273918,27.4283236 L35.4273918,27.4283236 Z" id="Shape_17_"></path>
                    </g>
                </g>
            </g>
        </g>
    </g>
</svg>