<?xml version="1.0" encoding="UTF-8"?>
<svg width="20px" height="20px" viewBox="0 0 20 20" version="1.1" xmlns="http://www.w3.org/2000/svg" xmlns:xlink="http://www.w3.org/1999/xlink">
    <title>zoom out</title>
    <g id="Product-category-&amp;-Details-&amp;-Cart" stroke="none" stroke-width="1" fill="none" fill-rule="evenodd">
        <g id="Lightbox" transform="translate(-1845.000000, -195.000000)" fill="#497A59" fill-rule="nonzero">
            <g id="slider-desno-copy-4" transform="translate(1825.000000, 175.000000)">
                <g id="Combined-Shape-3" transform="translate(20.000000, 20.000000)">
                    <path d="M8.41447718,0 C13.0618233,0 16.8289545,3.70709931 16.829608,8.28068843 C16.829608,10.4186944 15.9987712,12.3616381 14.64657,13.8307656 L14.64657,13.8307656 L19.810248,18.9119286 C20.0628258,19.1607483 20.0628258,19.5645982 19.8096598,19.8133852 C19.557082,20.0622049 19.147023,20.0622049 18.8944452,19.8133852 L18.8944452,19.8133852 L13.7107348,14.7121899 C12.2641233,15.8668452 10.4224525,16.5613769 8.41447718,16.5613769 C3.76713106,16.5613769 0,12.8542776 0,8.28068843 C0,3.70709931 3.76713106,0 8.41447718,0 Z M8.41447718,1.27403251 C4.48231604,1.27403251 1.29468578,4.41100996 1.29468578,8.28068843 C1.29468578,12.1503669 4.48231604,15.2873444 8.41447718,15.2873444 C12.3466711,15.2873444 15.5342686,12.1503669 15.5342686,8.28068843 C15.5342686,4.41100996 12.3466711,1.27403251 8.41447718,1.27403251 Z M12.7273182,8.18184744 L12.7273182,9.0909416 L4.5454708,9.0909416 L4.5454708,8.18184744 L12.7273182,8.18184744 Z" id="Combined-Shape"></path>
                </g>
            </g>
        </g>
    </g>
</svg>